<svg width="291" height="29" viewBox="0 0 291 29" fill="none" xmlns="http://www.w3.org/2000/svg">
<path d="M13.1487 28.6665C5.37004 28.6665 0.750226 25.1523 0 18.7162H7.18637C7.62071 21.9935 9.47653 23.4939 12.9513 23.4939C16.2681 23.4939 17.7685 22.3093 17.7685 20.8484C17.7685 18.6767 15.0045 17.887 11.6877 17.0578C6.59409 15.8337 0.197428 14.5307 0.197428 8.29197C0.197428 3.35627 4.54084 0 11.6482 0C19.111 0 23.8888 3.43524 24.639 9.67396H17.729C17.2157 6.79152 15.123 5.17261 11.8852 5.17261C8.80528 5.17261 7.54174 6.23872 7.54174 7.6602C7.54174 9.79242 10.4637 10.5821 13.9384 11.4508C18.9531 12.6749 25.0733 14.0963 25.0733 20.1376C25.0733 25.1918 20.572 28.6665 13.1487 28.6665Z" fill="black"/>
<path d="M34.3808 28.1532V5.96232H24.9438V0.513313H51.1622L49 6L41.7251 5.96232V28.1532H34.3808Z" fill="black"/>
<path d="M45.8276 28.1532L56.0939 0.513313H64.7017L74.9285 28.1532H67.1103L65.215 22.5463H55.0672L53.2114 28.1532H45.8276ZM60.1609 7.06792L56.6861 17.6106H63.5961L60.1609 7.06792Z" fill="black"/>
<path d="M75.8598 28.1532V0.513313H90.9038C97.0635 0.513313 100.617 3.47473 100.617 8.213C100.617 11.1744 96.7323 13.4579 96.5502 14.8071C96.3682 16.1562 100.538 17.4764 100.617 20.2009C100.696 23.2018 100.617 25.6562 100.617 28.1532H93.6283C93.6283 25.921 92.4034 20.2009 92.4034 20.2009C92.4034 20.2009 91.8514 17.4526 89.9956 17.4526H83.2041V28.1532H75.8598ZM89.9561 5.84386H83.2041V12.3195H89.9561C92.0883 12.3195 93.4309 11.1744 93.4309 9.08168C93.4309 6.94946 92.1278 5.84386 89.9561 5.84386Z" fill="black"/>
<path d="M110.923 28.1532V5.96232H101.486V0.513313H127.704V5.96232H118.267V28.1532H110.923Z" fill="black"/>
<path d="M141.506 28.706C133.964 28.706 129.147 24.6785 129.147 17.6895V0.513313H136.491V18.1239C136.491 21.2432 138.663 22.9806 141.625 22.9806C144.665 22.9806 146.837 21.2432 146.837 18.1634V0.513313H153.984V17.7685C153.984 24.718 149.127 28.706 141.506 28.706Z" fill="black"/>
<path d="M156.142 28.1532V0.513313H170.791C177.069 0.513313 180.899 3.86959 180.899 9.27911C180.899 14.5702 177.109 18.0054 170.91 18.0054H163.486V28.1532H156.142ZM169.883 5.88335H163.486V12.8328H169.883C172.252 12.8328 173.674 11.6482 173.674 9.39756C173.674 7.1074 172.252 5.88335 169.883 5.88335Z" fill="black"/>
<path d="M190.692 28.1532V0.513313H205.499C211.501 0.513313 214.896 3.43524 214.896 7.97608C214.896 10.6216 213.554 12.7933 211.027 14.0174C213.909 15.123 215.489 17.3736 215.489 20.4535C215.489 25.1128 211.975 28.1532 205.894 28.1532H190.692ZM204.551 5.80438H197.997V11.6877H204.551C206.486 11.6877 207.75 10.7006 207.75 8.76579C207.75 6.831 206.486 5.80438 204.551 5.80438ZM204.867 16.7419H197.997V22.9411H204.867C206.96 22.9411 208.263 21.9145 208.263 19.8612C208.263 17.8475 206.96 16.7419 204.867 16.7419Z" fill="black"/>
<path d="M214.991 28.1532L225.257 0.513313H233.865L244.092 28.1532H236.274L234.378 22.5463H224.23L222.375 28.1532H214.991ZM229.324 7.06792L225.849 17.6106H232.759L229.324 7.06792Z" fill="black"/>
<path d="M247 28L245.023 22V0.513313H252.367V22.7437H267.016V28.1532L247 28Z" fill="black"/>
<path d="M268.737 28.1532V0.513313H276.082V22.7437H290.731V28.1532H268.737Z" fill="black"/>
</svg>
