<svg width="36" height="42" viewBox="0 0 36 42" fill="none" xmlns="http://www.w3.org/2000/svg">
<g clip-path="url(#clip0_2700_11383)">
<path d="M35.273 3.66475C35.1915 3.65504 35.11 3.64532 35.0366 3.6457C34.9823 3.63922 34.9268 3.64175 34.8816 3.63636C34.8273 3.62988 34.7809 3.63349 34.7266 3.62701C34.6723 3.62054 34.626 3.62415 34.5716 3.61767C34.5173 3.6112 34.471 3.61481 34.4167 3.60833C34.3624 3.60185 34.316 3.60547 34.2617 3.59899C34.2074 3.59252 34.161 3.59613 34.1067 3.58965C34.0524 3.58317 34.0061 3.58678 33.9518 3.58031C33.8975 3.57383 33.8511 3.57744 33.7968 3.57097C33.7425 3.56449 33.6961 3.5681 33.6418 3.56163C33.5875 3.55515 33.5412 3.55876 33.4869 3.55229C33.4325 3.54581 33.3862 3.54942 33.3319 3.54295C33.2776 3.53647 33.2312 3.54008 33.1769 3.5336C33.1226 3.52713 33.0762 3.53074 33.0219 3.52426C32.9676 3.51779 32.9213 3.5214 32.867 3.51492C32.8127 3.50844 32.7663 3.51205 32.712 3.50558C32.6577 3.49911 32.6113 3.50272 32.556 3.50525C32.5016 3.49877 32.4553 3.50238 32.3999 3.50491C32.3456 3.49844 32.2993 3.50205 32.2439 3.50458C32.1896 3.4981 32.1432 3.50171 32.0878 3.50424C32.0335 3.49777 31.9872 3.50138 31.9318 3.50391C31.8775 3.49743 31.8311 3.50104 31.7758 3.50358C31.7214 3.4971 31.6751 3.50071 31.6287 3.50432C31.5744 3.49784 31.5281 3.50145 31.4818 3.50506C31.4275 3.49859 31.3811 3.5022 31.3348 3.50581C31.2895 3.50041 31.2341 3.50295 31.1878 3.50656C31.1425 3.50116 31.0871 3.50369 31.0408 3.5073C30.9955 3.5019 30.9401 3.50443 30.8938 3.50804C30.8485 3.50265 30.7931 3.50518 30.7468 3.50879C30.7015 3.50339 30.6462 3.50592 30.5998 3.50953C30.5546 3.50414 30.4992 3.50667 30.4528 3.51028C30.4075 3.50488 30.3522 3.50741 30.3058 3.51102C30.2606 3.50563 30.2052 3.50816 30.1588 3.51177C30.1136 3.50637 30.0582 3.5089 30.0119 3.51251C29.9666 3.50712 29.9203 3.51073 29.8648 3.51326C29.8196 3.50786 29.7732 3.51147 29.7179 3.51401C29.6726 3.50861 29.6263 3.51222 29.5709 3.51475C29.5245 3.51836 29.4793 3.51296 29.4239 3.51549C29.3775 3.5191 29.3323 3.51371 29.2859 3.51732C29.2396 3.52093 29.1943 3.51553 29.148 3.51914C29.1017 3.52275 29.0564 3.51736 29.0101 3.52097C28.9637 3.52458 28.9185 3.51918 28.8721 3.52279C28.8258 3.5264 28.7805 3.521 28.7251 3.52354C28.6788 3.52715 28.6335 3.52175 28.5782 3.52428C28.5318 3.52789 28.4865 3.5225 28.4402 3.52611C28.3939 3.52972 28.3486 3.52432 28.3023 3.52793C28.2559 3.53154 28.2107 3.52614 28.1643 3.52976C28.118 3.53337 28.0727 3.52797 28.0264 3.53158C27.9801 3.53519 27.9348 3.52979 27.8885 3.5334C27.8421 3.53701 27.7969 3.53162 27.7505 3.53523C27.7042 3.53884 27.6589 3.53344 27.6126 3.53705C27.5662 3.54066 27.521 3.53527 27.4747 3.53888C27.4283 3.54249 27.3831 3.53709 27.3367 3.5407C27.2904 3.54431 27.2451 3.53891 27.1988 3.54252C27.1524 3.54614 27.1072 3.54074 27.0608 3.54435C27.0145 3.54796 26.9692 3.54256 26.9229 3.54617C26.8765 3.54978 26.8313 3.54439 26.7849 3.548C26.7386 3.55161 26.6933 3.54621 26.647 3.54982C26.6007 3.55343 26.5554 3.54804 26.5091 3.55165C26.4627 3.55526 26.4164 3.55887 26.3711 3.55347C26.3248 3.55708 26.2785 3.56069 26.2332 3.5553C26.1869 3.55891 26.1405 3.56252 26.0942 3.56613C26.0478 3.56974 26.0015 3.57335 25.9642 3.57804C25.9179 3.58165 25.8715 3.58526 25.8343 3.58994C25.7879 3.59356 25.7416 3.59717 25.7043 3.60185C25.658 3.60546 25.6116 3.60907 25.5743 3.61377C25.528 3.61738 25.4817 3.62099 25.4444 3.62568C25.398 3.62929 25.3517 3.6329 25.3144 3.63759C25.2681 3.6412 25.2218 3.64481 25.1845 3.6495C25.1381 3.65311 25.0918 3.65672 25.0545 3.66141C25.0082 3.66502 24.9618 3.66863 24.9245 3.67332C24.8782 3.67693 24.8409 3.68162 24.7946 3.68523C24.7483 3.68884 24.711 3.69353 24.6646 3.69714C24.6183 3.70075 24.581 3.70544 24.5347 3.70905C24.4883 3.71266 24.451 3.71735 24.4047 3.72096C24.3584 3.72457 24.3211 3.72926 24.2748 3.73287C24.2284 3.73648 24.1911 3.74117 24.1448 3.74478C24.0985 3.74839 24.0612 3.75308 24.0148 3.75669C23.9685 3.7603 23.9312 3.76499 23.8849 3.7686C23.8386 3.77221 23.8013 3.7769 23.7549 3.78051C23.7086 3.78412 23.6713 3.78881 23.625 3.79242C23.5786 3.79603 23.5414 3.80072 23.495 3.80433C23.4487 3.80794 23.4114 3.81263 23.365 3.81624C23.3187 3.81985 23.2814 3.82454 23.2351 3.82815C23.1887 3.83176 23.1515 3.83645 23.1051 3.84006C23.0588 3.84367 23.0215 3.84836 22.9842 3.85305C22.9379 3.85666 22.9006 3.86135 22.8633 3.86604C22.817 3.86965 22.7797 3.87434 22.7424 3.87903C22.7051 3.88372 22.6588 3.88733 22.6215 3.89202C22.5842 3.89671 22.5379 3.90032 22.5006 3.90501C22.4633 3.9097 22.417 3.91331 22.3797 3.918C22.3424 3.92269 22.296 3.9263 22.2588 3.93099C22.2215 3.93568 22.1752 3.93929 22.1379 3.94398C22.1006 3.94867 22.0542 3.95228 22.017 3.95697C21.9797 3.96168 21.9333 3.96528 21.8961 3.96995C21.8588 3.97466 21.8124 3.97826 21.7752 3.98293C21.7379 3.98764 21.6915 3.99125 21.6542 3.99592C21.6169 4.00063 21.5706 4.00423 21.5333 4.00894C21.4961 4.01361 21.4497 4.01721 21.4124 4.02192C21.3751 4.02659 21.3288 4.0302 21.2915 4.03491C21.2542 4.03958 21.2079 4.04322 21.1706 4.04789C21.1333 4.0526 21.087 4.0562 21.0497 4.06087C21.0124 4.06558 20.9661 4.06919 20.9288 4.07386C20.8915 4.07857 20.8542 4.08324 20.8079 4.08688C20.7706 4.09155 20.7333 4.09626 20.687 4.09986C20.6497 4.10453 20.6124 4.10924 20.5661 4.11285C20.5288 4.11752 20.4915 4.12223 20.4542 4.1269C20.417 4.13161 20.3797 4.13628 20.3424 4.14099C20.3051 4.14566 20.2678 4.15037 20.2305 4.15504C20.1932 4.15975 20.1469 4.16336 20.1085 4.17705C20.0713 4.18172 20.034 4.18643 19.9956 4.20013C19.9583 4.2048 19.9211 4.20951 19.8827 4.22321C19.8454 4.22788 19.8081 4.23259 19.7698 4.24628C19.7325 4.25095 19.6952 4.25567 19.6568 4.26936C19.6195 4.27403 19.5823 4.27874 19.5439 4.29244C19.5066 4.29711 19.4693 4.30182 19.431 4.31552C19.3937 4.32019 19.3564 4.32486 19.318 4.33855C19.2807 4.34326 19.2435 4.34794 19.2051 4.36163C19.1678 4.36634 19.1306 4.37101 19.0922 4.38471C19.0549 4.38942 19.0176 4.39409 18.9793 4.40779C18.942 4.4125 18.9047 4.41717 18.8663 4.43086C18.829 4.43557 18.7918 4.44025 18.7534 4.45394C18.7161 4.45865 18.6788 4.46332 18.6405 4.47702C18.6032 4.48173 18.5659 4.4864 18.5275 4.5001C18.4903 4.50481 18.453 4.50948 18.4146 4.52317C18.3774 4.52788 18.3401 4.53255 18.3017 4.54625C18.2644 4.55096 18.2271 4.55563 18.1888 4.56933C18.1515 4.574 18.1142 4.57871 18.0849 4.59347C18.0476 4.59819 18.0002 4.61077 17.9629 4.61548C17.9256 4.62015 17.8873 4.63385 17.859 4.63963C17.8218 4.64434 17.7834 4.65804 17.7552 4.66378C17.7179 4.66849 17.6795 4.68218 17.6513 4.68796C17.614 4.69263 17.5756 4.70633 17.5474 4.71211C17.5101 4.71678 17.4718 4.73047 17.4435 4.73625C17.4062 4.74092 17.377 4.75573 17.3397 4.7604C17.3024 4.76511 17.2731 4.77988 17.2358 4.78455C17.1985 4.78926 17.1692 4.80402 17.1319 4.80873C17.0946 4.8134 17.0653 4.82817 17.028 4.83288C16.9907 4.83755 16.9614 4.85235 16.9242 4.85702C16.8869 4.86173 16.8576 4.8765 16.8203 4.88117C16.783 4.88588 16.7537 4.90065 16.7164 4.90536C16.6791 4.91003 16.6498 4.92479 16.6125 4.9295C16.5753 4.93417 16.5459 4.94898 16.5087 4.95365C16.4714 4.95832 16.4421 4.97312 16.4048 4.97779C16.3675 4.98251 16.3382 4.99727 16.3009 5.00194C16.2625 5.01564 16.2253 5.02035 16.1778 5.03297C16.1406 5.03765 16.1113 5.05241 16.074 5.05712C16.0367 5.06179 16.0074 5.0766 15.9701 5.08127C15.9328 5.08598 15.9035 5.10074 15.8753 5.10652C15.838 5.11119 15.8087 5.12596 15.7805 5.13174C15.7432 5.13645 15.7139 5.15121 15.6857 5.15699C15.6574 5.16273 15.619 5.17643 15.5908 5.18221C15.5626 5.18799 15.5242 5.20168 15.496 5.20742C15.4678 5.2132 15.4294 5.2269 15.4012 5.23268C15.3729 5.23845 15.3346 5.25215 15.3064 5.25789C15.2781 5.26367 15.2398 5.27737 15.2115 5.28315C15.1833 5.28892 15.1449 5.30262 15.1167 5.30836C15.0885 5.31414 15.0501 5.32784 15.0219 5.33361C14.9936 5.33939 14.9553 5.35309 14.9271 5.35883C14.8988 5.36461 14.8605 5.3783 14.8322 5.38408C14.804 5.38986 14.7656 5.40356 14.7374 5.4093C14.6991 5.42299 14.6607 5.43669 14.6223 5.45039C14.5941 5.45617 14.5558 5.46986 14.5275 5.47564C14.4993 5.48142 14.4609 5.49512 14.4316 5.50988C14.4034 5.51566 14.365 5.52936 14.3357 5.54412C14.3075 5.5499 14.2782 5.56467 14.2398 5.57836C14.2116 5.58414 14.1823 5.59891 14.1439 5.6126C14.1157 5.61838 14.0864 5.63315 14.048 5.64684C14.0198 5.65262 13.9905 5.66739 13.9522 5.68108C13.9239 5.68686 13.8946 5.70163 13.8653 5.71639C13.8371 5.72217 13.8078 5.73693 13.7785 5.75174C13.7502 5.75748 13.7209 5.77228 13.6916 5.78705C13.6634 5.79283 13.6341 5.80759 13.6048 5.82236C13.5765 5.82814 13.5472 5.8429 13.5179 5.85767C13.4897 5.86344 13.4604 5.87821 13.4311 5.89301C13.3927 5.90671 13.3544 5.92041 13.316 5.9341C13.2867 5.94887 13.2585 5.95465 13.2292 5.96941C13.1999 5.98418 13.1716 5.98995 13.1423 6.00472C13.113 6.01952 13.0848 6.02526 13.0555 6.04007C13.0262 6.05483 12.9979 6.06061 12.9686 6.07538C12.9393 6.09014 12.9111 6.09592 12.8818 6.11069C12.8525 6.12545 12.8242 6.13123 12.795 6.14599C12.7656 6.1608 12.7374 6.16654 12.7081 6.18134C12.6788 6.19611 12.6506 6.20189 12.6213 6.21665C12.592 6.23142 12.5637 6.2372 12.5344 6.25196C12.5051 6.26677 12.4769 6.27251 12.4476 6.28731C12.4183 6.30207 12.39 6.30785 12.3607 6.32262C12.3314 6.33738 12.3032 6.34316 12.2739 6.35793C12.2355 6.37162 12.1972 6.38532 12.1577 6.40804C12.1284 6.42281 12.1002 6.42858 12.08 6.44442C12.0506 6.45922 12.0224 6.46496 12.0022 6.48083C11.9728 6.4956 11.9446 6.50138 11.9243 6.51721C11.8951 6.53202 11.8668 6.53776 11.8466 6.55363C11.8173 6.56839 11.7891 6.57417 11.7688 6.59001C11.7395 6.60481 11.7112 6.61055 11.691 6.62642C11.6617 6.64119 11.6425 6.64804 11.6132 6.66284C11.5839 6.67761 11.5647 6.68446 11.5354 6.69922C11.5061 6.71398 11.4869 6.72083 11.4576 6.73564C11.4283 6.7504 11.4091 6.75725 11.3798 6.77201C11.3415 6.78571 11.302 6.80843 11.2727 6.8232C11.2434 6.83796 11.2242 6.84481 11.1949 6.85961C11.1656 6.87438 11.1464 6.88123 11.1172 6.89599C11.0879 6.91076 11.0687 6.9176 11.0394 6.93241C11.01 6.94717 10.9909 6.95402 10.9615 6.96879C10.9323 6.98359 10.9131 6.99044 10.8838 7.0052C10.8545 7.01997 10.8353 7.02682 10.806 7.04158C10.7767 7.05639 10.7575 7.06323 10.7282 7.078C10.6989 7.09276 10.6797 7.09961 10.6504 7.11438C10.6211 7.12918 10.6019 7.13603 10.5726 7.15079C10.5433 7.16556 10.5241 7.17241 10.5039 7.18828C10.4655 7.20197 10.4351 7.22577 10.3957 7.24845C10.3755 7.26432 10.3472 7.27006 10.327 7.28593C10.3067 7.30181 10.2774 7.31657 10.2582 7.32342C10.238 7.33925 10.2087 7.35406 10.1895 7.3609C10.1692 7.37674 10.1399 7.3915 10.1207 7.39835C10.1005 7.41422 10.0712 7.42899 10.052 7.43584C10.0318 7.45171 10.0025 7.46647 9.98327 7.47332C9.96305 7.4892 9.93371 7.50396 9.91455 7.51081C9.89429 7.52664 9.865 7.54145 9.8458 7.54829C9.82553 7.56413 9.79624 7.57893 9.77708 7.58578C9.73761 7.60846 9.70832 7.62323 9.6689 7.64595C9.64863 7.66178 9.61934 7.67659 9.60014 7.68343C9.57991 7.69927 9.55058 7.71407 9.53142 7.72092C9.51116 7.73675 9.48186 7.75152 9.46266 7.75837C9.44244 7.77424 9.41311 7.789 9.39288 7.80488C9.37261 7.82071 9.35234 7.83658 9.32305 7.85135C9.30279 7.86722 9.28256 7.88306 9.25323 7.89782C9.233 7.91369 9.21273 7.92953 9.18344 7.94433C9.16317 7.96016 9.14295 7.97604 9.11361 7.9908C9.08325 8.01459 9.04383 8.03727 9.01343 8.06106C8.99316 8.07694 8.97293 8.09277 8.95267 8.10864C8.93244 8.12448 8.91217 8.14035 8.8919 8.15618C8.87168 8.17206 8.85141 8.18793 8.83114 8.20376C8.81092 8.21964 8.79065 8.23547 8.77038 8.25134C8.75015 8.26718 8.72989 8.28305 8.70962 8.29888C8.68939 8.31476 8.66913 8.33059 8.64886 8.34646C8.62863 8.3623 8.60836 8.37817 8.5881 8.39404C8.56787 8.40988 8.5476 8.42575 8.52738 8.44158C8.49698 8.46537 8.45755 8.4881 8.42715 8.51185C8.40692 8.52772 8.38666 8.54355 8.36639 8.55943C8.34616 8.57526 8.32589 8.59113 8.30567 8.60701C8.2854 8.62284 8.26513 8.63871 8.24491 8.65455C8.22464 8.67042 8.20437 8.68625 8.18414 8.70213C8.16388 8.71796 8.14361 8.73383 8.12338 8.74967C8.10312 8.76554 8.08285 8.78137 8.06262 8.79725C8.04235 8.81312 8.02209 8.82895 8.00186 8.84483C7.97146 8.86858 7.9411 8.89237 7.90963 8.92518C7.8894 8.94101 7.86913 8.95689 7.84887 8.97272C7.82864 8.98859 7.80837 9.00443 7.79717 9.02137C7.7769 9.03724 7.75668 9.05308 7.74547 9.07002C7.72521 9.08589 7.70498 9.10173 7.69378 9.11867C7.67351 9.1345 7.65324 9.15037 7.64204 9.16732C7.62182 9.18315 7.60155 9.19902 7.59035 9.21596C7.57008 9.2318 7.55892 9.24874 7.53865 9.26461C7.50825 9.28836 7.47682 9.32118 7.44642 9.34493C7.42619 9.3608 7.41499 9.37774 7.39472 9.39358C7.37446 9.40945 7.36325 9.42639 7.34303 9.44223C7.32276 9.4581 7.31156 9.47504 7.29133 9.49087C7.27106 9.50675 7.25986 9.52365 7.23959 9.53952C7.21937 9.5554 7.20816 9.5723 7.1879 9.58817C7.16763 9.60401 7.15643 9.62095 7.1362 9.63682C7.1058 9.66061 7.07437 9.69339 7.05197 9.72727C7.0317 9.7431 7.0205 9.76005 7.00027 9.77588C6.98 9.79175 6.9688 9.80869 6.94853 9.82453C6.9283 9.8404 6.9171 9.85734 6.89684 9.87318C6.87657 9.88905 6.86541 9.90599 6.84514 9.92182C6.82487 9.9377 6.81367 9.9546 6.79344 9.97047C6.77318 9.98631 6.76197 10.0032 6.75077 10.0202C6.7193 10.053 6.69801 10.0779 6.66654 10.1106C6.65533 10.1276 6.63511 10.1434 6.6239 10.1604C6.6127 10.1773 6.59243 10.1931 6.58123 10.2101C6.57003 10.227 6.54976 10.2429 6.53856 10.2598C6.5274 10.2767 6.50713 10.2926 6.49593 10.3095C6.48473 10.3265 6.46446 10.3423 6.45326 10.3593C6.44206 10.3762 6.42183 10.392 6.41063 10.409C6.37916 10.4418 6.35675 10.4756 6.33546 10.5005C6.32425 10.5174 6.30399 10.5333 6.29279 10.5502C6.28158 10.5672 6.26132 10.583 6.25011 10.5999C6.23891 10.6169 6.21868 10.6327 6.20748 10.6497C6.19628 10.6666 6.17601 10.6825 6.16481 10.6994C6.15361 10.7163 6.14241 10.7333 6.12218 10.7491C6.09977 10.783 6.0683 10.8157 6.0459 10.8496C6.0347 10.8666 6.0235 10.8835 6.00327 10.8993C5.99207 10.9163 5.98086 10.9332 5.9606 10.9491C5.94939 10.966 5.93819 10.983 5.92699 10.9999C5.91579 11.0168 5.90463 11.0337 5.89342 11.0507C5.88222 11.0676 5.87102 11.0846 5.85982 11.1015C5.83741 11.1353 5.81501 11.1692 5.7926 11.2031C5.7814 11.22 5.7702 11.237 5.759 11.2539C5.74779 11.2708 5.73659 11.2877 5.72539 11.3047C5.71419 11.3216 5.70298 11.3386 5.69178 11.3555C5.68062 11.3725 5.66942 11.3894 5.65822 11.4063C5.64701 11.4232 5.63581 11.4402 5.62461 11.4571C5.6022 11.491 5.5798 11.5249 5.5574 11.5587C5.54619 11.5756 5.53499 11.5926 5.52379 11.6095C5.51259 11.6265 5.50138 11.6434 5.48911 11.6693C5.47791 11.6863 5.46671 11.7032 5.45444 11.7291C5.44324 11.746 5.43203 11.763 5.41976 11.789C5.40856 11.8059 5.39736 11.8228 5.38509 11.8488C5.36268 11.8826 5.34028 11.9165 5.32587 11.9604C5.31467 11.9774 5.30346 11.9943 5.29119 12.0202C5.27999 12.0372 5.26879 12.0541 5.26558 12.0811C5.25438 12.0981 5.24318 12.115 5.23997 12.142C5.22877 12.1589 5.21757 12.1759 5.21432 12.2029C5.20312 12.2199 5.19192 12.2368 5.18871 12.2638C5.16631 12.2977 5.1519 12.3416 5.13856 12.3766C5.12736 12.3935 5.12518 12.4115 5.11291 12.4375C5.1017 12.4544 5.09957 12.4724 5.0873 12.4983C5.07609 12.5153 5.07396 12.5333 5.06169 12.5593C5.05048 12.5762 5.04835 12.5942 5.03604 12.6201C5.02483 12.6371 5.0227 12.6551 5.01042 12.681C4.99708 12.716 4.97361 12.7588 4.96027 12.7938C4.94907 12.8107 4.94693 12.8287 4.93462 12.8547C4.92342 12.8716 4.92128 12.8896 4.90901 12.9156C4.89781 12.9325 4.89567 12.9505 4.8834 12.9765C4.8722 12.9934 4.87006 13.0114 4.85779 13.0374C4.84659 13.0543 4.84441 13.0723 4.83214 13.0982C4.81773 13.1422 4.80439 13.1771 4.78994 13.2211C4.7878 13.2391 4.7766 13.2561 4.7734 13.2831C4.77126 13.3011 4.76006 13.318 4.75681 13.345C4.75467 13.3631 4.74347 13.38 4.74026 13.407C4.73809 13.425 4.72688 13.4419 4.72368 13.469C4.70927 13.5129 4.69593 13.5479 4.69055 13.5929C4.68841 13.6109 4.67721 13.6278 4.67396 13.6549C4.67182 13.6729 4.66062 13.6898 4.65742 13.7168C4.65524 13.7349 4.64408 13.7518 4.64083 13.7788C4.63869 13.7968 4.62749 13.8138 4.62428 13.8408C4.62211 13.8588 4.60984 13.8847 4.6077 13.9027C4.59329 13.9467 4.58897 13.9827 4.57457 14.0267C4.57243 14.0447 4.56012 14.0706 4.55798 14.0886C4.55584 14.1066 4.54357 14.1326 4.54143 14.1506C4.53926 14.1686 4.53605 14.1957 4.52485 14.2126C4.52271 14.2306 4.51947 14.2576 4.50826 14.2746C4.50292 14.3196 4.48847 14.3635 4.4842 14.3996C4.48206 14.4176 4.47881 14.4446 4.47667 14.4626C4.47454 14.4806 4.47129 14.5076 4.46915 14.5257C4.46702 14.5437 4.46381 14.5707 4.46163 14.5887C4.4595 14.6067 4.45629 14.6337 4.45411 14.6517C4.45197 14.6698 4.44877 14.6968 4.44663 14.7148C4.44125 14.7598 4.43693 14.7959 4.43159 14.8409C4.43159 14.8409 4.43159 14.8409 4.43052 14.8499C4.42834 14.8679 4.42727 14.8769 4.42514 14.8949C4.42407 14.9039 4.42407 14.9039 4.423 14.913C4.42193 14.9219 4.41975 14.94 4.41868 14.949C4.41762 14.958 4.41655 14.967 4.41548 14.976C4.41441 14.985 4.41334 14.994 4.41223 15.003C4.41116 15.012 4.40903 15.03 4.40796 15.039C4.40689 15.0481 4.40689 15.0481 4.40582 15.057C4.40364 15.0751 4.40257 15.0841 4.40044 15.1021L4.39937 15.1111C4.39398 15.1561 4.38971 15.1921 4.38433 15.2372C4.38219 15.2552 4.37898 15.2822 4.3768 15.3002C4.37467 15.3183 4.37146 15.3453 4.36928 15.3633C4.36715 15.3813 4.36394 15.4083 4.36176 15.4263C4.35963 15.4443 4.35642 15.4714 4.35428 15.4894C4.3521 15.5074 4.3489 15.5344 4.34676 15.5524C4.34138 15.5974 4.34506 15.6436 4.34078 15.6796C4.33861 15.6976 4.3354 15.7246 4.34229 15.7437C4.34015 15.7617 4.33694 15.7888 4.34383 15.8078C4.34169 15.8258 4.33849 15.8529 4.34538 15.872C4.34324 15.89 4.33999 15.917 4.34692 15.9361C4.34478 15.9541 4.3506 15.9822 4.34846 16.0002C4.34308 16.0453 4.34783 16.0823 4.35151 16.1285C4.34937 16.1465 4.35519 16.1746 4.35305 16.1926C4.35092 16.2106 4.35674 16.2387 4.3546 16.2567C4.35246 16.2747 4.35828 16.3028 4.35614 16.3208C4.35396 16.3389 4.35982 16.367 4.35769 16.385C4.36137 16.4311 4.36612 16.4682 4.36073 16.5132C4.3586 16.5312 4.36442 16.5593 4.36228 16.5773C4.36014 16.5954 4.36596 16.6235 4.36382 16.6415C4.36964 16.6696 4.36536 16.7056 4.37118 16.7337C4.37593 16.7708 4.38068 16.8079 4.38543 16.8451C4.38912 16.8911 4.39284 16.9372 4.40554 16.9845C4.41029 17.0216 4.41508 17.0586 4.41983 17.0958C4.42458 17.1329 4.42933 17.17 4.43408 17.2071C4.43887 17.2442 4.44362 17.2813 4.44837 17.3184C4.45205 17.3645 4.4648 17.4117 4.46848 17.4578C4.47323 17.4949 4.47798 17.532 4.4918 17.5702C4.49655 17.6073 4.50134 17.6444 4.51511 17.6826C4.51879 17.7287 4.53154 17.7759 4.54428 17.8231C4.54903 17.8602 4.56285 17.8984 4.56867 17.9265C4.57346 17.9636 4.58723 18.0018 4.59309 18.0299C4.59784 18.067 4.61166 18.1052 4.61747 18.1333C4.63022 18.1805 4.64297 18.2277 4.65678 18.2659C4.66153 18.303 4.67642 18.3321 4.69023 18.3703C4.69498 18.4074 4.70986 18.4366 4.72368 18.4748C4.73749 18.513 4.74331 18.5411 4.75713 18.5793C4.76987 18.6264 4.78365 18.6646 4.79639 18.7118C4.81021 18.75 4.81603 18.7781 4.82984 18.8163C4.84366 18.8545 4.84948 18.8826 4.86329 18.9208C4.87711 18.9589 4.88296 18.9871 4.89674 19.0253C4.90949 19.0724 4.9233 19.1106 4.94618 19.1499C4.95999 19.1881 4.97488 19.2173 4.98865 19.2554C5.00247 19.2936 5.01735 19.3228 5.03224 19.352C5.04605 19.3902 5.06093 19.4194 5.07582 19.4485C5.08963 19.4867 5.11144 19.535 5.13428 19.5742C5.14917 19.6034 5.16298 19.6416 5.17786 19.6708C5.19275 19.7 5.20656 19.7382 5.22145 19.7673C5.23633 19.7965 5.25014 19.8347 5.26503 19.8639C5.28791 19.9031 5.30168 19.9413 5.32349 19.9896C5.33838 20.0188 5.35219 20.057 5.3761 20.0872C5.39098 20.1164 5.4048 20.1546 5.42875 20.1849C5.44363 20.214 5.45745 20.2522 5.48139 20.2825C5.50423 20.3217 5.52711 20.361 5.54995 20.4003C5.56484 20.4295 5.58879 20.4597 5.6026 20.4979C5.61748 20.5271 5.64143 20.5573 5.65525 20.5955C5.67013 20.6247 5.69404 20.655 5.70892 20.6841C5.7318 20.7234 5.75468 20.7627 5.77752 20.8019C5.7924 20.8311 5.81635 20.8614 5.83124 20.8905C5.84612 20.9197 5.87007 20.95 5.88495 20.9792C5.89984 21.0083 5.92374 21.0386 5.94769 21.0689C5.96258 21.098 5.98652 21.1283 6.01043 21.1585C6.03331 21.1978 6.05726 21.2281 6.08917 21.2684C6.11311 21.2987 6.128 21.3278 6.15191 21.3581C6.17585 21.3884 6.19074 21.4175 6.21469 21.4478C6.23863 21.4781 6.25352 21.5072 6.27743 21.5375C6.30137 21.5678 6.31626 21.5969 6.34021 21.6272C6.36305 21.6664 6.39606 21.6978 6.4189 21.7371C6.44285 21.7673 6.45773 21.7965 6.48275 21.8177C6.5067 21.848 6.53061 21.8783 6.54656 21.8984C6.57051 21.9287 6.59445 21.9589 6.61041 21.9791C6.6184 21.9892 6.6184 21.9892 6.62636 21.9993C6.60502 22.0242 6.58373 22.049 6.56239 22.0739C6.53092 22.1067 6.50852 22.1405 6.47709 22.1733C6.44562 22.2061 6.42321 22.24 6.39178 22.2728C6.36031 22.3056 6.33791 22.3394 6.30644 22.3722C6.27501 22.405 6.25261 22.4389 6.22114 22.4717C6.18971 22.5044 6.1673 22.5383 6.13583 22.5711C6.1044 22.6039 6.082 22.6378 6.05053 22.6705C6.0191 22.7034 5.9967 22.7372 5.97429 22.7711C5.94282 22.8039 5.92042 22.8377 5.89695 22.8806C5.86552 22.9134 5.84311 22.9473 5.82071 22.9811C5.7983 23.015 5.76683 23.0478 5.74336 23.0907C5.72096 23.1245 5.68953 23.1573 5.66605 23.2002C5.64365 23.2341 5.61218 23.2669 5.58871 23.3097C5.5663 23.3436 5.53487 23.3764 5.5114 23.4193C5.48899 23.4531 5.45752 23.4859 5.43405 23.5288C5.41165 23.5627 5.38022 23.5955 5.35674 23.6383C5.33434 23.6722 5.30287 23.705 5.2794 23.7479C5.25699 23.7817 5.22556 23.8145 5.20209 23.8574C5.17969 23.8913 5.15728 23.9251 5.13381 23.968C5.1114 24.0019 5.089 24.0357 5.06552 24.0786C5.04312 24.1125 5.01965 24.1554 4.99724 24.1892C4.97484 24.2231 4.95137 24.266 4.92896 24.2998C4.90656 24.3337 4.88308 24.3766 4.86068 24.4104C4.83831 24.4443 4.81484 24.4872 4.79244 24.5211C4.77003 24.5549 4.74656 24.5978 4.72415 24.6317C4.70175 24.6656 4.67828 24.7084 4.65587 24.7423C4.63347 24.7762 4.60999 24.819 4.58759 24.8529C4.56518 24.8868 4.54278 24.9206 4.51931 24.9635C4.4969 24.9974 4.47343 25.0403 4.45102 25.0741C4.42866 25.108 4.40519 25.1509 4.38278 25.1847C4.36038 25.2186 4.3369 25.2615 4.3145 25.2953C4.2921 25.3292 4.26862 25.3721 4.24622 25.406C4.22381 25.4398 4.20034 25.4827 4.187 25.5176C4.1646 25.5515 4.14112 25.5944 4.12778 25.6294C4.10538 25.6632 4.0819 25.7061 4.06856 25.741C4.04616 25.7749 4.02269 25.8178 4.00931 25.8527C3.98694 25.8866 3.96343 25.9295 3.9501 25.9644C3.9277 25.9983 3.90422 26.0411 3.89088 26.0761C3.86848 26.11 3.85406 26.1539 3.83166 26.1878C3.80925 26.2217 3.79483 26.2656 3.77243 26.2995C3.75003 26.3334 3.73561 26.3773 3.71321 26.4112C3.69081 26.4451 3.67639 26.489 3.65399 26.5229C3.63159 26.5567 3.61717 26.6007 3.59477 26.6345C3.57236 26.6684 3.55794 26.7124 3.53554 26.7463C3.51314 26.7801 3.49872 26.8241 3.47632 26.858C3.45392 26.8918 3.43949 26.9358 3.41709 26.9696C3.39469 27.0035 3.38027 27.0474 3.35787 27.0813C3.33547 27.1152 3.32105 27.1591 3.29865 27.193C3.27625 27.2269 3.26182 27.2709 3.24848 27.3058C3.22608 27.3397 3.21166 27.3836 3.19831 27.4185C3.17591 27.4524 3.16149 27.4964 3.14814 27.5313C3.12574 27.5652 3.11131 27.6091 3.09797 27.6441C3.07557 27.678 3.06115 27.7219 3.0478 27.7569C3.03445 27.7918 3.01097 27.8347 2.99763 27.8696C2.98428 27.9046 2.9608 27.9475 2.94746 27.9824C2.93411 28.0174 2.91064 28.0602 2.89729 28.0952C2.88394 28.1301 2.86154 28.164 2.84712 28.208C2.83377 28.2429 2.81137 28.2768 2.79695 28.3207C2.7836 28.3557 2.7612 28.3895 2.74677 28.4335C2.73343 28.4684 2.71103 28.5023 2.69661 28.5463C2.68326 28.5812 2.66086 28.6151 2.64644 28.659C2.63309 28.694 2.61069 28.7279 2.59626 28.7718C2.58292 28.8068 2.56052 28.8406 2.5461 28.8846C2.53275 28.9195 2.50927 28.9624 2.49592 28.9973C2.48258 29.0323 2.46923 29.0673 2.44575 29.1101C2.43241 29.1451 2.41906 29.18 2.40464 29.224C2.39129 29.2589 2.37794 29.2939 2.36352 29.3378C2.35017 29.3728 2.33682 29.4077 2.3224 29.4517C2.30906 29.4866 2.29571 29.5216 2.28236 29.5565C2.26901 29.5915 2.25566 29.6264 2.24231 29.6614C2.22897 29.6963 2.21562 29.7312 2.20227 29.7662C2.18892 29.8011 2.17557 29.8361 2.16223 29.871C2.14888 29.906 2.13553 29.9409 2.12218 29.9759C2.10884 30.0108 2.09549 30.0458 2.08214 30.0807C2.06879 30.1157 2.05545 30.1506 2.0421 30.1856C2.02875 30.2205 2.0154 30.2554 2.00205 30.2904C1.9887 30.3253 1.97536 30.3603 1.96201 30.3953C1.94866 30.4302 1.93531 30.4652 1.92196 30.5001C1.90862 30.535 1.89527 30.57 1.88192 30.6049C1.86857 30.6399 1.85415 30.6838 1.84081 30.7188C1.82746 30.7537 1.81411 30.7887 1.80076 30.8236C1.78741 30.8586 1.77406 30.8935 1.76072 30.9285C1.74737 30.9634 1.73402 30.9984 1.72067 31.0333C1.70732 31.0683 1.69398 31.1032 1.68063 31.1382C1.66728 31.1731 1.65393 31.208 1.64059 31.243C1.62724 31.2779 1.61389 31.3129 1.60054 31.3478C1.5872 31.3828 1.57384 31.4177 1.56955 31.4538C1.5562 31.4887 1.54285 31.5237 1.53856 31.5597C1.52521 31.5946 1.51186 31.6296 1.50757 31.6656C1.49422 31.7006 1.48087 31.7355 1.47765 31.7625C1.4643 31.7975 1.45096 31.8324 1.44773 31.8594C1.43439 31.8944 1.42104 31.9293 1.41782 31.9564C1.40447 31.9913 1.39219 32.0172 1.3879 32.0533C1.37455 32.0882 1.36228 32.1141 1.35798 32.1502C1.34463 32.1851 1.34142 32.2122 1.32806 32.2471C1.31472 32.2821 1.3115 32.3091 1.29815 32.344C1.2848 32.379 1.28158 32.406 1.26823 32.441C1.25488 32.4759 1.25166 32.5029 1.23831 32.5379C1.22497 32.5728 1.22175 32.5998 1.2084 32.6348C1.19505 32.6697 1.18063 32.7137 1.17633 32.7497C1.16298 32.7847 1.15976 32.8117 1.14641 32.8466C1.13307 32.8816 1.12985 32.9086 1.1165 32.9435C1.10315 32.9785 1.09993 33.0055 1.08658 33.0404C1.07323 33.0754 1.07001 33.1024 1.05666 33.1374C1.04439 33.1633 1.04009 33.1993 1.02782 33.2253C1.01554 33.2512 1.01125 33.2872 0.998975 33.3132C0.986704 33.3391 0.982409 33.3751 0.970134 33.4011C0.957859 33.427 0.953564 33.463 0.941289 33.489C0.929014 33.5149 0.924719 33.551 0.912444 33.5769C0.900173 33.6028 0.895878 33.6389 0.883603 33.6648C0.871328 33.6907 0.867034 33.7268 0.854759 33.7527C0.842484 33.7786 0.838189 33.8147 0.825918 33.8406C0.813643 33.8666 0.809348 33.9026 0.806126 33.9296C0.793851 33.9555 0.790629 33.9826 0.786334 34.0186C0.774059 34.0445 0.770841 34.0716 0.766542 34.1076C0.754271 34.1335 0.751049 34.1606 0.746754 34.1966C0.734479 34.2225 0.731257 34.2495 0.728035 34.2766C0.715764 34.3025 0.712542 34.3295 0.709319 34.3565C0.706097 34.3836 0.693822 34.4095 0.690604 34.4365C0.687382 34.4635 0.675107 34.4895 0.671885 34.5165C0.668663 34.5435 0.656392 34.5695 0.65317 34.5965C0.649947 34.6235 0.637672 34.6495 0.63445 34.6765C0.631228 34.7035 0.618957 34.7294 0.615735 34.7564C0.602387 34.7914 0.59702 34.8364 0.583668 34.8714C0.58045 34.8984 0.568175 34.9243 0.564953 34.9514C0.561731 34.9784 0.549456 35.0043 0.546238 35.0313C0.543016 35.0584 0.530741 35.0843 0.527518 35.1113C0.524296 35.1384 0.512025 35.1643 0.509876 35.1823C0.506654 35.2093 0.494379 35.2353 0.492233 35.2533C0.489011 35.2803 0.477813 35.2972 0.474591 35.3242C0.471369 35.3513 0.46017 35.3682 0.456948 35.3952C0.453726 35.4223 0.442524 35.4392 0.439306 35.4662C0.436084 35.4932 0.424881 35.5101 0.421659 35.5372C0.418441 35.5642 0.407239 35.5811 0.404017 35.6081C0.400794 35.6352 0.389596 35.6521 0.386374 35.6791C0.383153 35.7061 0.371953 35.7231 0.368732 35.7501C0.366584 35.7681 0.35431 35.794 0.352162 35.8121C0.350015 35.8301 0.33774 35.856 0.335593 35.874C0.333445 35.892 0.321171 35.918 0.319024 35.936C0.316876 35.954 0.304602 35.9799 0.302454 35.998C0.300307 36.016 0.297085 36.043 0.285885 36.0599C0.283738 36.0779 0.280516 36.105 0.269316 36.1219C0.267168 36.1399 0.26502 36.1579 0.252746 36.1838C0.250599 36.2019 0.248451 36.2199 0.236177 36.2458C0.234029 36.2638 0.231882 36.2819 0.220682 36.2988C0.218534 36.3168 0.216386 36.3348 0.205186 36.3518C0.203038 36.3698 0.200891 36.3878 0.189691 36.4047C0.187543 36.4227 0.185395 36.4407 0.174195 36.4577C0.172048 36.4757 0.1699 36.4937 0.1587 36.5107C0.156552 36.5287 0.154404 36.5467 0.152257 36.5647C0.150109 36.5827 0.147962 36.6007 0.145814 36.6187C0.143666 36.6367 0.141519 36.6547 0.139371 36.6727C0.137223 36.6908 0.135076 36.7088 0.134002 36.7178C0.131855 36.7358 0.129707 36.7538 0.128633 36.7628C0.126485 36.7809 0.125412 36.7898 0.123264 36.8078C0.118969 36.8439 0.104547 36.8878 0.100252 36.9239C0.0981046 36.9419 0.0970307 36.9509 0.0948833 36.9689C0.0927358 36.9869 0.0916619 36.9959 0.0895141 37.0139C0.0873667 37.0319 0.0862928 37.041 0.0841453 37.059C0.0819975 37.077 0.080924 37.086 0.0787762 37.104C0.0777027 37.113 0.0755548 37.131 0.0744813 37.14C0.0734074 37.149 0.07126 37.167 0.0701861 37.1761C0.0691122 37.185 0.0669643 37.2031 0.0658904 37.2121C0.0648169 37.2211 0.0626691 37.2391 0.0615956 37.2481C0.0605217 37.2571 0.0583742 37.2751 0.0573003 37.2841C0.0562264 37.2931 0.0551529 37.3021 0.0530051 37.3201C0.0519315 37.3292 0.0508576 37.3382 0.0487102 37.3562C0.0476363 37.3652 0.0465624 37.3742 0.0454885 37.3832C0.0444146 37.3922 0.043341 37.4012 0.0422671 37.4102C0.0411936 37.4192 0.0401193 37.4282 0.0390458 37.4372C0.0379719 37.4463 0.0368984 37.4553 0.0358245 37.4643C0.0347506 37.4733 0.0336769 37.4823 0.0326031 37.4913C0.0315293 37.5003 0.0304553 37.5093 0.0293815 37.5183C0.0283077 37.5273 0.0272342 37.5363 0.0272342 37.5363C0.0261603 37.5453 0.0250864 37.5543 0.0250864 37.5543C0.0240126 37.5633 0.0240125 37.5633 0.0229387 37.5724C0.0218649 37.5814 0.0218651 37.5814 0.0207913 37.5904C0.0197175 37.5994 0.0197174 37.5994 0.0186436 37.6084C0.0175698 37.6174 0.01757 37.6174 0.0164961 37.6264L0.0154223 37.6354L0.0143484 37.6444L0.0132746 37.6534L0.0122007 37.6624L0.0111272 37.6714C0.0111272 37.6714 0.0111271 37.6714 0.0100533 37.6804C0.00575814 37.7165 0.000388937 37.7615 -0.00390625 37.7975L4.73065 38.362C4.73175 38.353 4.73175 38.353 4.73282 38.344C4.73389 38.335 4.73389 38.335 4.73496 38.326C4.73603 38.3169 4.7371 38.308 4.7371 38.308C4.73817 38.2989 4.73923 38.2899 4.73923 38.2899C4.74034 38.2809 4.74141 38.2719 4.74248 38.2629C4.74355 38.2539 4.74462 38.2449 4.74569 38.2359C4.74676 38.2269 4.74782 38.2179 4.74893 38.2089C4.75 38.1999 4.75107 38.1909 4.75214 38.1818C4.75321 38.1729 4.75428 38.1638 4.75535 38.1548C4.75645 38.1458 4.75752 38.1368 4.75859 38.1278C4.75966 38.1188 4.76073 38.1098 4.7618 38.1008C4.76287 38.0918 4.76394 38.0828 4.76611 38.0648C4.76718 38.0558 4.76825 38.0467 4.77039 38.0287C4.77146 38.0197 4.77363 38.0017 4.7747 37.9927C4.77577 37.9837 4.77791 37.9657 4.77898 37.9567C4.78005 37.9477 4.78222 37.9297 4.78329 37.9207C4.78436 37.9116 4.7865 37.8936 4.78757 37.8846C4.78864 37.8756 4.79081 37.8576 4.79188 37.8486C4.79402 37.8306 4.79509 37.8216 4.79723 37.8036C4.7994 37.7856 4.80047 37.7765 4.80261 37.7585C4.80368 37.7495 4.80368 37.7495 4.80475 37.7405C4.80688 37.7225 4.80799 37.7135 4.81013 37.6955C4.81227 37.6775 4.81334 37.6685 4.81551 37.6504C4.81765 37.6324 4.81979 37.6144 4.82086 37.6054C4.82299 37.5874 4.82517 37.5694 4.82624 37.5604C4.82838 37.5424 4.83052 37.5244 4.83269 37.5063C4.83483 37.4883 4.83697 37.4703 4.83911 37.4523C4.84128 37.4343 4.84342 37.4163 4.85462 37.3993C4.85676 37.3813 4.8589 37.3633 4.8701 37.3464C4.87224 37.3284 4.87441 37.3104 4.88562 37.2934C4.88775 37.2754 4.88989 37.2574 4.90109 37.2405C4.90323 37.2224 4.90541 37.2044 4.91661 37.1875C4.91875 37.1695 4.92089 37.1515 4.93209 37.1345C4.93423 37.1165 4.9364 37.0985 4.9476 37.0816C4.94974 37.0636 4.95188 37.0455 4.96415 37.0196C4.96629 37.0016 4.96847 36.9836 4.98074 36.9576C4.98287 36.9396 4.98501 36.9216 4.99728 36.8957C4.99946 36.8777 5.01173 36.8517 5.01387 36.8337C5.01601 36.8157 5.02828 36.7898 5.03041 36.7717C5.03259 36.7537 5.04486 36.7278 5.047 36.7098C5.04914 36.6917 5.06141 36.6658 5.06359 36.6478C5.06572 36.6298 5.07799 36.6038 5.08013 36.5858C5.08227 36.5678 5.09458 36.5419 5.09672 36.5239C5.09886 36.5059 5.11113 36.4799 5.11326 36.4619C5.11651 36.4349 5.12771 36.4179 5.13092 36.3909C5.13412 36.3639 5.14533 36.347 5.14857 36.3199C5.15178 36.2929 5.16298 36.276 5.16623 36.249C5.16943 36.222 5.18064 36.205 5.18384 36.178C5.18709 36.151 5.19829 36.134 5.2015 36.107C5.2047 36.08 5.2159 36.0631 5.21915 36.036C5.22236 36.009 5.23356 35.9921 5.23677 35.9651C5.23787 35.9561 5.23894 35.9471 5.24108 35.929C5.24429 35.902 5.25656 35.8761 5.25873 35.8581C5.26194 35.831 5.27421 35.8051 5.27635 35.7871C5.27959 35.7601 5.29187 35.7341 5.294 35.7161C5.29721 35.6891 5.30948 35.6632 5.31273 35.6361C5.31593 35.6091 5.3282 35.5832 5.33145 35.5562C5.33466 35.5291 5.34693 35.5032 5.35017 35.4762C5.35338 35.4492 5.36565 35.4232 5.36886 35.3962C5.3721 35.3692 5.38437 35.3432 5.38758 35.3162C5.39083 35.2892 5.4031 35.2632 5.4063 35.2362C5.40951 35.2092 5.42182 35.1833 5.42503 35.1562C5.4373 35.1303 5.4405 35.1033 5.44375 35.0763C5.45602 35.0503 5.45923 35.0233 5.46247 34.9963C5.47474 34.9704 5.47795 34.9433 5.48116 34.9163C5.49347 34.8904 5.49667 34.8634 5.49988 34.8363C5.51215 34.8104 5.5154 34.7834 5.5186 34.7563C5.53087 34.7304 5.53412 34.7034 5.54639 34.6774C5.55866 34.6515 5.56187 34.6245 5.57414 34.5986C5.58641 34.5726 5.58966 34.5456 5.603 34.5106C5.61527 34.4847 5.61847 34.4577 5.63185 34.4227C5.64412 34.3968 5.64733 34.3698 5.66067 34.3348C5.67294 34.3089 5.67619 34.2818 5.68953 34.2469C5.7018 34.221 5.705 34.194 5.71838 34.159C5.73065 34.133 5.73386 34.106 5.7472 34.0711C5.74934 34.0531 5.76165 34.0272 5.76379 34.0091C5.77606 33.9832 5.78033 33.9472 5.7926 33.9212C5.80491 33.8953 5.80919 33.8592 5.82146 33.8333C5.83373 33.8074 5.83804 33.7713 5.85032 33.7454C5.86259 33.7195 5.86686 33.6834 5.87913 33.6575C5.8914 33.6316 5.89572 33.5955 5.90799 33.5696C5.92026 33.5436 5.92458 33.5076 5.93685 33.4817C5.94912 33.4557 5.95339 33.4197 5.96566 33.3938C5.97793 33.3678 5.98225 33.3318 5.99452 33.3059C6.00679 33.2799 6.01111 33.2439 6.02338 33.2179C6.03565 33.192 6.03992 33.156 6.05219 33.13C6.06447 33.1041 6.07784 33.0691 6.08105 33.0421C6.09332 33.0162 6.10666 32.9812 6.10991 32.9542C6.12218 32.9283 6.13552 32.8933 6.13872 32.8663C6.151 32.8404 6.16437 32.8054 6.16865 32.7694C6.18092 32.7435 6.19426 32.7085 6.19858 32.6725C6.21192 32.6375 6.22419 32.6116 6.2285 32.5756C6.24184 32.5406 6.25411 32.5147 6.25843 32.4786C6.27177 32.4437 6.28404 32.4178 6.28831 32.3817C6.30169 32.3468 6.31396 32.3209 6.31824 32.2848C6.33051 32.2589 6.34278 32.2329 6.34603 32.2059C6.35937 32.171 6.37164 32.145 6.38498 32.1101C6.39832 32.0751 6.41059 32.0492 6.42397 32.0142C6.43731 31.9793 6.44958 31.9534 6.46292 31.9184C6.47626 31.8835 6.48853 31.8575 6.50191 31.8226C6.51525 31.7876 6.52752 31.7617 6.54086 31.7267C6.5542 31.6918 6.56647 31.6659 6.57985 31.6309C6.59319 31.596 6.60546 31.57 6.6188 31.5351C6.63214 31.5001 6.64441 31.4742 6.65779 31.4392C6.67113 31.4043 6.6834 31.3783 6.69674 31.3434C6.71008 31.3085 6.72235 31.2825 6.73573 31.2476C6.74907 31.2126 6.76134 31.1867 6.77468 31.1517C6.78802 31.1168 6.80029 31.0908 6.81367 31.0559C6.82701 31.0209 6.83928 30.995 6.85262 30.96C6.86596 30.9251 6.87823 30.8992 6.89161 30.8642C6.90495 30.8293 6.91722 30.8033 6.93056 30.7684C6.94283 30.7424 6.95617 30.7075 6.96844 30.6816C6.98182 30.6466 6.99409 30.6206 7.00743 30.5857C7.02077 30.5508 7.03304 30.5248 7.04638 30.4899C7.05976 30.4549 7.07203 30.429 7.08537 30.394C7.09871 30.3591 7.11098 30.3331 7.12432 30.2982C7.1377 30.2632 7.14997 30.2373 7.16331 30.2024C7.17665 30.1674 7.18893 30.1415 7.20227 30.1065C7.21564 30.0716 7.22792 30.0456 7.24126 30.0107C7.2546 29.9757 7.26687 29.9498 7.28021 29.9149C7.29358 29.8799 7.30586 29.854 7.32822 29.8201C7.3416 29.7851 7.35387 29.7592 7.37628 29.7253C7.38962 29.6904 7.40189 29.6645 7.42429 29.6306C7.43763 29.5956 7.45897 29.5708 7.47231 29.5358C7.48565 29.5009 7.50698 29.476 7.52032 29.4411C7.53366 29.4061 7.555 29.3813 7.56834 29.3463C7.58172 29.3114 7.60301 29.2865 7.61639 29.2516C7.62973 29.2166 7.65107 29.1917 7.66441 29.1568C7.67775 29.1218 7.69908 29.097 7.71242 29.062C7.72576 29.0271 7.7471 29.0022 7.76044 28.9673C7.77378 28.9324 7.79511 28.9075 7.80845 28.8725C7.82183 28.8376 7.84313 28.8127 7.85651 28.7778C7.86985 28.7428 7.89114 28.718 7.90452 28.683C7.91786 28.6481 7.9392 28.6232 7.95254 28.5882C7.96588 28.5533 7.98721 28.5284 8.00055 28.4935C8.01389 28.4586 8.03523 28.4337 8.04857 28.3988C8.06191 28.3638 8.08324 28.3389 8.09658 28.304C8.11899 28.2701 8.13126 28.2442 8.14464 28.2092C8.16704 28.1753 8.17931 28.1494 8.19265 28.1145C8.21506 28.0806 8.22733 28.0547 8.24067 28.0197C8.26307 27.9859 8.27535 27.9599 8.28869 27.9249C8.31109 27.8911 8.32336 27.8652 8.3367 27.8302C8.3591 27.7963 8.37138 27.7704 8.39378 27.7365C8.41618 27.7026 8.42846 27.6767 8.45086 27.6429C8.47326 27.609 8.48554 27.5831 8.50794 27.5492C8.53035 27.5153 8.54262 27.4894 8.56502 27.4555C8.58636 27.4306 8.5997 27.3957 8.6221 27.3618C8.64451 27.3279 8.65678 27.302 8.67918 27.2681C8.70048 27.2433 8.71386 27.2083 8.73626 27.1745C8.75756 27.1496 8.77094 27.1147 8.79223 27.0898C8.81357 27.0649 8.82691 27.03 8.84824 27.0051C8.86958 26.9803 8.88292 26.9453 8.90425 26.9205C8.92559 26.8956 8.93893 26.8606 8.96027 26.8358C8.98156 26.8109 8.99494 26.776 9.01624 26.7511C9.03757 26.7263 9.05091 26.6913 9.07225 26.6664C9.09358 26.6416 9.11599 26.6077 9.12826 26.5818C9.1496 26.5569 9.172 26.523 9.18427 26.4971C9.20557 26.4722 9.22797 26.4384 9.24024 26.4124C9.26158 26.3875 9.28398 26.3537 9.29625 26.3278C9.31759 26.3029 9.33999 26.269 9.35227 26.2431C9.3736 26.2182 9.39601 26.1844 9.40828 26.1584C9.42957 26.1335 9.45198 26.0997 9.46425 26.0737C9.48558 26.0489 9.50799 26.015 9.52026 25.9891C9.54159 25.9642 9.56293 25.9393 9.58534 25.9055C9.60663 25.8806 9.62797 25.8558 9.65037 25.8219C9.67171 25.797 9.69411 25.7631 9.71541 25.7383C9.73674 25.7134 9.75808 25.6886 9.78048 25.6547C9.80182 25.6298 9.82312 25.605 9.84552 25.5711C9.86686 25.5463 9.88819 25.5214 9.9106 25.4875C9.93193 25.4627 9.95323 25.4378 9.97456 25.4129C9.9959 25.3881 10.0172 25.3632 10.0385 25.3383C10.0599 25.3135 10.0812 25.2886 10.1025 25.2638C10.1239 25.2389 10.1452 25.214 10.1665 25.1892C10.1878 25.1643 10.2092 25.1395 10.2305 25.1146C10.2417 25.0977 10.2619 25.0818 10.2731 25.0649C10.2811 25.0749 10.2992 25.0771 10.3072 25.0872C10.3413 25.1095 10.3674 25.1218 10.4014 25.1441C10.4355 25.1664 10.4616 25.1787 10.4956 25.201C10.5297 25.2233 10.5558 25.2356 10.5899 25.2579C10.6239 25.2803 10.65 25.2925 10.6841 25.3148C10.7181 25.3371 10.7442 25.3494 10.7783 25.3717C10.8123 25.3941 10.8554 25.4175 10.8906 25.4308C10.9247 25.4531 10.9507 25.4654 10.9859 25.4787C11.021 25.492 11.046 25.5133 11.0811 25.5266C11.1163 25.5399 11.1413 25.5611 11.1764 25.5745C11.2116 25.5878 11.2366 25.6091 11.2717 25.6224C11.3068 25.6357 11.3319 25.657 11.367 25.6703C11.4022 25.6836 11.4271 25.7049 11.4623 25.7182C11.4964 25.7405 11.5405 25.7549 11.5837 25.7783C11.6188 25.7916 11.6528 25.814 11.6789 25.8262C11.7141 25.8395 11.7482 25.8619 11.7742 25.8741C11.8094 25.8874 11.8434 25.9098 11.8695 25.922C11.9046 25.9353 11.9398 25.9487 11.9648 25.9699C11.9999 25.9832 12.0351 25.9966 12.0612 26.0088C12.0963 26.0221 12.1314 26.0355 12.1575 26.0477C12.1926 26.0611 12.2278 26.0744 12.2539 26.0866C12.2981 26.101 12.3321 26.1233 12.3763 26.1377C12.4115 26.1511 12.4466 26.1644 12.4817 26.1777C12.5169 26.191 12.552 26.2043 12.5871 26.2177C12.6223 26.231 12.6574 26.2443 12.6926 26.2577C12.7277 26.271 12.7628 26.2843 12.798 26.2976C12.8331 26.3109 12.8682 26.3243 12.9034 26.3376C12.9385 26.3509 12.9736 26.3643 13.0088 26.3776C13.053 26.392 13.0881 26.4053 13.1323 26.4197C13.1674 26.433 13.2026 26.4464 13.2377 26.4597C13.2729 26.473 13.308 26.4863 13.3442 26.4906C13.3793 26.504 13.4145 26.5173 13.4507 26.5216C13.4858 26.5349 13.521 26.5483 13.5571 26.5526C13.5923 26.5659 13.6274 26.5792 13.6637 26.5835C13.6988 26.5969 13.7339 26.6102 13.7701 26.6145C13.8143 26.6289 13.8495 26.6422 13.8936 26.6566C13.9288 26.6699 13.965 26.6742 14.0001 26.6876C14.0353 26.7009 14.0715 26.7052 14.1066 26.7185C14.1418 26.7319 14.178 26.7362 14.2131 26.7495C14.2482 26.7628 14.2845 26.7672 14.3196 26.7805C14.3547 26.7938 14.3909 26.7981 14.4261 26.8114C14.4612 26.8248 14.4974 26.8291 14.5326 26.8424C14.5767 26.8568 14.622 26.8622 14.6662 26.8766C14.7014 26.8899 14.7375 26.8943 14.7738 26.8986C14.8089 26.9119 14.8451 26.9162 14.8813 26.9205C14.9165 26.9338 14.9527 26.9382 14.9889 26.9425C15.0251 26.9468 15.0602 26.9601 15.0964 26.9644C15.1327 26.9688 15.1678 26.9821 15.204 26.9864C15.2402 26.9907 15.2754 27.0041 15.3115 27.0084C15.3558 27.0228 15.401 27.0282 15.4463 27.0336C15.4825 27.0379 15.5176 27.0512 15.5538 27.0555C15.5901 27.0598 15.6252 27.0732 15.6614 27.0775C15.6976 27.0818 15.7328 27.0951 15.7689 27.0994C15.8052 27.1037 15.8414 27.1081 15.8765 27.1214C15.9127 27.1257 15.9489 27.13 15.9841 27.1434C16.0203 27.1477 16.0565 27.152 16.0927 27.1563C16.138 27.1617 16.1832 27.1671 16.2285 27.1725C16.2557 27.1757 16.2918 27.1801 16.319 27.1833C16.3281 27.1844 16.3281 27.1844 16.3371 27.1854C16.3643 27.1887 16.3824 27.1909 16.4096 27.1941C16.4186 27.1952 16.4277 27.1962 16.4367 27.1973C16.4548 27.1995 16.4729 27.2016 16.5001 27.2049C16.5182 27.207 16.5272 27.2081 16.5453 27.2103C16.5634 27.2124 16.5725 27.2135 16.5906 27.2157C16.6087 27.2178 16.6268 27.22 16.6449 27.2221C16.654 27.2232 16.663 27.2243 16.6811 27.2264C16.7083 27.2297 16.7264 27.2319 16.7535 27.2351C16.7626 27.2362 16.7626 27.2362 16.7716 27.2372C16.7988 27.2405 16.826 27.2437 16.8531 27.2469C16.8531 27.2469 16.8531 27.2469 16.8622 27.2481C16.9074 27.2534 16.9527 27.2588 16.9889 27.2631C17.0251 27.2675 17.0614 27.2718 17.0976 27.2761C17.1338 27.2804 17.17 27.2847 17.2073 27.28C17.2435 27.2844 17.2797 27.2887 17.3079 27.2829C17.3441 27.2872 17.3803 27.2916 17.4086 27.2858C17.4448 27.2901 17.481 27.2944 17.5092 27.2886C17.5545 27.2941 17.6008 27.2905 17.6461 27.2958C17.6823 27.3001 17.7196 27.2954 17.7467 27.2987C17.783 27.303 17.8202 27.2983 17.8474 27.3016C17.8836 27.3059 17.9209 27.3012 17.948 27.3044C17.9842 27.3087 18.0215 27.3041 18.0487 27.3073C18.0849 27.3116 18.1222 27.3069 18.1494 27.3102C18.1946 27.3155 18.241 27.3119 18.2873 27.3083C18.3235 27.3127 18.3608 27.3079 18.389 27.3022C18.4252 27.3065 18.4625 27.3018 18.4907 27.296C18.5269 27.3003 18.5642 27.2957 18.5925 27.2899C18.6297 27.2852 18.6569 27.2885 18.6942 27.2838C18.7315 27.2791 18.7586 27.2823 18.7959 27.2776C18.8423 27.274 18.8886 27.2704 18.9349 27.2668C18.9722 27.2621 18.9994 27.2654 19.0367 27.2606C19.074 27.256 19.1011 27.2592 19.1384 27.2545C19.1757 27.2498 19.2028 27.253 19.2401 27.2484C19.2774 27.2437 19.3056 27.2379 19.3419 27.2422C19.3882 27.2386 19.4345 27.235 19.4718 27.2303C19.5091 27.2256 19.5373 27.2199 19.5746 27.2152C19.6119 27.2105 19.6401 27.2047 19.6774 27.2C19.7147 27.1953 19.7429 27.1896 19.7802 27.1849C19.8175 27.1802 19.8457 27.1744 19.883 27.1697C19.9294 27.1661 19.9767 27.1535 20.014 27.1488C20.0513 27.1441 20.0795 27.1383 20.1168 27.1337C20.1541 27.129 20.1824 27.1232 20.2196 27.1185C20.2569 27.1138 20.2852 27.108 20.3224 27.1034C20.3597 27.0987 20.388 27.0929 20.4253 27.0882C20.4716 27.0846 20.5099 27.0709 20.5574 27.0583C20.5946 27.0536 20.6229 27.0478 20.6612 27.0341C20.6985 27.0294 20.7267 27.0237 20.7651 27.01C20.8024 27.0053 20.8317 26.9905 20.8599 26.9847C20.8972 26.9801 20.9265 26.9653 20.9547 26.9595C21.0022 26.9469 21.0405 26.9332 21.0879 26.9206C21.1263 26.9069 21.1636 26.9022 21.2019 26.8885C21.2493 26.8759 21.2968 26.8633 21.3442 26.8506C21.3916 26.838 21.439 26.8254 21.4875 26.8038C21.5349 26.7912 21.5823 26.7786 21.6308 26.7569C21.6782 26.7443 21.7267 26.7227 21.7741 26.7101C21.8215 26.6974 21.87 26.6758 21.9174 26.6632C21.9648 26.6506 22.0133 26.629 22.0517 26.6153C22.0991 26.6027 22.1476 26.581 22.1859 26.5673C22.2333 26.5547 22.2727 26.532 22.3202 26.5194C22.3676 26.5068 22.407 26.4841 22.4454 26.4704C22.4928 26.4578 22.5322 26.4351 22.5807 26.4134C22.619 26.3997 22.6675 26.3781 22.707 26.3554C22.7453 26.3417 22.7938 26.3201 22.8332 26.2974C22.8716 26.2837 22.911 26.261 22.9504 26.2383C22.9989 26.2167 23.0384 26.194 23.0778 26.1713C23.1173 26.1486 23.1556 26.1349 23.195 26.1122C23.2345 26.0895 23.2728 26.0758 23.3122 26.0531C23.3517 26.0304 23.4002 26.0087 23.4396 25.986C23.4791 25.9633 23.5083 25.9486 23.5478 25.9258C23.5872 25.9032 23.6165 25.8884 23.656 25.8657C23.6954 25.8429 23.7359 25.8112 23.7844 25.7896C23.8148 25.7658 23.8531 25.7521 23.8835 25.7284C23.9139 25.7046 23.9533 25.6819 23.9826 25.6671C24.022 25.6444 24.0626 25.6127 24.1031 25.581C24.1335 25.5572 24.1638 25.5334 24.1942 25.5096C24.2347 25.4779 24.2741 25.4552 24.3146 25.4235C24.345 25.3997 24.3754 25.3759 24.4058 25.3522C24.4361 25.3284 24.4665 25.3046 24.4969 25.2808C24.5374 25.2491 24.5689 25.2163 24.6094 25.1846C24.6398 25.1608 24.6611 25.136 24.6915 25.1122C24.732 25.0805 24.7634 25.0477 24.8039 25.016C24.8343 24.9922 24.8556 24.9674 24.877 24.9425C24.9084 24.9097 24.9489 24.878 24.9815 24.8362C25.0028 24.8113 25.0332 24.7875 25.0545 24.7627C25.0758 24.7378 25.1062 24.714 25.1275 24.6892C25.159 24.6564 25.1915 24.6146 25.223 24.5818C25.2443 24.5569 25.2656 24.5321 25.2869 24.5072C25.3184 24.4744 25.3509 24.4326 25.3834 24.3908C25.4048 24.366 25.4261 24.3411 25.4474 24.3162C25.4799 24.2744 25.5023 24.2406 25.5349 24.1988C25.5562 24.1739 25.5685 24.148 25.5898 24.1231C25.6223 24.0813 25.6458 24.0384 25.6783 23.9966C25.7018 23.9538 25.7333 23.921 25.7567 23.8781C25.7903 23.8273 25.8239 23.7765 25.8485 23.7246C25.8821 23.6738 25.9066 23.6219 25.9323 23.5611C25.9557 23.5182 25.9803 23.4663 26.0048 23.4144C26.0294 23.3625 26.0539 23.3106 26.0796 23.2498C26.1041 23.1979 26.1297 23.137 26.1452 23.084C26.1687 23.0412 26.1842 22.9882 26.1997 22.9352C26.2242 22.8833 26.2408 22.8214 26.2563 22.7684C26.2718 22.7155 26.2974 22.6546 26.3038 22.6006C26.3183 22.5566 26.3338 22.5036 26.3402 22.4496C26.3557 22.3966 26.3723 22.3347 26.3798 22.2716C26.3963 22.2096 26.4028 22.1556 26.4194 22.0936C26.4247 22.0486 26.4402 21.9956 26.4456 21.9506C26.451 21.9056 26.4553 21.8696 26.4606 21.8245C26.4628 21.8065 26.4649 21.7885 26.4671 21.7705C26.4682 21.7615 26.4703 21.7434 26.4714 21.7345C26.4767 21.6894 26.4832 21.6354 26.4795 21.5893C26.4849 21.5442 26.4913 21.4902 26.4876 21.4441C26.4951 21.381 26.4925 21.3259 26.491 21.2618C26.4894 21.1977 26.4959 21.1436 26.4933 21.0885C26.4896 21.0424 26.4961 20.9883 26.4924 20.9422C26.4898 20.8871 26.4882 20.823 26.4766 20.7668C26.474 20.7116 26.4634 20.6465 26.4607 20.5913C26.4571 20.5452 26.4534 20.4991 26.4406 20.4519C26.429 20.3957 26.4264 20.3406 26.4147 20.2844C26.403 20.2282 26.3914 20.172 26.3797 20.1158C26.367 20.0686 26.3633 20.0225 26.3506 19.9753C26.3389 19.9191 26.3272 19.8629 26.3065 19.8056C26.2949 19.7494 26.2741 19.6921 26.2524 19.6439C26.2396 19.5967 26.2269 19.5495 26.204 19.5102C26.1833 19.453 26.1615 19.4047 26.1408 19.3474C26.1201 19.2901 26.0983 19.2419 26.0776 19.1846C26.0558 19.1363 26.042 19.0981 26.0202 19.0498C25.9984 19.0016 25.9686 18.9432 25.9469 18.8949C25.9251 18.8467 25.8953 18.7883 25.8645 18.7389C25.8416 18.6997 25.8198 18.6514 25.7879 18.6111C25.757 18.5617 25.7262 18.5124 25.6954 18.463C25.6645 18.4137 25.6337 18.3643 25.6028 18.315C25.58 18.2757 25.5481 18.2354 25.5162 18.195C25.4853 18.1457 25.4443 18.1043 25.4135 18.0549C25.3826 18.0055 25.3417 17.9641 25.3007 17.9227C25.2688 17.8823 25.2358 17.851 25.2039 17.8107C25.1629 17.7693 25.1219 17.7278 25.081 17.6864C25.04 17.645 24.999 17.6036 24.9581 17.5622C24.9251 17.5308 24.8841 17.4894 24.8511 17.458C24.8102 17.4166 24.7601 17.3741 24.7181 17.3417C24.6771 17.3003 24.626 17.2668 24.5851 17.2253C24.5441 17.1839 24.493 17.1504 24.4419 17.117C24.3999 17.0845 24.3578 17.0521 24.3147 17.0287C24.2636 16.9952 24.2125 16.9617 24.1705 16.9293C24.1194 16.8958 24.0683 16.8623 24.0161 16.8378C23.973 16.8144 23.931 16.782 23.8788 16.7575C23.8277 16.724 23.7755 16.6995 23.7234 16.675C23.6712 16.6505 23.6201 16.617 23.5589 16.5915C23.5157 16.568 23.4636 16.5436 23.4103 16.5281C23.3582 16.5036 23.297 16.478 23.2437 16.4626C23.1916 16.438 23.1292 16.4215 23.068 16.3959C23.0148 16.3805 22.9626 16.356 22.9184 16.3415C22.8561 16.325 22.8029 16.3095 22.7406 16.2929C22.6783 16.2764 22.6251 16.2609 22.5628 16.2443C22.5095 16.2288 22.4643 16.2235 22.411 16.208C22.3668 16.1936 22.3216 16.1882 22.2672 16.1817C22.2491 16.1795 22.231 16.1774 22.2129 16.1752C22.1948 16.1731 22.1767 16.1709 22.1586 16.1688C22.1405 16.1666 22.1224 16.1644 22.0952 16.1612C22.0771 16.159 22.059 16.1569 22.0319 16.1536C22.0138 16.1515 21.9957 16.1493 21.9685 16.1461C21.9504 16.1439 21.9232 16.1407 21.9052 16.1385C21.887 16.1364 21.8599 16.1331 21.8418 16.131C21.8237 16.1288 21.7965 16.1256 21.7784 16.1234C21.7603 16.1213 21.7331 16.118 21.715 16.1159C21.6698 16.1105 21.6336 16.1061 21.5883 16.1008C21.5702 16.0986 21.5521 16.0964 21.534 16.0943L21.5249 16.0932C21.5068 16.0911 21.4887 16.0889 21.4706 16.0867L21.4615 16.0856C21.4434 16.0835 21.4344 16.0824 21.4163 16.0802C21.4072 16.0792 21.4072 16.0792 21.3982 16.0781C21.3891 16.077 21.371 16.0749 21.362 16.0738C21.3529 16.0727 21.3439 16.0716 21.3348 16.0705C21.3258 16.0694 21.3167 16.0684 21.2986 16.0662C21.2805 16.0641 21.2805 16.0641 21.2624 16.0619C21.2533 16.0608 21.2443 16.0597 21.2352 16.0587C21.2171 16.0565 21.2081 16.0554 21.19 16.0533C21.1809 16.0522 21.1719 16.0511 21.1719 16.0511C21.1538 16.0489 21.1356 16.0468 21.1266 16.0457C21.1176 16.0446 21.1176 16.0446 21.1085 16.0436C21.0904 16.0414 21.0723 16.0392 21.0542 16.0371C21.0542 16.0371 21.0542 16.0371 21.0451 16.036C20.9999 16.0306 20.9637 16.0263 20.9184 16.0209C20.8913 16.0176 20.8731 16.0155 20.846 16.0122C20.8188 16.009 20.8007 16.0069 20.7735 16.0036C20.7464 16.0004 20.7283 15.9982 20.7011 15.995C20.674 15.9917 20.6558 15.9896 20.6287 15.9864C20.6015 15.9831 20.5834 15.9809 20.5563 15.9777C20.5291 15.9745 20.502 15.9712 20.4839 15.9691C20.4567 15.9659 20.4295 15.9626 20.4103 15.9695C20.3651 15.9641 20.3187 15.9677 20.2826 15.9634C20.2554 15.9601 20.2282 15.9569 20.2091 15.9637C20.1819 15.9605 20.1548 15.9573 20.1265 15.963C20.0993 15.9598 20.0722 15.9566 20.044 15.9623C20.0168 15.9591 19.9886 15.9648 19.9614 15.9616C19.9343 15.9584 19.906 15.9642 19.8789 15.9609C19.8517 15.9577 19.8235 15.9634 19.7963 15.9602C19.7692 15.9569 19.7409 15.9627 19.7138 15.9595C19.6685 15.9541 19.6312 15.9588 19.5849 15.9624C19.5577 15.9592 19.5295 15.9649 19.5023 15.9617C19.4752 15.9584 19.447 15.9642 19.4198 15.961C19.3926 15.9577 19.3644 15.9635 19.3372 15.9603C19.3101 15.957 19.2819 15.9628 19.2547 15.9596C19.2275 15.9563 19.1993 15.9621 19.1711 15.9679C19.1439 15.9646 19.1157 15.9704 19.0784 15.9751C19.0512 15.9718 19.023 15.9776 18.9857 15.9823C18.9394 15.9859 18.9021 15.9906 18.8558 15.9942C18.8275 16 18.7913 15.9957 18.7631 16.0014C18.7348 16.0072 18.6987 16.0029 18.6704 16.0086C18.6422 16.0144 18.606 16.0101 18.5777 16.0159C18.5495 16.0216 18.5133 16.0173 18.4851 16.0231C18.4568 16.0289 18.4206 16.0246 18.3924 16.0303C18.3641 16.0361 18.328 16.0318 18.2997 16.0375C18.2534 16.0411 18.2161 16.0458 18.1697 16.0495C18.1415 16.0552 18.1042 16.0599 18.0771 16.0567C18.0489 16.0624 18.0116 16.0671 17.9833 16.0729C17.9461 16.0776 17.9178 16.0833 17.8896 16.0891C17.8523 16.0938 17.8241 16.0996 17.7868 16.1043C17.7495 16.1089 17.7213 16.1147 17.684 16.1194C17.6467 16.1241 17.6185 16.1299 17.5812 16.1346C17.5349 16.1382 17.4976 16.1429 17.4501 16.1555C17.4129 16.1602 17.3846 16.1659 17.3473 16.1706C17.3101 16.1753 17.2818 16.1811 17.2445 16.1858C17.2073 16.1905 17.179 16.1962 17.1417 16.2009C17.1045 16.2056 17.0762 16.2114 17.0389 16.2161C17.0017 16.2208 16.9734 16.2265 16.9351 16.2402C16.8978 16.2449 16.8605 16.2496 16.8312 16.2644C16.7849 16.268 16.7465 16.2817 16.6991 16.2943C16.6618 16.299 16.6234 16.3127 16.5952 16.3185C16.5579 16.3231 16.5196 16.3368 16.4913 16.3426C16.4541 16.3473 16.4157 16.361 16.3784 16.3657C16.3411 16.3704 16.3028 16.3841 16.2655 16.3888C16.2282 16.3934 16.1898 16.4071 16.1525 16.4118C16.1153 16.4165 16.0769 16.4302 16.0396 16.4349C16.0023 16.4396 15.964 16.4533 15.9256 16.467C15.8873 16.4807 15.8409 16.4843 15.8026 16.498C15.7642 16.5117 15.7269 16.5164 15.6886 16.5301C15.6502 16.5438 15.6129 16.5485 15.5746 16.5622C15.5362 16.5759 15.4989 16.5806 15.4606 16.5942C15.4222 16.6079 15.3849 16.6127 15.3466 16.6263C15.3082 16.64 15.2709 16.6447 15.2326 16.6584C15.1942 16.6721 15.1558 16.6858 15.1186 16.6905C15.0802 16.7042 15.0418 16.7179 14.9944 16.7305C14.9561 16.7442 14.9087 16.7568 14.8703 16.7705C14.8319 16.7842 14.7936 16.7979 14.7462 16.8105C14.7078 16.8242 14.6604 16.8369 14.622 16.8506C14.5837 16.8642 14.5363 16.8768 14.4979 16.8905C14.4595 16.9042 14.4122 16.9169 14.3738 16.9306C14.3354 16.9442 14.288 16.9569 14.2497 16.9706C14.2113 16.9843 14.1639 16.9969 14.1245 17.0196C14.0861 17.0333 14.0387 17.0459 13.9993 17.0686C13.9609 17.0823 13.9135 17.0949 13.8741 17.1176C13.8357 17.1313 13.7872 17.1529 13.7489 17.1666C13.7014 17.1793 13.662 17.2019 13.6236 17.2156C13.5762 17.2283 13.5368 17.251 13.4984 17.2647C13.451 17.2773 13.4116 17.3 13.3642 17.3126C13.3168 17.3252 13.2774 17.3479 13.2289 17.3695C13.1815 17.3822 13.142 17.4048 13.0935 17.4265C13.0461 17.4391 13.0067 17.4618 12.9582 17.4834C12.9198 17.4971 12.8714 17.5188 12.8319 17.5414C12.7845 17.5541 12.7451 17.5768 12.7057 17.5995C12.6572 17.6211 12.6188 17.6348 12.5703 17.6564C12.5218 17.6781 12.4835 17.6918 12.435 17.7134C12.3865 17.735 12.338 17.7566 12.2986 17.7793C12.2501 17.8009 12.2016 17.8226 12.1622 17.8453C12.1137 17.8669 12.0652 17.8885 12.0258 17.9112C11.9773 17.9329 11.9288 17.9545 11.8894 17.9772C11.8409 17.9988 11.8015 18.0215 11.753 18.0431C11.7045 18.0647 11.6651 18.0874 11.6166 18.1091C11.5681 18.1307 11.5287 18.1534 11.4802 18.175C11.4317 18.1966 11.3832 18.2183 11.3438 18.241C11.3043 18.2637 11.2559 18.2853 11.2164 18.308C11.177 18.3307 11.1285 18.3523 11.0891 18.375C11.0497 18.3977 11.0102 18.4205 10.9617 18.4421C10.9223 18.4647 10.8829 18.4875 10.8434 18.5102C10.804 18.5329 10.7646 18.5556 10.7252 18.5783C10.6857 18.601 10.6463 18.6237 10.6068 18.6464C10.5674 18.6691 10.528 18.6918 10.4886 18.7145C10.4491 18.7372 10.4097 18.7599 10.3702 18.7826C10.3308 18.8053 10.3004 18.8291 10.261 18.8518L10.253 18.8417C10.245 18.8316 10.2371 18.8216 10.2302 18.8024C10.2142 18.7823 10.1983 18.7621 10.1913 18.743C10.1754 18.7228 10.1685 18.7038 10.1525 18.6836C10.1366 18.6634 10.1297 18.6443 10.1137 18.6241C10.0977 18.604 10.0908 18.5849 10.0749 18.5647C10.0669 18.5546 10.0589 18.5445 10.052 18.5254C10.0361 18.5053 10.0292 18.4862 10.0132 18.466C9.99725 18.4458 9.99032 18.4267 9.97437 18.4066C9.95841 18.3864 9.95153 18.3673 9.93557 18.3471C9.91958 18.327 9.91269 18.3079 9.89674 18.2877C9.88875 18.2776 9.88079 18.2675 9.87386 18.2484C9.86697 18.2293 9.85102 18.2092 9.83507 18.189C9.82814 18.1699 9.81219 18.1497 9.80526 18.1306C9.79838 18.1115 9.78242 18.0913 9.7755 18.0723C9.76754 18.0622 9.75954 18.0521 9.75266 18.033C9.74573 18.0139 9.72978 17.9937 9.72289 17.9747C9.71596 17.9555 9.70001 17.9354 9.69312 17.9163C9.6862 17.8972 9.67024 17.877 9.66336 17.8579C9.65536 17.8478 9.6474 17.8378 9.64954 17.8198C9.64261 17.8006 9.62666 17.7805 9.61977 17.7614C9.61285 17.7423 9.60596 17.7232 9.59001 17.703C9.58308 17.684 9.57619 17.6648 9.56024 17.6447C9.55224 17.6346 9.55331 17.6256 9.54642 17.6065C9.53954 17.5874 9.53261 17.5683 9.51666 17.5481C9.50977 17.529 9.50284 17.5099 9.49595 17.4909C9.48903 17.4717 9.48214 17.4527 9.47521 17.4336C9.46726 17.4235 9.46833 17.4145 9.4614 17.3954C9.45451 17.3763 9.44762 17.3572 9.4407 17.3381C9.43381 17.319 9.42688 17.2999 9.41999 17.2808C9.41307 17.2618 9.40618 17.2426 9.39925 17.2236C9.3913 17.2135 9.39236 17.2045 9.38548 17.1854C9.37855 17.1663 9.37166 17.1472 9.36473 17.1281C9.35785 17.109 9.35092 17.0899 9.34403 17.0708C9.3371 17.0517 9.33022 17.0326 9.3244 17.0045C9.32547 16.9955 9.31747 16.9854 9.31961 16.9674C9.31272 16.9483 9.30583 16.9292 9.29998 16.9011C9.29309 16.8821 9.28616 16.8629 9.28941 16.8359C9.28248 16.8168 9.28466 16.7988 9.2788 16.7707C9.27987 16.7617 9.27191 16.7516 9.27405 16.7336C9.26716 16.7145 9.2693 16.6965 9.26348 16.6684C9.25655 16.6493 9.25869 16.6313 9.25287 16.6032C9.25394 16.5942 9.24598 16.5841 9.24812 16.5661C9.24119 16.547 9.24444 16.52 9.23751 16.5009C9.23062 16.4818 9.23383 16.4548 9.22694 16.4357C9.22002 16.4166 9.22326 16.3896 9.21633 16.3705C9.21744 16.3615 9.20945 16.3514 9.21158 16.3334C9.21372 16.3154 9.2079 16.2873 9.20102 16.2682C9.20315 16.2501 9.19623 16.2311 9.1984 16.2131C9.20054 16.195 9.19365 16.176 9.19472 16.1669C9.19579 16.1579 9.19686 16.1489 9.18886 16.1388C9.19104 16.1208 9.18304 16.1107 9.18518 16.0927C9.18736 16.0747 9.18843 16.0657 9.1815 16.0466C9.18368 16.0286 9.18475 16.0196 9.17782 16.0005C9.17996 15.9825 9.18107 15.9735 9.17414 15.9544C9.17521 15.9454 9.17628 15.9364 9.17738 15.9274C9.17952 15.9094 9.18059 15.9003 9.17366 15.8813C9.17584 15.8633 9.17691 15.8542 9.17905 15.8362C9.18118 15.8182 9.18225 15.8092 9.18443 15.7912C9.1855 15.7822 9.18764 15.7642 9.1887 15.7551C9.18977 15.7462 9.19084 15.7371 9.19195 15.7282C9.19409 15.7101 9.19516 15.7011 9.19729 15.6831C9.19947 15.6651 9.20054 15.6561 9.20268 15.6381C9.20482 15.62 9.20588 15.6111 9.20806 15.5931C9.20913 15.584 9.20913 15.584 9.2102 15.575C9.2102 15.575 9.2102 15.575 9.21127 15.566C9.21234 15.557 9.21447 15.539 9.21554 15.53C9.21665 15.521 9.21665 15.521 9.21772 15.512C9.21879 15.503 9.21986 15.494 9.22093 15.4849C9.22199 15.476 9.22306 15.4669 9.22413 15.458C9.22524 15.4489 9.22524 15.4489 9.22631 15.4399C9.22738 15.4309 9.22952 15.4129 9.23058 15.4039C9.23165 15.3949 9.23165 15.3949 9.23272 15.3859C9.2349 15.3679 9.23597 15.3589 9.23811 15.3409C9.24024 15.3229 9.24131 15.3138 9.24349 15.2958C9.24563 15.2778 9.24669 15.2688 9.24883 15.2508C9.2499 15.2418 9.2499 15.2418 9.25101 15.2328C9.25208 15.2238 9.25422 15.2058 9.25528 15.1967C9.25742 15.1787 9.25849 15.1697 9.26067 15.1517C9.26281 15.1337 9.26387 15.1247 9.27508 15.1078C9.27721 15.0897 9.27828 15.0807 9.28948 15.0638C9.29059 15.0548 9.29166 15.0458 9.29166 15.0458C9.2938 15.0278 9.29487 15.0188 9.30607 15.0018C9.30821 14.9838 9.30928 14.9748 9.32048 14.9579C9.32266 14.9399 9.33275 14.9319 9.33493 14.9139C9.336 14.9049 9.33706 14.8959 9.33813 14.8869C9.3392 14.8779 9.3504 14.8609 9.35147 14.852C9.35365 14.834 9.36374 14.826 9.36592 14.808C9.36806 14.79 9.37819 14.7821 9.38033 14.764C9.38247 14.746 9.3926 14.7381 9.39474 14.7201C9.39581 14.7111 9.39692 14.7021 9.40594 14.7032C9.40808 14.6852 9.41821 14.6772 9.42039 14.6592C9.42253 14.6412 9.43266 14.6333 9.4348 14.6152C9.43694 14.5972 9.44707 14.5893 9.44921 14.5713C9.45027 14.5623 9.46148 14.5453 9.46255 14.5364C9.46365 14.5273 9.47375 14.5194 9.47482 14.5104C9.47699 14.4924 9.48713 14.4845 9.48927 14.4665C9.4914 14.4484 9.50154 14.4405 9.50367 14.4225C9.51488 14.4056 9.51594 14.3965 9.52715 14.3796C9.52822 14.3706 9.53835 14.3627 9.53942 14.3537C9.54955 14.3458 9.55169 14.3278 9.55276 14.3187C9.56396 14.3018 9.56507 14.2928 9.57623 14.2759C9.58743 14.2589 9.58854 14.2499 9.59974 14.233C9.61091 14.216 9.61201 14.2071 9.62322 14.1901C9.62429 14.1811 9.63438 14.1732 9.63549 14.1642C9.64669 14.1472 9.64776 14.1382 9.65896 14.1213C9.67016 14.1043 9.67123 14.0954 9.68243 14.0784C9.69364 14.0615 9.69471 14.0525 9.70591 14.0355C9.71711 14.0186 9.71818 14.0096 9.72938 13.9927C9.73045 13.9836 9.74058 13.9757 9.74165 13.9667C9.75285 13.9498 9.75392 13.9408 9.76513 13.9238C9.77633 13.9069 9.7774 13.8979 9.7886 13.881C9.7998 13.864 9.80993 13.8561 9.81207 13.8381C9.82327 13.8212 9.83341 13.8132 9.83555 13.7952C9.84568 13.7873 9.84675 13.7783 9.85795 13.7613C9.86915 13.7444 9.87929 13.7365 9.88142 13.7185C9.89263 13.7015 9.90276 13.6936 9.9049 13.6756C9.9161 13.6587 9.92623 13.6507 9.93743 13.6338C9.94864 13.6169 9.95873 13.6089 9.96993 13.592C9.98007 13.5841 9.99127 13.5671 9.99234 13.5582C10.0025 13.5502 10.0137 13.5333 10.0238 13.5253C10.035 13.5084 10.0451 13.5005 10.0563 13.4835C10.0675 13.4666 10.0776 13.4587 10.0888 13.4418C10.1 13.4248 10.1102 13.4169 10.1214 13.4C10.1315 13.392 10.1427 13.3751 10.1529 13.3672C10.1629 13.3593 10.1741 13.3423 10.1843 13.3344C10.1955 13.3175 10.2056 13.3095 10.2168 13.2926C10.228 13.2757 10.2382 13.2677 10.2494 13.2508C10.2606 13.2339 10.2707 13.2259 10.2819 13.209C10.2931 13.1921 10.3032 13.1841 10.3144 13.1672C10.3245 13.1593 10.3357 13.1423 10.3459 13.1344C10.356 13.1265 10.3672 13.1096 10.3773 13.1016C10.3885 13.0847 10.3986 13.0768 10.4098 13.0598C10.421 13.0429 10.4312 13.035 10.4424 13.018C10.4536 13.0011 10.4637 12.9932 10.4749 12.9762C10.4861 12.9593 10.4962 12.9514 10.5165 12.9355C10.5277 12.9186 10.5378 12.9107 10.558 12.8948C10.5682 12.8869 10.5794 12.87 10.5996 12.8541C10.6108 12.8372 10.621 12.8292 10.6412 12.8134C10.6524 12.7964 10.6716 12.7896 10.6828 12.7727C10.694 12.7557 10.7132 12.7489 10.7244 12.732C10.7356 12.715 10.7548 12.7082 10.7659 12.6912C10.7771 12.6743 10.7963 12.6674 10.8075 12.6505C10.8177 12.6426 10.8379 12.6267 10.8491 12.6098C10.8592 12.6019 10.8795 12.586 10.8907 12.5691C10.9008 12.5612 10.9211 12.5453 10.9323 12.5283C10.9424 12.5204 10.9627 12.5046 10.9739 12.4877C10.984 12.4797 11.0042 12.4639 11.0154 12.4469C11.0266 12.43 11.0458 12.4231 11.057 12.4062C11.0671 12.3983 11.0874 12.3824 11.0986 12.3655C11.0986 12.3655 11.0986 12.3655 11.1087 12.3576C11.1188 12.3496 11.1391 12.3338 11.1503 12.3168C11.1695 12.31 11.1807 12.2931 11.1919 12.2761C11.211 12.2693 11.2222 12.2524 11.2335 12.2354C11.2526 12.2286 11.2638 12.2116 11.2841 12.1958C11.3033 12.189 11.3145 12.172 11.3336 12.1652C11.3528 12.1583 11.364 12.1414 11.3832 12.1345C11.4024 12.1277 11.4136 12.1107 11.4328 12.1039L11.4429 12.096C11.462 12.0891 11.4733 12.0722 11.4935 12.0563C11.5127 12.0495 11.5239 12.0326 11.5431 12.0257C11.5622 12.0189 11.5734 12.0019 11.5926 11.9951C11.6118 11.9882 11.623 11.9713 11.6422 11.9644C11.6614 11.9576 11.6726 11.9406 11.6918 11.9338C11.7109 11.9269 11.7221 11.91 11.7413 11.9032C11.7605 11.8963 11.7717 11.8794 11.7909 11.8726C11.81 11.8657 11.8212 11.8488 11.8404 11.8419L11.8506 11.834C11.8697 11.8272 11.8809 11.8102 11.9001 11.8034C11.9193 11.7965 11.9395 11.7806 11.9497 11.7727C11.9688 11.7659 11.9891 11.75 11.9992 11.7421C12.0184 11.7352 12.0387 11.7194 12.0488 11.7115C12.068 11.7046 12.0882 11.6888 12.0984 11.6808C12.1175 11.674 12.1378 11.6581 12.1479 11.6502C12.1671 11.6434 12.1873 11.6275 12.2065 11.6206C12.2257 11.6138 12.246 11.598 12.2651 11.5911C12.2753 11.5832 12.2753 11.5832 12.2854 11.5752C12.3046 11.5684 12.3248 11.5525 12.344 11.5457C12.3632 11.5388 12.3834 11.523 12.4026 11.5161C12.4218 11.5093 12.442 11.4934 12.4612 11.4866C12.4804 11.4797 12.5007 11.4639 12.5198 11.457C12.539 11.4502 12.5593 11.4343 12.5784 11.4275C12.5976 11.4206 12.6179 11.4048 12.6371 11.3979C12.6562 11.3911 12.6765 11.3752 12.6957 11.3684C12.7148 11.3615 12.7351 11.3457 12.7543 11.3388C12.7735 11.332 12.7937 11.3161 12.8129 11.3093C12.823 11.3014 12.832 11.3024 12.8422 11.2945C12.8614 11.2877 12.8816 11.2718 12.9008 11.2649C12.92 11.2581 12.9402 11.2423 12.9594 11.2354C12.9786 11.2286 12.9989 11.2127 13.018 11.2058C13.0372 11.199 13.0575 11.1832 13.0766 11.1763C13.0958 11.1695 13.1161 11.1536 13.1353 11.1467C13.1544 11.1399 13.1747 11.1241 13.1938 11.1172C13.213 11.1104 13.2333 11.0945 13.2525 11.0877C13.2717 11.0808 13.2919 11.0649 13.3201 11.0592C13.3393 11.0523 13.3596 11.0365 13.3878 11.0307C13.407 11.0238 13.4272 11.008 13.4555 11.0022C13.4656 10.9943 13.4747 10.9954 13.4848 10.9875C13.5039 10.9806 13.5332 10.9659 13.5524 10.959C13.5716 10.9522 13.6009 10.9373 13.6201 10.9305C13.6393 10.9237 13.6686 10.9089 13.6878 10.902C13.7069 10.8952 13.7363 10.8804 13.7554 10.8736C13.7746 10.8667 13.8039 10.8519 13.8231 10.8451C13.8423 10.8382 13.8716 10.8235 13.8908 10.8166C13.9099 10.8098 13.9392 10.795 13.9584 10.7882C13.9776 10.7813 14.0069 10.7665 14.0261 10.7597C14.0453 10.7528 14.0746 10.738 14.0937 10.7312C14.1129 10.7243 14.1422 10.7096 14.1614 10.7027C14.1715 10.6948 14.1907 10.688 14.1998 10.689C14.2189 10.6822 14.2482 10.6674 14.2674 10.6606C14.2866 10.6537 14.3159 10.639 14.3351 10.6321C14.3543 10.6252 14.3836 10.6105 14.4028 10.6036C14.431 10.5978 14.4513 10.582 14.4704 10.5752C14.4986 10.5694 14.5189 10.5535 14.5381 10.5467C14.5663 10.5409 14.5866 10.525 14.6148 10.5193C14.6431 10.5135 14.6633 10.4977 14.6915 10.4919C14.7198 10.4861 14.74 10.4703 14.7683 10.4645C14.7965 10.4587 14.8167 10.4429 14.845 10.4371C14.8732 10.4313 14.8935 10.4155 14.9217 10.4097C14.9499 10.404 14.9702 10.3881 14.9984 10.3823C15.0266 10.3766 15.0469 10.3607 15.0751 10.355C15.0943 10.3481 15.1044 10.3401 15.1236 10.3333C15.1518 10.3276 15.1721 10.3117 15.2003 10.3059C15.2285 10.3002 15.2488 10.2843 15.277 10.2785C15.3053 10.2728 15.3255 10.2569 15.3537 10.2511C15.382 10.2453 15.4022 10.2295 15.4305 10.2237C15.4587 10.218 15.4789 10.2021 15.5072 10.1963C15.5354 10.1906 15.5557 10.1747 15.5839 10.1689C15.6121 10.1632 15.6414 10.1484 15.6606 10.1416C15.6889 10.1358 15.7182 10.121 15.7373 10.1142C15.7656 10.1084 15.7949 10.0936 15.8141 10.0868C15.8423 10.081 15.8716 10.0662 15.8908 10.0594C15.919 10.0536 15.9483 10.0388 15.9675 10.032C15.9957 10.0262 16.025 10.0114 16.0442 10.0046C16.0724 9.99882 16.1017 9.98405 16.13 9.97827C16.1491 9.97142 16.1683 9.96458 16.1875 9.95773C16.2157 9.95199 16.2451 9.93718 16.2733 9.93144C16.3015 9.92566 16.3308 9.9109 16.3591 9.90512C16.3873 9.89934 16.4166 9.88458 16.4448 9.8788C16.4731 9.87302 16.5023 9.85825 16.5306 9.85247C16.5588 9.84673 16.5881 9.83193 16.6163 9.82619C16.6446 9.82041 16.6739 9.80565 16.7021 9.79987C16.7303 9.79409 16.7586 9.78831 16.7879 9.77354C16.8161 9.76776 16.8444 9.76202 16.8736 9.74722C16.9019 9.74148 16.9301 9.7357 16.9594 9.72094C16.9876 9.71516 17.0159 9.70938 17.0452 9.69461C17.0734 9.68883 17.1016 9.68305 17.131 9.66829C17.1592 9.66251 17.1874 9.65677 17.2168 9.64197C17.245 9.63623 17.2732 9.63045 17.3025 9.61568C17.3308 9.6099 17.359 9.60412 17.3883 9.58936C17.4165 9.58358 17.4448 9.5778 17.4741 9.56304C17.5023 9.55726 17.5215 9.55041 17.5497 9.54467C17.5779 9.53889 17.6061 9.53311 17.6355 9.51835C17.6637 9.51257 17.6919 9.50679 17.7303 9.49309C17.7585 9.48735 17.7868 9.48157 17.8251 9.46788C17.8533 9.4621 17.8816 9.45632 17.9199 9.44262C17.9481 9.43688 17.9764 9.4311 18.0148 9.41741C18.043 9.41163 18.0803 9.40696 18.1096 9.39215C18.1378 9.38641 18.1751 9.3817 18.2044 9.36694C18.2326 9.36116 18.2699 9.35649 18.2992 9.34168C18.3274 9.33594 18.3647 9.33123 18.394 9.31647C18.4223 9.31069 18.4596 9.30602 18.4889 9.29121C18.5171 9.28547 18.5544 9.28076 18.5837 9.266C18.6119 9.26022 18.6492 9.25555 18.6785 9.24078C18.7067 9.235 18.744 9.23029 18.7733 9.21553C18.8016 9.20975 18.8389 9.20508 18.8671 9.1993C18.8953 9.19352 18.9326 9.18885 18.9608 9.18307C18.989 9.17729 19.0263 9.17262 19.0546 9.16684C19.0828 9.16106 19.111 9.15532 19.1393 9.14954C19.1675 9.14376 19.2048 9.13909 19.233 9.13331C19.2613 9.12753 19.2986 9.12286 19.3268 9.11708C19.3641 9.11241 19.3923 9.10663 19.4205 9.10085C19.4578 9.09618 19.486 9.0904 19.5142 9.08463C19.5515 9.07995 19.5798 9.07418 19.6171 9.06946C19.6543 9.06479 19.6826 9.05901 19.7199 9.05434C19.7571 9.04963 19.7854 9.04389 19.8227 9.03918C19.86 9.03451 19.8882 9.02873 19.9255 9.02402C19.9628 9.01935 19.991 9.01357 20.0283 9.0089C20.0656 9.00419 20.0938 8.99845 20.1311 8.99374C20.1684 8.98907 20.1966 8.98329 20.2339 8.97858C20.2712 8.97391 20.2994 8.96813 20.3367 8.96346C20.374 8.95875 20.4022 8.95297 20.4395 8.9483C20.4768 8.94363 20.505 8.93785 20.5423 8.93314C20.5796 8.92847 20.6078 8.92269 20.6451 8.91802C20.6824 8.91331 20.7106 8.90753 20.7479 8.90286C20.7852 8.89819 20.8134 8.89241 20.8507 8.88769C20.888 8.88302 20.9162 8.87725 20.9535 8.87257C20.9908 8.86786 21.019 8.86208 21.0563 8.85741C21.0936 8.8527 21.1309 8.84803 21.1591 8.84225C21.1964 8.83758 21.2337 8.83287 21.2619 8.82713C21.2992 8.82242 21.3365 8.81775 21.3647 8.81197C21.402 8.80726 21.4393 8.80259 21.4675 8.79681C21.5048 8.79214 21.5421 8.78743 21.5703 8.78169C21.6076 8.77698 21.6448 8.77231 21.6821 8.7676C21.7194 8.76293 21.7567 8.75822 21.794 8.75355C21.8313 8.74883 21.8686 8.74416 21.9059 8.73945C21.9432 8.73478 21.9804 8.73007 22.0177 8.7254C22.055 8.72069 22.0923 8.71602 22.1296 8.71131C22.1668 8.70664 22.2041 8.70193 22.2414 8.69726C22.2787 8.69259 22.316 8.68788 22.3533 8.6832C22.3906 8.67849 22.4278 8.67382 22.4651 8.66911C22.5024 8.66444 22.5397 8.65973 22.577 8.65506C22.6143 8.65035 22.6515 8.64568 22.6888 8.64097C22.7261 8.6363 22.7634 8.63159 22.8007 8.62692C22.8379 8.62221 22.8752 8.61753 22.9125 8.61286C22.9498 8.60815 22.9871 8.60348 23.0244 8.59877C23.0617 8.5941 23.099 8.58939 23.1363 8.58472C23.1735 8.58001 23.2108 8.57534 23.2481 8.57063C23.2854 8.56596 23.3227 8.56125 23.3599 8.55658C23.3972 8.55187 23.4345 8.54719 23.4718 8.54248C23.5091 8.53781 23.5464 8.5331 23.5837 8.52843C23.621 8.52376 23.6582 8.51905 23.6955 8.51438C23.7328 8.50967 23.7701 8.505 23.8074 8.50029C23.8446 8.49562 23.8819 8.49091 23.9192 8.48623C23.9565 8.48152 23.9938 8.47685 24.0401 8.47325C24.0774 8.46854 24.1147 8.46387 24.161 8.46023C24.1983 8.45556 24.2356 8.45085 24.2819 8.44724C24.3192 8.44257 24.3565 8.43786 24.4029 8.43426C24.4401 8.42959 24.4865 8.42595 24.5237 8.42128C24.561 8.41657 24.6074 8.41297 24.6447 8.40829C24.682 8.40358 24.7283 8.39998 24.7656 8.39531C24.8029 8.3906 24.8492 8.387 24.8865 8.38233C24.9237 8.37762 24.9701 8.37401 25.0074 8.3693C25.0447 8.36463 25.091 8.36103 25.1283 8.35632C25.1656 8.35165 25.2119 8.34805 25.2492 8.34334C25.2865 8.33867 25.3328 8.33502 25.3701 8.33035C25.4074 8.32564 25.4537 8.32204 25.49 8.32636C25.5272 8.32168 25.5736 8.31808 25.6098 8.3224C25.6471 8.31769 25.6934 8.31408 25.7296 8.3184C25.7669 8.31373 25.8132 8.31009 25.8495 8.3144C25.8867 8.30973 25.9331 8.30613 25.9693 8.31044C26.0156 8.30684 26.0529 8.30213 26.0982 8.30751C26.1445 8.30391 26.1818 8.29924 26.227 8.30462C26.2734 8.30102 26.3096 8.30534 26.3559 8.30173C26.4022 8.29813 26.4385 8.30245 26.4848 8.29881C26.5312 8.2952 26.5673 8.29952 26.6137 8.29592C26.6601 8.29231 26.6962 8.29663 26.7426 8.29303C26.7889 8.28938 26.8251 8.29374 26.8715 8.2901C26.9178 8.28649 26.954 8.29081 27.0004 8.28721C27.0467 8.2836 27.0829 8.28792 27.1292 8.28432C27.1756 8.28068 27.2118 8.28503 27.2581 8.28139C27.3045 8.27779 27.3407 8.2821 27.387 8.2785C27.4334 8.2749 27.4695 8.27921 27.5159 8.27561C27.5622 8.27197 27.5984 8.27628 27.6448 8.27268C27.6911 8.26908 27.7273 8.27339 27.7737 8.26979C27.82 8.26619 27.8562 8.2705 27.9026 8.2669C27.9489 8.26326 27.9851 8.26757 28.0314 8.26397C28.0778 8.26037 28.114 8.26468 28.1603 8.26108C28.2067 8.25748 28.2429 8.26179 28.2892 8.25815C28.3356 8.25455 28.3808 8.25997 28.4181 8.25526C28.4644 8.25166 28.5097 8.25704 28.547 8.25237C28.5933 8.24877 28.6386 8.25415 28.6759 8.24944C28.7222 8.24584 28.7675 8.25127 28.8047 8.24655C28.8511 8.24295 28.8963 8.24834 28.9336 8.24367C28.98 8.24006 29.0252 8.24545 29.0625 8.24074C29.1089 8.23713 29.1541 8.24256 29.2005 8.23891C29.2468 8.23531 29.2921 8.2407 29.3384 8.23709C29.3837 8.24252 29.43 8.23888 29.4763 8.23527C29.5216 8.24066 29.5679 8.23705 29.6143 8.23345C29.6595 8.23884 29.7059 8.23523 29.7522 8.23163C29.7975 8.23702 29.8438 8.23341 29.8901 8.22981C29.9354 8.23519 29.9817 8.23159 30.0281 8.22799C30.0734 8.23337 30.1197 8.22977 30.166 8.22617C30.2113 8.23155 30.2576 8.22795 30.304 8.22435C30.3492 8.22973 30.3956 8.22613 30.4419 8.22253C30.4872 8.22791 30.5335 8.22431 30.5798 8.22067C30.6251 8.22609 30.6714 8.22249 30.7178 8.21885C30.763 8.22427 30.8094 8.22063 30.8557 8.21703C30.901 8.22245 30.9473 8.21881 30.9937 8.2152C31.0389 8.22063 31.0853 8.21699 31.1316 8.21338C31.1769 8.21877 31.2232 8.21516 31.2695 8.21156C31.3148 8.21695 31.3611 8.21334 31.4075 8.20974C31.4528 8.21512 31.4991 8.21152 31.5454 8.20792C31.5907 8.2133 31.637 8.2097 31.6834 8.2061C31.7286 8.21148 31.775 8.20788 31.8213 8.20428C31.8666 8.20966 31.9129 8.20606 31.9592 8.20246C32.0045 8.20784 32.0508 8.20424 32.0961 8.20962C32.1414 8.21501 32.1877 8.2114 32.242 8.2179C32.2873 8.22328 32.3336 8.21968 32.3879 8.22613C32.4332 8.23155 32.4795 8.22795 32.5338 8.2344C32.5791 8.23979 32.6345 8.23729 32.6798 8.24268C32.725 8.24806 32.7804 8.24553 32.8257 8.25095C32.8709 8.25633 32.9263 8.2538 32.9716 8.25918C33.0169 8.2646 33.0723 8.26207 33.1175 8.26745C33.1628 8.27284 33.2182 8.27031 33.2634 8.27573C33.3087 8.28111 33.3641 8.27858 33.4093 8.28396C33.4546 8.28938 33.51 8.28685 33.5553 8.29223C33.6005 8.29766 33.6559 8.29512 33.7012 8.30051C33.7464 8.30589 33.8018 8.30336 33.8471 8.30878C33.9014 8.31523 33.9478 8.31163 33.993 8.31701C34.0473 8.32351 34.0937 8.3199 34.1389 8.32529C34.1933 8.33178 34.2396 8.32814 34.2849 8.33356C34.3392 8.34001 34.3855 8.33641 34.4398 8.3429C34.4941 8.34935 34.5405 8.34575 34.5948 8.35224C34.6491 8.3587 34.6954 8.35509 34.7498 8.36159C34.7679 8.36372 34.795 8.36697 34.8131 8.36915L35.273 3.66475ZM14.6173 21.8193C14.6556 21.8056 14.694 21.7919 14.7334 21.7692C14.7718 21.7555 14.8101 21.7418 14.8394 21.727C14.8778 21.7133 14.9071 21.6986 14.9455 21.6849C14.9838 21.6711 15.0131 21.6564 15.0515 21.6427C15.0898 21.629 15.1192 21.6142 15.1575 21.6005C15.1959 21.5868 15.2252 21.572 15.2635 21.5583C15.3019 21.5447 15.3312 21.5298 15.3696 21.5161C15.4079 21.5025 15.4372 21.4877 15.4654 21.4819C15.5038 21.4682 15.5331 21.4534 15.5704 21.4488C15.6088 21.4351 15.637 21.4293 15.6663 21.4145C15.6956 21.3997 15.7329 21.3951 15.7622 21.3803C15.7915 21.3655 15.8288 21.3608 15.8581 21.346C15.8874 21.3313 15.9247 21.3266 15.954 21.3118C15.9833 21.297 16.0206 21.2923 16.0499 21.2775C16.0781 21.2718 16.1165 21.2581 16.1458 21.2433C16.174 21.2376 16.2124 21.2239 16.2417 21.2091C16.2699 21.2033 16.2992 21.1885 16.3274 21.1828C16.3557 21.177 16.385 21.1622 16.4223 21.1575C16.4505 21.1517 16.4798 21.137 16.5171 21.1323C16.5453 21.1265 16.5746 21.1118 16.6119 21.1071C16.6401 21.1013 16.6694 21.0865 16.6977 21.0807C16.7259 21.075 16.7552 21.0602 16.7834 21.0544C16.8117 21.0487 16.8399 21.0429 16.8692 21.0281C16.8974 21.0223 16.9257 21.0166 16.955 21.0018C16.9832 20.996 17.0024 20.9892 17.0306 20.9834C17.0589 20.9776 17.0871 20.9719 17.1164 20.9571C17.1446 20.9513 17.1729 20.9456 17.2011 20.9398C17.2293 20.934 17.2576 20.9283 17.2858 20.9225C17.314 20.9167 17.3422 20.911 17.3705 20.9052C17.3987 20.8994 17.4269 20.8937 17.4552 20.8879C17.4834 20.8821 17.5117 20.8764 17.5399 20.8706C17.5681 20.8648 17.5963 20.859 17.6246 20.8533C17.6437 20.8464 17.6619 20.8486 17.681 20.8417C17.7093 20.8359 17.7375 20.8302 17.7657 20.8244C17.794 20.8186 17.8222 20.8129 17.8414 20.8061C17.8696 20.8003 17.8978 20.7945 17.917 20.7876C17.9453 20.7819 17.9735 20.7761 17.9927 20.7693C18.0209 20.7635 18.0491 20.7577 18.0672 20.7599C18.0955 20.7541 18.1237 20.7483 18.1418 20.7505C18.1599 20.7527 18.17 20.7447 18.1881 20.7469C18.2164 20.7411 18.2345 20.7433 18.2627 20.7375C18.2909 20.7318 18.309 20.7339 18.3373 20.7282C18.3655 20.7224 18.3836 20.7245 18.4118 20.7188C18.4401 20.713 18.4582 20.7151 18.4864 20.7094C18.5146 20.7036 18.5328 20.7057 18.561 20.7C18.5892 20.6942 18.6073 20.6964 18.6356 20.6906C18.6446 20.6917 18.6638 20.6848 18.6729 20.6859C18.7011 20.6802 18.7192 20.6823 18.7474 20.6765C18.7757 20.6708 18.7937 20.6729 18.822 20.6672C18.8492 20.6704 18.8683 20.6636 18.8965 20.6578C18.9237 20.661 18.9429 20.6542 18.9711 20.6484C18.9892 20.6506 19.0175 20.6448 19.0356 20.647C19.0536 20.6491 19.0819 20.6434 19.1 20.6455C19.1091 20.6466 19.1181 20.6477 19.1282 20.6397C19.1464 20.6419 19.1746 20.6361 19.1927 20.6383C19.2108 20.6404 19.239 20.6347 19.2571 20.6368C19.2752 20.639 19.3035 20.6332 19.3216 20.6354C19.3397 20.6375 19.3679 20.6318 19.386 20.6339C19.4041 20.6361 19.4323 20.6303 19.4504 20.6325C19.4686 20.6347 19.4968 20.6289 19.5149 20.631C19.533 20.6332 19.5612 20.6274 19.5793 20.6296C19.5884 20.6307 19.5884 20.6307 19.5975 20.6317C19.6155 20.6339 19.6438 20.6281 19.6619 20.6303C19.68 20.6324 19.7071 20.6357 19.7263 20.6288C19.7444 20.631 19.7716 20.6342 19.7908 20.6274C19.8089 20.6295 19.827 20.6317 19.8552 20.6259C19.8733 20.6281 19.8914 20.6303 19.9197 20.6245C19.9378 20.6266 19.9559 20.6288 19.9841 20.623C20.0022 20.6252 20.0203 20.6273 20.0475 20.6306C20.0475 20.6306 20.0475 20.6306 20.0565 20.6316C20.0746 20.6338 20.0927 20.636 20.1109 20.6381C20.1289 20.6403 20.147 20.6425 20.1652 20.6446C20.1833 20.6468 20.2013 20.6489 20.2195 20.6511C20.2376 20.6533 20.2557 20.6554 20.2738 20.6576C20.2919 20.6597 20.31 20.6619 20.3281 20.664C20.3462 20.6662 20.3643 20.6683 20.3824 20.6705C20.4005 20.6727 20.4186 20.6748 20.4367 20.677C20.4367 20.677 20.4368 20.677 20.4458 20.6781C20.4639 20.6802 20.482 20.6824 20.4911 20.6835C20.5001 20.6845 20.5001 20.6845 20.5091 20.6856C20.5273 20.6878 20.5363 20.6888 20.5544 20.691C20.5635 20.6921 20.5725 20.6932 20.5725 20.6932C20.5816 20.6943 20.5906 20.6953 20.6087 20.6975C20.6178 20.6986 20.6268 20.6997 20.6359 20.7007C20.645 20.7018 20.654 20.7029 20.663 20.704C20.6721 20.705 20.6811 20.7061 20.6993 20.7083C20.7083 20.7093 20.7083 20.7093 20.7174 20.7105C20.7264 20.7115 20.7445 20.7137 20.7536 20.7148L20.7626 20.7158C20.7807 20.718 20.7898 20.7191 20.8079 20.7212L20.817 20.7223C20.835 20.7245 20.8441 20.7255 20.8622 20.7277C20.8803 20.7299 20.8984 20.732 20.9165 20.7342C20.9346 20.7363 20.9527 20.7385 20.9709 20.7407C20.9889 20.7428 21.0071 20.745 21.0252 20.7472C21.0433 20.7493 21.0614 20.7515 21.0795 20.7536C21.0976 20.7558 21.1157 20.7579 21.1338 20.7601C21.1519 20.7622 21.17 20.7644 21.1881 20.7666C21.2062 20.7687 21.2243 20.7709 21.2424 20.773C21.2605 20.7752 21.2786 20.7774 21.2968 20.7795C21.3148 20.7817 21.333 20.7838 21.342 20.7849C21.3511 20.786 21.3691 20.7882 21.3782 20.7892L21.3873 20.7903L21.3963 20.7914C21.4054 20.7925 21.4144 20.7935 21.4224 20.8036L21.4315 20.8047L21.4405 20.8058C21.4496 20.8069 21.4575 20.817 21.4666 20.818C21.4666 20.818 21.4666 20.818 21.4756 20.8191C21.4756 20.8191 21.4756 20.8191 21.4847 20.8202C21.4938 20.8213 21.5017 20.8313 21.5108 20.8325C21.5198 20.8335 21.5278 20.8436 21.5358 20.8537C21.5438 20.8638 21.5528 20.8649 21.5518 20.8739C21.5597 20.884 21.5597 20.884 21.5677 20.894C21.5757 20.9041 21.5746 20.9131 21.5837 20.9142C21.5916 20.9243 21.5906 20.9333 21.5985 20.9434C21.6065 20.9535 21.6055 20.9625 21.6134 20.9726C21.6124 20.9816 21.6203 20.9917 21.6193 21.0007C21.6182 21.0097 21.6262 21.0198 21.6251 21.0288C21.624 21.0378 21.632 21.0479 21.6309 21.0569C21.6298 21.0659 21.6288 21.0749 21.6368 21.085C21.6357 21.094 21.6346 21.103 21.6335 21.112C21.6325 21.121 21.6314 21.13 21.6303 21.139C21.6293 21.148 21.6282 21.157 21.6271 21.166C21.6271 21.166 21.6271 21.166 21.626 21.175C21.6249 21.184 21.6148 21.192 21.6137 21.201L21.6127 21.21L21.6116 21.219C21.6105 21.228 21.6004 21.2359 21.5993 21.2449L21.5983 21.2539C21.5983 21.2539 21.5972 21.2629 21.5881 21.2619C21.5871 21.2709 21.5769 21.2788 21.5769 21.2788C21.5759 21.2878 21.5668 21.2867 21.5657 21.2957C21.5647 21.3047 21.5556 21.3037 21.5545 21.3126C21.5444 21.3206 21.5433 21.3296 21.5332 21.3375C21.5231 21.3455 21.522 21.3544 21.5119 21.3624C21.5018 21.3703 21.4916 21.3782 21.4815 21.3862C21.4714 21.3941 21.4613 21.402 21.4501 21.419C21.4399 21.4269 21.4298 21.4348 21.4186 21.4517L21.4085 21.4597C21.3983 21.4676 21.3871 21.4845 21.368 21.4914C21.3578 21.4993 21.3387 21.5062 21.3275 21.5231L21.3173 21.531C21.3072 21.539 21.2869 21.5548 21.2768 21.5627C21.2667 21.5707 21.2667 21.5707 21.2566 21.5786C21.2374 21.5854 21.2262 21.6024 21.207 21.6092C21.1878 21.6161 21.1766 21.633 21.1575 21.6398C21.1473 21.6478 21.1383 21.6467 21.1281 21.6546C21.109 21.6615 21.0978 21.6784 21.0786 21.6853C21.0594 21.6921 21.0391 21.708 21.029 21.7159C21.0189 21.7238 20.9997 21.7307 20.9896 21.7386C20.9704 21.7454 20.9502 21.7613 20.931 21.7681C20.9118 21.775 20.8915 21.7909 20.8724 21.7977C20.8532 21.8046 20.8431 21.8125 20.8239 21.8193C20.8047 21.8262 20.7845 21.842 20.7562 21.8478C20.737 21.8546 20.7077 21.8694 20.6885 21.8762C20.6694 21.8831 20.6401 21.8979 20.6209 21.9047C20.6017 21.9116 20.5815 21.9274 20.5532 21.9332C20.525 21.939 20.5048 21.9548 20.4765 21.9606C20.4483 21.9664 20.428 21.9822 20.3998 21.988C20.3716 21.9938 20.3513 22.0096 20.3231 22.0154C20.2948 22.0212 20.2656 22.0359 20.2464 22.0428C20.2181 22.0486 20.1888 22.0633 20.1606 22.0691C20.1324 22.0749 20.1031 22.0896 20.0748 22.0954C20.0466 22.1012 20.0082 22.1149 19.98 22.1206C19.9518 22.1264 19.9225 22.1412 19.8852 22.1459C19.8569 22.1516 19.8276 22.1664 19.7994 22.1722C19.7712 22.178 19.752 22.1848 19.7238 22.1906C19.7147 22.1895 19.7046 22.1974 19.6955 22.1963C19.6763 22.2032 19.6572 22.21 19.6289 22.2158C19.6098 22.2226 19.5906 22.2295 19.5623 22.2353C19.5432 22.2421 19.5149 22.2479 19.4968 22.2457C19.4777 22.2526 19.4494 22.2583 19.4313 22.2562C19.4223 22.2551 19.4121 22.263 19.4031 22.2619C19.3839 22.2688 19.3557 22.2746 19.3376 22.2724C19.3184 22.2792 19.2912 22.276 19.272 22.2829C19.2529 22.2897 19.2257 22.2865 19.2065 22.2933C19.1874 22.3002 19.1602 22.2969 19.141 22.3038C19.132 22.3027 19.1219 22.3106 19.1037 22.3085C19.0846 22.3153 19.0574 22.3121 19.0382 22.3189C19.0191 22.3258 18.9919 22.3226 18.9727 22.3294C18.9535 22.3362 18.9263 22.333 18.9072 22.3399C18.888 22.3467 18.8608 22.3435 18.8417 22.3503C18.8326 22.3492 18.8135 22.3561 18.8044 22.355C18.7762 22.3608 18.758 22.3586 18.7298 22.3644C18.7027 22.3611 18.6835 22.368 18.6552 22.3738C18.6281 22.3705 18.6089 22.3774 18.5807 22.3832C18.5535 22.3799 18.5343 22.3868 18.5072 22.3835C18.4981 22.3824 18.48 22.3803 18.4699 22.3882C18.4428 22.385 18.4236 22.3918 18.3964 22.3886C18.3692 22.3853 18.35 22.3922 18.3229 22.3889C18.2957 22.3857 18.2766 22.3925 18.2494 22.3893C18.2223 22.3861 18.2031 22.3929 18.1759 22.3897C18.1488 22.3864 18.1296 22.3933 18.1024 22.3901C18.0843 22.3879 18.0753 22.3868 18.0561 22.3937C18.0289 22.3904 18.0097 22.3973 17.9826 22.394C17.9554 22.3908 17.9362 22.3976 17.9091 22.3944C17.8819 22.3912 17.8638 22.389 17.8356 22.3948C17.8084 22.3915 17.7903 22.3894 17.7621 22.3951C17.735 22.3919 17.7168 22.3898 17.6886 22.3955C17.6705 22.3934 17.6614 22.3923 17.6434 22.3901C17.6162 22.3869 17.589 22.3837 17.5698 22.3905C17.5427 22.3873 17.5155 22.384 17.4974 22.3819C17.4703 22.3786 17.4431 22.3754 17.425 22.3733C17.3979 22.37 17.3707 22.3668 17.3526 22.3646C17.3254 22.3614 17.2983 22.3581 17.2802 22.356C17.262 22.3538 17.253 22.3528 17.2349 22.3506C17.2349 22.3506 17.2349 22.3506 17.2258 22.3495C17.1987 22.3463 17.1806 22.3441 17.1534 22.3409C17.1444 22.3398 17.1444 22.3398 17.1353 22.3387C17.1172 22.3366 17.0991 22.3344 17.081 22.3323C17.072 22.3311 17.0629 22.3301 17.0448 22.3279C17.0267 22.3258 17.0176 22.3247 16.9995 22.3225C16.9814 22.3204 16.9724 22.3193 16.9543 22.3171C16.9452 22.3161 16.9361 22.315 16.9271 22.3139C16.909 22.3117 16.8909 22.3096 16.8637 22.3063C16.8547 22.3053 16.8547 22.3053 16.8456 22.3042C16.8185 22.3009 16.8004 22.2988 16.7732 22.2956C16.7551 22.2934 16.737 22.2912 16.7279 22.2901C16.7008 22.2869 16.6736 22.2837 16.6465 22.2804C16.6193 22.2772 16.5922 22.2739 16.565 22.2707C16.5378 22.2675 16.5107 22.2642 16.4835 22.261C16.4564 22.2578 16.4292 22.2545 16.4031 22.2423C16.376 22.239 16.3488 22.2358 16.3227 22.2236C16.2956 22.2203 16.2695 22.2081 16.2423 22.2048C16.2242 22.2027 16.2061 22.2005 16.188 22.1984C16.1609 22.1951 16.1348 22.1829 16.1076 22.1797C16.0804 22.1764 16.0543 22.1642 16.0272 22.1609C16 22.1577 15.9739 22.1455 15.9468 22.1422C15.9196 22.139 15.8935 22.1267 15.8664 22.1235C15.8392 22.1202 15.8132 22.108 15.786 22.1048C15.7588 22.1015 15.7328 22.0893 15.7056 22.086C15.6875 22.0839 15.6705 22.0727 15.6524 22.0706C15.6252 22.0673 15.5991 22.0551 15.572 22.0518C15.5448 22.0486 15.5187 22.0364 15.4915 22.0331C15.4644 22.0299 15.4383 22.0176 15.4111 22.0144C15.3851 22.0022 15.3579 21.9989 15.3307 21.9957C15.3047 21.9834 15.2775 21.9802 15.2503 21.9769C15.2243 21.9647 15.1971 21.9615 15.171 21.9492C15.1529 21.9471 15.1359 21.9359 15.1178 21.9338C15.0917 21.9215 15.0645 21.9183 15.0385 21.906C15.0124 21.8938 14.9852 21.8905 14.9591 21.8783C14.933 21.866 14.9059 21.8628 14.8798 21.8506C14.8537 21.8383 14.8266 21.8351 14.8005 21.8228C14.7744 21.8106 14.7472 21.8074 14.7212 21.7951C14.6951 21.7829 14.6679 21.7796 14.6418 21.7674C14.6248 21.7562 14.6067 21.754 14.5886 21.7519C14.5795 21.7508 14.5795 21.7508 14.5705 21.7497C14.6082 21.8182 14.6173 21.8193 14.6173 21.8193Z" fill="white"/>
</g>
<defs>
<clipPath id="clip0_2700_11383">
<rect width="35.388" height="41.4839" fill="white"/>
</clipPath>
</defs>
</svg>
