<svg width="124" height="30" viewBox="0 0 124 30" fill="none" xmlns="http://www.w3.org/2000/svg">
<g clip-path="url(#clip0_2700_11341)">
<path d="M46.6303 6.5H49.5067V23.0793H47.0554L37.896 11.2912V23.0793H35.0195V6.5H37.7249L46.6303 17.9691V6.5Z" fill="white"/>
<path d="M54.9688 9.15168H60.2303V23.0301H63.1786V9.15168H68.4456V6.44531H54.9688V9.15168Z" fill="white"/>
<path d="M76.8285 6.44531H73.9023V23.0301H85.5628V20.3788H76.8285V6.44531Z" fill="white"/>
<path d="M112.175 14.6768V9.1155H116.426C118.584 9.1155 119.865 10.0781 119.865 11.8603V11.8989C119.865 13.5767 118.535 14.6768 116.443 14.6768H112.175ZM118.872 16.7615C121.201 16.1015 122.835 14.4622 122.835 11.7449V11.6953C122.835 10.2486 122.356 9.01648 121.462 8.11986C120.39 7.0472 118.756 6.45312 116.663 6.45312H109.254V23.0324H112.175V17.2566H115.835L119.915 23.0324H123.355L118.867 16.7615H118.872Z" fill="white"/>
<path d="M90.9805 9.06367V23.0301H103.298V20.4283H93.5809V15.9726H101.029V13.3763H93.5809V9.06367H103.298V6.44531H90.9805V9.06367Z" fill="white"/>
<path d="M0 0V29.5226H29.5045V0H0ZM20.3064 23.0812L14.697 9.91789L9.09317 23.0812H6.11181L13.3996 6.44141H16.1049L23.3817 23.0757H20.3009L20.3064 23.0812Z" fill="white"/>
</g>
<defs>
<clipPath id="clip0_2700_11341">
<rect width="123.362" height="29.5226" fill="white"/>
</clipPath>
</defs>
</svg>
