<svg width="160" height="41" viewBox="0 0 160 41" fill="none" xmlns="http://www.w3.org/2000/svg">
<g clip-path="url(#clip0_2700_11419)">
<mask id="mask0_2700_11419" style="mask-type:luminance" maskUnits="userSpaceOnUse" x="0" y="0" width="160" height="40">
<path d="M159.849 0.648438H0V39.5074H159.849V0.648438Z" fill="white"/>
</mask>
<g mask="url(#mask0_2700_11419)">
<path d="M19.8284 39.5073C8.81776 39.5 -0.00748333 30.7643 4.76162e-06 19.8813C0.00749285 9.31724 8.99212 0.64112 19.9066 0.648442C30.9247 0.65681 39.7938 9.39254 39.72 20.2693C39.6472 31.0289 30.6273 39.5419 19.8284 39.5073ZM19.8798 36.6603C29.211 36.6603 36.835 29.1901 36.8242 20.0632C36.8125 10.9845 29.2228 3.57081 20.0124 3.48818C10.9443 3.40555 2.92143 10.5912 2.9118 20.0905C2.90217 29.2288 10.5303 36.6613 19.8798 36.6603Z" fill="white"/>
<path d="M126.718 28.7744V30.4291H123.906V9.06559C124.762 9.06559 125.607 9.05094 126.454 9.08545C126.546 9.08545 126.698 9.37727 126.701 9.53521C126.722 10.7171 126.712 11.9001 126.712 13.082C126.712 14.524 126.712 15.9667 126.712 17.4101V17.9487C127.432 17.1768 128.21 16.589 129.155 16.2408C132.008 15.2043 136.227 15.8976 137.649 20.0333C138.611 22.8313 138.485 25.6041 136.81 28.1478C135.173 30.6319 131.645 31.6088 128.918 30.3338C128.12 29.9572 127.452 29.3036 126.718 28.7744ZM126.612 23.3134C126.747 24.009 126.826 24.7223 127.03 25.3959C127.586 27.1929 129.095 28.3099 130.922 28.3518C132.718 28.3936 134.231 27.3885 134.859 25.6971C135.444 24.1283 135.471 22.528 134.883 20.9527C134.317 19.434 133.212 18.5104 131.54 18.3379C129.816 18.1611 128.428 18.7437 127.491 20.2069C126.886 21.1515 126.693 22.2026 126.612 23.3134Z" fill="white"/>
<path d="M148.943 24.1627C148.745 25.7504 149.927 27.5171 151.565 28.1436C153.338 28.8224 156.131 28.5619 157.163 25.9534C157.28 25.6594 157.421 25.6009 157.722 25.7138C158.384 25.9617 159.061 26.1751 159.782 26.4209C159.139 28.2617 157.981 29.6017 156.178 30.3453C152.274 31.9571 147.058 30.2323 146.083 25.0789C145.622 22.6409 145.988 20.344 147.605 18.3734C149.489 16.0723 151.981 15.36 154.873 16.0473C157.566 16.6862 159.07 18.4843 159.616 21.0677C159.795 21.9045 159.781 22.7904 159.853 23.6534C159.888 24.0612 159.696 24.1763 159.284 24.1763C156.042 24.1607 152.8 24.1669 149.557 24.1669L148.943 24.1627ZM156.859 21.8679C156.844 19.6369 155.06 18.1338 152.679 18.2855C150.631 18.4152 148.861 20.1536 149.058 21.8679H156.859Z" fill="white"/>
<path d="M81.4866 24.1615C81.3861 26.0055 82.7329 27.7774 84.53 28.269C86.9091 28.9206 88.5533 28.1257 89.9503 25.605L92.3497 26.4114C92.1118 27.2548 91.6772 28.0327 91.08 28.6843C88.0205 32.1181 82.0279 31.5365 79.606 27.5787C77.7009 24.4649 78.2443 20.0406 80.8844 17.6265C83.0239 15.6695 85.557 15.3327 88.2377 16.2866C90.7751 17.1893 91.956 19.1808 92.3219 21.6931C92.4139 22.327 92.4064 22.9733 92.4609 23.6124C92.4994 24.0497 92.308 24.172 91.8737 24.1699C88.6314 24.1553 85.3891 24.1615 82.1466 24.1615H81.4866ZM89.4443 21.8605C89.4443 19.7446 87.8119 18.2802 85.5141 18.2823C83.3854 18.2823 81.5958 19.8973 81.5839 21.8605H89.4443Z" fill="white"/>
<path d="M52.7719 30.4257H49.9531V16.2793H52.6906V18.1536C52.8863 17.9381 52.9847 17.8398 53.0746 17.7279C54.493 16.0094 56.363 15.544 58.4896 15.9665C60.4932 16.3639 61.6645 17.6578 62.1459 19.5531C62.2985 20.1601 62.3785 20.7824 62.3845 21.4075C62.4091 24.2065 62.3951 27.0065 62.3951 29.8055V30.4131H59.5379V29.8546C59.5379 27.2982 59.555 24.742 59.5262 22.1868C59.5198 21.5461 59.43 20.9089 59.2588 20.2904C58.9988 19.3742 58.3312 18.7938 57.3909 18.5197C54.8942 17.7875 52.8863 19.2445 52.8008 21.9608C52.7184 24.5673 52.7729 27.177 52.7676 29.7856C52.7719 29.9895 52.7719 30.1934 52.7719 30.4257Z" fill="white"/>
<path d="M105.273 19.6376L102.813 20.534C102.741 20.3792 102.675 20.2589 102.628 20.1334C102.01 18.5028 100.286 17.7518 98.6366 18.3961C97.7627 18.7382 97.2984 19.4023 97.353 20.2328C97.4032 20.9974 97.936 21.537 98.8698 21.7515C99.9395 21.9984 101.032 22.1939 102.091 22.492C103.349 22.8466 104.383 23.538 104.966 24.7324C105.866 26.5806 105.221 28.7562 103.429 29.98C101.044 31.6074 96.9818 31.1117 95.1418 28.9151C94.714 28.4058 94.4744 27.7437 94.1791 27.1371C94.1289 27.0324 94.2133 26.749 94.3021 26.7187C95.0584 26.4289 95.8308 26.1779 96.6223 25.907C96.6758 26.0576 96.7154 26.1507 96.7442 26.2469C97.3048 28.1066 99.4304 29.0835 101.277 28.3273C102.033 28.0135 102.511 27.4906 102.518 26.6675C102.526 25.8798 102.077 25.3223 101.342 25.0891C100.416 24.7941 99.4485 24.6226 98.504 24.3799C97.9884 24.2481 97.4599 24.1321 96.9775 23.9218C94.53 22.8539 93.7576 20.0518 95.3526 17.938C96.6908 16.1661 98.5681 15.6076 100.735 15.8764C102.92 16.1463 104.469 17.2362 105.183 19.328C105.223 19.4054 105.237 19.4901 105.273 19.6376Z" fill="white"/>
<path d="M63.5781 16.2446C64.6393 16.2446 65.5999 16.2257 66.5574 16.2644C66.706 16.2708 66.9092 16.5207 66.9767 16.6974C67.8431 18.9546 68.6882 21.2191 69.544 23.4815C69.9541 24.5721 70.3631 25.6627 70.7709 26.7532C70.829 26.8745 70.894 26.9925 70.9657 27.1067C71.4021 25.9708 71.8097 24.9249 72.2087 23.8758C73.1222 21.4694 74.0326 19.062 74.9397 16.6536C75.0467 16.3565 75.2124 16.2226 75.5612 16.2352C76.3956 16.2623 77.2322 16.2446 78.1735 16.2446C77.844 17.073 77.5455 17.8407 77.2343 18.6032C75.7089 22.3393 74.1684 26.0712 72.6633 29.8157C72.4654 30.3084 72.228 30.5333 71.6631 30.4757C71.0935 30.4305 70.5211 30.4305 69.9516 30.4757C69.5867 30.4967 69.4167 30.3649 69.283 30.0427C67.816 26.4669 66.3423 22.8954 64.8618 19.328L63.5781 16.2446Z" fill="white"/>
<path d="M109.466 18.7565H106.766V16.2378C107.042 16.2378 107.3 16.2378 107.561 16.2378C108.926 16.2169 109.7 15.4618 109.73 14.1198C109.744 13.3573 109.73 12.5937 109.73 11.7529C110.548 11.7529 111.325 11.7392 112.1 11.7717C112.188 11.7717 112.336 12.0373 112.338 12.1806C112.358 13.3311 112.348 14.4754 112.351 15.6228C112.351 15.809 112.368 15.9952 112.379 16.2399H115.482V18.7638C114.697 18.7638 113.922 18.7638 113.146 18.7638C112.258 18.769 112.357 18.678 112.356 19.5545C112.352 21.6408 112.352 23.7272 112.356 25.8135C112.356 25.9348 112.356 26.0572 112.356 26.1785C112.394 27.5727 113.105 28.193 114.543 28.0895C114.842 28.0685 115.14 28.0361 115.513 28.0016C115.513 28.7536 115.526 29.4596 115.498 30.1646C115.498 30.2608 115.303 30.4009 115.177 30.4313C114.108 30.6918 113.023 30.7305 111.968 30.3769C110.61 29.9251 109.848 28.9555 109.602 27.6021C109.516 27.0879 109.475 26.5676 109.479 26.0467C109.466 23.8387 109.479 21.6307 109.479 19.4227L109.466 18.7565Z" fill="white"/>
<path d="M109.466 18.7565H106.766V16.2378C107.042 16.2378 107.3 16.2378 107.561 16.2378C108.926 16.2169 109.7 15.4618 109.73 14.1198C109.744 13.3573 109.73 12.5937 109.73 11.7529C110.548 11.7529 111.325 11.7392 112.1 11.7717C112.188 11.7717 112.336 12.0373 112.338 12.1806C112.358 13.3311 112.348 14.4754 112.351 15.6228C112.351 15.809 112.368 15.9952 112.379 16.2399H115.482V18.7638C114.697 18.7638 113.922 18.7638 113.146 18.7638C112.258 18.769 112.357 18.678 112.356 19.5545C112.352 21.6408 112.352 23.7272 112.356 25.8135C112.356 25.9348 112.356 26.0572 112.356 26.1785C112.394 27.5727 113.105 28.193 114.543 28.0895C114.842 28.0685 115.14 28.0361 115.513 28.0016C115.513 28.7536 115.526 29.4596 115.498 30.1646C115.498 30.2608 115.303 30.4009 115.177 30.4313C114.108 30.6918 113.023 30.7305 111.968 30.3769C110.61 29.9251 109.848 28.9555 109.602 27.6021C109.516 27.0879 109.475 26.5676 109.479 26.0467C109.466 23.8387 109.479 21.6307 109.479 19.4227L109.466 18.7565Z" fill="white"/>
<path d="M143.423 30.4312H140.63C140.621 30.2325 140.603 30.0485 140.603 29.8643C140.603 23.1361 140.598 16.4072 140.59 9.67758C140.59 9.15461 140.754 9.02387 141.256 9.05002C141.962 9.08976 142.672 9.06047 143.423 9.06047V30.4312Z" fill="white"/>
<path d="M47.4677 30.4308H44.7109V16.2812H47.4677V30.4308Z" fill="white"/>
<path d="M118.078 16.2656H120.843V30.4267H118.078V16.2656Z" fill="white"/>
<path d="M121.512 10.8574C121.514 11.1232 121.462 11.3866 121.359 11.6324C121.255 11.8782 121.104 12.1015 120.912 12.2893C120.72 12.477 120.49 12.6254 120.239 12.7261C119.988 12.8266 119.718 12.8773 119.447 12.8751C119.179 12.8768 118.914 12.8262 118.667 12.7262C118.42 12.6261 118.196 12.4789 118.008 12.2929C117.82 12.1069 117.672 11.886 117.573 11.6432C117.473 11.4005 117.425 11.1408 117.43 10.8794C117.43 9.75291 118.297 8.87537 119.425 8.85967C119.697 8.8551 119.967 8.90333 120.219 9.00158C120.471 9.09983 120.701 9.24613 120.895 9.43197C121.089 9.61783 121.244 9.83954 121.35 10.0842C121.456 10.3289 121.511 10.5917 121.512 10.8574Z" fill="white"/>
<path d="M46.062 12.8748C45.5237 12.8578 45.0138 12.6348 44.6421 12.2539C44.2703 11.8728 44.0665 11.3642 44.0744 10.8377C44.0825 10.3112 44.3017 9.80885 44.6848 9.4388C45.0679 9.06877 45.5845 8.86068 46.123 8.85938C46.6613 8.87632 47.1712 9.0993 47.543 9.4803C47.9147 9.86131 48.1185 10.3699 48.1106 10.8964C48.1025 11.4229 47.8834 11.9252 47.5002 12.2953C47.1171 12.6654 46.6006 12.8735 46.062 12.8748Z" fill="white"/>
<path d="M19.9069 27.8994H28.2412C29.3591 27.8994 29.6083 28.1474 29.6073 29.2592C29.6073 29.3638 29.6073 29.4684 29.6073 29.5729C29.5848 30.2351 29.221 30.6032 28.5375 30.6032C22.7674 30.6081 16.9973 30.6081 11.2272 30.6032C10.5051 30.6032 10.1457 30.2393 10.1328 29.5458C10.1328 29.4067 10.1328 29.2675 10.1328 29.1274C10.1328 28.1766 10.4216 27.8984 11.4165 27.8984L19.9069 27.8994Z" fill="white"/>
<path d="M21.0463 16.4363C21.0463 18.6788 21.0463 20.9217 21.0463 23.1649C21.0463 24.0634 20.7072 24.3614 19.7102 24.3625C18.6768 24.3625 18.3291 24.0655 18.3281 23.1513C18.3281 18.6489 18.3281 14.1458 18.3281 9.64189C18.3281 9.15134 18.4298 8.73818 18.9379 8.53632C19.523 8.30412 20.5306 8.41081 20.797 8.78735C20.9557 9.03128 21.0406 9.31409 21.0419 9.60319C21.0548 11.8781 21.0463 14.1551 21.0463 16.4363Z" fill="white"/>
<path d="M11.485 12.3834C12.1706 12.3677 12.4477 12.6731 12.6542 13.0968C13.5563 14.9836 14.4602 16.8698 15.3659 18.7552C16.0441 20.1695 16.7216 21.5836 17.3984 22.9977C17.7825 23.802 17.6123 24.2382 16.7822 24.6199C16.6849 24.6648 16.5897 24.7099 16.4913 24.7517C15.7991 25.0519 15.32 24.9013 15.0001 24.2382C13.3712 20.8632 11.7481 17.4855 10.1307 14.105C9.844 13.5057 10.0344 13.0183 10.6485 12.7244C10.9683 12.5717 11.3009 12.4577 11.485 12.3834Z" fill="white"/>
<path d="M27.4527 18.7187C27.405 18.8794 27.3433 19.0358 27.2687 19.1863C26.3059 20.9086 25.3375 22.6282 24.3633 24.3449C23.9675 25.0436 23.4818 25.1743 22.7683 24.7957C22.5942 24.7086 22.425 24.6126 22.2613 24.5081C21.7831 24.188 21.6366 23.7341 21.9105 23.2393C22.9195 21.4229 23.9412 19.6127 24.9752 17.8088C25.2886 17.2618 25.8064 17.1467 26.3947 17.4333C27.2473 17.8485 27.457 18.0797 27.4527 18.7187Z" fill="white"/>
<path d="M13.0593 26.6654C12.8208 26.5336 12.5512 26.4353 12.3501 26.2617C11.6162 25.6341 10.9006 24.9782 10.1892 24.3225C9.64904 23.8235 9.63941 23.31 10.1358 22.7744C10.2434 22.658 10.3543 22.545 10.4684 22.4355C10.9391 21.9827 11.4912 21.9534 11.9864 22.3864C12.7288 23.0349 13.4619 23.6931 14.1858 24.3612C14.7335 24.8664 14.7485 25.3611 14.2317 25.9029C13.9226 26.2272 13.6542 26.6372 13.0593 26.6654Z" fill="white"/>
</g>
</g>
<defs>
<clipPath id="clip0_2700_11419">
<rect width="159.849" height="40.2137" fill="white"/>
</clipPath>
</defs>
</svg>
