<svg width="68" height="24" viewBox="0 0 68 24" fill="none" xmlns="http://www.w3.org/2000/svg">
<g clip-path="url(#clip0_2700_11333)">
<path d="M28.4516 22.8092C26.7205 22.8092 25.1771 22.4755 23.8214 21.8081C22.4657 21.1407 21.3916 20.1708 20.599 18.8986C19.8273 17.6055 19.4414 16.0725 19.4414 14.2997C19.4414 12.4434 19.8168 10.8061 20.5677 9.38783C21.3186 7.96959 22.3614 6.87461 23.6963 6.1029C25.0519 5.31035 26.6057 4.91406 28.3578 4.91406C30.1723 4.91406 31.6949 5.31035 32.9255 6.1029C34.156 6.87461 35.0737 7.99045 35.6785 9.45048C36.3043 10.9104 36.6067 12.6415 36.5858 14.6438H21.1621V11.7343H34.1768L32.331 13.1108C32.331 12.0888 32.185 11.192 31.893 10.4203C31.6219 9.64861 31.1839 9.03331 30.579 8.57444C29.995 8.11559 29.2546 7.88617 28.3578 7.88617C27.4401 7.88617 26.637 8.13645 25.9488 8.63702C25.2605 9.1376 24.7287 9.86756 24.3532 10.827C23.9778 11.7864 23.7901 12.9127 23.7901 14.2058C23.7901 15.3529 23.9883 16.3437 24.3845 17.1779C24.8017 18.0122 25.3648 18.6483 26.0739 19.0863C26.804 19.5034 27.6069 19.712 28.4829 19.712C29.6926 19.712 30.6938 19.3888 31.4863 18.7422C32.2997 18.0747 32.8941 17.2405 33.2695 16.2394L36.8048 18.3668C35.8036 19.8684 34.5835 20.9843 33.1444 21.7143C31.7261 22.4443 30.1619 22.8092 28.4516 22.8092Z" fill="white"/>
<path d="M46.8344 22.8092C45.1033 22.8092 43.5599 22.4755 42.2042 21.8081C40.8485 21.1407 39.7744 20.1708 38.9818 18.8986C38.2101 17.6055 37.8242 16.0725 37.8242 14.2997C37.8242 12.4434 38.1996 10.8061 38.9505 9.38783C39.7014 7.96959 40.7442 6.87461 42.079 6.1029C43.4347 5.31035 44.9886 4.91406 46.7406 4.91406C48.5551 4.91406 50.0777 5.31035 51.3082 6.1029C52.5388 6.87461 53.4565 7.99045 54.0613 9.45048C54.687 10.9104 54.9895 12.6415 54.9686 14.6438H39.5449V11.7343H52.5596L50.7138 13.1108C50.7138 12.0888 50.5678 11.192 50.2758 10.4203C50.0047 9.64861 49.5667 9.03331 48.9618 8.57444C48.3778 8.11559 47.6374 7.88617 46.7406 7.88617C45.8229 7.88617 45.0198 8.13645 44.3316 8.63702C43.6433 9.1376 43.1115 9.86756 42.736 10.827C42.3606 11.7864 42.1729 12.9127 42.1729 14.2058C42.1729 15.3529 42.3711 16.3437 42.7673 17.1779C43.1845 18.0122 43.7476 18.6483 44.4567 19.0863C45.1867 19.5034 45.9897 19.712 46.8657 19.712C48.0754 19.712 49.0765 19.3888 49.8691 18.7422C50.6825 18.0747 51.2769 17.2405 51.6523 16.2394L55.1876 18.3668C54.1864 19.8684 52.9663 20.9843 51.5272 21.7143C50.109 22.4443 48.5447 22.8092 46.8344 22.8092Z" fill="white"/>
<path d="M56.3633 0H60.5555V18.3019C60.5555 19.7828 60.6284 21.1385 60.7745 22.369H56.3633V0Z" fill="white"/>
<path d="M0 13.8707C0 7.67478 3.95515 4.92142 8.29207 4.92142C12.2503 4.92142 13.9194 7.43634 13.9194 7.43634V0.0078125H18.2064V18.3147C18.2064 19.8174 18.2581 21.1734 18.3629 22.3826H13.9207V20.3278C13.9207 20.3278 12.2198 22.8201 8.29347 22.8201C4.10777 22.8201 0 20.4182 0 13.8707ZM9.38703 19.5307C12.4232 19.5307 14.3863 17.2197 14.3863 13.8707C14.3863 10.4047 12.4219 8.21082 9.38703 8.21082C6.35219 8.21082 4.46034 10.2963 4.46034 13.8707C4.46034 17.4452 6.43187 19.5307 9.38703 19.5307Z" fill="white"/>
<path d="M63.2656 18.3594H67.3952V22.3639H63.2656V18.3594Z" fill="white"/>
</g>
<defs>
<clipPath id="clip0_2700_11333">
<rect width="67.3965" height="23.3296" fill="white"/>
</clipPath>
</defs>
</svg>
