<svg width="159" height="25" viewBox="0 0 159 25" fill="none" xmlns="http://www.w3.org/2000/svg">
<g clip-path="url(#clip0_2700_11369)">
<mask id="mask0_2700_11369" style="mask-type:luminance" maskUnits="userSpaceOnUse" x="0" y="0" width="158" height="25">
<path d="M0 0H157.699V25H0V0Z" fill="white"/>
</mask>
<g mask="url(#mask0_2700_11369)">
<path d="M21.8802 10.312L11.5708 16.1307L0.53125 9.91406L0 10.2016V14.7151L11.5708 21.2193L21.8802 15.4234V17.812L11.5708 23.6307L0.53125 17.4141L0 17.7016V18.4766L11.5708 24.9807L23.1198 18.4766V13.963L22.5885 13.6755L11.5708 19.8703L1.23854 14.0734V11.6839L11.5708 17.4807L23.1198 10.9766V6.52864L22.5437 6.19739L11.5708 12.3703L1.76979 6.88281L11.5708 1.37448L19.6229 5.90989L20.3312 5.51094V4.95885L11.5719 0.0234375L0 6.52864V7.23698L11.5708 13.7411L21.8802 7.92239V10.312Z" fill="white"/>
<path d="M44.7375 21.2818V1.41406H41.6844V8.84739C41.6844 8.95885 41.6177 9.04739 41.5073 9.09114C41.4581 9.10903 41.4047 9.11224 41.3537 9.10041C41.3026 9.08858 41.2561 9.0622 41.2198 9.02448C40.1802 7.80781 38.5646 7.12344 36.7948 7.12344C33.0115 7.12344 30.0469 10.3089 30.0469 14.3797C30.0469 16.3714 30.7333 18.2078 31.9948 19.5568C32.6071 20.2171 33.35 20.743 34.1763 21.1011C35.0026 21.4592 35.8943 21.6417 36.7948 21.637C38.5427 21.637 40.1573 20.9068 41.2198 19.6453C41.2865 19.5568 41.4188 19.5349 41.5073 19.5568C41.6177 19.6016 41.6844 19.6901 41.6844 19.8005V21.2828L44.7375 21.2818ZM37.4583 18.8703C35.025 18.8703 33.1219 16.9016 33.1219 14.3786C33.1219 11.8568 35.025 9.88802 37.4583 9.88802C39.8917 9.88802 41.7948 11.8568 41.7948 14.3786C41.7948 16.9005 39.8927 18.8703 37.4583 18.8703ZM61.0646 21.2818V7.45365H58.0333V8.84739C58.0333 8.95885 57.9677 9.04739 57.8562 9.09114C57.7458 9.13594 57.6354 9.09114 57.5687 9.0026C56.551 7.78594 54.9583 7.10052 53.1448 7.10052C49.3615 7.10052 46.3969 10.2859 46.3969 14.3568C46.3969 18.4276 49.3615 21.613 53.1448 21.613C54.8917 21.613 56.5073 20.8839 57.5687 19.6005C57.6354 19.512 57.7677 19.4891 57.8562 19.512C57.9677 19.5557 58.0333 19.6443 58.0333 19.7547V21.2589H61.0646V21.2818ZM53.8302 18.8703C51.3969 18.8703 49.4937 16.9016 49.4937 14.3786C49.4937 11.8568 51.3969 9.88802 53.8302 9.88802C56.2635 9.88802 58.1667 11.8568 58.1667 14.3786C58.1667 16.9005 56.2635 18.8703 53.8302 18.8703ZM87.0167 21.2818V7.45365H83.9854V8.84739C83.9854 8.95885 83.9187 9.04739 83.8083 9.09114C83.6979 9.13489 83.5875 9.09114 83.5208 9.0026C82.5031 7.78594 80.9104 7.10052 79.0958 7.10052C75.2906 7.10052 72.3479 10.2859 72.3479 14.3786C72.3479 18.4714 75.3125 21.6359 79.0958 21.6359C80.8437 21.6359 82.4583 20.9057 83.5208 19.6224C83.5875 19.5339 83.7198 19.512 83.8083 19.5339C83.9187 19.5776 83.9854 19.6661 83.9854 19.7766V21.2818H87.0167ZM79.7823 18.8703C77.3479 18.8703 75.4458 16.9016 75.4458 14.3786C75.4458 11.8568 77.3479 9.88802 79.7823 9.88802C82.2156 9.88802 84.1177 11.8568 84.1177 14.3786C84.1177 16.9005 82.2156 18.8703 79.7823 18.8703ZM92.5698 19.6443C92.5906 19.6443 92.6354 19.6224 92.6573 19.6224C92.7239 19.6224 92.8135 19.6661 92.8573 19.7109C93.8969 20.9276 95.5115 21.613 97.2823 21.613C101.065 21.613 104.029 18.4276 104.029 14.3568C104.029 12.3651 103.344 10.5297 102.082 9.17969C101.47 8.51954 100.727 7.99385 99.9007 7.63594C99.0744 7.27802 98.1827 7.0957 97.2823 7.10052C95.5344 7.10052 93.9187 7.82969 92.8573 9.09114C92.7906 9.17969 92.6802 9.20156 92.5698 9.17969C92.4583 9.13594 92.3927 9.04739 92.3927 8.93594V1.4151H89.3396V21.2818H92.3917V19.888C92.3917 19.7766 92.4594 19.6891 92.5698 19.6443ZM92.2583 14.3786C92.2583 11.8568 94.1614 9.88802 96.5948 9.88802C99.0281 9.88802 100.931 11.8568 100.931 14.3786C100.931 16.9005 99.0281 18.8703 96.5948 18.8703C94.1614 18.8703 92.2583 16.8786 92.2583 14.3786ZM112.856 10.2859C113.145 10.2859 113.409 10.3078 113.586 10.3526V7.21094C113.419 7.18217 113.249 7.16719 113.078 7.16615C111.485 7.16615 110.025 7.98489 109.25 9.29114C109.184 9.40052 109.074 9.44531 108.962 9.40052C108.907 9.3872 108.858 9.3563 108.822 9.3125C108.786 9.26871 108.766 9.2144 108.764 9.15781V7.45365H105.732V21.3036H108.785V15.1974C108.785 12.1661 110.334 10.2859 112.856 10.2859ZM118.609 7.45365H115.511V21.3036H118.609V7.45365ZM117.017 1.43594C115.976 1.43594 115.135 2.27656 115.135 3.31719C115.135 4.35677 115.976 5.1974 117.017 5.1974C118.056 5.1974 118.897 4.35677 118.897 3.31719C118.897 2.27656 118.056 1.43594 117.017 1.43594ZM127.68 7.10052C123.432 7.10052 120.357 10.1526 120.357 14.3786C120.357 16.437 121.086 18.2724 122.393 19.6005C123.72 20.9276 125.578 21.6578 127.657 21.6578C129.383 21.6578 130.71 21.3255 133.233 19.4672L131.485 17.6307C130.246 18.4495 129.096 18.8484 127.968 18.8484C125.401 18.8484 123.476 16.9234 123.476 14.3797C123.476 11.8359 125.401 9.90989 127.968 9.90989C129.184 9.90989 130.312 10.3078 131.441 11.1266L133.387 9.2901C131.109 7.34323 129.051 7.10052 127.68 7.10052ZM138.609 15.1974C138.657 15.1528 138.721 15.1289 138.786 15.1307H138.808C138.875 15.1307 138.941 15.1755 139.007 15.2193L143.897 21.2818H147.658L141.33 13.6266C141.242 13.5161 141.242 13.3609 141.352 13.2724L147.171 7.45365H143.432L138.41 12.4984C138.344 12.5651 138.233 12.587 138.123 12.5651C138.077 12.5433 138.038 12.5088 138.01 12.4657C137.983 12.4225 137.968 12.3725 137.968 12.3214V1.43594H134.893V21.3036H137.946V15.9047C137.946 15.838 137.968 15.7495 138.034 15.7047L138.609 15.1974Z" fill="white"/>
<path d="M152.63 21.6396C155.13 21.6396 157.675 20.1125 157.675 17.2146C157.675 15.3115 156.48 14.0062 154.047 13.2104L152.387 12.6573C151.258 12.2802 150.728 11.75 150.728 11.0198C150.728 10.1792 151.48 9.60312 152.542 9.60312C153.559 9.60312 154.467 10.2677 155.042 11.4177L157.498 10.0906C156.591 8.23229 154.71 7.08125 152.542 7.08125C149.799 7.08125 147.807 8.85208 147.807 11.2625C147.807 13.1875 148.958 14.4708 151.325 15.2229L153.029 15.776C154.223 16.1521 154.732 16.6396 154.732 17.4135C154.732 18.5854 153.648 19.0073 152.719 19.0073C151.48 19.0073 150.374 18.2104 149.843 16.9042L147.343 18.2323C148.161 20.3333 150.175 21.6396 152.63 21.6396ZM69.5552 21.5062C70.5292 21.5062 71.3917 21.4177 71.8781 21.3521V18.6958C71.4802 18.7406 70.7719 18.7854 70.3521 18.7854C69.1125 18.7854 68.1615 18.5635 68.1615 15.8865V10.201C68.1615 10.0458 68.2719 9.93542 68.4271 9.93542H71.4135V7.43542H68.4271C68.3918 7.43689 68.3566 7.43102 68.3237 7.4182C68.2908 7.40537 68.2609 7.38585 68.236 7.36089C68.211 7.33592 68.1915 7.30605 68.1787 7.27316C68.1658 7.24026 68.16 7.20507 68.1615 7.16979V3.1875H65.1094V7.19271C65.1107 7.22799 65.1047 7.26316 65.0917 7.29601C65.0788 7.32885 65.0592 7.35865 65.0341 7.38351C65.009 7.40838 64.9791 7.42778 64.9461 7.44048C64.9132 7.45318 64.878 7.4589 64.8427 7.45729H62.7188V9.95729H64.8437C64.9979 9.95729 65.1083 10.0687 65.1083 10.2229V16.6604C65.1083 21.5062 68.3375 21.5062 69.5552 21.5062Z" fill="white"/>
</g>
</g>
<defs>
<clipPath id="clip0_2700_11369">
<rect width="158.333" height="25" fill="white"/>
</clipPath>
</defs>
</svg>
