<svg width="70" height="35" viewBox="0 0 70 35" fill="none" xmlns="http://www.w3.org/2000/svg">
<g clip-path="url(#clip0_2700_11378)">
<path d="M0 0V34.9875H69.975V0H0ZM68.5755 33.588H1.3995V1.3995H68.5755V33.588ZM9.17924 18.1762C9.17924 14.6688 12.1402 12.61 14.7967 12.61C16.6987 12.61 18.4725 13.3231 19.4214 14.9661L17.6448 15.9962C17.3389 15.534 16.9201 15.155 16.4294 14.8957C15.9374 14.6364 15.3889 14.5011 14.8319 14.5054C13.2696 14.5054 11.4112 15.7242 11.4112 18.1395C11.4112 20.5548 13.1879 21.7948 14.9799 21.7948C16.2264 21.7948 17.2613 21.1002 17.8747 20.0278L19.6907 20.8663C18.6629 22.715 16.8257 23.7 14.6924 23.7C12.0091 23.6972 9.17924 21.6357 9.17924 18.1748V18.1762ZM26.1739 23.7C27.6502 23.7 29.0446 23.049 29.7638 22.1035V23.404H31.9577V12.882H29.7638V14.1855C29.0799 13.2315 27.653 12.61 26.1739 12.61C22.9421 12.61 20.682 14.9619 20.682 18.1551C20.682 21.3482 22.9633 23.7 26.1739 23.7ZM26.3854 14.6055C28.413 14.6055 29.8047 16.1174 29.8047 18.1551C29.8047 20.1927 28.4115 21.7047 26.3854 21.7047C24.3592 21.7047 22.9211 20.1715 22.9211 18.1127C22.9211 16.054 24.3578 14.6055 26.3854 14.6055ZM43.7481 14.9704H41.4709V12.8694H43.7693V10.1272H46.0294V12.8694H48.3264V14.9704H46.0294V23.3999H43.7481V14.9704ZM54.6275 23.7C56.1067 23.7 57.5012 23.049 58.2202 22.1035V23.404H60.417V12.882H58.2202V14.1855C57.5364 13.2315 56.1095 12.61 54.6275 12.61C51.3987 12.61 49.1384 14.9619 49.1384 18.1551C49.1384 21.3482 51.4184 23.7 54.6275 23.7ZM54.8419 14.6055C56.8666 14.6055 58.2625 16.1174 58.2625 18.1551C58.2625 20.1927 56.8666 21.7047 54.8419 21.7047C52.8171 21.7047 51.3775 20.1715 51.3775 18.1127C51.3775 16.054 52.8143 14.6055 54.8419 14.6055ZM36.9251 23.39H34.6438V12.8679H36.7333V14.8266C37.2508 13.6627 38.0277 12.9046 39.2911 12.8411C39.552 12.837 39.8113 12.8411 40.0722 12.8694L40.0372 14.9747C38.2225 14.9747 36.9266 15.9469 36.9266 18.6581V23.3914L36.9251 23.39Z" fill="white"/>
</g>
<defs>
<clipPath id="clip0_2700_11378">
<rect width="69.975" height="34.9875" fill="white"/>
</clipPath>
</defs>
</svg>
