<svg width="62" height="37" viewBox="0 0 62 37" fill="none" xmlns="http://www.w3.org/2000/svg">
<path d="M1.26168 36.4822V31.8493H0.123998C0.0480493 31.8493 0 31.7982 0 31.7253V30.9209C0 30.8449 0.0495993 30.7969 0.123998 30.7969H3.57891C3.65486 30.7969 3.70291 30.848 3.70291 30.9209V31.7253C3.70291 31.8013 3.65331 31.8493 3.57891 31.8493H2.44897V36.4822C2.44897 36.5582 2.39937 36.6062 2.32497 36.6062H1.38723C1.31283 36.6062 1.26168 36.5566 1.26168 36.4822Z" fill="white"/>
<path d="M4.19141 36.4736V32.6544C4.19141 32.5785 4.241 32.5304 4.3154 32.5304H5.17874C5.25469 32.5304 5.29499 32.563 5.30274 32.6622L5.33529 33.1861C5.47634 32.7536 5.73209 32.4297 6.21568 32.4297C6.40788 32.4297 6.52413 32.4793 6.58923 32.5289C6.64813 32.5692 6.66518 32.6203 6.66518 32.6932V33.4248C6.66518 33.524 6.60628 33.5488 6.50088 33.524C6.40943 33.4992 6.31798 33.4837 6.20173 33.4837C5.63754 33.4837 5.33839 33.8572 5.33839 34.44V36.4736C5.33839 36.5495 5.28879 36.5976 5.21439 36.5976H4.31695C4.24101 36.5976 4.19141 36.548 4.19141 36.4736Z" fill="white"/>
<path d="M7.08984 34.564C7.08984 33.3597 7.87878 32.4297 9.02422 32.4297C9.63801 32.4297 10.0782 32.6777 10.3526 33.1024L10.3696 32.6544C10.3696 32.5785 10.4192 32.5304 10.4936 32.5304H11.3073C11.3833 32.5304 11.4313 32.58 11.4313 32.6544V36.4736C11.4313 36.5495 11.3724 36.5976 11.2996 36.5976H10.4952C10.4192 36.5976 10.3712 36.548 10.3712 36.4736L10.3541 36.0256C10.0705 36.441 9.63336 36.6983 9.02577 36.6983C7.87878 36.6968 7.08984 35.7761 7.08984 34.564ZM9.26447 35.6521C9.86896 35.6521 10.2937 35.2197 10.2937 34.564C10.2937 33.9084 9.87051 33.4759 9.26447 33.4759C8.65997 33.4759 8.21048 33.9161 8.21048 34.564C8.21048 35.2197 8.65997 35.6521 9.26447 35.6521Z" fill="white"/>
<path d="M12.2109 34.547C12.2109 33.3426 13.1161 32.4297 14.336 32.4297C15.0087 32.4297 15.5651 32.7102 15.9138 33.1613C15.9634 33.2202 15.9464 33.2853 15.8968 33.3364L15.3993 33.8262C15.3326 33.8929 15.2427 33.8851 15.1838 33.8262C14.9591 33.6015 14.7188 33.4852 14.3871 33.4852C13.7392 33.4852 13.3176 33.9502 13.3176 34.547C13.3176 35.1437 13.7408 35.6428 14.4135 35.6428C14.7297 35.6428 14.9699 35.5265 15.1947 35.3018C15.2536 35.2429 15.3434 35.2352 15.4101 35.3018L15.9076 35.7916C15.9572 35.8412 15.9743 35.9078 15.9247 35.9667C15.5759 36.4147 15.0195 36.6983 14.3639 36.6983C13.1239 36.6968 12.2109 35.7683 12.2109 34.547Z" fill="white"/>
<path d="M17.0815 35.4629V33.4216H16.5654C16.4895 33.4216 16.4414 33.3705 16.4414 33.2976V32.6575C16.4414 32.5815 16.491 32.5335 16.5654 32.5335H17.0815V31.5771C17.0815 31.5012 17.1311 31.4531 17.2055 31.4531H18.1107C18.1867 31.4531 18.2347 31.5027 18.2347 31.5771V32.5335H18.8749C18.9508 32.5335 18.9989 32.5831 18.9989 32.6575V33.2976C18.9989 33.3736 18.9493 33.4216 18.8749 33.4216H18.2347V35.3389C18.2347 35.5792 18.3758 35.6954 18.5912 35.6954C18.6672 35.6954 18.7478 35.6954 18.8485 35.6877C18.94 35.6799 18.9973 35.7202 18.9973 35.8039V36.4084C18.9973 36.6006 18.5819 36.6487 18.3091 36.6487C17.6628 36.6518 17.0815 36.3511 17.0815 35.4629Z" fill="white"/>
<path d="M19.4922 34.564C19.4922 33.3597 20.3974 32.4297 21.6265 32.4297C22.8479 32.4297 23.7515 33.3597 23.7515 34.564C23.7515 35.7683 22.8463 36.6983 21.6265 36.6983C20.3958 36.6968 19.4922 35.7683 19.4922 34.564ZM21.625 35.6428C22.1969 35.6428 22.6464 35.2274 22.6464 34.5625C22.6464 33.8975 22.1985 33.4821 21.625 33.4821C21.0437 33.4821 20.5958 33.8975 20.5958 34.5625C20.5958 35.2274 21.0453 35.6428 21.625 35.6428Z" fill="white"/>
<path d="M24.5234 36.4736V32.6544C24.5234 32.5785 24.573 32.5304 24.6474 32.5304H25.5108C25.5867 32.5304 25.627 32.563 25.6348 32.6622L25.6673 33.1861C25.8084 32.7536 26.0641 32.4297 26.5477 32.4297C26.7399 32.4297 26.8562 32.4793 26.9213 32.5289C26.9802 32.5692 26.9972 32.6203 26.9972 32.6932V33.4248C26.9972 33.524 26.9383 33.5488 26.8329 33.524C26.7415 33.4992 26.65 33.4837 26.5338 33.4837C25.9696 33.4837 25.6704 33.8572 25.6704 34.44V36.4736C25.6704 36.5495 25.6193 36.5976 25.5464 36.5976H24.649C24.5715 36.5976 24.5234 36.548 24.5234 36.4736Z" fill="white"/>
<path d="M31.0197 36.507L29.0776 30.9379C29.045 30.8542 29.0853 30.7969 29.1768 30.7969H30.1564C30.2215 30.7969 30.2726 30.8217 30.2974 30.8961L31.6753 35.1151L33.0533 30.8961C33.0781 30.8201 33.1292 30.7969 33.1943 30.7969H34.1739C34.2654 30.7969 34.315 30.8558 34.2824 30.9379L32.3403 36.507C32.3155 36.5737 32.2488 36.6062 32.1837 36.6062H31.1793C31.1111 36.6047 31.0445 36.5721 31.0197 36.507Z" fill="white"/>
<path d="M34.1172 34.547C34.1172 33.3504 34.9542 32.4297 36.2097 32.4297C37.4465 32.4297 38.1595 33.3426 38.1595 34.3718C38.1595 34.7717 38.0681 34.9934 37.7116 34.9934H35.2378C35.3618 35.5095 35.7865 35.79 36.4422 35.79C36.7584 35.79 37.056 35.7311 37.3876 35.542C37.4465 35.5095 37.4868 35.5173 37.5287 35.5746L37.8371 35.9977C37.8774 36.0566 37.8697 36.114 37.7968 36.1806C37.4481 36.5294 36.9242 36.6968 36.3523 36.6968C35.0131 36.6968 34.1172 35.7761 34.1172 34.547ZM37.1397 34.1905C37.0746 33.6511 36.7072 33.3767 36.219 33.3767C35.7137 33.3767 35.3215 33.6495 35.2223 34.1905H37.1397Z" fill="white"/>
<path d="M38.9336 36.4736V32.6544C38.9336 32.5785 38.9832 32.5304 39.0576 32.5304H39.9209C39.9969 32.5304 40.0449 32.563 40.0449 32.6622L40.0775 33.1427C40.31 32.7273 40.699 32.4297 41.3066 32.4297C42.1545 32.4297 42.776 33.0435 42.776 34.1068V36.472C42.776 36.548 42.7171 36.596 42.6442 36.596H41.7561C41.6802 36.596 41.6321 36.5464 41.6321 36.472V34.3625C41.6321 33.7906 41.3671 33.4821 40.8757 33.4821C40.3952 33.4821 40.079 33.7906 40.079 34.3625V36.472C40.079 36.548 40.0279 36.596 39.955 36.596H39.0576C38.9816 36.5976 38.9336 36.548 38.9336 36.4736Z" fill="white"/>
<path d="M43.9878 35.4629V33.4216H43.4717C43.3957 33.4216 43.3477 33.3705 43.3477 33.2976V32.6575C43.3477 32.5815 43.3973 32.5335 43.4717 32.5335H43.9878V31.5771C43.9878 31.5012 44.0374 31.4531 44.1118 31.4531H45.017C45.0929 31.4531 45.141 31.5027 45.141 31.5771V32.5335H45.7811C45.8571 32.5335 45.9051 32.5831 45.9051 32.6575V33.2976C45.9051 33.3736 45.8555 33.4216 45.7811 33.4216H45.141V35.3389C45.141 35.5792 45.282 35.6954 45.4975 35.6954C45.5734 35.6954 45.654 35.6954 45.7548 35.6877C45.8462 35.6799 45.9036 35.7202 45.9036 35.8039V36.4084C45.9036 36.6006 45.4882 36.6487 45.2154 36.6487C44.569 36.6518 43.9878 36.3511 43.9878 35.4629Z" fill="white"/>
<path d="M46.6367 35.0361V32.6709C46.6367 32.5949 46.6879 32.5469 46.7607 32.5469H47.6582C47.7341 32.5469 47.7822 32.5965 47.7822 32.6709V34.7804C47.7822 35.3523 48.0472 35.6608 48.5385 35.6608C49.019 35.6608 49.3352 35.3523 49.3352 34.7804V32.6709C49.3352 32.5949 49.3864 32.5469 49.4592 32.5469H50.3474C50.4233 32.5469 50.4791 32.5965 50.4791 32.6709V36.49C50.4791 36.566 50.4202 36.614 50.3474 36.614H49.4918C49.4158 36.614 49.3755 36.5815 49.3678 36.4823L49.3352 36.0018C49.1027 36.4172 48.7137 36.7148 48.1061 36.7148C47.249 36.7132 46.6367 36.0994 46.6367 35.0361Z" fill="white"/>
<path d="M51.457 36.4736V32.6544C51.457 32.5785 51.5066 32.5304 51.581 32.5304H52.4444C52.5203 32.5304 52.5606 32.563 52.5684 32.6622L52.6009 33.1861C52.742 32.7536 52.9977 32.4297 53.4813 32.4297C53.6735 32.4297 53.7898 32.4793 53.8549 32.5289C53.9138 32.5692 53.9308 32.6203 53.9308 32.6932V33.4248C53.9308 33.524 53.8719 33.5488 53.7665 33.524C53.6751 33.4992 53.5836 33.4837 53.4674 33.4837C52.9032 33.4837 52.604 33.8572 52.604 34.44V36.4736C52.604 36.5495 52.5529 36.5976 52.48 36.5976H51.5826C51.5051 36.5976 51.457 36.548 51.457 36.4736Z" fill="white"/>
<path d="M54.3555 34.547C54.3555 33.3504 55.1956 32.4297 56.4479 32.4297C57.6848 32.4297 58.3978 33.3426 58.3978 34.3718C58.3978 34.7717 58.3064 34.9934 57.9499 34.9934H55.4761C55.6001 35.5095 56.0248 35.79 56.6804 35.79C56.9966 35.79 57.2942 35.7311 57.6259 35.542C57.6848 35.5095 57.7251 35.5173 57.767 35.5746L58.0754 35.9977C58.1157 36.0566 58.108 36.114 58.0351 36.1806C57.6864 36.5294 57.1625 36.6968 56.5905 36.6968C55.2529 36.6968 54.3555 35.7761 54.3555 34.547ZM57.3779 34.1905C57.3113 33.6511 56.9455 33.3767 56.4572 33.3767C55.9504 33.3767 55.5598 33.6495 55.4606 34.1905H57.3779Z" fill="white"/>
<path d="M58.9547 36.0272C58.9036 35.9683 58.9144 35.8784 58.9718 35.7869L59.2632 35.3793C59.3298 35.2801 59.4042 35.2956 59.4709 35.3468C59.8118 35.6041 60.0939 35.7435 60.4086 35.7435C60.6814 35.7435 60.8658 35.6351 60.8658 35.4026C60.8658 35.2026 60.7418 35.1112 60.4427 34.9872L59.9265 34.7795C59.4027 34.5718 59.0384 34.223 59.0384 33.6588C59.0384 32.8776 59.7033 32.4297 60.4582 32.4297C60.9898 32.4297 61.4796 32.6451 61.8191 33.0512C61.8702 33.1101 61.8516 33.1752 61.8113 33.2264L61.4471 33.6666C61.3882 33.7332 61.3308 33.7255 61.2549 33.6666C60.9898 33.4418 60.7573 33.3256 60.5155 33.3256C60.2505 33.3256 60.1265 33.4744 60.1265 33.6495C60.1265 33.8495 60.2939 33.958 60.5155 34.0386L61.0875 34.2633C61.6036 34.471 62.0082 34.8275 62.0004 35.4491C61.9927 36.2705 61.2874 36.6937 60.4721 36.6937C59.7917 36.6999 59.2787 36.4116 58.9547 36.0272Z" fill="white"/>
<path d="M23.2501 28.0634C23.3493 27.9409 23.4222 27.7441 23.4222 27.6278C23.4222 27.5054 23.4718 27.3318 23.5369 27.2512C23.6438 27.1039 23.6841 27.1039 23.9352 27.1938C24.456 27.3736 24.7799 27.3256 25.2232 26.9722C25.6371 26.6436 25.9827 25.9957 26.2896 25.5943C26.4989 25.3323 26.5237 24.9216 26.3718 24.4907C26.2819 24.2442 26.2819 24.2039 26.4291 24.097C26.5113 24.0319 26.688 23.9823 26.8104 23.9823C27.3514 23.9823 27.7172 23.3499 27.9714 21.9688C28.0861 21.3535 27.9962 21.0342 27.6226 20.7707C27.3157 20.5568 27.3157 20.3445 27.6226 20.1306C27.9962 19.8686 28.0861 19.5478 27.9714 18.9324C27.8148 18.0799 27.5653 17.3701 27.339 17.1639C27.232 17.0647 26.9577 16.9345 26.7407 16.8772C26.302 16.7625 26.3268 16.8276 26.4338 15.9906C26.4741 15.6465 26.4508 15.555 26.2493 15.2683C25.9331 14.8172 25.0806 14.0422 24.7396 13.9058C24.4808 13.7989 24.408 13.8066 24.0422 13.9384C23.6361 14.0779 23.6283 14.0779 23.509 13.9213C23.4439 13.8392 23.3943 13.6671 23.3943 13.5447C23.3943 13.134 23.0378 12.8395 22.2907 12.6101C20.9949 12.2241 20.5066 12.2489 20.1502 12.7418C20.0603 12.8736 19.9084 12.979 19.8262 12.979C19.7441 12.979 19.5922 12.872 19.5023 12.7418C19.1458 12.2489 18.6575 12.2257 17.3617 12.6101C16.5898 12.8472 16.2907 13.1107 16.2085 13.6516C16.1434 14.0531 16.0318 14.1027 15.5684 13.9229C15.2367 13.8004 15.1794 13.8004 14.888 13.9151C14.4896 14.0794 13.386 15.1706 13.2186 15.569C13.1039 15.8557 13.1039 15.9131 13.2264 16.2417C13.4062 16.7005 13.3581 16.8074 12.952 16.8741C12.4018 16.9562 12.1398 17.2507 11.898 18.0179C11.509 19.2982 11.5323 19.7865 12.0298 20.1383C12.1615 20.2282 12.2716 20.3755 12.2716 20.4576C12.2716 20.5398 12.1646 20.687 12.0298 20.7769C11.5338 21.1303 11.509 21.6139 11.898 22.8973C12.1321 23.6351 12.4266 23.9885 12.8451 23.9885C12.9675 23.9885 13.1442 24.0381 13.2264 24.1032C13.386 24.2179 13.386 24.2256 13.2434 24.6286C13.1117 24.9898 13.1039 25.0642 13.2109 25.3184C13.3504 25.6547 14.1548 26.7707 14.609 27.0822C14.9004 27.2791 14.9903 27.3039 15.339 27.262C16.1837 27.1551 16.1186 27.1303 16.2333 27.5658C16.2829 27.7797 16.4023 28.0246 16.4829 28.1161C16.4953 28.1285 17.0114 28.2556 17.7539 28.2602C18.115 28.2649 18.5986 28.4974 18.9644 28.2602C19.169 28.1285 19.2605 27.7518 19.3256 27.6619C19.4356 27.5147 19.6449 27.5348 19.7487 27.5426C19.9533 27.5596 20.0324 27.5503 20.2943 27.7224C20.4291 27.8123 20.4865 28.2556 20.5361 28.2602C21.8768 28.3703 23.013 28.1409 23.013 28.1409L23.2501 28.0634Z" fill="white"/>
<path d="M45.2406 18.5391C48.0786 18.5391 50.3756 20.816 50.3756 23.6261C50.3756 26.4316 48.0739 28.7085 45.2406 28.7085C42.4072 28.7085 40.1055 26.4316 40.1055 23.6261C40.1039 20.816 42.401 18.5391 45.2406 18.5391Z" fill="white"/>
<path d="M45.2147 28.2996C47.5614 28.2996 47.9582 27.7834 47.9582 27.7834L48.3565 27.4641C49.6151 26.4799 50.0832 24.8261 50.0832 23.3334C50.0832 21.213 48.6184 19.2647 46.5554 18.6246C46.326 18.5502 45.9773 18.468 45.7928 18.4448L45.4441 18.3874L45.4193 14.6008L45.3945 10.8065L45.1527 10.2903C44.9837 9.93693 44.7667 9.63468 44.4149 9.33089C43.7019 8.6706 43.2416 8.54815 41.4777 8.54815H40.1246V7.56391C40.1246 6.63702 40.1122 6.57967 39.9556 6.57967C39.7867 6.57967 39.7867 6.52232 39.7867 3.29371V0H37.7934V3.28596C37.7934 6.51457 37.7934 6.57192 37.6368 6.57192C37.4803 6.57192 37.4679 6.62927 37.4679 7.55616V8.5404H33.6859C31.1719 8.5404 29.842 8.57295 29.7443 8.6303C29.6498 8.67059 29.5025 8.81939 29.4204 8.94959L29.2886 9.18674L28.3943 8.58845L27.5124 7.98085L28.2625 7.09426C28.6609 6.61067 29.0003 6.15032 29.0003 6.07748C29.0003 5.90543 28.8438 5.74888 28.664 5.74888C28.4842 5.74888 25.0262 9.81758 25.0262 10.0191C25.0262 10.1911 25.1827 10.3477 25.3749 10.3477C25.4493 10.3477 25.8337 9.97103 26.2817 9.44558C26.7653 8.86279 27.0939 8.5466 27.1636 8.5807C27.2256 8.6055 27.6596 8.88449 28.1324 9.21309L28.9771 9.80363L28.6609 10.4686C28.3943 11.0266 28.3447 11.1738 28.4191 11.3459C28.526 11.6419 28.8174 11.8217 29.1817 11.8217H29.5103V12.4774C29.5103 13.3143 29.3785 13.8847 29.0871 14.4505C28.7957 14.9759 28.3493 15.5215 28.2873 15.3944C28.2749 15.3448 28.1184 15.0984 27.934 14.8442C26.6986 12.978 24.9471 11.6481 22.8237 10.9754C21.8673 10.6716 21.2892 10.574 20.215 10.5166L19.2587 10.467L18.8232 8.94494C18.5318 7.99325 18.29 7.33296 18.1706 7.16866C17.842 6.75017 17.3584 6.56107 16.5989 6.56107C16.0456 6.56107 15.934 6.58587 15.7666 6.76567L15.5496 6.97027V11.49L15.0288 11.7938C13.8555 12.4913 12.3086 13.8894 12.3086 14.2505C12.3086 14.4396 12.4527 14.6194 12.6 14.6194C12.662 14.6194 13.0464 14.2753 13.4819 13.8475C14.7405 12.6091 16.0084 11.8822 17.7025 11.4311C18.4047 11.2513 18.6589 11.2172 19.8678 11.2172C21.0768 11.2172 21.3279 11.2498 22.0301 11.4311C23.0794 11.7101 23.8808 12.0635 24.7131 12.5967C25.9934 13.4166 27.0722 14.5869 27.748 15.8656C28.5105 17.2854 28.7523 18.265 28.8221 20.1978C28.8593 21.3587 28.8841 21.5509 29.0143 21.6377C29.2685 21.7943 29.4498 21.6052 29.4731 21.1216L29.4979 20.7031H40.8608L40.681 21.0968C40.2579 21.909 40.1602 22.3352 40.1602 23.3319C40.1602 24.1038 40.1974 24.3735 40.3524 24.8214C40.7058 25.8258 41.1971 26.6752 42.0713 27.3479C42.4123 27.6021 42.8727 28.2996 45.2147 28.2996Z" fill="white"/>
</svg>
