<svg width="52" height="52" viewBox="0 0 52 52" fill="none" xmlns="http://www.w3.org/2000/svg">
<path d="M25.7718 43.1658C16.7898 43.1658 8.94154 39.5511 4.79688 34.2031C8.23457 42.3221 16.3424 48.0391 25.7718 48.0391C35.2028 48.0391 43.309 42.3221 46.7483 34.2031C42.602 39.5495 34.7521 43.1658 25.7718 43.1658Z" fill="white"/>
<path d="M4.79688 16.8375C8.94313 11.4896 16.7914 7.87484 25.7718 7.87484C34.7521 7.87484 42.602 11.4896 46.7483 16.8375C43.3106 8.71859 35.2028 3 25.7718 3C16.3408 3 8.23457 8.71859 4.79688 16.8375Z" fill="white"/>
<path d="M49.851 25.5225C49.851 12.371 39.0491 1.67188 25.7712 1.67188C12.4933 1.67188 1.69141 12.371 1.69141 25.5225C1.69141 38.674 12.4933 49.3715 25.7712 49.3715C39.0491 49.3715 49.851 38.6724 49.851 25.5225ZM4.79632 34.206C8.94258 39.5508 16.7909 43.1671 25.7728 43.1671C34.7532 43.1671 42.603 39.5508 46.7477 34.206C43.31 42.3234 35.2022 48.042 25.7728 48.042C16.3418 48.042 8.23561 42.3234 4.79632 34.206ZM46.7477 16.8389C42.6015 11.4925 34.7532 7.87621 25.7728 7.87621C16.7909 7.87621 8.94258 11.4925 4.79632 16.8389C8.23402 8.71996 16.3418 3.00137 25.7728 3.00137C35.2038 3.00137 43.31 8.71996 46.7477 16.8389ZM48.4753 24.6614H38.0492V26.0161H48.4896C48.125 34.7706 38.0778 41.8155 25.7712 41.8155C13.4662 41.8155 3.42061 34.7738 3.05279 26.0192H10.7737V24.6645H3.06712C3.69288 16.0787 13.6366 9.23095 25.7728 9.23095C37.9059 9.23095 47.8496 16.0772 48.4769 24.6614" fill="white"/>
<path d="M15.3533 24.5478V34.5609H11.957V16.0078H15.8581L18.1653 26.0729V16.0078H21.6683V34.5609H17.608L15.3533 24.5478Z" fill="white"/>
<path d="M31.8025 31.1449C31.8025 33.6162 30.7675 34.5625 28.5925 34.5625H23.0195V16.0078H28.5925C30.7675 16.0078 31.8025 16.9541 31.8025 19.4238V21.5277C31.8025 23.682 31.1656 24.6283 29.707 24.8917C31.1671 25.1282 31.8025 26.1013 31.8025 28.2288V31.1465V31.1449ZM28.0097 19.4238C28.0097 18.9775 27.7183 18.7409 27.4253 18.7409H26.7884V23.5243H27.3983C27.6896 23.5243 28.0097 23.2877 28.0097 22.8666V19.4238ZM28.0097 26.9655C28.0097 26.5445 27.6912 26.3079 27.3983 26.3079H26.7884V31.8278H27.4253C27.7167 31.8278 28.0097 31.5912 28.0097 31.1433V26.9655Z" fill="white"/>
<path d="M33.0859 16.0078H36.8532V31.6701H39.5872V34.5609H33.0859V16.0078Z" fill="white"/>
</svg>
