<svg width="102" height="34" viewBox="0 0 102 34" fill="none" xmlns="http://www.w3.org/2000/svg">
<path d="M43.2712 17.5162C43.2712 22.305 39.525 25.8337 34.9275 25.8337C30.33 25.8337 26.5837 22.305 26.5837 17.5162C26.5837 12.6937 30.33 9.19875 34.9275 9.19875C39.525 9.19875 43.2712 12.6937 43.2712 17.5162ZM39.6188 17.5162C39.6188 14.5237 37.4475 12.4763 34.9275 12.4763C32.4075 12.4763 30.2362 14.5237 30.2362 17.5162C30.2362 20.4787 32.4075 22.5562 34.9275 22.5562C37.4475 22.5562 39.6188 20.475 39.6188 17.5162ZM61.2712 17.5162C61.2712 22.305 57.525 25.8337 52.9275 25.8337C48.33 25.8337 44.5837 22.305 44.5837 17.5162C44.5837 12.6975 48.33 9.19875 52.9275 9.19875C57.525 9.19875 61.2712 12.6937 61.2712 17.5162ZM57.6187 17.5162C57.6187 14.5237 55.4475 12.4763 52.9275 12.4763C50.4075 12.4763 48.2363 14.5237 48.2363 17.5162C48.2363 20.4787 50.4075 22.5562 52.9275 22.5562C55.4475 22.5562 57.6187 20.475 57.6187 17.5162ZM78.5212 9.70125V24.6338C78.5212 30.7763 74.8987 33.285 70.6162 33.285C66.585 33.285 64.1587 30.5888 63.2437 28.3838L66.4238 27.06C66.99 28.4137 68.3775 30.0112 70.6125 30.0112C73.3538 30.0112 75.0525 28.32 75.0525 25.1362V23.94H74.925C74.1075 24.9487 72.5325 25.83 70.545 25.83C66.3862 25.83 62.5762 22.2075 62.5762 17.5462C62.5762 12.8512 66.3862 9.19875 70.545 9.19875C72.5287 9.19875 74.1038 10.08 74.925 11.0587H75.0525V9.705H78.5212V9.70125ZM75.3113 17.5462C75.3113 14.6175 73.3575 12.4763 70.8713 12.4763C68.3513 12.4763 66.24 14.6175 66.24 17.5462C66.24 20.445 68.3513 22.5562 70.8713 22.5562C73.3575 22.5562 75.3113 20.445 75.3113 17.5462ZM84.24 0.94875V25.3237H80.6775V0.94875H84.24ZM98.1225 20.2537L100.958 22.1437C100.043 23.4975 97.8375 25.83 94.0275 25.83C89.3025 25.83 85.7737 22.1775 85.7737 17.5125C85.7737 12.5662 89.3325 9.195 93.6187 9.195C97.935 9.195 100.046 12.63 100.736 14.4862L101.115 15.4312L89.9963 20.0363C90.8475 21.705 92.1713 22.5562 94.0275 22.5562C95.8875 22.5562 97.1775 21.6412 98.1225 20.2537ZM89.3962 17.2612L96.8288 14.175C96.42 13.1362 95.19 12.4125 93.7425 12.4125C91.8862 12.4125 89.3025 14.0512 89.3962 17.2612ZM13.0988 15.3525V11.8238H24.99C25.1062 12.4388 25.1663 13.1662 25.1663 13.9537C25.1663 16.6012 24.4425 19.875 22.11 22.2075C19.8412 24.57 16.9425 25.83 13.1025 25.83C5.985 25.83 0 20.0325 0 12.915C0 5.7975 5.985 0 13.1025 0C17.04 0 19.845 1.545 21.9525 3.55875L19.4625 6.04875C17.9512 4.63125 15.9038 3.52875 13.0988 3.52875C7.90125 3.52875 3.83625 7.7175 3.83625 12.915C3.83625 18.1125 7.90125 22.3012 13.0988 22.3012C16.47 22.3012 18.39 20.9475 19.62 19.7175C20.6175 18.72 21.2737 17.295 21.5325 15.3488L13.0988 15.3525Z" fill="white"/>
</svg>
