<svg width="60" height="30" viewBox="0 0 60 30" fill="none" xmlns="http://www.w3.org/2000/svg">
<path d="M9.14451 4.92862C7.96629 4.7326 6.76258 4.74793 5.58974 4.97388C3.76884 5.37567 2.74454 6.67502 2.39568 9.22428L2.28148 10.0146C1.91034 12.4441 2.60736 14.0575 3.92203 16.3373L4.90873 18.0753C6.06046 20.0975 6.44483 20.963 6.13009 22.9754C6.03052 23.6975 5.89822 24.4154 5.64684 24.8924C5.39547 25.3701 5.13156 25.5678 4.65736 25.6026C3.9652 25.6542 3.4541 25.2197 3.59476 24.1334L4.22702 19.5202L0.75025 19.5822L0.070632 24.4704C-0.274051 26.8414 0.65555 28.397 2.58021 28.8963C3.24102 29.0669 4.95121 29.1679 6.29164 28.7821C8.18844 28.239 9.3346 26.5977 9.72315 23.6689L9.83457 22.8375C10.1967 19.8349 9.36872 18.4799 7.88345 15.5087L6.92669 13.6773C5.97829 11.8432 5.70324 11.2109 5.84042 9.93384L5.92607 9.32734C6.02425 8.83294 6.25334 8.01336 7.04994 7.99944C7.60213 7.98969 8.0457 8.42907 7.90364 9.42204L7.45033 12.6509L10.8658 12.5848L11.4034 8.71666C11.7021 6.56709 10.9208 5.25729 9.14451 4.92862ZM24.3273 4.72877L13.3949 4.92027L12.9207 8.39774L16.6677 8.33298L13.7918 28.631L17.2971 28.5704L20.1618 8.27588L23.8447 8.21321L24.3266 4.72877H24.3273ZM20.409 28.5154L23.6275 28.4597L24.4909 24.8423L27.2184 24.7942L27.1015 28.3984L30.4473 28.3399L30.7635 4.61667L26.5897 4.68978L20.409 28.5154ZM45.0856 4.36599L41.5482 4.42866L37.6578 13.5819L38.9335 4.47322L35.4282 4.5345L32.0816 28.3114L35.5876 28.2515L37.0353 18.0231L38.4878 28.2007L42.0879 28.138L40.2753 15.5762L45.0849 4.36529L45.0856 4.36599ZM43.5397 28.1122L51.6666 27.9702L52.177 24.3583L47.5554 24.4391L48.5199 17.5684L51.9973 17.5078L52.5077 13.8967L49.0303 13.9565L49.9063 7.72578L54.3314 7.64849L54.814 4.19678L46.8779 4.33605L43.5397 28.1122ZM57.4231 10.5786L59.5602 10.5424L59.9376 0L57.4231 10.5786Z" fill="white"/>
</svg>
