<svg width="71" height="887" viewBox="0 0 71 887" fill="none" xmlns="http://www.w3.org/2000/svg">
<rect x="0.5" y="0.5" width="70" height="886" rx="4.5" stroke="#8A38F5" stroke-dasharray="10 5"/>
<path d="M35.5088 93.585C37.452 93.585 39.3766 93.9683 41.1719 94.7119C42.9668 95.4555 44.5978 96.5452 45.9717 97.9189C45.9738 97.9211 45.9737 97.9245 45.9715 97.9266C43.2132 100.456 39.5372 102 35.5 102C31.4717 102 27.8027 100.463 25.0464 97.9438C25.0392 97.9372 25.039 97.9259 25.0459 97.9189C26.4199 96.545 28.0515 95.4555 29.8467 94.7119C31.6419 93.9684 33.5657 93.585 35.5088 93.585ZM35.5098 83.5898C40.5678 83.5899 45.5592 84.2353 50.374 85.4807C50.7335 85.5737 50.9919 85.8902 50.998 86.2615C50.9993 86.3408 51 86.4203 51 86.5C51 88.8405 50.48 91.0592 49.5508 93.0485C49.3136 93.5565 48.6519 93.6581 48.2233 93.2967C46.6761 91.9924 44.9352 90.9313 43.0596 90.1543C40.6659 89.1628 38.0997 88.6523 35.5088 88.6523C32.918 88.6524 30.3526 89.1629 27.959 90.1543C26.0781 90.9334 24.3318 91.9977 22.7811 93.3068C22.3527 93.6684 21.6909 93.5674 21.4533 93.0596C20.5212 91.0674 20 88.8447 20 86.5C20 86.4223 20.0006 86.3448 20.0018 86.2674C20.0074 85.896 20.2655 85.5794 20.625 85.4863C25.4461 84.2376 30.4446 83.5898 35.5098 83.5898ZM35.5 71C41.1073 71 46.0182 73.978 48.7396 78.4383C49.1111 79.0472 48.5551 79.7552 47.855 79.6187C43.8166 78.8315 39.684 78.4268 35.5098 78.4268C31.3279 78.4268 27.1875 78.8329 23.1419 79.623C22.4419 79.7597 21.8856 79.0519 22.2569 78.443C24.9778 73.98 29.8906 71 35.5 71Z" fill="white"/>
<path d="M35.5088 144.585C37.452 144.585 39.3766 144.968 41.1719 145.712C42.9668 146.455 44.5978 147.545 45.9717 148.919C45.9738 148.921 45.9737 148.925 45.9715 148.927C43.2132 151.456 39.5372 153 35.5 153C31.4717 153 27.8027 151.463 25.0464 148.944C25.0392 148.937 25.039 148.926 25.0459 148.919C26.4199 147.545 28.0515 146.455 29.8467 145.712C31.6419 144.968 33.5657 144.585 35.5088 144.585ZM35.5098 134.59C40.5678 134.59 45.5592 135.235 50.374 136.481C50.7335 136.574 50.9919 136.89 50.998 137.261C50.9993 137.341 51 137.42 51 137.5C51 139.841 50.48 142.059 49.5508 144.049C49.3136 144.557 48.6519 144.658 48.2233 144.297C46.6761 142.992 44.9352 141.931 43.0596 141.154C40.6659 140.163 38.0997 139.652 35.5088 139.652C32.918 139.652 30.3526 140.163 27.959 141.154C26.0781 141.933 24.3318 142.998 22.7811 144.307C22.3527 144.668 21.6909 144.567 21.4533 144.06C20.5212 142.067 20 139.845 20 137.5C20 137.422 20.0006 137.345 20.0018 137.267C20.0074 136.896 20.2655 136.579 20.625 136.486C25.4461 135.238 30.4446 134.59 35.5098 134.59ZM35.5 122C41.1073 122 46.0182 124.978 48.7396 129.438C49.1111 130.047 48.5551 130.755 47.855 130.619C43.8166 129.831 39.684 129.427 35.5098 129.427C31.3279 129.427 27.1875 129.833 23.1419 130.623C22.4419 130.76 21.8856 130.052 22.2569 129.443C24.9778 124.98 29.8906 122 35.5 122Z" fill="black"/>
<path d="M22.0608 201.949C36.8476 197.857 37.1695 186.859 43.015 186.852C43.0183 186.852 43.0217 186.851 43.0241 186.849C44.1918 185.848 42.9101 183.712 42.1223 182.769L37.4622 182.356C33.9921 179.413 34.0704 176.265 34.6004 174.885C34.6497 174.756 34.8168 174.779 34.8426 174.915C35.0756 176.137 35.3726 178.076 35.6766 178.498C35.8945 178.8 37.8514 180.06 38.7834 180.802C40.0908 179.898 42.4509 179.768 43.4674 179.816C43.4674 177.598 43.9682 177.028 44.2185 177.02C42.3383 176.709 41.6596 175.09 41.5533 174.311C41.5527 174.306 41.5566 174.303 41.5611 174.303L43.4674 174.585L43.7296 174.128C43.7318 174.125 43.7368 174.124 43.74 174.126L45.6456 175.753L47.3253 176.528L48.3763 176.965C48.7353 177.114 48.9231 177.511 48.811 177.883L48.5729 178.674C48.572 178.677 48.5699 178.679 48.5669 178.679H47.357C47.336 178.679 47.3154 178.683 47.2964 178.692C46.9772 178.846 46.5033 179.263 46.9634 179.816L48.4553 180.905C48.9715 181.282 49.1986 181.941 49.0238 182.555C48.413 184.704 47.2415 188.753 46.6204 189.225C46.615 189.229 46.614 189.236 46.6172 189.242C47.447 190.823 47.7107 194.659 46.8842 196.354C46.739 196.652 46.4368 196.823 46.1137 196.895L39.3638 198.409C38.1949 201.712 36.5198 203.661 35.4474 203.992C35.4359 203.995 35.4267 203.983 35.4324 203.972L39.0258 197.296C38.5515 197.575 37.5455 197.965 37.2915 198.173C36.0624 202.064 32.5209 204.191 32.843 203.772C35.7379 200.004 35.6075 198.909 36.5505 196.737C36.5526 196.732 36.5574 196.729 36.5627 196.729C37.4461 196.705 38.5414 195.979 39.0258 195.688C40.4321 194.392 42.3252 194.046 43.3711 194.022C41.7409 193.941 40.8751 193.134 40.6372 192.714C36.6545 195.212 29.962 203.273 22.0613 201.976C22.0469 201.974 22.0467 201.953 22.0608 201.949Z" fill="white"/>
<path d="M40.6372 192.714C36.6545 195.212 29.962 203.273 22.0613 201.976C22.0469 201.974 22.0467 201.953 22.0608 201.949C36.8476 197.857 37.1695 186.859 43.015 186.852C43.0183 186.852 43.0217 186.851 43.0241 186.849C44.1918 185.848 42.9101 183.712 42.1223 182.769L37.4622 182.356C33.9921 179.413 34.0704 176.265 34.6004 174.885C34.6497 174.756 34.8168 174.779 34.8426 174.915C35.0756 176.137 35.3726 178.076 35.6766 178.498C35.8945 178.8 37.8514 180.06 38.7834 180.802C40.0908 179.898 42.4509 179.768 43.4674 179.816C43.4674 177.598 43.9682 177.028 44.2185 177.02C42.3383 176.709 41.6596 175.09 41.5533 174.311C41.5527 174.306 41.5566 174.303 41.5611 174.303L43.4674 174.585M40.6372 192.714C40.2731 191.645 40.1565 189.333 42.6037 188.634M40.6372 192.714C40.8921 193.165 41.8683 194.058 43.7337 194.028C42.8267 193.971 40.6154 194.224 39.0258 195.688C38.5414 195.979 37.4461 196.705 36.5627 196.729C36.5574 196.729 36.5526 196.732 36.5505 196.737C35.6075 198.909 35.7379 200.004 32.843 203.772C32.5209 204.191 36.0624 202.064 37.2915 198.173C37.5455 197.965 38.5515 197.575 39.0258 197.296M43.7337 188.634C46.2306 190.694 45.7905 193.339 45.0479 194.863C44.8408 195.287 44.3949 195.517 43.9253 195.57C41.5685 195.835 39.3315 196.783 39.0258 197.296M39.0258 197.296L35.4324 203.972C35.4267 203.983 35.4359 203.995 35.4474 203.992C36.5198 203.661 38.1949 201.712 39.3638 198.409L46.1137 196.895C46.4368 196.823 46.739 196.652 46.8842 196.354C47.7107 194.659 47.447 190.823 46.6172 189.242C46.614 189.236 46.615 189.229 46.6204 189.225C47.2415 188.753 48.413 184.704 49.0238 182.555C49.1986 181.941 48.9715 181.282 48.4553 180.905L46.9634 179.816C46.5033 179.263 46.9772 178.846 47.2964 178.692C47.3154 178.683 47.336 178.679 47.357 178.679C47.8217 178.679 48.5048 178.679 48.5669 178.679C48.5699 178.679 48.572 178.677 48.5729 178.674L48.811 177.883C48.9231 177.511 48.7353 177.114 48.3763 176.965L47.3253 176.528L45.6456 175.753L43.74 174.126C43.7368 174.124 43.7318 174.125 43.7296 174.128L43.4674 174.585M43.4674 174.585L44.6726 175.753" stroke="white" stroke-width="0.430168" stroke-linecap="round"/>
<circle cx="36.8242" cy="175.52" r="2.51956" fill="white"/>
<path d="M22.0608 252.949C36.8476 248.857 37.1695 237.859 43.015 237.852C43.0183 237.852 43.0217 237.851 43.0241 237.849C44.1918 236.848 42.9101 234.712 42.1223 233.769L37.4622 233.356C33.9921 230.413 34.0704 227.265 34.6004 225.885C34.6497 225.756 34.8168 225.779 34.8426 225.915C35.0756 227.137 35.3726 229.076 35.6766 229.498C35.8945 229.8 37.8514 231.06 38.7834 231.802C40.0908 230.898 42.4509 230.768 43.4674 230.816C43.4674 228.598 43.9682 228.028 44.2185 228.02C42.3383 227.709 41.6596 226.09 41.5533 225.311C41.5527 225.306 41.5566 225.303 41.5611 225.303L43.4674 225.585L43.7296 225.128C43.7318 225.125 43.7368 225.124 43.74 225.126L45.6456 226.753L47.3253 227.528L48.3763 227.965C48.7353 228.114 48.9231 228.511 48.811 228.883L48.5729 229.674C48.572 229.677 48.5699 229.679 48.5669 229.679H47.357C47.336 229.679 47.3154 229.683 47.2964 229.692C46.9772 229.846 46.5033 230.263 46.9634 230.816L48.4553 231.905C48.9715 232.282 49.1986 232.941 49.0238 233.555C48.413 235.704 47.2415 239.753 46.6204 240.225C46.615 240.229 46.614 240.236 46.6172 240.242C47.447 241.823 47.7107 245.659 46.8842 247.354C46.739 247.652 46.4368 247.823 46.1137 247.895L39.3638 249.409C38.1949 252.712 36.5198 254.661 35.4474 254.992C35.4359 254.995 35.4267 254.983 35.4324 254.972L39.0258 248.296C38.5515 248.575 37.5455 248.965 37.2915 249.173C36.0624 253.064 32.5209 255.191 32.843 254.772C35.7379 251.004 35.6075 249.909 36.5505 247.737C36.5526 247.732 36.5574 247.729 36.5627 247.729C37.4461 247.705 38.5414 246.979 39.0258 246.688C40.4321 245.392 42.3252 245.046 43.3711 245.022C41.7409 244.941 40.8751 244.134 40.6372 243.714C36.6545 246.212 29.962 254.273 22.0613 252.976C22.0469 252.974 22.0467 252.953 22.0608 252.949Z" fill="black"/>
<path d="M40.6372 243.714C36.6545 246.212 29.962 254.273 22.0613 252.976C22.0469 252.974 22.0467 252.953 22.0608 252.949C36.8476 248.857 37.1695 237.859 43.015 237.852C43.0183 237.852 43.0217 237.851 43.0241 237.849C44.1918 236.848 42.9101 234.712 42.1223 233.769L37.4622 233.356C33.9921 230.413 34.0704 227.265 34.6004 225.885C34.6497 225.756 34.8168 225.779 34.8426 225.915C35.0756 227.137 35.3726 229.076 35.6766 229.498C35.8945 229.8 37.8514 231.06 38.7834 231.802C40.0908 230.898 42.4509 230.768 43.4674 230.816C43.4674 228.598 43.9682 228.028 44.2185 228.02C42.3383 227.709 41.6596 226.09 41.5533 225.311C41.5527 225.306 41.5566 225.303 41.5611 225.303L43.4674 225.585M40.6372 243.714C40.2731 242.645 40.1565 240.333 42.6037 239.634M40.6372 243.714C40.8921 244.165 41.8683 245.058 43.7337 245.028C42.8267 244.971 40.6154 245.224 39.0258 246.688C38.5414 246.979 37.4461 247.705 36.5627 247.729C36.5574 247.729 36.5526 247.732 36.5505 247.737C35.6075 249.909 35.7379 251.004 32.843 254.772C32.5209 255.191 36.0624 253.064 37.2915 249.173C37.5455 248.965 38.5515 248.575 39.0258 248.296M43.7337 239.634C46.2306 241.694 45.7905 244.339 45.0479 245.863C44.8408 246.287 44.3949 246.517 43.9253 246.57C41.5685 246.835 39.3315 247.783 39.0258 248.296M39.0258 248.296L35.4324 254.972C35.4267 254.983 35.4359 254.995 35.4474 254.992C36.5198 254.661 38.1949 252.712 39.3638 249.409L46.1137 247.895C46.4368 247.823 46.739 247.652 46.8842 247.354C47.7107 245.659 47.447 241.823 46.6172 240.242C46.614 240.236 46.615 240.229 46.6204 240.225C47.2415 239.753 48.413 235.704 49.0238 233.555C49.1986 232.941 48.9715 232.282 48.4553 231.905L46.9634 230.816C46.5033 230.263 46.9772 229.846 47.2964 229.692C47.3154 229.683 47.336 229.679 47.357 229.679C47.8217 229.679 48.5048 229.679 48.5669 229.679C48.5699 229.679 48.572 229.677 48.5729 229.674L48.811 228.883C48.9231 228.511 48.7353 228.114 48.3763 227.965L47.3253 227.528L45.6456 226.753L43.74 225.126C43.7368 225.124 43.7318 225.125 43.7296 225.128L43.4674 225.585M43.4674 225.585L44.6726 226.753" stroke="black" stroke-width="0.430168" stroke-linecap="round"/>
<circle cx="36.8242" cy="226.52" r="2.51956" fill="black"/>
<path d="M39 275H34V282H35V284H37V285H42V286H43V288H41V289H40V290H39V291H38V292H37V294H36V295H35V296H34V297H33V298H32V299H31H30V300H29V301H28H27V302H26H24V303H22V304H28V303H30V302H31H32V301H33V300H35V298H36V297H38V296V295H39H41V296H39V297V298H37V299H36V301H35V302H34V303V304H33V305H32V306H36V305H37V304H38V303H39V302V301H40V300H41H45V299H47V298H48V293H47V292V291H48V290V289V288H49V285V282H47V281H49V278H47H46V277H45V276H41V278H42V279H43V281H41V282H38V281H37H36V280H39V275Z" fill="white"/>
<path d="M39 326H34V333H35V335H37V336H42V337H43V339H41V340H40V341H39V342H38V343H37V345H36V346H35V347H34V348H33V349H32V350H31H30V351H29V352H28H27V353H26H24V354H22V355H28V354H30V353H31H32V352H33V351H35V349H36V348H38V347V346H39H41V347H39V348V349H37V350H36V352H35V353H34V354V355H33V356H32V357H36V356H37V355H38V354H39V353V352H40V351H41H45V350H47V349H48V344H47V343V342H48V341V340V339H49V336V333H47V332H49V329H47H46V328H45V327H41V329H42V330H43V332H41V333H38V332H37H36V331H39V326Z" fill="black"/>
<path d="M21 389V392H31V390H30V388H29V386H28V385H27V384H26V383H25V384H24V385H23V387H22V389H21Z" fill="white"/>
<path d="M21 396V393H31V395H30V397H29V399H28V400H27V401H26V402H25V401H24V400H23V398H22V396H21Z" fill="white"/>
<path d="M50 389V392H40V390H41V388H42V386H43V385H44V384H45V383H46V384H47V385H48V387H49V389H50Z" fill="white"/>
<path d="M50 396V393H40V395H41V397H42V399H43V400H44V401H45V402H46V401H47V400H48V398H49V396H50Z" fill="white"/>
<path d="M27 383V381H28V380H30V379H32V378H35V392H32V389H31V387H30V385H29V384H28V383H27Z" fill="white"/>
<path d="M27 402V404H28V405H30V406H32V407H35V393H32V396H31V398H30V400H29V401H28V402H27Z" fill="white"/>
<path d="M44 383V381H43V380H41V379H39V378H36V392H39V389H40V387H41V385H42V384H43V383H44Z" fill="white"/>
<path d="M44 402V404H43V405H41V406H39V407H36V393H39V396H40V398H41V400H42V401H43V402H44Z" fill="white"/>
<path d="M21 440V443H31V441H30V439H29V437H28V436H27V435H26V434H25V435H24V436H23V438H22V440H21Z" fill="black"/>
<path d="M21 447V444H31V446H30V448H29V450H28V451H27V452H26V453H25V452H24V451H23V449H22V447H21Z" fill="black"/>
<path d="M50 440V443H40V441H41V439H42V437H43V436H44V435H45V434H46V435H47V436H48V438H49V440H50Z" fill="black"/>
<path d="M50 447V444H40V446H41V448H42V450H43V451H44V452H45V453H46V452H47V451H48V449H49V447H50Z" fill="black"/>
<path d="M27 434V432H28V431H30V430H32V429H35V443H32V440H31V438H30V436H29V435H28V434H27Z" fill="black"/>
<path d="M27 453V455H28V456H30V457H32V458H35V444H32V447H31V449H30V451H29V452H28V453H27Z" fill="black"/>
<path d="M44 434V432H43V431H41V430H39V429H36V443H39V440H40V438H41V436H42V435H43V434H44Z" fill="black"/>
<path d="M44 453V455H43V456H41V457H39V458H36V444H39V447H40V449H41V451H42V452H43V453H44Z" fill="black"/>
<rect x="49" y="485" width="4" height="3" transform="rotate(90 49 485)" fill="white"/>
<rect width="4" height="3" transform="matrix(2.18557e-08 1 1 -8.74228e-08 22 485)" fill="white"/>
<rect width="4" height="3" transform="matrix(-4.37114e-08 -1 -1 4.37114e-08 49 504)" fill="white"/>
<rect x="22" y="504" width="4" height="3" transform="rotate(-90 22 504)" fill="white"/>
<rect x="43" y="490" width="9" height="6" transform="rotate(90 43 490)" fill="white"/>
<rect width="9" height="6" transform="matrix(4.37114e-08 1 1 -4.37114e-08 28 490)" fill="white"/>
<rect x="42" y="487" width="9" height="4" fill="white"/>
<rect width="9" height="4" transform="matrix(-1 0 0 1 29 487)" fill="white"/>
<rect x="40" y="489" width="8" height="4" fill="white"/>
<rect width="8" height="4" transform="matrix(-1 0 0 1 31 489)" fill="white"/>
<rect x="40" y="496" width="8" height="4" fill="white"/>
<rect width="8" height="4" transform="matrix(-1 0 0 1 31 496)" fill="white"/>
<rect width="9" height="4" transform="matrix(1 0 0 -1 42 502)" fill="white"/>
<rect x="29" y="502" width="9" height="4" transform="rotate(180 29 502)" fill="white"/>
<rect x="39" y="479" width="31" height="7" transform="rotate(90 39 479)" fill="white"/>
<rect x="49" y="536" width="4" height="3" transform="rotate(90 49 536)" fill="black"/>
<rect width="4" height="3" transform="matrix(2.18557e-08 1 1 -8.74228e-08 22 536)" fill="black"/>
<rect width="4" height="3" transform="matrix(-4.37114e-08 -1 -1 4.37114e-08 49 555)" fill="black"/>
<rect x="22" y="555" width="4" height="3" transform="rotate(-90 22 555)" fill="black"/>
<rect x="43" y="541" width="9" height="6" transform="rotate(90 43 541)" fill="black"/>
<rect width="9" height="6" transform="matrix(4.37114e-08 1 1 -4.37114e-08 28 541)" fill="black"/>
<rect x="42" y="538" width="9" height="4" fill="black"/>
<rect width="9" height="4" transform="matrix(-1 0 0 1 29 538)" fill="black"/>
<rect x="40" y="540" width="8" height="4" fill="black"/>
<rect width="8" height="4" transform="matrix(-1 0 0 1 31 540)" fill="black"/>
<rect x="40" y="547" width="8" height="4" fill="black"/>
<rect width="8" height="4" transform="matrix(-1 0 0 1 31 547)" fill="black"/>
<rect width="9" height="4" transform="matrix(1 0 0 -1 42 553)" fill="black"/>
<rect x="29" y="553" width="9" height="4" transform="rotate(180 29 553)" fill="black"/>
<rect x="39" y="530" width="31" height="7" transform="rotate(90 39 530)" fill="black"/>
<rect x="31" y="587" width="9" height="19" fill="white"/>
<rect x="26" y="601" width="9" height="19" transform="rotate(-90 26 601)" fill="white"/>
<rect x="32" y="584" width="7" height="25" fill="white"/>
<rect x="23" y="600" width="7" height="25" transform="rotate(-90 23 600)" fill="white"/>
<rect x="34" y="581" width="3" height="31" fill="white"/>
<rect x="20" y="598" width="3" height="31" transform="rotate(-90 20 598)" fill="white"/>
<rect x="31" y="638" width="9" height="19" fill="black"/>
<rect x="26" y="652" width="9" height="19" transform="rotate(-90 26 652)" fill="black"/>
<rect x="32" y="635" width="7" height="25" fill="black"/>
<rect x="23" y="651" width="7" height="25" transform="rotate(-90 23 651)" fill="black"/>
<rect x="34" y="632" width="3" height="31" fill="black"/>
<rect x="20" y="649" width="3" height="31" transform="rotate(-90 20 649)" fill="black"/>
<rect x="22" y="686" width="11" height="13" fill="white"/>
<rect x="20" y="688" width="3" height="9" fill="white"/>
<rect x="48" y="688" width="3" height="9" fill="white"/>
<rect x="49" y="699" width="11" height="13" transform="rotate(-180 49 699)" fill="white"/>
<rect x="23" y="685" width="9" height="15" fill="white"/>
<rect x="48" y="700" width="9" height="15" transform="rotate(-180 48 700)" fill="white"/>
<path d="M50 698V687H37V688H36V689H35V688H34V687H33H21V698H50Z" fill="white"/>
<path d="M24 700H23V689H48V700H47V701H46V702H45V703H44V704H43V705H42V706H41V707H40V708H39V709H38V710H37V711H36V712H35V711H34V710H33V709H32V708H31V707H30V706H29V705H28V704H27V703H26V702H25V701H24V700Z" fill="white"/>
<rect x="22" y="737" width="11" height="13" fill="black"/>
<rect x="20" y="739" width="3" height="9" fill="black"/>
<rect x="48" y="739" width="3" height="9" fill="black"/>
<rect x="49" y="750" width="11" height="13" transform="rotate(-180 49 750)" fill="black"/>
<rect x="23" y="736" width="9" height="15" fill="black"/>
<rect x="48" y="751" width="9" height="15" transform="rotate(-180 48 751)" fill="black"/>
<path d="M50 749V738H37V739H36V740H35V739H34V738H33H21V749H50Z" fill="black"/>
<path d="M24 751H23V740H48V751H47V752H46V753H45V754H44V755H43V756H42V757H41V758H40V759H39V760H38V761H37V762H36V763H35V762H34V761H33V760H32V759H31V758H30V757H29V756H28V755H27V754H26V753H25V752H24V751Z" fill="black"/>
<rect x="31" y="796" width="9" height="9" fill="white"/>
<rect x="49" y="796" width="9" height="3" transform="rotate(90 49 796)" fill="white"/>
<rect x="40" y="790" width="9" height="3" transform="rotate(-180 40 790)" fill="white"/>
<rect x="40" y="814" width="9" height="3" transform="rotate(-180 40 814)" fill="white"/>
<rect x="25" y="796" width="9" height="3" transform="rotate(90 25 796)" fill="white"/>
<path d="M24 810V806H30V812H25V810H24Z" fill="white"/>
<path d="M47 790L47 794L41 794L41 789L46 789L46 790L47 790Z" fill="white"/>
<path d="M46 812L42 812L42 806L47 806L47 811L46 811L46 812Z" fill="white"/>
<path d="M25 789L29 789L29 795L24 795L24 790L25 790L25 789Z" fill="white"/>
<rect x="39" y="794" width="3" height="3" fill="white"/>
<rect x="34" y="790" width="3" height="7" fill="white"/>
<rect x="45" y="799" width="3" height="6" transform="rotate(90 45 799)" fill="white"/>
<rect x="34" y="804" width="3" height="7" fill="white"/>
<rect x="32" y="799" width="3" height="6" transform="rotate(90 32 799)" fill="white"/>
<rect x="29" y="794" width="3" height="3" fill="white"/>
<rect x="29" y="804" width="3" height="3" fill="white"/>
<rect x="39" y="804" width="3" height="3" fill="white"/>
<rect x="44" y="797" width="7" height="7" fill="white"/>
<rect x="39" y="785" width="7" height="7" transform="rotate(90 39 785)" fill="white"/>
<rect x="39" y="809" width="7" height="7" transform="rotate(90 39 809)" fill="white"/>
<rect x="20" y="797" width="7" height="7" fill="white"/>
<rect x="25" y="805" width="6" height="6" fill="white"/>
<rect x="25" y="790" width="6" height="6" fill="white"/>
<rect x="40" y="790" width="6" height="6" fill="white"/>
<rect x="40" y="805" width="6" height="6" fill="white"/>
<rect x="31" y="847" width="9" height="9" fill="black"/>
<rect x="49" y="847" width="9" height="3" transform="rotate(90 49 847)" fill="black"/>
<rect x="40" y="841" width="9" height="3" transform="rotate(-180 40 841)" fill="black"/>
<rect x="40" y="865" width="9" height="3" transform="rotate(-180 40 865)" fill="black"/>
<rect x="25" y="847" width="9" height="3" transform="rotate(90 25 847)" fill="black"/>
<path d="M24 861V857H30V863H25V861H24Z" fill="black"/>
<path d="M47 841L47 845L41 845L41 840L46 840L46 841L47 841Z" fill="black"/>
<path d="M46 863L42 863L42 857L47 857L47 862L46 862L46 863Z" fill="black"/>
<path d="M25 840L29 840L29 846L24 846L24 841L25 841L25 840Z" fill="black"/>
<rect x="39" y="845" width="3" height="3" fill="black"/>
<rect x="34" y="841" width="3" height="7" fill="black"/>
<rect x="45" y="850" width="3" height="6" transform="rotate(90 45 850)" fill="black"/>
<rect x="34" y="855" width="3" height="7" fill="black"/>
<rect x="32" y="850" width="3" height="6" transform="rotate(90 32 850)" fill="black"/>
<rect x="29" y="845" width="3" height="3" fill="black"/>
<rect x="29" y="855" width="3" height="3" fill="black"/>
<rect x="39" y="855" width="3" height="3" fill="black"/>
<rect x="44" y="848" width="7" height="7" fill="black"/>
<rect x="39" y="836" width="7" height="7" transform="rotate(90 39 836)" fill="black"/>
<rect x="39" y="860" width="7" height="7" transform="rotate(90 39 860)" fill="black"/>
<rect x="20" y="848" width="7" height="7" fill="black"/>
<rect x="25" y="856" width="6" height="6" fill="black"/>
<rect x="25" y="841" width="6" height="6" fill="black"/>
<rect x="40" y="841" width="6" height="6" fill="black"/>
<rect x="40" y="856" width="6" height="6" fill="black"/>
</svg>
