<svg width="331" height="118" viewBox="0 0 331 118" fill="none" xmlns="http://www.w3.org/2000/svg">
<rect x="0.5" y="0.5" width="329.731" height="116.409" rx="4.5" stroke="#8A38F5" stroke-dasharray="10 5"/>
<path d="M33.1487 48.6665C25.37 48.6665 20.7502 45.1523 20 38.7162H27.1864C27.6207 41.9935 29.4765 43.4939 32.9513 43.4939C36.2681 43.4939 37.7685 42.3093 37.7685 40.8484C37.7685 38.6767 35.0045 37.887 31.6877 37.0578C26.5941 35.8337 20.1974 34.5307 20.1974 28.292C20.1974 23.3563 24.5408 20 31.6482 20C39.111 20 43.8888 23.4352 44.639 29.674H37.729C37.2157 26.7915 35.123 25.1726 31.8852 25.1726C28.8053 25.1726 27.5417 26.2387 27.5417 27.6602C27.5417 29.7924 30.4637 30.5821 33.9384 31.4508C38.9531 32.6749 45.0733 34.0963 45.0733 40.1376C45.0733 45.1918 40.572 48.6665 33.1487 48.6665Z" fill="black"/>
<path d="M54.3808 48.1532V25.9623H44.9438V20.5133H71.1622L69 26L61.7251 25.9623V48.1532H54.3808Z" fill="black"/>
<path d="M65.8276 48.1532L76.0939 20.5133H84.7017L94.9285 48.1532H87.1103L85.215 42.5463H75.0672L73.2114 48.1532H65.8276ZM80.1609 27.0679L76.6861 37.6106H83.5961L80.1609 27.0679Z" fill="black"/>
<path d="M95.8598 48.1532V20.5133H110.904C117.064 20.5133 120.617 23.4747 120.617 28.213C120.617 31.1744 116.732 33.4579 116.55 34.8071C116.368 36.1562 120.538 37.4764 120.617 40.2009C120.696 43.2018 120.617 45.6562 120.617 48.1532H113.628C113.628 45.921 112.403 40.2009 112.403 40.2009C112.403 40.2009 111.851 37.4526 109.996 37.4526H103.204V48.1532H95.8598ZM109.956 25.8439H103.204V32.3195H109.956C112.088 32.3195 113.431 31.1744 113.431 29.0817C113.431 26.9495 112.128 25.8439 109.956 25.8439Z" fill="black"/>
<path d="M130.923 48.1532V25.9623H121.486V20.5133H147.704V25.9623H138.267V48.1532H130.923Z" fill="black"/>
<path d="M161.506 48.706C153.964 48.706 149.147 44.6785 149.147 37.6895V20.5133H156.491V38.1239C156.491 41.2432 158.663 42.9806 161.625 42.9806C164.665 42.9806 166.837 41.2432 166.837 38.1634V20.5133H173.984V37.7685C173.984 44.718 169.127 48.706 161.506 48.706Z" fill="black"/>
<path d="M176.142 48.1532V20.5133H190.791C197.069 20.5133 200.899 23.8696 200.899 29.2791C200.899 34.5702 197.109 38.0054 190.91 38.0054H183.486V48.1532H176.142ZM189.883 25.8833H183.486V32.8328H189.883C192.252 32.8328 193.674 31.6482 193.674 29.3976C193.674 27.1074 192.252 25.8833 189.883 25.8833Z" fill="black"/>
<path d="M210.692 48.1532V20.5133H225.499C231.501 20.5133 234.896 23.4352 234.896 27.9761C234.896 30.6216 233.554 32.7933 231.027 34.0174C233.909 35.123 235.489 37.3736 235.489 40.4535C235.489 45.1128 231.975 48.1532 225.894 48.1532H210.692ZM224.551 25.8044H217.997V31.6877H224.551C226.486 31.6877 227.75 30.7006 227.75 28.7658C227.75 26.831 226.486 25.8044 224.551 25.8044ZM224.867 36.7419H217.997V42.9411H224.867C226.96 42.9411 228.263 41.9145 228.263 39.8612C228.263 37.8475 226.96 36.7419 224.867 36.7419Z" fill="black"/>
<path d="M234.991 48.1532L245.257 20.5133H253.865L264.092 48.1532H256.274L254.378 42.5463H244.23L242.375 48.1532H234.991ZM249.324 27.0679L245.849 37.6106H252.759L249.324 27.0679Z" fill="black"/>
<path d="M267 48L265.023 42V20.5133H272.367V42.7437H287.016V48.1532L267 48Z" fill="black"/>
<path d="M288.737 48.1532V20.5133H296.082V42.7437H310.731V48.1532H288.737Z" fill="black"/>
<path d="M33.1487 97.3735C25.37 97.3735 20.7502 93.8593 20 87.4232H27.1864C27.6207 90.7005 29.4765 92.2009 32.9513 92.2009C36.2681 92.2009 37.7685 91.0164 37.7685 89.5554C37.7685 87.3837 35.0045 86.594 31.6877 85.7648C26.5941 84.5407 20.1974 83.2377 20.1974 76.999C20.1974 72.0633 24.5408 68.707 31.6482 68.707C39.111 68.707 43.8888 72.1423 44.639 78.381H37.729C37.2157 75.4985 35.123 73.8796 31.8852 73.8796C28.8053 73.8796 27.5417 74.9458 27.5417 76.3672C27.5417 78.4995 30.4637 79.2892 33.9384 80.1578C38.9531 81.3819 45.0733 82.8034 45.0733 88.8447C45.0733 93.8988 40.572 97.3735 33.1487 97.3735Z" fill="white"/>
<path d="M54.3808 96.8602V74.6694H44.9438V69.2203H71.1622L69 74.707L61.7251 74.6694V96.8602H54.3808Z" fill="white"/>
<path d="M65.8276 96.8602L76.0939 69.2203H84.7017L94.9285 96.8602H87.1103L85.215 91.2533H75.0672L73.2114 96.8602H65.8276ZM80.1609 75.7749L76.6861 86.3176H83.5961L80.1609 75.7749Z" fill="white"/>
<path d="M95.8598 96.8602V69.2203H110.904C117.064 69.2203 120.617 72.1818 120.617 76.92C120.617 79.8814 116.732 82.165 116.55 83.5141C116.368 84.8633 120.538 86.1835 120.617 88.908C120.696 91.9089 120.617 94.3633 120.617 96.8602H113.628C113.628 94.628 112.403 88.908 112.403 88.908C112.403 88.908 111.851 86.1596 109.996 86.1596H103.204V96.8602H95.8598ZM109.956 74.5509H103.204V81.0265H109.956C112.088 81.0265 113.431 79.8814 113.431 77.7887C113.431 75.6565 112.128 74.5509 109.956 74.5509Z" fill="white"/>
<path d="M130.923 96.8602V74.6694H121.486V69.2203H147.704V74.6694H138.267V96.8602H130.923Z" fill="white"/>
<path d="M161.506 97.413C153.964 97.413 149.147 93.3855 149.147 86.3966V69.2203H156.491V86.8309C156.491 89.9503 158.663 91.6876 161.625 91.6876C164.665 91.6876 166.837 89.9503 166.837 86.8704V69.2203H173.984V86.4755C173.984 93.425 169.127 97.413 161.506 97.413Z" fill="white"/>
<path d="M176.142 96.8602V69.2203H190.791C197.069 69.2203 200.899 72.5766 200.899 77.9861C200.899 83.2772 197.109 86.7124 190.91 86.7124H183.486V96.8602H176.142ZM189.883 74.5904H183.486V81.5398H189.883C192.252 81.5398 193.674 80.3553 193.674 78.1046C193.674 75.8144 192.252 74.5904 189.883 74.5904Z" fill="white"/>
<path d="M210.692 96.8602V69.2203H225.499C231.501 69.2203 234.896 72.1423 234.896 76.6831C234.896 79.3286 233.554 81.5004 231.027 82.7244C233.909 83.83 235.489 86.0807 235.489 89.1606C235.489 93.8198 231.975 96.8602 225.894 96.8602H210.692ZM224.551 74.5114H217.997V80.3948H224.551C226.486 80.3948 227.75 79.4076 227.75 77.4728C227.75 75.538 226.486 74.5114 224.551 74.5114ZM224.867 85.4489H217.997V91.6481H224.867C226.96 91.6481 228.263 90.6215 228.263 88.5683C228.263 86.5545 226.96 85.4489 224.867 85.4489Z" fill="white"/>
<path d="M234.991 96.8602L245.257 69.2203H253.865L264.092 96.8602H256.274L254.378 91.2533H244.23L242.375 96.8602H234.991ZM249.324 75.7749L245.849 86.3176H252.759L249.324 75.7749Z" fill="white"/>
<path d="M267 96.707L265.023 90.707V69.2203H272.367V91.4507H287.016V96.8602L267 96.707Z" fill="white"/>
<path d="M288.737 96.8602V69.2203H296.082V91.4507H310.731V96.8602H288.737Z" fill="white"/>
</svg>
