<svg width="29" height="29" viewBox="0 0 29 29" fill="none" xmlns="http://www.w3.org/2000/svg">
<path d="M0 11V14H10V12H9V10H8V8H7V7H6V6H5V5H4V6H3V7H2V9H1V11H0Z" fill="black"/>
<path d="M0 18V15H10V17H9V19H8V21H7V22H6V23H5V24H4V23H3V22H2V20H1V18H0Z" fill="black"/>
<path d="M29 11V14H19V12H20V10H21V8H22V7H23V6H24V5H25V6H26V7H27V9H28V11H29Z" fill="black"/>
<path d="M29 18V15H19V17H20V19H21V21H22V22H23V23H24V24H25V23H26V22H27V20H28V18H29Z" fill="black"/>
<path d="M6 5V3H7V2H9V1H11V0H14V14H11V11H10V9H9V7H8V6H7V5H6Z" fill="black"/>
<path d="M6 24V26H7V27H9V28H11V29H14V15H11V18H10V20H9V22H8V23H7V24H6Z" fill="black"/>
<path d="M23 5V3H22V2H20V1H18V0H15V14H18V11H19V9H20V7H21V6H22V5H23Z" fill="black"/>
<path d="M23 24V26H22V27H20V28H18V29H15V15H18V18H19V20H20V22H21V23H22V24H23Z" fill="black"/>
</svg>
