<svg width="28" height="32" viewBox="0 0 28 32" fill="none" xmlns="http://www.w3.org/2000/svg">
<path d="M0.224813 28.9492C15.0116 24.8573 15.3336 13.8585 21.1791 13.852C21.1824 13.852 21.1857 13.8508 21.1882 13.8487C22.3559 12.8477 21.0741 10.7123 20.2864 9.76884L15.6262 9.35574C12.1561 6.413 12.2345 3.26467 12.7645 1.88455C12.8138 1.75609 12.9809 1.77942 13.0066 1.91459C13.2396 3.13667 13.5366 5.07601 13.8407 5.49789C14.0586 5.80026 16.0154 7.06038 16.9475 7.80236C18.2549 6.89813 20.6149 6.76783 21.6315 6.8157C21.6315 4.59795 22.1322 4.02758 22.3826 4.01961C20.5023 3.70941 19.8237 2.09027 19.7174 1.31073C19.7168 1.30624 19.7207 1.3027 19.7252 1.30336L21.6315 1.5854L21.8937 1.12823C21.8958 1.12452 21.9008 1.12366 21.9041 1.12644L23.8097 2.753L25.4894 3.52799L26.5403 3.96501C26.8994 4.1143 27.0872 4.51108 26.9751 4.8834L26.737 5.67397C26.7361 5.67686 26.7339 5.67883 26.7309 5.67883H25.5211C25.5001 5.67883 25.4794 5.6831 25.4605 5.69221C25.1412 5.84573 24.6674 6.26266 25.1275 6.8157L26.6194 7.90485C27.1356 8.28172 27.3626 8.94069 27.1878 9.55546C26.577 11.7037 25.4055 15.7525 24.7845 16.2252C24.779 16.2294 24.7781 16.2358 24.7812 16.2419C25.6111 17.823 25.8748 21.659 25.0482 23.354C24.9031 23.6516 24.6009 23.8227 24.2778 23.8951L17.5278 25.4085C16.359 28.7121 14.6838 30.6612 13.6115 30.9918C13.6 30.9953 13.5908 30.983 13.5965 30.9723L17.1899 24.2956C16.7156 24.575 15.7096 24.9653 15.4555 25.173C14.2265 29.0644 10.685 31.1912 11.007 30.772C13.9019 27.0042 13.7716 25.9086 14.7145 23.737C14.7167 23.7321 14.7214 23.7288 14.7268 23.7286C15.6102 23.7049 16.7055 22.9791 17.1899 22.6875C18.5962 21.3924 20.4893 21.0457 21.5351 21.0224C19.9049 20.9407 19.0391 20.1344 18.8013 19.7139C14.8185 22.212 8.12606 30.2728 0.225348 28.9762C0.21093 28.9738 0.210731 28.9531 0.224813 28.9492Z" fill="white"/>
<path d="M18.8013 19.7139C14.8185 22.212 8.12606 30.2728 0.225348 28.9762C0.21093 28.9738 0.210731 28.9531 0.224813 28.9492C15.0116 24.8573 15.3336 13.8585 21.1791 13.852C21.1824 13.852 21.1857 13.8508 21.1882 13.8487C22.3559 12.8477 21.0741 10.7123 20.2864 9.76884L15.6262 9.35574C12.1561 6.413 12.2345 3.26467 12.7645 1.88455C12.8138 1.75609 12.9809 1.77942 13.0066 1.91459C13.2396 3.13667 13.5366 5.07601 13.8407 5.49789C14.0586 5.80026 16.0154 7.06038 16.9475 7.80236C18.2549 6.89813 20.6149 6.76783 21.6315 6.8157C21.6315 4.59795 22.1322 4.02758 22.3826 4.01961C20.5023 3.70941 19.8237 2.09027 19.7174 1.31073C19.7168 1.30624 19.7207 1.3027 19.7252 1.30336L21.6315 1.5854M18.8013 19.7139C18.4371 18.6453 18.3206 16.3333 20.7678 15.6342M18.8013 19.7139C19.0562 20.1646 20.0324 21.0584 21.8978 21.0283C20.9908 20.9714 18.7794 21.2236 17.1899 22.6875C16.7055 22.9791 15.6102 23.7049 14.7268 23.7286C14.7214 23.7288 14.7167 23.7321 14.7145 23.737C13.7716 25.9086 13.9019 27.0042 11.007 30.772C10.685 31.1912 14.2265 29.0644 15.4555 25.173C15.7096 24.9653 16.7156 24.575 17.1899 24.2956M21.8978 15.6342C24.3947 17.6941 23.9545 20.3394 23.212 21.8627C23.0049 22.2875 22.559 22.517 22.0894 22.5698C19.7325 22.8351 17.4956 23.7829 17.1899 24.2956M17.1899 24.2956L13.5965 30.9723C13.5908 30.983 13.6 30.9953 13.6115 30.9918C14.6838 30.6612 16.359 28.7121 17.5278 25.4085L24.2778 23.8951C24.6009 23.8227 24.9031 23.6516 25.0482 23.354C25.8748 21.659 25.6111 17.823 24.7812 16.2419C24.7781 16.2358 24.779 16.2294 24.7845 16.2252C25.4055 15.7525 26.577 11.7037 27.1878 9.55546C27.3626 8.94069 27.1356 8.28172 26.6194 7.90485L25.1275 6.8157C24.6674 6.26266 25.1412 5.84573 25.4605 5.69221C25.4794 5.6831 25.5001 5.67883 25.5211 5.67883C25.9858 5.67883 26.6688 5.67883 26.7309 5.67883C26.7339 5.67883 26.7361 5.67686 26.737 5.67397L26.9751 4.8834C27.0872 4.51108 26.8994 4.1143 26.5403 3.96501L25.4894 3.52799L23.8097 2.753L21.9041 1.12644C21.9008 1.12366 21.8958 1.12452 21.8937 1.12823L21.6315 1.5854M21.6315 1.5854L22.8367 2.753" stroke="white" stroke-width="0.430168" stroke-linecap="round"/>
<circle cx="14.9883" cy="2.51956" r="2.51956" fill="white"/>
</svg>
