<svg width="31" height="31" viewBox="0 0 31 31" fill="none" xmlns="http://www.w3.org/2000/svg">
<rect x="11" y="11" width="9" height="9" fill="white"/>
<rect x="29" y="11" width="9" height="3" transform="rotate(90 29 11)" fill="white"/>
<rect x="20" y="5" width="9" height="3" transform="rotate(-180 20 5)" fill="white"/>
<rect x="20" y="29" width="9" height="3" transform="rotate(-180 20 29)" fill="white"/>
<rect x="5" y="11" width="9" height="3" transform="rotate(90 5 11)" fill="white"/>
<path d="M4 25V21H10V27H5V25H4Z" fill="white"/>
<path d="M27 5L27 9L21 9L21 4L26 4L26 5L27 5Z" fill="white"/>
<path d="M26 27L22 27L22 21L27 21L27 26L26 26L26 27Z" fill="white"/>
<path d="M5 4L9 4L9 10L4 10L4 5L5 5L5 4Z" fill="white"/>
<rect x="19" y="9" width="3" height="3" fill="white"/>
<rect x="14" y="5" width="3" height="7" fill="white"/>
<rect x="25" y="14" width="3" height="6" transform="rotate(90 25 14)" fill="white"/>
<rect x="14" y="19" width="3" height="7" fill="white"/>
<rect x="12" y="14" width="3" height="6" transform="rotate(90 12 14)" fill="white"/>
<rect x="9" y="9" width="3" height="3" fill="white"/>
<rect x="9" y="19" width="3" height="3" fill="white"/>
<rect x="19" y="19" width="3" height="3" fill="white"/>
<rect x="24" y="12" width="7" height="7" fill="white"/>
<rect x="19" width="7" height="7" transform="rotate(90 19 0)" fill="white"/>
<rect x="19" y="24" width="7" height="7" transform="rotate(90 19 24)" fill="white"/>
<rect y="12" width="7" height="7" fill="white"/>
<rect x="5" y="20" width="6" height="6" fill="white"/>
<rect x="5" y="5" width="6" height="6" fill="white"/>
<rect x="20" y="5" width="6" height="6" fill="white"/>
<rect x="20" y="20" width="6" height="6" fill="white"/>
</svg>
