<svg width="31" height="31" viewBox="0 0 31 31" fill="none" xmlns="http://www.w3.org/2000/svg">
<path d="M15.5088 22.585C17.452 22.585 19.3766 22.9683 21.1719 23.7119C22.9668 24.4555 24.5978 25.5452 25.9717 26.9189C25.9738 26.9211 25.9737 26.9245 25.9715 26.9266C23.2132 29.4557 19.5372 31 15.5 31C11.4717 31 7.80268 29.4629 5.04645 26.9438C5.03922 26.9372 5.03898 26.9259 5.0459 26.9189C6.4199 25.545 8.05151 24.4555 9.84668 23.7119C11.6419 22.9684 13.5657 22.585 15.5088 22.585ZM15.5098 12.5898C20.5678 12.5899 25.5592 13.2353 30.374 14.4807C30.7335 14.5737 30.9919 14.8902 30.998 15.2615C30.9993 15.3408 31 15.4203 31 15.5C31 17.8405 30.48 20.0592 29.5508 22.0485C29.3136 22.5565 28.6519 22.6581 28.2233 22.2967C26.6761 20.9924 24.9352 19.9313 23.0596 19.1543C20.6659 18.1628 18.0997 17.6523 15.5088 17.6523C12.918 17.6524 10.3526 18.1629 7.95898 19.1543C6.07806 19.9334 4.3318 20.9977 2.78111 22.3068C2.35268 22.6684 1.69092 22.5674 1.4533 22.0596C0.521199 20.0674 0 17.8447 0 15.5C0 15.4223 0.000592183 15.3448 0.00176135 15.2674C0.00736942 14.896 0.2655 14.5794 0.624987 14.4863C5.44607 13.2376 10.4446 12.5898 15.5098 12.5898ZM15.5 0C21.1073 0 26.0182 2.97801 28.7396 7.43833C29.1111 8.04716 28.5551 8.75518 27.855 8.61872C23.8166 7.83146 19.684 7.42679 15.5098 7.42676C11.3279 7.42676 7.18747 7.83293 3.14186 8.62302C2.4419 8.75972 1.88564 8.05191 2.25689 7.44297C4.97778 2.97998 9.89062 0 15.5 0Z" fill="black"/>
</svg>
