<svg width="175" height="32" viewBox="0 0 175 32" fill="none" xmlns="http://www.w3.org/2000/svg">
<g clip-path="url(#clip0_2688_34537)">
<path d="M49.9661 12.4844H40.6327V15.2366H48.6664C50.2165 15.2366 50.9601 16.0318 50.9601 17.5605V28.6929H51.7959C53.6552 28.6929 54.5867 27.7742 54.5867 25.9516V17.2554C54.5867 14.5032 53.0661 12.4844 49.9661 12.4844ZM45.2239 25.9516C43.9832 25.9516 43.4861 25.1781 43.4861 23.6567C43.4861 22.1354 43.9832 21.3511 45.2239 21.3511L49.793 21.2894V18.5771L43.8285 18.5989C41.0377 18.5989 39.7344 20.5886 39.7344 23.6567C39.7344 27.0118 41.0377 28.6929 43.8285 28.6929L47.6134 28.7037L50.4042 25.9516H45.2239Z" fill="white"/>
<path d="M66.281 19.7566L62.7465 18.7872C61.5352 18.4494 60.173 18.0718 60.173 16.6957C60.173 15.5012 60.7326 15.2288 61.9107 15.2288H70.5225L73.3133 12.4766H61.3512C58.0338 12.4766 56.6384 13.7002 56.6384 16.6376C56.6384 18.9614 57.4742 20.4101 61.0124 21.3578L64.175 22.2147C65.6625 22.6322 67.6176 22.7666 67.6176 24.4768C67.6176 25.5479 66.8407 25.9436 66.097 25.9436H58.5603L55.7695 28.6959H67.3672C70.5004 28.6959 71.3987 27.0439 71.3987 24.5567C71.3987 21.2634 69.197 20.5517 66.281 19.7566Z" fill="white"/>
<path d="M97.0711 25.9516C96.2134 25.9516 95.5506 25.8171 95.0461 25.563C94.8915 25.4904 94.7553 25.3996 94.6228 25.298C93.9821 24.7968 93.7023 24.0235 93.5992 23.0649C93.5587 22.6655 93.5366 22.248 93.5366 21.7905V19.0273C93.5366 18.4572 93.5882 17.9381 93.6913 17.4988C93.8459 16.8379 94.1258 16.315 94.5491 15.9374C95.2119 15.3346 96.2355 15.0514 97.7229 15.0514C99.8951 15.0514 101.879 15.9374 101.879 18.0797C101.879 18.5372 101.787 19.0273 101.073 19.0273H95.7384V21.7796H103.088C104.947 21.7796 105.643 20.5559 105.643 18.7224C105.643 13.5229 102.365 12.4844 97.7118 12.4844C92.1302 12.4844 89.7812 14.1364 89.7812 20.5595C89.7812 20.9881 89.7922 21.3947 89.8033 21.7941C89.8253 22.2443 89.8439 22.6619 89.8844 23.0686C90.2341 26.6995 91.6331 28.6965 95.985 28.6965H104.906L103.334 25.9552H97.0675L97.0711 25.9516Z" fill="white"/>
<path d="M124.45 12.4802H107.422V28.6996H111.052V15.2324H117.319V27.2109L120.949 27.2V15.2324H126.564C126.925 15.2324 127.216 15.5266 127.216 15.8751V28.6996H130.846V18.0137C130.846 13.7329 128.18 12.4766 124.457 12.4766L124.45 12.4802Z" fill="white"/>
<path d="M141.64 12.4833H136.74L136.729 6.95703L133.109 9.01577V25.9504C133.109 27.7768 134.041 28.6918 135.901 28.6918H141.636C146.909 28.6918 148.367 25.4494 148.367 20.5549C148.367 15.6603 146.909 12.4797 141.636 12.4797L141.64 12.4833ZM140.742 25.9504H137.671C137.053 25.9504 136.74 25.6455 136.74 25.0209V15.2319H140.742C144.246 15.2319 144.618 17.494 144.618 20.5549C144.618 23.6158 144.246 25.9468 140.742 25.9468V25.9504Z" fill="white"/>
<path d="M150.723 8.91338V28.702H154.353V6.84375L150.723 8.91338Z" fill="white"/>
<path d="M32.4293 0.0078125V31.9891L26.4758 32L26.4537 14.7712L14.3922 26.6152L17.9782 26.6262H20.8316V32.0109H14.764L0 31.9891L32.4293 0.0078125Z" fill="white"/>
<path d="M170.335 12.4844L165.086 23.4534L160.14 12.4844H156.223L163.362 27.9595L160.998 32.0115H164.669L174.017 12.4844H170.339H170.335Z" fill="white"/>
<path d="M82.7888 19.7566L79.2544 18.7872C78.0431 18.4494 76.6808 18.0718 76.6808 16.6957C76.6808 15.5012 77.2404 15.2288 78.4186 15.2288H87.0304L89.8211 12.4766H77.859C74.5417 12.4766 73.1462 13.7002 73.1462 16.6376C73.1462 18.9614 73.982 20.4101 77.5202 21.3578L80.6829 22.2147C82.1704 22.6322 84.1254 22.7666 84.1254 24.4768C84.1254 25.5479 83.3485 25.9436 82.6048 25.9436H75.0681L72.2773 28.6959H83.8751C87.0083 28.6959 87.9066 27.0439 87.9066 24.5567C87.9066 21.2634 85.7049 20.5517 82.7888 19.7566Z" fill="white"/>
</g>
<defs>
<clipPath id="clip0_2688_34537">
<rect width="174.017" height="32.0031" fill="white"/>
</clipPath>
</defs>
</svg>
