<svg width="58" height="34" viewBox="0 0 58 34" fill="none" xmlns="http://www.w3.org/2000/svg">
<g clip-path="url(#clip0_2688_32349)">
<path d="M16.2167 12.3075C16.2167 13.0049 16.293 13.5704 16.4275 13.985C16.5805 14.3996 16.7717 14.8518 17.0396 15.3422C17.1349 15.4925 17.1736 15.6435 17.1736 15.7753C17.1736 15.9638 17.0586 16.1523 16.8098 16.3408L15.6041 17.1325C15.432 17.2458 15.2599 17.3019 15.1063 17.3019C14.9152 17.3019 14.7235 17.2076 14.5323 17.0382C14.2748 16.7657 14.0441 16.469 13.8434 16.1523C13.6298 15.7904 13.4319 15.4194 13.2504 15.0403C11.7571 16.7745 9.8816 17.6413 7.62322 17.6413C6.01508 17.6413 4.73313 17.1891 3.79483 16.2842C2.85759 15.3798 2.37891 14.1735 2.37891 12.6655C2.37891 11.0637 2.9529 9.7632 4.12101 8.78306C5.28806 7.80293 6.83848 7.3126 8.80986 7.3126C9.46064 7.3126 10.1305 7.36926 10.8384 7.46351C11.5464 7.55777 12.2734 7.70868 13.0396 7.87812V6.50244C13.0396 5.07011 12.733 4.07091 12.1395 3.48686C11.5273 2.90227 10.4937 2.61951 9.02061 2.61951C8.35025 2.61951 7.66135 2.69523 6.95339 2.86468C6.24489 3.03412 5.55547 3.24169 4.88616 3.50539C4.5801 3.63777 4.35029 3.71296 4.21632 3.75055C4.08236 3.78815 3.98651 3.80721 3.90973 3.80721C3.6418 3.80721 3.50783 3.61871 3.50783 3.22263V2.29915C3.50783 1.99733 3.54649 1.77176 3.6418 1.63938C3.73764 1.50753 3.90973 1.37568 4.17767 1.24383C4.84803 0.904941 5.65184 0.621651 6.58961 0.395548C7.52685 0.150912 8.52234 0.0375956 9.57501 0.0375956C11.853 0.0375956 13.5178 0.546459 14.5895 1.56419C15.6427 2.58191 16.1781 4.12704 16.1781 6.20062V12.3075H16.2167ZM8.44609 15.1722C9.0778 15.1722 9.72857 15.0594 10.4175 14.8333C11.1064 14.6067 11.719 14.1926 12.2358 13.6265C12.5419 13.2686 12.7717 12.873 12.8866 12.4203C13.001 11.9681 13.0778 11.4216 13.0778 10.7809V9.9893C12.4972 9.85019 11.9094 9.74324 11.3171 9.66894C10.7203 9.59424 10.1193 9.5564 9.51783 9.55563C8.23534 9.55563 7.29757 9.80079 6.66586 10.3097C6.03468 10.818 5.72862 11.5344 5.72862 12.477C5.72862 13.3628 5.9579 14.0226 6.43658 14.4748C6.89567 14.9461 7.56551 15.1722 8.44609 15.1722ZM23.8147 17.2076C23.4705 17.2076 23.2407 17.1515 23.0877 17.0191C22.9341 16.9064 22.8007 16.6427 22.6858 16.2842L18.1881 1.71563C18.0732 1.33861 18.016 1.09345 18.016 0.961599C18.016 0.659776 18.169 0.490331 18.4751 0.490331H20.3506C20.7144 0.490331 20.9633 0.546989 21.0973 0.678838C21.2508 0.792154 21.3652 1.05585 21.4801 1.41381L24.6953 13.8913L27.6812 1.41381C27.7766 1.03679 27.892 0.792154 28.045 0.678838C28.1981 0.566051 28.466 0.490331 28.8102 0.490331H30.3415C30.7053 0.490331 30.9542 0.546989 31.1072 0.678838C31.2602 0.792154 31.3942 1.05585 31.471 1.41381L34.4945 14.0422L37.8061 1.41381C37.921 1.03679 38.055 0.792154 38.1889 0.678838C38.342 0.566051 38.5908 0.490331 38.9356 0.490331H40.7147C41.0218 0.490331 41.1934 0.641243 41.1934 0.961599C41.1934 1.05585 41.1743 1.15011 41.1553 1.26342C41.1253 1.42432 41.0804 1.58208 41.0213 1.73469L36.4092 16.3038C36.2938 16.6808 36.1604 16.9254 36.0068 17.0387C35.8532 17.1521 35.6049 17.2272 35.2793 17.2272H33.6335C33.2697 17.2272 33.0209 17.1706 32.8678 17.0387C32.7148 16.9064 32.5808 16.6617 32.5041 16.2847L29.5377 4.12757L26.5904 16.2656C26.4946 16.6427 26.3797 16.8873 26.2267 17.0191C26.0731 17.1515 25.8057 17.2076 25.461 17.2076H23.8147ZM48.4091 17.7165C47.4136 17.7165 46.4187 17.6037 45.4618 17.3776C44.505 17.1515 43.7584 16.9064 43.2606 16.6236C42.9546 16.4541 42.7438 16.2656 42.6676 16.0957C42.5932 15.9297 42.554 15.7501 42.5527 15.5683V14.6067C42.5527 14.2111 42.7057 14.0226 42.9927 14.0226C43.1076 14.0226 43.2225 14.0411 43.3369 14.0793C43.4523 14.1163 43.6244 14.1921 43.8156 14.2678C44.4669 14.5505 45.1748 14.7761 45.9209 14.927C46.6866 15.0779 47.4332 15.1531 48.1989 15.1531C49.4046 15.1531 50.3424 14.9461 50.9931 14.5315C51.6439 14.1169 51.9886 13.5138 51.9886 12.7407C51.9886 12.2133 51.816 11.7796 51.4713 11.4216C51.1271 11.0637 50.4758 10.7428 49.5386 10.4415L46.7634 9.59322C45.366 9.16008 44.3329 8.51884 43.7007 7.67108C43.0695 6.84186 42.7438 5.91839 42.7438 4.93773C42.7438 4.1461 42.9159 3.44926 43.2606 2.84614C43.6039 2.23786 44.0739 1.71054 44.639 1.29996C45.213 0.866816 45.8637 0.546459 46.6294 0.320357C47.3946 0.0942537 48.1989 0 49.0408 0C49.4618 0 49.9023 0.018533 50.3233 0.0751911C50.7633 0.131849 51.1652 0.20757 51.5677 0.282761C51.95 0.377015 52.3137 0.471268 52.6585 0.584585C53.0026 0.697371 53.2706 0.810158 53.4623 0.923474C53.7302 1.07439 53.9214 1.2253 54.0363 1.39474C54.1512 1.54512 54.2084 1.75269 54.2084 2.01639V2.90227C54.2084 3.29835 54.0553 3.50592 53.7683 3.50592C53.6153 3.50592 53.3664 3.4302 53.0408 3.27929C51.95 2.78948 50.7252 2.54432 49.3659 2.54432C48.2751 2.54432 47.4142 2.71376 46.8206 3.07225C46.2275 3.4302 45.9209 3.97666 45.9209 4.74975C45.9209 5.27715 46.1126 5.72935 46.4954 6.08783C46.8783 6.44579 47.5862 6.80374 48.6008 7.12409L51.3183 7.97238C52.6966 8.40605 53.6915 9.00917 54.2851 9.78173C54.8782 10.5548 55.1652 11.4407 55.1652 12.4203C55.1652 13.2305 54.9931 13.9665 54.668 14.6072C54.3233 15.2479 53.8642 15.8129 53.2706 16.2656C52.6775 16.7369 51.969 17.0758 51.1462 17.321C50.2846 17.5847 49.3855 17.7165 48.4091 17.7165Z" fill="white"/>
<path d="M52.027 26.8745C45.7306 31.4537 36.5816 33.8852 28.7157 33.8852C17.6912 33.8852 7.75746 29.8715 0.254764 23.1996C-0.338293 22.6717 0.197576 21.9553 0.906067 22.3699C9.02088 27.0063 19.0308 29.8149 29.3855 29.8149C36.3714 29.8149 44.0462 28.3825 51.1083 25.4421C52.161 24.9709 53.0606 26.121 52.027 26.8745Z" fill="white"/>
<path d="M54.65 23.9347C53.8457 22.9169 49.3289 23.4449 47.2813 23.6895C46.6687 23.7652 46.5728 23.2373 47.1278 22.8418C50.7263 20.3536 56.6405 21.07 57.3294 21.8992C58.0183 22.7475 57.1377 28.5711 53.7695 31.3606C53.2527 31.7943 52.7549 31.5682 52.9847 31.0026C53.7504 29.1366 55.4538 24.9339 54.65 23.9347Z" fill="white"/>
<path d="M16.2167 12.3075C16.2167 13.0049 16.293 13.5704 16.4275 13.985C16.5805 14.3996 16.7717 14.8518 17.0396 15.3422C17.1349 15.4925 17.1736 15.6435 17.1736 15.7753C17.1736 15.9638 17.0586 16.1523 16.8098 16.3408L15.6041 17.1325C15.432 17.2458 15.2599 17.3019 15.1063 17.3019C14.9152 17.3019 14.7235 17.2076 14.5323 17.0382C14.2748 16.7657 14.0441 16.469 13.8434 16.1523C13.6297 15.7904 13.4319 15.4194 13.2504 15.0403C11.7571 16.7745 9.8816 17.6413 7.62322 17.6413C6.01508 17.6413 4.73313 17.1891 3.79483 16.2842C2.85759 15.3798 2.37891 14.1735 2.37891 12.6655C2.37891 11.0637 2.9529 9.7632 4.12101 8.78306C5.28806 7.80293 6.83848 7.3126 8.80986 7.3126C9.46064 7.3126 10.1305 7.36926 10.8384 7.46351C11.5464 7.55777 12.2734 7.70868 13.0396 7.87812V6.50244C13.0396 5.07011 12.733 4.07091 12.1395 3.48686C11.5273 2.90227 10.4937 2.61951 9.02061 2.61951C8.35025 2.61951 7.66135 2.69523 6.95339 2.86468C6.24489 3.03412 5.55547 3.24169 4.88616 3.50539C4.5801 3.63777 4.35029 3.71296 4.21632 3.75055C4.08236 3.78815 3.98651 3.80721 3.90973 3.80721C3.6418 3.80721 3.50783 3.61871 3.50783 3.22263V2.29915C3.50783 1.99733 3.54649 1.77176 3.6418 1.63938C3.73764 1.50753 3.90973 1.37568 4.17767 1.24383C4.84803 0.904941 5.65184 0.621651 6.58961 0.395548C7.52685 0.150912 8.52234 0.0375956 9.57501 0.0375956C11.853 0.0375956 13.5178 0.546459 14.5895 1.56419C15.6427 2.58191 16.1781 4.12704 16.1781 6.20062V12.3075H16.2167ZM8.44609 15.1722C9.0778 15.1722 9.72857 15.0594 10.4175 14.8333C11.1064 14.6067 11.719 14.1926 12.2358 13.6265C12.5419 13.2686 12.7717 12.873 12.8866 12.4203C13.001 11.9681 13.0778 11.4216 13.0778 10.7809V9.9893C12.4972 9.85016 11.9095 9.74322 11.3171 9.66894C10.7203 9.59424 10.1193 9.5564 9.51783 9.55563C8.23534 9.55563 7.29757 9.80079 6.66586 10.3097C6.03468 10.818 5.72862 11.5344 5.72862 12.477C5.72862 13.3628 5.9579 14.0226 6.43658 14.4748C6.89567 14.9461 7.56551 15.1722 8.44609 15.1722ZM23.8147 17.2076C23.4705 17.2076 23.2407 17.1515 23.0877 17.0191C22.9341 16.9064 22.8007 16.6427 22.6858 16.2842L18.1881 1.71563C18.0732 1.33861 18.016 1.09345 18.016 0.961599C18.016 0.659776 18.169 0.490331 18.4751 0.490331H20.3506C20.7144 0.490331 20.9633 0.546989 21.0973 0.678838C21.2508 0.792154 21.3652 1.05585 21.4801 1.41381L24.6953 13.8913L27.6812 1.41381C27.7766 1.03679 27.892 0.792154 28.045 0.678838C28.1981 0.566051 28.466 0.490331 28.8102 0.490331H30.3415C30.7053 0.490331 30.9542 0.546989 31.1072 0.678838C31.2608 0.792154 31.3942 1.05585 31.471 1.41381L34.4945 14.0417L37.8066 1.41381C37.9215 1.03679 38.0555 0.792154 38.1895 0.678838C38.3425 0.566051 38.5914 0.490331 38.9361 0.490331H40.7153C41.0224 0.490331 41.1939 0.641243 41.1939 0.961599C41.1939 1.05585 41.1749 1.15011 41.1558 1.26342C41.1258 1.42431 41.0809 1.58207 41.0218 1.73469L36.4098 16.3038C36.2943 16.6808 36.1609 16.9254 36.0073 17.0387C35.8538 17.1521 35.6054 17.2272 35.2803 17.2272H33.6341C33.2703 17.2272 33.0214 17.1706 32.8684 17.0387C32.7153 16.9064 32.5814 16.6617 32.5046 16.2847L29.5377 4.12757L26.5904 16.2656C26.4946 16.6427 26.3797 16.8873 26.2267 17.0191C26.0731 17.1515 25.8057 17.2076 25.461 17.2076H23.8147ZM48.4091 17.7165C47.4136 17.7165 46.4187 17.6037 45.4618 17.3776C44.505 17.1515 43.7584 16.9064 43.2606 16.6236C42.9546 16.4541 42.7438 16.2656 42.6676 16.0957C42.5932 15.9297 42.554 15.7501 42.5527 15.5683V14.6067C42.5527 14.2111 42.7057 14.0226 42.9927 14.0226C43.1076 14.0226 43.2225 14.0411 43.3369 14.0793C43.4523 14.1163 43.6244 14.1921 43.8156 14.2678C44.4669 14.5505 45.1748 14.7761 45.9209 14.927C46.6866 15.0779 47.4332 15.1531 48.1989 15.1531C49.4046 15.1531 50.3424 14.9461 50.9931 14.5315C51.6439 14.1169 51.9886 13.5138 51.9886 12.7407C51.9886 12.2133 51.816 11.7796 51.4713 11.4216C51.1271 11.0637 50.4758 10.7428 49.5386 10.4415L46.7634 9.59322C45.366 9.16008 44.3329 8.51884 43.7007 7.67108C43.0695 6.84186 42.7438 5.91839 42.7438 4.93773C42.7438 4.1461 42.9159 3.44926 43.2606 2.84614C43.6039 2.23788 44.074 1.71056 44.639 1.29996C45.213 0.866816 45.8637 0.546459 46.6294 0.320357C47.3946 0.0942537 48.1989 0 49.0408 0C49.4618 0 49.9023 0.018533 50.3233 0.0751911C50.7633 0.131849 51.1652 0.20757 51.5677 0.282761C51.95 0.377015 52.3137 0.471268 52.6585 0.584585C53.0026 0.697371 53.2706 0.810158 53.4623 0.923474C53.7302 1.07439 53.9214 1.2253 54.0363 1.39474C54.1512 1.54512 54.2084 1.75269 54.2084 2.01639V2.90227C54.2084 3.29835 54.0553 3.50592 53.7683 3.50592C53.6153 3.50592 53.3664 3.4302 53.0408 3.27929C51.95 2.78948 50.7252 2.54432 49.3659 2.54432C48.2751 2.54432 47.4142 2.71376 46.8206 3.07225C46.2275 3.4302 45.9209 3.97666 45.9209 4.74975C45.9209 5.27715 46.1126 5.72935 46.4954 6.08783C46.8783 6.44579 47.5862 6.80374 48.6008 7.12409L51.3183 7.97238C52.6966 8.40605 53.6915 9.00917 54.2851 9.78173C54.8782 10.5548 55.1657 11.4407 55.1657 12.4203C55.1657 13.2305 54.9931 13.9665 54.668 14.6072C54.3233 15.2479 53.8642 15.8129 53.2706 16.2656C52.6775 16.7369 51.969 17.0758 51.1462 17.321C50.2852 17.5847 49.3855 17.7165 48.4091 17.7165Z" fill="white"/>
<path d="M52.0265 26.8745C45.73 31.4537 36.5811 33.8852 28.7151 33.8852C17.6906 33.8852 7.75693 29.8715 0.254764 23.1996C-0.338293 22.6717 0.197576 21.9553 0.906067 22.3699C9.02088 27.0068 19.0308 29.8149 29.3855 29.8149C36.3714 29.8149 44.0462 28.3825 51.1083 25.4421C52.161 24.9709 53.0601 26.121 52.0265 26.8745Z" fill="white"/>
<path d="M54.65 23.9347C53.8457 22.9169 49.3289 23.4449 47.2813 23.6895C46.6687 23.7652 46.5728 23.2373 47.1278 22.8418C50.7263 20.3536 56.6405 21.07 57.3294 21.8992C58.0183 22.7475 57.1377 28.5711 53.7695 31.3606C53.2527 31.7943 52.7549 31.5682 52.9847 31.0026C53.7504 29.1366 55.4538 24.9339 54.65 23.9347Z" fill="white"/>
</g>
<defs>
<clipPath id="clip0_2688_32349">
<rect width="57.7171" height="33.889" fill="white"/>
</clipPath>
</defs>
</svg>
