<svg width="34" height="36" viewBox="0 0 34 36" fill="none" xmlns="http://www.w3.org/2000/svg">
<mask id="mask0_2690_34587" style="mask-type:luminance" maskUnits="userSpaceOnUse" x="0" y="0" width="34" height="36">
<path d="M33.9292 0H0V35.4429H33.9292V0Z" fill="white"/>
</mask>
<g mask="url(#mask0_2690_34587)">
<path d="M2.13283 1.52339L21.7455 0.0806232C24.1536 -0.126161 24.774 0.0132704 26.2876 1.11218L32.5479 5.51256C33.5806 6.2688 33.9257 6.47558 33.9257 7.30036V31.4339C33.9257 32.9464 33.3738 33.8409 31.4478 33.9779L8.67313 35.3522C7.22682 35.4207 6.53912 35.2151 5.7817 34.2521L1.16981 28.2695C0.342672 27.1694 0 26.3458 0 25.3816V3.92918C0 2.6932 0.550638 1.66046 2.13283 1.52457V1.52339Z" fill="white"/>
<path fill-rule="evenodd" clip-rule="evenodd" d="M21.7455 0.0806232L2.13283 1.52575C0.550638 1.66164 0 2.69438 0 3.93036V25.3828C0 26.347 0.342672 27.1706 1.16981 28.2707L5.78051 34.2533C6.53676 35.2163 7.22564 35.4231 8.67195 35.3522L31.4478 33.9779C33.3738 33.8409 33.9257 32.9464 33.9257 31.4339V7.30036C33.9257 6.51812 33.6161 6.29243 32.7039 5.62718C32.6518 5.58902 32.5998 5.55081 32.5479 5.51256L26.2876 1.11218C24.774 0.0132704 24.1524 -0.126161 21.7455 0.0806232ZM9.18832 6.90451C7.32844 7.02977 6.9066 7.05813 5.85023 6.20026L3.16439 4.06861C2.89026 3.79329 3.02851 3.44944 3.71621 3.38209L22.5714 2.00667C24.1536 1.86842 24.9796 2.42024 25.5987 2.89998L28.8329 5.23842C28.9699 5.30696 29.3138 5.71934 28.9014 5.71934L9.42819 6.88915L9.18832 6.90451ZM7.01886 31.2271V10.7377C7.01886 9.8444 7.29418 9.43201 8.12013 9.3623L30.4836 8.0566C31.2422 7.98806 31.586 8.47017 31.586 9.3623V29.7134C31.586 30.6091 31.4478 31.3654 30.2083 31.4339L8.80902 32.6722C7.56831 32.7408 7.01886 32.3296 7.01886 31.2271ZM28.1463 11.8366C28.2834 12.457 28.1463 13.0761 27.5248 13.1459L26.4944 13.3515V28.4763C25.5987 28.9584 24.7728 29.2325 24.0851 29.2325C22.9838 29.2325 22.7085 28.8898 21.8825 27.8583L15.139 17.2709V27.5156L17.273 27.9965C17.273 27.9965 17.273 29.2337 15.5502 29.2337L10.8036 29.509C10.6654 29.2337 10.8036 28.546 11.2857 28.4089L12.5241 28.0663V14.5189L10.8036 14.3807C10.6665 13.7615 11.0092 12.8682 11.9734 12.7996L17.0662 12.457L24.0851 23.1826V13.6941L22.2961 13.4885C22.1579 12.7311 22.7085 12.1805 23.3962 12.1131L28.1463 11.8366Z" fill="black"/>
</g>
</svg>
