<svg width="111" height="35" viewBox="0 0 111 35" fill="none" xmlns="http://www.w3.org/2000/svg">
<g clip-path="url(#clip0_2688_32395)">
<path d="M24.6421 25.4693H25.0552V33.0303H23.8178C15.77 33.0303 10.457 28.4458 10.457 20.9623V17.274L13.7304 16.4497C14.4963 16.2566 15.1926 15.8523 15.74 15.2829C16.2874 14.7134 16.6639 14.0017 16.8266 13.2287C16.9893 12.4558 16.9316 11.6526 16.6602 10.9108C16.3888 10.169 15.9144 9.51834 15.2913 9.0329C14.6681 8.54749 13.9212 8.24682 13.1355 8.16515C12.3499 8.08347 11.557 8.22408 10.8474 8.57096C10.1378 8.91781 9.53976 9.45704 9.12157 10.1272C8.70332 10.7973 8.48171 11.5713 8.48193 12.3613V28.8515H0.34375V12.0699C0.343934 11.565 0.37596 11.0605 0.439643 10.5595C1.19943 4.60481 6.39989 0 12.6995 0C18.4421 0 23.2719 3.82843 24.6568 9.01596C25.38 11.7359 25.1127 14.6243 23.9026 17.1652C22.8041 19.4488 21.0237 21.3349 18.8072 22.563C19.5725 24.9456 21.4554 25.4693 24.6421 25.4693Z" fill="white"/>
<path d="M40.8467 12.6562V15.7655H40.3377C39.268 15.7655 38.4333 16.0593 37.8333 16.647C37.2334 17.2347 36.934 18.0338 36.9353 19.0444V24.6523H33.9219V12.8499H36.9297V14.375C37.8333 13.2292 38.9675 12.6562 40.3322 12.6562H40.8467Z" fill="white"/>
<path d="M53.5497 19.8491H44.4045C44.5921 20.5623 45.0193 21.1893 45.6143 21.625C46.2473 22.0735 47.0094 22.3033 47.7849 22.2797C48.4376 22.2876 49.0835 22.1463 49.6732 21.8666C50.1996 21.6272 50.6635 21.2693 51.0287 20.821L53.0425 22.5858C52.4103 23.3351 51.6156 23.9304 50.7189 24.3267C49.7663 24.7463 48.7353 24.9581 47.6945 24.9482C46.5243 24.9644 45.3689 24.684 44.3363 24.133C43.3594 23.6127 42.5457 22.8321 41.985 21.8777C41.4339 20.9207 41.1416 19.8368 41.1368 18.7325C41.1319 17.6282 41.4147 16.5417 41.9574 15.58C42.494 14.649 43.2761 13.8835 44.2183 13.367C45.1955 12.8272 46.2961 12.5503 47.4123 12.5629C49.1827 12.5629 50.658 13.1531 51.8383 14.3333C53.0186 15.5135 53.6099 16.9925 53.6124 18.7703C53.6166 19.1309 53.5957 19.4914 53.5497 19.8491ZM49.3081 15.875C48.7621 15.4471 48.0885 15.2146 47.3948 15.2146C46.7012 15.2146 46.0276 15.4471 45.4815 15.875C44.9314 16.3283 44.5463 16.9507 44.3861 17.6454H50.4109C50.2507 16.946 49.8613 16.3202 49.3044 15.8676L49.3081 15.875Z" fill="white"/>
<path d="M72.696 13.7625C73.4976 14.5616 73.899 15.6282 73.9002 16.9621V24.6503H70.8813V17.8731C70.8964 17.5571 70.8488 17.2412 70.7412 16.9436C70.6335 16.6461 70.4681 16.3729 70.2543 16.1396C70.0354 15.9202 69.773 15.749 69.4841 15.6369C69.195 15.5248 68.8858 15.4743 68.5762 15.4886C68.2469 15.4753 67.9182 15.5278 67.6096 15.643C67.3008 15.7583 67.0181 15.934 66.7781 16.1599C66.5469 16.3897 66.3661 16.6651 66.2474 16.9686C66.1286 17.2722 66.0745 17.5972 66.0885 17.9229V24.6614H63.0807V17.8731C63.0952 17.557 63.0462 17.2413 62.9366 16.9445C62.827 16.6477 62.659 16.3759 62.4426 16.1451C62.2197 15.924 61.9534 15.7513 61.6604 15.6383C61.3674 15.5253 61.0541 15.4743 60.7405 15.4886C60.413 15.4756 60.0863 15.5286 59.7796 15.6442C59.473 15.7598 59.1927 15.9358 58.9554 16.1617C58.7247 16.3907 58.5442 16.6653 58.4254 16.9678C58.3066 17.2704 58.2522 17.5944 58.2656 17.9191V24.6577H55.2578V12.8552H58.2656V14.076C59.1545 13.0728 60.3188 12.5711 61.7584 12.5711C62.5178 12.5567 63.2689 12.7296 63.9456 13.0747C64.5723 13.4009 65.0983 13.8918 65.467 14.4946C66.4382 13.2124 67.7796 12.5711 69.4909 12.5711C70.8248 12.5711 71.8932 12.9683 72.696 13.7625Z" fill="white"/>
<path d="M88.0854 18.7597C88.1055 19.5803 87.9535 20.3961 87.6409 21.1549C87.3274 21.9138 86.86 22.5991 86.2674 23.1671C85.0527 24.3511 83.5449 24.9431 81.7437 24.9431C79.9427 24.9431 78.4335 24.3523 77.2164 23.1709C76.0473 22.0016 75.3906 20.4159 75.3906 18.7624C75.3906 17.109 76.0473 15.5233 77.2164 14.354C78.4335 13.1701 79.9427 12.5781 81.7437 12.5781C83.5449 12.5781 85.0527 13.1701 86.2674 14.354C86.8595 14.9221 87.3265 15.6071 87.64 16.3656C87.9526 17.124 88.1046 17.9394 88.0854 18.7597ZM84.0618 21.0943C84.6509 20.4597 84.9783 19.6257 84.9783 18.7597C84.9783 17.8937 84.6509 17.0597 84.0618 16.425C83.4399 15.8246 82.6091 15.489 81.7447 15.489C80.8802 15.489 80.0495 15.8246 79.4275 16.425C78.8319 17.0538 78.5 17.8871 78.5 18.7533C78.5 19.6193 78.8319 20.4526 79.4275 21.0814C80.0496 21.6815 80.8803 22.0168 81.7447 22.0168C82.609 22.0168 83.4396 21.6815 84.0618 21.0814V21.0943Z" fill="white"/>
<path d="M93.3528 15.6076V20.5149C93.3528 21.5254 93.8951 22.0301 94.9805 22.0289C95.5193 22.0098 96.0476 21.8752 96.5296 21.6342V24.4373C95.8468 24.791 95.0853 24.9661 94.3169 24.9463C92.9965 24.9463 92.0028 24.594 91.3365 23.8896C90.6702 23.1851 90.3375 22.2219 90.3375 20.9998V15.6076H88.4688V12.8561H90.3462V10.8884L93.3528 9.85938V12.8561H96.5393V15.6076H93.3528Z" fill="white"/>
<path d="M109.624 19.849H100.479C100.666 20.5623 101.093 21.1893 101.688 21.625C102.321 22.0735 103.083 22.3033 103.857 22.2796C104.51 22.2878 105.156 22.1465 105.745 21.8666C106.273 21.6276 106.737 21.2696 107.103 20.8209L109.115 22.5858C108.484 23.3358 107.688 23.9314 106.791 24.3266C105.839 24.7466 104.807 24.9585 103.766 24.9481C102.597 24.9647 101.443 24.6842 100.411 24.133C99.4325 23.6136 98.6187 22.8327 98.0589 21.8776C97.5088 20.9206 97.2162 19.8368 97.211 18.7326C97.2058 17.6285 97.4878 16.542 98.0301 15.5799C98.5672 14.6494 99.3487 13.8839 100.291 13.3669C101.268 12.8277 102.368 12.5507 103.484 12.5629C105.258 12.5629 106.733 13.153 107.911 14.3332C109.089 15.5135 109.68 16.9925 109.686 18.7702C109.69 19.1308 109.669 19.4913 109.624 19.849ZM105.382 15.8749C104.836 15.447 104.163 15.2146 103.469 15.2146C102.775 15.2146 102.102 15.447 101.555 15.8749C101.005 16.3281 100.619 16.9505 100.459 17.6453H106.481C106.321 16.947 105.933 16.3218 105.378 15.8676L105.382 15.8749Z" fill="white"/>
</g>
<defs>
<clipPath id="clip0_2688_32395">
<rect width="110.029" height="34.9297" fill="white"/>
</clipPath>
</defs>
</svg>
