<svg width="213" height="32" viewBox="0 0 213 32" fill="none" xmlns="http://www.w3.org/2000/svg">
<path fill-rule="evenodd" clip-rule="evenodd" d="M8.12916 25.5594C4.96017 25.5594 2.30785 24.8705 0 23.286L1.86006 19.3592C3.68568 20.7025 5.82131 21.3226 8.2325 21.3226C10.3337 21.3226 11.4359 20.9092 11.4359 20.0825C11.4359 19.1181 9.95478 19.1869 7.44025 18.8425C3.20344 18.2914 0.447793 17.0858 0.447793 13.5723C0.447793 10.0244 3.34122 7.78545 8.26694 7.78545C12.5726 7.78545 14.9149 9.67996 16.0861 11.9534L11.8837 13.779C11.4015 12.4356 9.98922 11.9189 8.40473 11.9189C6.54466 11.9189 5.54574 12.5045 5.54574 13.2279C5.54574 13.9857 6.68244 14.1579 9.02474 14.4679C13.5371 15.0879 16.6372 15.9146 16.6372 19.7381C16.6372 23.6649 13.3304 25.5594 8.12916 25.5594ZM31.1111 12.6767H25.5654V19.0147C25.5654 20.4959 26.5299 21.0814 27.9421 21.0814C29.0099 21.0814 29.9055 20.8403 30.9045 20.3581V24.7327C29.6644 25.2838 28.4588 25.5594 26.8054 25.5594C23.1886 25.5594 20.5019 23.7338 20.5019 19.7036V12.6767H17.6773V8.23324H20.5019V3.06641H25.5654V8.23324H31.1111V12.6767ZM46.3428 8.23324H51.4063V25.1116H46.3428V23.0104C45.0683 24.5605 43.2083 25.5594 40.7971 25.5594C36.1125 25.5594 32.7368 21.8737 32.7368 16.6724C32.7368 11.4367 36.1125 7.78545 40.7971 7.78545C43.2083 7.78545 45.0683 8.74993 46.3428 10.3344V8.23324ZM46.3428 18.9803V14.3646C45.3095 12.849 43.9316 12.1945 42.3127 12.1945C39.5915 12.1945 37.9381 13.9857 37.9381 16.6724C37.9381 19.3247 39.5915 21.1503 42.3127 21.1503C43.9316 21.1503 45.3095 20.4614 46.3428 18.9803ZM60.4723 11.2645C61.8845 8.85326 64.0891 7.78545 66.7414 7.8199V13.0556C64.0546 12.849 61.4712 14.1923 60.4723 16.2246V25.1116H55.4088V8.23324H60.4723V11.2645ZM81.422 12.6767H75.8762V19.0147C75.8762 20.4959 76.8407 21.0814 78.253 21.0814C79.3208 21.0814 80.2164 20.8403 81.2153 20.3581V24.7327C79.9752 25.2838 78.7696 25.5594 77.1163 25.5594C73.4995 25.5594 70.8127 23.7338 70.8127 19.7036V12.6767H67.9882V8.23324H70.8127V3.06641H75.8762V8.23324H81.422V12.6767ZM95.7925 8.23324H100.856V25.1116H95.7925V23.0104C94.4147 24.6638 92.6924 25.5594 90.3157 25.5594C86.2855 25.5594 83.9777 22.9415 83.9777 18.9114V8.23324H89.0412V18.4636C89.0412 20.0136 90.1434 21.047 91.8313 21.047C93.3124 21.047 94.6214 20.3236 95.7925 18.8425V8.23324ZM115.433 7.78545C120.118 7.78545 123.494 11.4367 123.494 16.6724C123.494 21.8737 120.118 25.5594 115.433 25.5594C113.022 25.5594 111.162 24.5605 109.888 23.0104V32.0007H104.824V8.23324H109.888V10.3344C111.162 8.74993 113.022 7.78545 115.433 7.78545ZM113.918 21.1503C116.639 21.1503 118.292 19.3247 118.292 16.6724C118.292 13.9857 116.639 12.1945 113.918 12.1945C112.299 12.1945 110.921 12.849 109.888 14.3646V18.9803C110.921 20.4614 112.299 21.1503 113.918 21.1503Z" fill="white"/>
<path fill-rule="evenodd" clip-rule="evenodd" d="M139.976 0.998922H145.04V25.1108H139.976V23.0097C138.702 24.5597 136.842 25.5586 134.431 25.5586C129.746 25.5586 126.336 21.873 126.336 16.6717C126.336 11.4359 129.746 7.7847 134.431 7.7847C136.842 7.7847 138.702 8.74918 139.976 10.3337V0.998922ZM139.976 18.9795V14.3638C138.909 12.8482 137.531 12.1937 135.912 12.1937C133.225 12.1937 131.537 13.9849 131.537 16.6717C131.537 19.324 133.225 21.1496 135.912 21.1496C137.531 21.1496 138.909 20.4607 139.976 18.9795ZM161.753 8.2325H166.816V25.1108H161.753V23.0097C160.478 24.5597 158.618 25.5586 156.207 25.5586C151.522 25.5586 148.147 21.873 148.147 16.6717C148.147 11.4359 151.522 7.7847 156.207 7.7847C158.618 7.7847 160.478 8.74918 161.753 10.3337V8.2325ZM161.753 18.9795V14.3638C160.719 12.8482 159.342 12.1937 157.723 12.1937C155.001 12.1937 153.348 13.9849 153.348 16.6717C153.348 19.324 155.001 21.1496 157.723 21.1496C159.342 21.1496 160.719 20.4607 161.753 18.9795ZM173.333 5.95909C171.611 5.95909 170.268 4.65016 170.268 2.96232C170.268 1.30893 171.611 0 173.333 0C175.09 0 176.433 1.30893 176.433 2.96232C176.433 4.65016 175.09 5.95909 173.333 5.95909ZM175.882 8.2325V25.1108H170.819V8.2325H175.882ZM179.85 25.1108V0.31001H184.914V25.1108H179.85ZM201.385 8.2325H206.862V8.43917L197.08 32H191.603V31.7933L194.875 24.8697L187.228 8.43917V8.2325H192.705L197.321 19.1862L201.385 8.2325ZM209.211 25.5586C207.282 25.5586 205.836 24.1119 205.836 22.2863C205.836 20.4607 207.282 19.014 209.211 19.014C211.106 19.014 212.553 20.4607 212.553 22.2863C212.553 24.1119 211.106 25.5586 209.211 25.5586Z" fill="white"/>
</svg>
