<svg width="201" height="33" viewBox="0 0 201 33" fill="none" xmlns="http://www.w3.org/2000/svg">
<path d="M13.3672 0L0 26.2383H6.20955L19.5817 0H13.3672Z" fill="white"/>
<path d="M90.2991 10.4987L89.2282 12.5964H89.1643C88.7215 11.7589 88.0368 11.0741 87.1992 10.6313C86.3528 10.2423 85.4285 10.0524 84.4973 10.0762C83.4925 10.0551 82.4971 10.2741 81.5939 10.7149C80.7692 11.1236 80.0459 11.7109 79.4766 12.4343C78.8932 13.1777 78.4549 14.0243 78.1846 14.9299C77.8874 15.884 77.7383 16.8781 77.7424 17.8775C77.7357 18.9042 77.8595 19.9277 78.1109 20.9233C78.3401 21.8366 78.7493 22.6951 79.3145 23.4484C79.8687 24.1749 80.5877 24.7592 81.4122 25.153C82.3665 25.5908 83.4084 25.8042 84.458 25.7769C85.3979 25.7815 86.3272 25.5785 87.1796 25.1825C88.0282 24.8034 88.7289 24.1562 89.1741 23.3403H89.2331V25.4134C89.2331 27.8697 88.0835 29.2747 85.7942 29.2747C83.505 29.2747 82.2866 28.2922 81.6382 27.4865L80.0759 30.5766C80.0759 30.5766 81.8445 32.1683 85.19 32.1683C90.7363 32.1683 93.34 29.4712 93.34 25.2267V10.4889L90.2991 10.4987ZM89.0022 19.7983C88.8574 20.2974 88.6244 20.7666 88.3144 21.1836C88.0075 21.593 87.6131 21.9286 87.1599 22.1662C86.6603 22.4165 86.1073 22.5412 85.5486 22.5297C84.9607 22.5518 84.3789 22.4033 83.8734 22.1023C83.4328 21.8262 83.0627 21.4511 82.7926 21.0068C82.5107 20.5451 82.3159 20.0356 82.2178 19.5035C82.1043 18.9474 82.0467 18.3812 82.0459 17.8136C82.0445 17.2442 82.1121 16.6768 82.2473 16.1236C82.3687 15.6113 82.5854 15.1264 82.886 14.6941C83.1723 14.2881 83.5468 13.9522 83.9815 13.7116C84.4633 13.4561 85.0035 13.3308 85.5486 13.348C86.1606 13.3241 86.7683 13.4595 87.3122 13.741C87.7645 13.9948 88.1475 14.3558 88.4274 14.7923C88.7216 15.2639 88.928 15.7849 89.0366 16.33C89.1615 16.9343 89.2224 17.5502 89.2183 18.1673C89.2247 18.7185 89.1519 19.2678 89.0022 19.7983Z" fill="white"/>
<path d="M32.6893 4.50781V12.6922H32.7826C33.2696 11.8361 33.9996 11.1436 34.8803 10.7026C35.6513 10.3052 36.5038 10.0917 37.371 10.0787C38.3439 10.0527 39.3123 10.2197 40.2203 10.57C40.9067 10.8466 41.5094 11.2969 41.9692 11.8767C42.4132 12.4825 42.7185 13.1785 42.8633 13.9155C43.0435 14.7914 43.1308 15.6839 43.1237 16.5781V26.256H38.8104V17.3494C38.8778 16.344 38.667 15.3395 38.2012 14.446C37.7984 13.8025 37.0763 13.4635 36.0446 13.4635C34.8656 13.4635 34.0157 13.8172 33.4851 14.5148C32.9546 15.2124 32.6942 16.3669 32.6942 17.9537V26.2363H28.3711V4.50781H32.6893Z" fill="white"/>
<path d="M44.9372 14.9663C45.2912 13.9865 45.8506 13.0937 46.578 12.3479C47.3051 11.6195 48.1748 11.0492 49.1326 10.6727C51.3001 9.88514 53.6757 9.88514 55.8432 10.6727C56.8155 11.0393 57.6962 11.6133 58.4242 12.3548C59.1521 13.0963 59.7097 13.9875 60.0582 14.9663C60.4576 16.0682 60.654 17.2333 60.6379 18.4052C60.6527 19.5673 60.4563 20.7225 60.0582 21.8145C59.6981 22.7855 59.1392 23.6706 58.4174 24.4133C57.6854 25.1331 56.8076 25.6876 55.8432 26.0394C53.6705 26.8069 51.3004 26.8069 49.1277 26.0394C48.1679 25.6736 47.297 25.1075 46.5731 24.3789C45.8481 23.6388 45.2887 22.753 44.9323 21.7801C44.5319 20.6888 44.3354 19.5331 44.3526 18.3708C44.3399 17.2099 44.538 16.0564 44.9372 14.9663ZM48.8673 20.2278C48.9759 20.7998 49.1873 21.3474 49.4912 21.844C49.779 22.3161 50.1811 22.7081 50.6604 22.9837C51.2205 23.2868 51.8515 23.4344 52.4879 23.4111C53.1272 23.4324 53.7609 23.2849 54.3252 22.9837C54.8123 22.7116 55.2216 22.3192 55.5141 21.844C55.8161 21.3465 56.0274 20.7992 56.138 20.2278C56.2609 19.6231 56.3218 19.0075 56.3197 18.3904C56.3211 17.7669 56.2602 17.1449 56.138 16.5335C56.0298 15.9613 55.8184 15.4137 55.5141 14.9172C55.2157 14.44 54.8061 14.0422 54.3203 13.7578C53.7578 13.451 53.1234 13.3001 52.483 13.3206C51.8877 13.2889 51.295 13.4187 50.7674 13.6963C50.2399 13.9739 49.7972 14.389 49.4863 14.8976C49.18 15.393 48.9684 15.9411 48.8624 16.5138C48.7385 17.1251 48.676 17.7471 48.6757 18.3708C48.6739 18.9945 48.7365 19.6168 48.8624 20.2278H48.8673Z" fill="white"/>
<path d="M72.4283 26.239V24.0726H72.3399C71.8448 24.9285 71.1012 25.6138 70.2078 26.0376C69.3703 26.4325 68.4563 26.6388 67.5304 26.6419C66.5622 26.6727 65.597 26.5193 64.686 26.1899C63.996 25.9245 63.3914 25.4762 62.9371 24.893C62.4887 24.2892 62.1815 23.5925 62.0381 22.8542C61.8579 21.9783 61.7707 21.0858 61.7777 20.1916V10.5039H66.1009V19.3908C66.0336 20.3978 66.2443 21.4038 66.71 22.2991C67.1128 22.9377 67.8334 23.2653 68.8716 23.2816C70.0473 23.2816 70.8988 22.9312 71.4261 22.2303C71.9518 21.5327 72.2171 20.3783 72.2171 18.7915V10.5039H76.5353V26.2243L72.4283 26.239Z" fill="white"/>
<path d="M99.2771 4.50781V12.6922H99.3655C99.8552 11.8364 100.587 11.1443 101.468 10.7026C102.239 10.3052 103.092 10.0917 103.959 10.0787C104.932 10.0527 105.9 10.2197 106.808 10.57C107.498 10.8389 108.105 11.2824 108.572 11.8571C109.015 12.4636 109.322 13.1592 109.471 13.8958C109.649 14.7719 109.735 15.6644 109.726 16.5585V26.2363H105.408V17.3494C105.473 16.3442 105.263 15.3403 104.799 14.446C104.393 13.791 103.672 13.4635 102.637 13.4635C101.458 13.4635 100.608 13.8172 100.083 14.5148C99.5571 15.2124 99.2919 16.3669 99.2919 17.9537V26.2363H94.9688V4.50781H99.2771Z" fill="white"/>
<path d="M142.694 14.9663C143.044 13.9915 143.6 13.1035 144.324 12.3626C145.048 11.6217 145.923 11.0454 146.889 10.6727C149.057 9.88514 151.432 9.88514 153.6 10.6727C154.571 11.0413 155.451 11.616 156.178 12.3572C156.906 13.0984 157.464 13.9886 157.815 14.9663C158.214 16.0682 158.411 17.2333 158.395 18.4052C158.409 19.5673 158.213 20.7225 157.815 21.8145C157.455 22.7869 156.895 23.6725 156.169 24.4133C155.441 25.1335 154.567 25.6881 153.605 26.0394C151.432 26.8069 149.062 26.8069 146.889 26.0394C145.929 25.6748 145.058 25.1086 144.335 24.3789C143.609 23.6381 143.049 22.7525 142.689 21.7801C142.293 20.6878 142.098 19.5327 142.114 18.3708C142.102 17.2104 142.299 16.0574 142.694 14.9663ZM146.624 20.2278C146.735 20.7992 146.946 21.3465 147.248 21.844C147.539 22.3152 147.942 22.7069 148.422 22.9837C148.982 23.2868 149.613 23.4344 150.25 23.4111C150.889 23.4324 151.523 23.2849 152.087 22.9837C152.573 22.7102 152.982 22.3181 153.276 21.844C153.578 21.3465 153.789 20.7992 153.9 20.2278C154.023 19.6231 154.083 19.0075 154.081 18.3904C154.083 17.7669 154.022 17.1449 153.9 16.5335C153.791 15.9613 153.58 15.4137 153.276 14.9172C152.976 14.4411 152.567 14.0436 152.082 13.7578C151.519 13.451 150.885 13.3001 150.245 13.3206C149.607 13.2979 148.975 13.4491 148.417 13.7578C147.943 14.0418 147.541 14.4319 147.243 14.8976C146.939 15.394 146.727 15.9417 146.619 16.5138C146.499 17.1256 146.438 17.7474 146.437 18.3708C146.436 18.9943 146.497 19.6163 146.619 20.2278H146.624Z" fill="white"/>
<path d="M176.229 4.50781V16.1655L181.673 10.5012H186.787L180.852 16.2834L187.46 26.2363H182.223L177.905 19.2064L176.229 20.8177V26.2216H171.906V4.50781H176.229Z" fill="white"/>
<path d="M190.655 22.3233C190.839 22.648 191.092 22.9281 191.397 23.1438C191.716 23.3682 192.071 23.5345 192.448 23.635C192.851 23.7382 193.265 23.7894 193.681 23.7873C194.003 23.7863 194.325 23.7501 194.639 23.6792C194.959 23.6149 195.267 23.5023 195.553 23.3452C195.824 23.1966 196.057 22.9883 196.236 22.736C196.433 22.4476 196.529 22.1023 196.511 21.7535C196.511 21.105 196.079 20.6187 195.219 20.2797C194.042 19.8665 192.837 19.5381 191.613 19.2972C190.984 19.1547 190.37 18.9877 189.771 18.8059C189.199 18.6372 188.655 18.3874 188.154 18.0641C187.695 17.7578 187.31 17.3514 187.029 16.8753C186.73 16.3421 186.583 15.7374 186.602 15.1264C186.565 14.2555 186.771 13.3915 187.196 12.6307C187.579 11.9927 188.118 11.4633 188.764 11.0931C189.45 10.7081 190.198 10.4439 190.974 10.312C191.796 10.1595 192.63 10.0839 193.465 10.086C194.298 10.0832 195.129 10.1638 195.946 10.3267C196.705 10.4723 197.432 10.7518 198.093 11.152C198.724 11.5384 199.26 12.0624 199.66 12.6848C200.105 13.4179 200.362 14.25 200.407 15.1067H196.3C196.308 14.7664 196.225 14.43 196.059 14.1327C195.893 13.8355 195.65 13.5882 195.356 13.4168C194.732 13.1095 194.043 12.9578 193.347 12.9746C193.083 12.9756 192.819 12.9904 192.556 13.0188C192.289 13.0468 192.027 13.1147 191.78 13.2203C191.548 13.3161 191.344 13.468 191.186 13.6624C191.015 13.8819 190.929 14.1559 190.945 14.4337C190.938 14.6128 190.973 14.791 191.046 14.9545C191.119 15.1181 191.229 15.2626 191.367 15.3769C191.695 15.6455 192.072 15.8474 192.478 15.9713C192.992 16.139 193.515 16.2768 194.045 16.384C194.634 16.5084 195.234 16.6411 195.843 16.7819C196.464 16.9196 197.078 17.0919 197.68 17.2977C198.249 17.4852 198.788 17.7568 199.277 18.1034C199.74 18.4313 200.126 18.8573 200.407 19.3512C200.708 19.9171 200.856 20.5525 200.834 21.1934C200.875 22.0445 200.687 22.8909 200.291 23.6451C199.894 24.3992 199.303 25.0335 198.579 25.4822C197.877 25.9225 197.099 26.2274 196.285 26.3812C195.418 26.5525 194.536 26.638 193.652 26.6366C192.752 26.639 191.855 26.5484 190.974 26.3664C190.149 26.2012 189.36 25.8883 188.646 25.4429C187.907 24.9909 187.299 24.3548 186.88 23.5969C186.462 22.8391 186.247 21.9855 186.258 21.1198H190.365C190.352 21.5397 190.452 21.9555 190.655 22.3233Z" fill="white"/>
<path d="M118.849 23.0088C118.33 23.0721 117.806 22.9427 117.376 22.6453C117.078 22.215 116.949 21.6907 117.012 21.1715V13.3948H119.424L120.898 10.5013H117.017V5.78516H112.694V10.5013H110.532L109.059 13.3899H112.689V22.6747C112.661 23.3365 112.797 23.9949 113.087 24.5907C113.333 25.0616 113.708 25.4533 114.168 25.7206C114.658 25.9933 115.194 26.1732 115.75 26.2511C116.379 26.3459 117.014 26.3918 117.651 26.3887C118.078 26.3887 118.51 26.3887 118.958 26.3592C119.366 26.342 119.772 26.301 120.176 26.2364V22.886C119.965 22.9305 119.752 22.9617 119.537 22.9793C119.326 22.999 119.095 23.0088 118.849 23.0088Z" fill="white"/>
<path d="M25.6805 23.0088C25.1613 23.0716 24.6371 22.9423 24.2067 22.6453C23.9092 22.215 23.7799 21.6907 23.8432 21.1715V13.3948H26.0686L27.5424 10.5013H23.853V5.78516H19.5348V10.5013H17.3683L15.8945 13.3899H19.5299V22.6747C19.5003 23.3361 19.6353 23.9944 19.9229 24.5907C20.1709 25.0606 20.5452 25.4519 21.0037 25.7206C21.4986 25.9943 22.0399 26.1742 22.6003 26.2511C23.2295 26.3459 23.8651 26.3918 24.5014 26.3887C24.9288 26.3887 25.3661 26.3887 25.8082 26.3592C26.2147 26.3418 26.6199 26.3008 27.0216 26.2364V22.886C26.8109 22.9305 26.5976 22.9617 26.383 22.9793C26.157 22.999 25.9212 23.0088 25.6805 23.0088Z" fill="white"/>
<path d="M168.534 10.0821C164.904 10.0821 163.514 13.4276 163.514 13.4276H163.455V10.5046H159.348V26.225H163.666V19.6519C163.666 15.82 164.413 14.1104 167.679 14.1104C168.268 14.1019 168.848 14.2404 169.369 14.5133L171.221 10.8779C170.423 10.3542 169.489 10.0774 168.534 10.0821Z" fill="white"/>
<path d="M138.485 10.5078L135.591 21.1535H135.532L132.855 10.5078H128.654L126.036 21.1878H125.977L123.088 10.5078L120.273 16.0247L123.516 26.238H127.986L130.664 15.6759H130.723L133.523 26.238H137.969L142.926 10.5078H138.485Z" fill="white"/>
</svg>
