<svg width="105" height="36" viewBox="0 0 105 36" fill="none" xmlns="http://www.w3.org/2000/svg">
<path d="M33.9543 17.4605C33.6637 7.67539 25.3775 0.00614944 15.5872 0.00614944H1.13568C0.87744 -0.0228393 0.61821 0.0514274 0.414496 0.212761C0.210781 0.374096 0.0790997 0.609416 0.0481541 0.867428C0.0275863 1.04226 -0.422335 5.14811 1.89926 7.75766C3.11276 9.12285 4.82247 9.81445 6.97952 9.81445H8.34471C8.36835 9.81411 8.39182 9.81842 8.41378 9.82716C8.43575 9.83589 8.45578 9.84886 8.47273 9.86533C8.48968 9.88181 8.50322 9.90146 8.51257 9.92317C8.52193 9.94487 8.52692 9.96821 8.52725 9.99184C8.56582 11.2773 8.86662 13.239 10.1907 14.7584C11.4016 16.1468 13.173 16.8512 15.4535 16.8512C21.2485 16.8512 24.0277 18.6072 24.6216 22.803C24.7708 23.8638 24.5781 24.9444 24.0714 25.8882C22.6265 28.5826 20.0607 31.7321 15.5075 34.1591L15.4689 34.1848C15.4388 34.203 15.4096 34.2227 15.3815 34.2439C15.3566 34.2615 15.3334 34.2813 15.3121 34.3031C15.2877 34.324 15.2645 34.3463 15.2427 34.3699C15.2221 34.3956 15.2015 34.4187 15.1835 34.4445C15.1649 34.47 15.1477 34.4966 15.1321 34.5242C15.1152 34.5498 15.0997 34.5764 15.0858 34.6039C15.073 34.6347 15.0601 34.663 15.0498 34.6938C15.0396 34.7247 15.0293 34.753 15.0216 34.7838C15.0138 34.8147 15.0087 34.843 15.0036 34.8738C14.9984 34.9047 15.0036 34.9432 15.0036 34.9792V35.0666C15.001 35.1017 15.001 35.137 15.0036 35.172C15.0036 35.2029 15.0036 35.2337 15.0216 35.262C15.0286 35.2924 15.0372 35.3225 15.0473 35.352C15.0473 35.3854 15.073 35.4189 15.0884 35.4497L15.1038 35.4883C15.1099 35.4975 15.1168 35.5061 15.1244 35.514C15.1601 35.5765 15.2024 35.6351 15.2504 35.6888L15.2709 35.7119C15.3259 35.7677 15.3872 35.8169 15.4535 35.8585L15.51 35.8868C15.5623 35.9156 15.6175 35.9389 15.6746 35.9562L15.7363 35.9768C15.8149 35.9932 15.8951 36.001 15.9754 35.9999C18.383 35.9965 20.7655 35.5104 22.982 34.5704C25.1985 33.6304 27.2041 32.2556 28.8803 30.5273C30.5564 28.7989 31.869 26.7521 32.7405 24.5077C33.612 22.2634 34.0247 19.8671 33.9543 17.4605ZM15.4432 14.8896C13.7592 14.8896 12.4891 14.4139 11.6664 13.4755C10.746 12.424 10.5198 10.9765 10.4838 10.0021C10.4831 9.97729 10.4874 9.95256 10.4966 9.92947C10.5058 9.90638 10.5196 9.88541 10.5372 9.86784C10.5547 9.85026 10.5757 9.83647 10.5988 9.82728C10.6219 9.8181 10.6466 9.81374 10.6715 9.81445L15.5717 9.84273H16.0294C16.7518 9.8093 20.49 9.77845 23.1201 12.3032C24.8556 13.9666 25.7837 16.4167 25.8917 19.579C25.8915 19.6016 25.8838 19.6235 25.8697 19.6412C25.8555 19.6588 25.8359 19.6712 25.8138 19.6762C25.7918 19.6813 25.7687 19.6788 25.7483 19.6691C25.7279 19.6593 25.7114 19.643 25.7014 19.6227C23.7218 15.4783 19.13 14.8896 15.4612 14.8896H15.4432ZM6.49618 7.83736C5.14898 7.75252 4.12059 7.3026 3.37243 6.46446C2.2412 5.19953 1.99953 3.32786 1.96868 2.16063C1.96833 2.13623 1.97288 2.112 1.98206 2.08939C1.99124 2.06677 2.00487 2.04623 2.02212 2.02897C2.03938 2.01171 2.05993 1.99809 2.08254 1.98891C2.10516 1.97973 2.12938 1.97518 2.15379 1.97552H15.6154C24.3054 1.97552 31.6841 8.74492 31.99 17.4323C32.1115 20.9867 31.049 24.4808 28.9694 27.366C26.8898 30.2511 23.9108 32.3638 20.5003 33.3724C20.4837 33.3766 20.4661 33.375 20.4505 33.3679C20.435 33.3607 20.4223 33.3484 20.4148 33.333C20.4072 33.3176 20.4052 33.3 20.4091 33.2833C20.413 33.2666 20.4225 33.2518 20.436 33.2412C27.3957 27.6339 27.7865 21.2759 27.8919 20.2449C27.8919 16.1853 26.7504 13.0462 24.5033 10.8788C21.323 7.84764 17.0603 7.81936 15.9111 7.87335L6.49618 7.83736ZM57.3322 9.67047V12.2055H52.0128V26.9038H48.8608V12.2055H43.5929V9.67047H57.3322ZM61.8571 8.83233C62.1167 8.82271 62.3755 8.86507 62.6185 8.95692C62.8614 9.04877 63.0836 9.18826 63.2718 9.36718C63.4601 9.54611 63.6107 9.76086 63.7148 9.99882C63.8189 10.2368 63.8743 10.4932 63.8779 10.7529C63.8779 11.8352 62.9909 12.6477 61.8571 12.6477C61.6017 12.6592 61.3467 12.6186 61.1075 12.5284C60.8682 12.4382 60.6499 12.3003 60.4656 12.1231C60.2814 11.9458 60.1352 11.7329 60.0358 11.4974C59.9365 11.2618 59.8861 11.0085 59.8878 10.7529C59.8855 10.4959 59.9353 10.2411 60.0341 10.0039C60.1329 9.76664 60.2787 9.55185 60.4627 9.37242C60.6467 9.193 60.8651 9.05266 61.1047 8.95984C61.3443 8.86702 61.6003 8.82365 61.8571 8.83233ZM60.3325 26.9038V14.4448H63.3612V26.9038H60.3325ZM80.1728 9.10228V26.9038H77.1468V25.0321C76.2341 26.387 74.6838 27.1737 72.8609 27.1737C69.1947 27.1737 66.7806 24.2685 66.7806 20.6254C66.7806 17.1032 69.0713 14.1748 72.8866 14.1748C73.7149 14.1566 74.5353 14.3397 75.2773 14.7082C76.0193 15.0767 76.6608 15.6198 77.1468 16.2907V9.092L80.1728 9.10228ZM73.5011 24.6387C75.5707 24.6387 77.1956 23.235 77.1956 20.7823C77.1956 18.3707 75.6684 16.7201 73.4034 16.7201C71.1384 16.7201 69.8323 18.5198 69.8323 20.6588C69.8323 22.8648 71.2361 24.6387 73.5011 24.6387ZM96.9356 14.4448V26.9038H93.907V25.0321C93.0226 26.387 91.4697 27.1737 89.6494 27.1737C85.9549 27.1737 83.5434 24.2685 83.5434 20.6254C83.5434 17.1032 85.8573 14.1748 89.6726 14.1748C90.4977 14.1535 91.3155 14.3354 92.0539 14.7043C92.7922 15.0733 93.4286 15.6181 93.907 16.2907V14.4448H96.9356ZM90.2768 24.6387C92.3464 24.6387 93.9944 23.235 93.9944 20.7823C93.9944 18.3707 92.4518 16.7201 90.2048 16.7201C87.914 16.7201 86.6054 18.5198 86.6054 20.6588C86.5951 22.8648 87.9989 24.6387 90.2768 24.6387ZM101.167 26.9038V9.10228H104.196V26.9038H101.167Z" fill="white"/>
</svg>
