<svg width="104" height="62" viewBox="0 0 104 62" fill="none" xmlns="http://www.w3.org/2000/svg">
<path d="M2.11109 61.0285V53.2766H0.207478C0.0803977 53.2766 0 53.191 0 53.0691V51.7231C0 51.596 0.0829912 51.5156 0.207478 51.5156H5.98835C6.11543 51.5156 6.19583 51.6012 6.19583 51.7231V53.0691C6.19583 53.1962 6.11284 53.2766 5.98835 53.2766H4.0977V61.0285C4.0977 61.1556 4.01471 61.236 3.89022 61.236H2.32117C2.19668 61.236 2.11109 61.153 2.11109 61.0285Z" fill="white"/>
<path d="M7.01562 61.0242V54.6339C7.01562 54.5068 7.09862 54.4264 7.2231 54.4264H8.66767C8.79475 54.4264 8.86218 54.4809 8.87515 54.6468L8.92961 55.5234C9.16562 54.7999 9.59355 54.2578 10.4027 54.2578C10.7243 54.2578 10.9188 54.3408 11.0277 54.4238C11.1263 54.4912 11.1548 54.5768 11.1548 54.6987V55.9228C11.1548 56.0888 11.0563 56.1303 10.8799 56.0888C10.7269 56.0473 10.5739 56.0214 10.3794 56.0214C9.43534 56.0214 8.9348 56.6464 8.9348 57.6216V61.0242C8.9348 61.1513 8.85181 61.2317 8.72732 61.2317H7.2257C7.09862 61.2317 7.01562 61.1487 7.01562 61.0242Z" fill="white"/>
<path d="M11.8633 57.829C11.8633 55.8139 13.1834 54.2578 15.0999 54.2578C16.127 54.2578 16.8635 54.6728 17.3226 55.3834L17.3511 54.6339C17.3511 54.5068 17.4341 54.4264 17.5586 54.4264H18.9201C19.0472 54.4264 19.1276 54.5094 19.1276 54.6339V61.0242C19.1276 61.1513 19.0291 61.2317 18.9072 61.2317H17.5612C17.4341 61.2317 17.3537 61.1487 17.3537 61.0242L17.3252 60.2747C16.8505 60.9697 16.1192 61.4003 15.1025 61.4003C13.1834 61.3977 11.8633 59.8571 11.8633 57.829ZM15.5019 59.6497C16.5134 59.6497 17.224 58.9261 17.224 57.829C17.224 56.732 16.516 56.0084 15.5019 56.0084C14.4905 56.0084 13.7384 56.745 13.7384 57.829C13.7384 58.9261 14.4905 59.6497 15.5019 59.6497Z" fill="white"/>
<path d="M20.4297 57.8005C20.4297 55.7854 21.9443 54.2578 23.9854 54.2578C25.1109 54.2578 26.042 54.7272 26.6255 55.4819C26.7085 55.5805 26.68 55.6894 26.597 55.775L25.7645 56.5945C25.653 56.7061 25.5025 56.6931 25.404 56.5945C25.0279 56.2185 24.6259 56.024 24.0709 56.024C22.9869 56.024 22.2814 56.802 22.2814 57.8005C22.2814 58.799 22.9895 59.6341 24.115 59.6341C24.6441 59.6341 25.0461 59.4396 25.4221 59.0635C25.5207 58.965 25.6711 58.952 25.7826 59.0635L26.6151 59.8831C26.6981 59.9661 26.7267 60.0776 26.6437 60.1761C26.0601 60.9257 25.1291 61.4003 24.032 61.4003C21.9572 61.3977 20.4297 59.8442 20.4297 57.8005Z" fill="white"/>
<path d="M28.5867 59.3304V55.9148H27.7231C27.596 55.9148 27.5156 55.8292 27.5156 55.7073V54.6362C27.5156 54.5091 27.5986 54.4288 27.7231 54.4288H28.5867V52.8286C28.5867 52.7015 28.6697 52.6211 28.7942 52.6211H30.3088C30.4359 52.6211 30.5163 52.7041 30.5163 52.8286V54.4288H31.5874C31.7145 54.4288 31.7949 54.5117 31.7949 54.6362V55.7073C31.7949 55.8344 31.7119 55.9148 31.5874 55.9148H30.5163V59.123C30.5163 59.5249 30.7523 59.7195 31.1128 59.7195C31.2399 59.7195 31.3747 59.7195 31.5433 59.7065C31.6963 59.6935 31.7923 59.761 31.7923 59.901V60.9125C31.7923 61.234 31.0972 61.3144 30.6408 61.3144C29.5593 61.3196 28.5867 60.8165 28.5867 59.3304Z" fill="white"/>
<path d="M32.6133 57.829C32.6133 55.8139 34.1279 54.2578 36.1845 54.2578C38.2282 54.2578 39.7402 55.8139 39.7402 57.829C39.7402 59.8442 38.2256 61.4003 36.1845 61.4003C34.1253 61.3977 32.6133 59.8442 32.6133 57.829ZM36.1819 59.6341C37.1389 59.6341 37.891 58.939 37.891 57.8264C37.891 56.7138 37.1415 56.0188 36.1819 56.0188C35.2094 56.0188 34.4598 56.7138 34.4598 57.8264C34.4598 58.939 35.2119 59.6341 36.1819 59.6341Z" fill="white"/>
<path d="M41.0312 61.0242V54.6339C41.0312 54.5068 41.1142 54.4264 41.2387 54.4264H42.6833C42.8104 54.4264 42.8778 54.4809 42.8908 54.6468L42.9452 55.5234C43.1812 54.7999 43.6092 54.2578 44.4183 54.2578C44.7399 54.2578 44.9344 54.3408 45.0434 54.4238C45.1419 54.4912 45.1704 54.5768 45.1704 54.6987V55.9228C45.1704 56.0888 45.0719 56.1303 44.8955 56.0888C44.7425 56.0473 44.5895 56.0214 44.395 56.0214C43.451 56.0214 42.9504 56.6464 42.9504 57.6216V61.0242C42.9504 61.1513 42.8648 61.2317 42.7429 61.2317H41.2413C41.1116 61.2317 41.0312 61.1487 41.0312 61.0242Z" fill="white"/>
<path d="M51.9089 61.07L48.6593 51.7516C48.6048 51.6116 48.6723 51.5156 48.8253 51.5156H50.4644C50.5733 51.5156 50.6589 51.5571 50.7004 51.6816L53.006 58.7411L55.3116 51.6816C55.3531 51.5545 55.4387 51.5156 55.5476 51.5156H57.1867C57.3397 51.5156 57.4227 51.6142 57.3682 51.7516L54.1186 61.07C54.0771 61.1815 53.9656 61.236 53.8566 61.236H52.1761C52.062 61.2334 51.9504 61.1789 51.9089 61.07Z" fill="white"/>
<path d="M57.0859 57.8005C57.0859 55.7983 58.4864 54.2578 60.5871 54.2578C62.6567 54.2578 63.8497 55.7854 63.8497 57.5074C63.8497 58.1766 63.6967 58.5474 63.1002 58.5474H58.961C59.1685 59.4111 59.8791 59.8805 60.9762 59.8805C61.5052 59.8805 62.0032 59.7819 62.5582 59.4655C62.6567 59.4111 62.7242 59.424 62.7942 59.52L63.3103 60.228C63.3777 60.3266 63.3648 60.4225 63.2429 60.534C62.6593 61.1176 61.7827 61.3977 60.8257 61.3977C58.585 61.3977 57.0859 59.8571 57.0859 57.8005ZM62.1432 57.204C62.0343 56.3015 61.4197 55.8424 60.6027 55.8424C59.7572 55.8424 59.1011 56.2989 58.9351 57.204H62.1432Z" fill="white"/>
<path d="M65.1445 61.0242V54.6339C65.1445 54.5068 65.2275 54.4264 65.352 54.4264H66.7966C66.9237 54.4264 67.0041 54.4809 67.0041 54.6468L67.0585 55.4508C67.4475 54.7558 68.0985 54.2578 69.1152 54.2578C70.5338 54.2578 71.5738 55.2848 71.5738 57.064V61.0216C71.5738 61.1487 71.4752 61.2291 71.3533 61.2291H69.8673C69.7402 61.2291 69.6598 61.1461 69.6598 61.0216V57.4919C69.6598 56.5349 69.2163 56.0188 68.3942 56.0188C67.5902 56.0188 67.0611 56.5349 67.0611 57.4919V61.0216C67.0611 61.1487 66.9755 61.2291 66.8536 61.2291H65.352C65.2249 61.2317 65.1445 61.1487 65.1445 61.0242Z" fill="white"/>
<path d="M73.6024 59.3304V55.9148H72.7387C72.6116 55.9148 72.5312 55.8292 72.5312 55.7073V54.6362C72.5312 54.5091 72.6142 54.4288 72.7387 54.4288H73.6024V52.8286C73.6024 52.7015 73.6853 52.6211 73.8098 52.6211H75.3244C75.4515 52.6211 75.5319 52.7041 75.5319 52.8286V54.4288H76.603C76.7301 54.4288 76.8105 54.5117 76.8105 54.6362V55.7073C76.8105 55.8344 76.7275 55.9148 76.603 55.9148H75.5319V59.123C75.5319 59.5249 75.7679 59.7195 76.1284 59.7195C76.2555 59.7195 76.3904 59.7195 76.5589 59.7065C76.7119 59.6935 76.8079 59.761 76.8079 59.901V60.9125C76.8079 61.234 76.1128 61.3144 75.6564 61.3144C74.5749 61.3196 73.6024 60.8165 73.6024 59.3304Z" fill="white"/>
<path d="M78.0352 58.5987V54.6411C78.0352 54.514 78.1207 54.4336 78.2426 54.4336H79.7443C79.8713 54.4336 79.9517 54.5166 79.9517 54.6411V58.1708C79.9517 59.1278 80.3952 59.6439 81.2174 59.6439C82.0213 59.6439 82.5504 59.1278 82.5504 58.1708V54.6411C82.5504 54.514 82.636 54.4336 82.7579 54.4336H84.244C84.371 54.4336 84.4644 54.5166 84.4644 54.6411V61.0314C84.4644 61.1585 84.3658 61.2389 84.244 61.2389H82.8123C82.6853 61.2389 82.6178 61.1844 82.6049 61.0184L82.5504 60.2145C82.1614 60.9095 81.5104 61.4075 80.4938 61.4075C79.0596 61.4049 78.0352 60.3779 78.0352 58.5987Z" fill="white"/>
<path d="M86.1055 61.0242V54.6339C86.1055 54.5068 86.1885 54.4264 86.3129 54.4264H87.7575C87.8846 54.4264 87.952 54.4809 87.965 54.6468L88.0195 55.5234C88.2555 54.7999 88.6834 54.2578 89.4926 54.2578C89.8141 54.2578 90.0087 54.3408 90.1176 54.4238C90.2161 54.4912 90.2447 54.5768 90.2447 54.6987V55.9228C90.2447 56.0888 90.1461 56.1303 89.9698 56.0888C89.8167 56.0473 89.6637 56.0214 89.4692 56.0214C88.5252 56.0214 88.0246 56.6464 88.0246 57.6216V61.0242C88.0246 61.1513 87.9391 61.2317 87.8172 61.2317H86.3155C86.1859 61.2317 86.1055 61.1487 86.1055 61.0242Z" fill="white"/>
<path d="M90.9492 57.8005C90.9492 55.7983 92.3549 54.2578 94.4504 54.2578C96.52 54.2578 97.713 55.7854 97.713 57.5074C97.713 58.1766 97.56 58.5474 96.9635 58.5474H92.8243C93.0318 59.4111 93.7424 59.8805 94.8394 59.8805C95.3685 59.8805 95.8665 59.7819 96.4215 59.4655C96.52 59.4111 96.5875 59.424 96.6575 59.52L97.1736 60.228C97.241 60.3266 97.228 60.4225 97.1062 60.534C96.5226 61.1176 95.646 61.3977 94.689 61.3977C92.4508 61.3977 90.9492 59.8571 90.9492 57.8005ZM96.0065 57.204C95.895 56.3015 95.2829 55.8424 94.466 55.8424C93.6179 55.8424 92.9644 56.2989 92.7984 57.204H96.0065Z" fill="white"/>
<path d="M98.6448 60.2773C98.5592 60.1787 98.5773 60.0283 98.6733 59.8753L99.1609 59.1932C99.2724 59.0272 99.3969 59.0532 99.5084 59.1387C100.079 59.5693 100.551 59.8027 101.077 59.8027C101.534 59.8027 101.843 59.6211 101.843 59.2321C101.843 58.8976 101.635 58.7445 101.135 58.5371L100.271 58.1895C99.3943 57.842 98.7848 57.2585 98.7848 56.3145C98.7848 55.0073 99.8974 54.2578 101.16 54.2578C102.05 54.2578 102.87 54.6183 103.438 55.2978C103.523 55.3964 103.492 55.5053 103.425 55.5909L102.815 56.3274C102.717 56.4389 102.621 56.426 102.494 56.3274C102.05 55.9514 101.661 55.7569 101.256 55.7569C100.813 55.7569 100.605 56.0058 100.605 56.2989C100.605 56.6334 100.886 56.815 101.256 56.9498L102.213 57.3259C103.077 57.6734 103.754 58.2699 103.741 59.3099C103.728 60.6845 102.548 61.3925 101.184 61.3925C100.045 61.4029 99.1868 60.9205 98.6448 60.2773Z" fill="white"/>
<path d="M38.8981 46.9667C39.0641 46.7618 39.186 46.4324 39.186 46.2379C39.186 46.033 39.269 45.7426 39.3779 45.6077C39.5569 45.3613 39.6243 45.3613 40.0444 45.5117C40.9159 45.8126 41.4579 45.7322 42.1996 45.1409C42.8921 44.5911 43.4704 43.507 43.9839 42.8353C44.3341 42.397 44.3756 41.7097 44.1214 40.9887C43.971 40.5763 43.971 40.5089 44.2174 40.33C44.3548 40.221 44.6505 40.138 44.8554 40.138C45.7605 40.138 46.3725 39.0799 46.7979 36.7691C46.9898 35.7395 46.8394 35.2052 46.2143 34.7643C45.7008 34.4064 45.7008 34.0511 46.2143 33.6932C46.8394 33.2549 46.9898 32.7181 46.7979 31.6885C46.5359 30.2621 46.1184 29.0742 45.7397 28.7293C45.5608 28.5633 45.1017 28.3455 44.7386 28.2495C44.0047 28.0576 44.0462 28.1665 44.2251 26.766C44.2926 26.1903 44.2537 26.0373 43.9165 25.5575C43.3874 24.8028 41.961 23.506 41.3905 23.2778C40.9574 23.0989 40.8355 23.1118 40.2234 23.3323C39.5439 23.5657 39.5309 23.5657 39.3312 23.3037C39.2223 23.1663 39.1393 22.8784 39.1393 22.6735C39.1393 21.9863 38.5428 21.4935 37.2928 21.1097C35.1246 20.4639 34.3077 20.5054 33.7112 21.3301C33.5607 21.5506 33.3066 21.7269 33.1691 21.7269C33.0317 21.7269 32.7775 21.548 32.6271 21.3301C32.0306 20.5054 31.2136 20.4665 29.0455 21.1097C27.7539 21.5065 27.2534 21.9474 27.1159 22.8525C27.007 23.5242 26.8203 23.6072 26.0448 23.3063C25.4898 23.1015 25.3939 23.1015 24.9063 23.2934C24.2398 23.5683 22.3932 25.3941 22.1131 26.0606C21.9212 26.5404 21.9212 26.6364 22.1261 27.1862C22.4269 27.9539 22.3465 28.1328 21.667 28.2443C20.7463 28.3818 20.308 28.8745 19.9035 30.1583C19.2525 32.3005 19.2914 33.1175 20.1239 33.7062C20.3444 33.8566 20.5285 34.103 20.5285 34.2405C20.5285 34.3779 20.3495 34.6243 20.1239 34.7747C19.294 35.366 19.2525 36.1752 19.9035 38.3226C20.2951 39.5571 20.7878 40.1484 21.4881 40.1484C21.693 40.1484 21.9886 40.2314 22.1261 40.3403C22.3932 40.5322 22.3932 40.5452 22.1546 41.2195C21.9342 41.8238 21.9212 41.9483 22.1001 42.3736C22.3336 42.9364 23.6796 44.8037 24.4395 45.325C24.927 45.6544 25.0775 45.6959 25.661 45.6259C27.0744 45.4469 26.9655 45.4054 27.1574 46.1342C27.2404 46.4921 27.4401 46.9018 27.575 47.0549C27.5957 47.0756 28.4594 47.2883 29.7016 47.2961C30.3059 47.3038 31.1151 47.6929 31.7271 47.2961C32.0695 47.0756 32.2225 46.4454 32.3314 46.295C32.5156 46.0486 32.8657 46.0823 33.0394 46.0953C33.3818 46.1238 33.5141 46.1082 33.9524 46.3961C34.178 46.5465 34.2739 47.2883 34.3569 47.2961C36.6003 47.4802 38.5013 47.0964 38.5013 47.0964L38.8981 46.9667Z" fill="white"/>
<path d="M75.6977 31.0273C80.4463 31.0273 84.2899 34.8372 84.2899 39.5392C84.2899 44.2334 80.4386 48.0432 75.6977 48.0432C70.9568 48.0432 67.1055 44.2334 67.1055 39.5392C67.1029 34.8372 70.9464 31.0273 75.6977 31.0273Z" fill="white"/>
<path d="M75.6534 47.3518C79.5799 47.3518 80.2438 46.4882 80.2438 46.4882L80.9104 45.9539C83.0163 44.307 83.7995 41.5398 83.7995 39.0423C83.7995 35.4944 81.3487 32.2344 77.8967 31.1633C77.5129 31.0388 76.9294 30.9013 76.6207 30.8624L76.0372 30.7665L75.9957 24.4306L75.9542 18.0818L75.5496 17.2181C75.2669 16.6268 74.9039 16.1211 74.3151 15.6128C73.1221 14.5079 72.3519 14.3031 69.4005 14.3031H67.1364V12.6562C67.1364 11.1053 67.1156 11.0093 66.8537 11.0093C66.571 11.0093 66.571 10.9134 66.571 5.51115V0H63.2358V5.49818C63.2358 10.9004 63.2358 10.9964 62.9738 10.9964C62.7119 10.9964 62.6912 11.0923 62.6912 12.6432V14.2901H56.3631C52.1564 14.2901 49.9312 14.3445 49.7678 14.4405C49.6096 14.5079 49.3632 14.7569 49.2258 14.9748L49.0053 15.3716L47.5089 14.3705L46.0332 13.3538L47.2885 11.8704C47.955 11.0612 48.523 10.2909 48.523 10.169C48.523 9.88116 48.261 9.61922 47.9602 9.61922C47.6593 9.61922 41.8733 16.4271 41.8733 16.7643C41.8733 17.0521 42.1352 17.3141 42.4568 17.3141C42.5813 17.3141 43.2245 16.6839 43.974 15.8047C44.7832 14.8295 45.333 14.3005 45.4497 14.3575C45.5534 14.399 46.2796 14.8658 47.0706 15.4157L48.4841 16.4038L47.955 17.5164C47.5089 18.45 47.4259 18.6964 47.5504 18.9843C47.7294 19.4796 48.2169 19.7805 48.8264 19.7805H49.3762V20.8775C49.3762 22.278 49.1558 23.2324 48.6682 24.179C48.1806 25.0582 47.4337 25.9711 47.33 25.7585C47.3092 25.6755 47.0473 25.2631 46.7386 24.8378C44.6716 21.7152 41.741 19.49 38.1879 18.3644C36.5878 17.8561 35.6204 17.6927 33.8231 17.5968L32.2229 17.5138L31.4942 14.967C31.0066 13.3746 30.602 12.2698 30.4023 11.9949C29.8525 11.2946 29.0433 10.9782 27.7725 10.9782C26.8466 10.9782 26.6599 11.0197 26.3798 11.3205L26.0167 11.6629V19.2255L25.1453 19.7338C23.182 20.9009 20.5938 23.2402 20.5938 23.8445C20.5938 24.1609 20.8349 24.4617 21.0813 24.4617C21.1851 24.4617 21.8282 23.886 22.557 23.1702C24.6629 21.098 26.7844 19.8816 29.6191 19.1269C30.7939 18.8261 31.2192 18.769 33.2422 18.769C35.2651 18.769 35.6852 18.8235 36.8601 19.1269C38.6159 19.5938 39.9567 20.1851 41.3494 21.0772C43.4916 22.4492 45.2967 24.4073 46.4274 26.5469C47.7034 28.9225 48.108 30.5616 48.2247 33.7957C48.287 35.7382 48.3284 36.0598 48.5463 36.205C48.9716 36.467 49.2751 36.1505 49.314 35.3414L49.3555 34.6411H68.3683L68.0674 35.2999C67.3594 36.6589 67.196 37.3721 67.196 39.0397C67.196 40.3312 67.2583 40.7825 67.5176 41.532C68.1089 43.2126 68.9311 44.6338 70.3938 45.7594C70.9644 46.1847 71.7346 47.3518 75.6534 47.3518Z" fill="white"/>
</svg>
