<svg width="140" height="37" viewBox="0 0 140 37" fill="none" xmlns="http://www.w3.org/2000/svg">
<g clip-path="url(#clip0_2690_34620)">
<path d="M46.7461 36.2426V0.00390625H55.4434C61.138 0.00390625 63.9336 3.16185 63.9336 8.96004V27.2864C63.9336 33.0846 61.138 36.2426 55.4434 36.2426H46.7461ZM52.4407 31.0657H55.3398C57.1517 31.0657 58.2389 30.1338 58.2389 27.5453V8.70119C58.2389 6.11271 57.1517 5.18086 55.3398 5.18086H52.4407V31.0657Z" fill="white"/>
<path d="M28.457 36.2426V0.00390625H43.9879V5.18086H34.1517V14.7583H41.9688V19.9352H34.1517V31.0657H43.9879V36.2426H28.457Z" fill="white"/>
<path d="M115.906 36.2426L112.23 0.00390625H117.718L120.255 27.8559H120.359L123.051 0.00390625H129.263L131.955 27.8559H132.058L134.595 0.00390625H139.513L135.838 36.2426H128.744L126.157 11.8074H126.053L123.464 36.2426H115.906Z" fill="white"/>
<path d="M94.0781 36.2426L99.9798 0.00390625H107.694L113.595 36.2426H107.901L106.865 29.0466V29.1501H100.394L99.3586 36.2426H94.0781ZM101.067 24.232H106.192L103.655 6.3198H103.552L101.067 24.232Z" fill="white"/>
<path d="M77.0625 36.2426V0.00390625H82.7572V31.0657H92.1275V36.2426H77.0625Z" fill="white"/>
<path d="M3.83639 19.994C3.42423 20.426 3.19428 21.0003 3.19429 21.5974V21.781C3.19429 23.8921 5.78227 24.9087 7.21911 23.3622L25.2939 3.90806C26.6748 2.42185 25.6207 0.00390829 23.5921 0.00390811L2.26492 0.00390625C1.01404 0.00390614 1.09355e-07 1.01794 0 2.26883C-1.09355e-07 3.5197 1.01404 4.53375 2.26492 4.53375H13.1576C15.201 4.53375 16.2489 6.98167 14.8386 8.46014L3.83639 19.994Z" fill="white"/>
<path d="M22.0989 16.1967C22.511 15.7647 22.741 15.1905 22.741 14.5934V14.4097C22.741 12.2988 20.153 11.282 18.7162 12.8285L0.641387 32.2826C-0.739441 33.7689 0.314547 36.1869 2.34321 36.1869H23.6703C24.9213 36.1869 25.9353 35.1728 25.9353 33.922C25.9353 32.6711 24.9213 31.6571 23.6703 31.6571H12.7776C10.7344 31.6571 9.68644 29.2091 11.0967 27.7306L22.0989 16.1967Z" fill="white"/>
</g>
<defs>
<clipPath id="clip0_2690_34620">
<rect width="139.612" height="36.2387" fill="white"/>
</clipPath>
</defs>
</svg>
