<svg width="31" height="31" viewBox="0 0 31 31" fill="none" xmlns="http://www.w3.org/2000/svg">
<rect x="29" y="6" width="4" height="3" transform="rotate(90 29 6)" fill="black"/>
<rect width="4" height="3" transform="matrix(2.18557e-08 1 1 -8.74228e-08 2 6)" fill="black"/>
<rect width="4" height="3" transform="matrix(-4.37114e-08 -1 -1 4.37114e-08 29 25)" fill="black"/>
<rect x="2" y="25" width="4" height="3" transform="rotate(-90 2 25)" fill="black"/>
<rect x="23" y="11" width="9" height="6" transform="rotate(90 23 11)" fill="black"/>
<rect width="9" height="6" transform="matrix(4.37114e-08 1 1 -4.37114e-08 8 11)" fill="black"/>
<rect x="22" y="8" width="9" height="4" fill="black"/>
<rect width="9" height="4" transform="matrix(-1 0 0 1 9 8)" fill="black"/>
<rect x="20" y="10" width="8" height="4" fill="black"/>
<rect width="8" height="4" transform="matrix(-1 0 0 1 11 10)" fill="black"/>
<rect x="20" y="17" width="8" height="4" fill="black"/>
<rect width="8" height="4" transform="matrix(-1 0 0 1 11 17)" fill="black"/>
<rect width="9" height="4" transform="matrix(1 0 0 -1 22 23)" fill="black"/>
<rect x="9" y="23" width="9" height="4" transform="rotate(180 9 23)" fill="black"/>
<rect x="19" width="31" height="7" transform="rotate(90 19 0)" fill="black"/>
</svg>
