<svg width="31" height="31" viewBox="0 0 31 31" fill="none" xmlns="http://www.w3.org/2000/svg">
<path d="M1 12V15H11V13H10V11H9V9H8V8H7V7H6V6H5V7H4V8H3V10H2V12H1Z" fill="black"/>
<path d="M1 19V16H11V18H10V20H9V22H8V23H7V24H6V25H5V24H4V23H3V21H2V19H1Z" fill="black"/>
<path d="M30 12V15H20V13H21V11H22V9H23V8H24V7H25V6H26V7H27V8H28V10H29V12H30Z" fill="black"/>
<path d="M30 19V16H20V18H21V20H22V22H23V23H24V24H25V25H26V24H27V23H28V21H29V19H30Z" fill="black"/>
<path d="M7 6V4H8V3H10V2H12V1H15V15H12V12H11V10H10V8H9V7H8V6H7Z" fill="black"/>
<path d="M7 25V27H8V28H10V29H12V30H15V16H12V19H11V21H10V23H9V24H8V25H7Z" fill="black"/>
<path d="M24 6V4H23V3H21V2H19V1H16V15H19V12H20V10H21V8H22V7H23V6H24Z" fill="black"/>
<path d="M24 25V27H23V28H21V29H19V30H16V16H19V19H20V21H21V23H22V24H23V25H24Z" fill="black"/>
</svg>
