<svg width="42" height="43" viewBox="0 0 42 43" fill="none" xmlns="http://www.w3.org/2000/svg">
<path d="M2.79324 39.2182C22.827 33.6743 23.2632 18.7728 31.1829 18.764C31.1873 18.764 31.1919 18.7623 31.1952 18.7595C32.7772 17.4032 31.0407 14.5102 29.9734 13.2319L23.6597 12.6722C18.9583 8.68531 19.0645 4.41982 19.7825 2.54999C19.8493 2.37595 20.0756 2.40755 20.1105 2.59068C20.4262 4.24641 20.8286 6.87391 21.2406 7.44547C21.5358 7.85514 24.187 9.56239 25.4497 10.5677C27.2211 9.34258 30.4186 9.16604 31.7959 9.2309C31.7959 6.2262 32.4743 5.45344 32.8135 5.44265C30.266 5.02237 29.3466 2.8287 29.2026 1.77256C29.2017 1.76647 29.207 1.76167 29.2131 1.76257L31.7959 2.14469L32.1511 1.5253C32.154 1.52027 32.1607 1.5191 32.1651 1.52287L34.7469 3.7266L37.0226 4.77658L38.4465 5.36867C38.933 5.57094 39.1874 6.10851 39.0355 6.61294L38.7129 7.68404C38.7117 7.68795 38.7088 7.69062 38.7048 7.69062H37.0656C37.0371 7.69062 37.0092 7.6964 36.9835 7.70875C36.5509 7.91675 35.909 8.48162 36.5323 9.2309L38.5536 10.7065C39.253 11.2171 39.5606 12.1099 39.3238 12.9428C38.4962 15.8533 36.909 21.3389 36.0676 21.9793C36.0602 21.9849 36.0589 21.9936 36.0633 22.0018C37.1875 24.1441 37.5448 29.3412 36.425 31.6376C36.2283 32.0408 35.8189 32.2726 35.3811 32.3708L26.2361 34.4212C24.6525 38.897 22.3829 41.5378 20.93 41.9856C20.9144 41.9904 20.902 41.9736 20.9097 41.9593L25.7781 32.9133C25.1356 33.2918 23.7726 33.8206 23.4284 34.102C21.7632 39.3743 16.9651 42.2557 17.4014 41.6878C21.3235 36.583 21.147 35.0987 22.4245 32.1565C22.4274 32.1499 22.4338 32.1454 22.4411 32.1452C23.638 32.1131 25.1219 31.1296 25.7781 30.7347C27.6835 28.9799 30.2483 28.5102 31.6653 28.4786C29.4566 28.368 28.2836 27.2756 27.9614 26.7059C22.5654 30.0904 13.4982 41.0115 2.79397 39.2548C2.77443 39.2516 2.77417 39.2235 2.79324 39.2182Z" fill="white"/>
<path d="M27.9614 26.7059C22.5654 30.0904 13.4982 41.0115 2.79397 39.2548C2.77443 39.2516 2.77417 39.2235 2.79324 39.2182C22.827 33.6743 23.2632 18.7728 31.1829 18.764C31.1873 18.764 31.1919 18.7623 31.1952 18.7595C32.7772 17.4032 31.0407 14.5102 29.9734 13.2319L23.6597 12.6722C18.9583 8.68531 19.0645 4.41982 19.7825 2.54999C19.8493 2.37595 20.0756 2.40755 20.1105 2.59068C20.4262 4.24641 20.8286 6.87391 21.2406 7.44547C21.5358 7.85514 24.187 9.56239 25.4497 10.5677C27.2211 9.34257 30.4186 9.16604 31.7959 9.2309C31.7959 6.2262 32.4743 5.45344 32.8135 5.44265C30.266 5.02237 29.3466 2.8287 29.2026 1.77256C29.2017 1.76647 29.207 1.76167 29.2131 1.76257L31.7959 2.14469M27.9614 26.7059C27.468 25.2581 27.3101 22.1258 30.6256 21.1785M27.9614 26.7059C28.3067 27.3165 29.6293 28.5274 32.1567 28.4867C30.9278 28.4096 27.9318 28.7513 25.7781 30.7347C25.1219 31.1296 23.638 32.1131 22.4411 32.1452C22.4338 32.1454 22.4274 32.1499 22.4245 32.1565C21.147 35.0987 21.3235 36.583 17.4014 41.6878C16.9651 42.2557 21.7632 39.3743 23.4284 34.102C23.7726 33.8206 25.1356 33.2918 25.7781 32.9133M32.1567 21.1785C35.5395 23.9694 34.9432 27.5534 33.9371 29.6172C33.6566 30.1926 33.0524 30.5036 32.4162 30.5752C29.2231 30.9345 26.1924 32.2187 25.7781 32.9133M25.7781 32.9133L20.9097 41.9593C20.902 41.9736 20.9144 41.9904 20.93 41.9856C22.3829 41.5378 24.6525 38.897 26.2361 34.4212L35.3811 32.3708C35.8189 32.2726 36.2283 32.0408 36.425 31.6376C37.5448 29.3412 37.1875 24.1441 36.0633 22.0018C36.0589 21.9936 36.0603 21.9849 36.0676 21.9793C36.909 21.3389 38.4962 15.8533 39.3238 12.9428C39.5606 12.1099 39.253 11.2171 38.5536 10.7065L36.5323 9.2309C35.909 8.48162 36.5509 7.91675 36.9835 7.70875C37.0092 7.6964 37.0371 7.69062 37.0656 7.69062C37.6952 7.69062 38.6206 7.69062 38.7048 7.69062C38.7088 7.69062 38.7117 7.68795 38.7129 7.68404L39.0355 6.61294C39.1874 6.10851 38.933 5.57094 38.4465 5.36867L37.0226 4.77658L34.7469 3.7266L32.1651 1.52287C32.1607 1.5191 32.154 1.52027 32.1511 1.5253L31.7959 2.14469M31.7959 2.14469L33.4287 3.7266" stroke="white" stroke-width="0.582809" stroke-linecap="round"/>
<circle cx="22.7964" cy="3.41359" r="3.41359" fill="white"/>
</svg>
