<svg width="31" height="34" viewBox="0 0 31 34" fill="none" xmlns="http://www.w3.org/2000/svg">
<g clip-path="url(#clip0_2693_37759)">
<path d="M21.3343 0.000730329H15.8979V23.0982C15.8979 26.1251 13.7234 28.0723 11.0789 28.0723C8.4343 28.0723 6.08357 26.1251 6.08357 23.0982C6.08357 19.601 8.81666 17.7545 12.4603 18.1368V12.284C11.9314 12.1955 11.4025 12.1665 10.9614 12.1665C4.99605 12.1665 0 16.9564 0 22.8921C0 29.181 4.93656 34 10.9904 34C16.3093 34 21.9518 30.0915 21.9518 22.7158V10.6966C24.3025 13.0473 27.1531 13.7823 30.2091 13.7823V8.37488C26.4479 8.11004 22.2746 5.64179 21.3343 0V0.000730329Z" fill="white"/>
</g>
<defs>
<clipPath id="clip0_2693_37759">
<rect width="30.2091" height="34" fill="white"/>
</clipPath>
</defs>
</svg>
