<svg width="49" height="34" viewBox="0 0 49 34" fill="none" xmlns="http://www.w3.org/2000/svg">
<path d="M24.2861 0C24.2861 0 39.4636 -0.000350382 43.2529 1.01953C45.3414 1.57808 46.9931 3.22989 47.5518 5.31836C48.5717 9.10655 48.5723 16.9984 48.5723 17C48.5723 17 48.5718 24.8931 47.5518 28.6816C46.9931 30.7701 45.3414 32.4219 43.2529 32.9805C39.4636 34.0004 24.2861 34 24.2861 34C24.2835 34 9.10831 34.0003 5.31934 32.9805C3.23084 32.4219 1.57914 30.7701 1.02051 28.6816C0.00050783 24.8931 0 17 0 17C1.02034e-08 16.9984 0.000609635 9.10655 1.02051 5.31836C1.57914 3.22989 3.23084 1.57808 5.31934 1.01953C9.10831 -0.000262055 24.2835 7.66581e-09 24.2861 0ZM19.4287 24.2861L31.5723 17L19.4287 9.71387V24.2861Z" fill="white"/>
</svg>
