<svg width="87" height="23" viewBox="0 0 87 23" fill="none" xmlns="http://www.w3.org/2000/svg">
<g clip-path="url(#clip0_2596_3281)">
<path d="M11.9326 20.7914C11.9162 20.3384 11.3534 20.1137 11.0203 20.4304C9.82286 21.5675 8.00845 22.2747 5.5644 22.2747C2.43774 22.2747 0 20.5103 0 17.8029C0 14.1659 3.60109 12.7784 11.3622 11.9803C11.6373 11.9521 11.848 11.7261 11.848 11.4572V11.3541C11.848 7.64223 9.59704 6.82202 7.15928 6.82202C4.5184 6.82202 2.84656 8.15916 2.49578 10.0562C2.4491 10.3116 2.22829 10.5032 1.96079 10.5032H1.05484C0.706591 10.5032 0.447928 10.1864 0.527419 9.85489C1.21761 6.99637 3.78909 5.14844 7.28293 5.14844C11.1906 5.14844 13.7848 6.72993 13.7848 11.5972C13.7848 13.8479 13.7533 15.3385 13.7533 16.6474C13.7533 18.3074 13.8278 19.7723 13.911 21.3268C13.9274 21.6277 13.6801 21.8806 13.371 21.8806H12.4927C12.2013 21.8806 11.9629 21.6571 11.9528 21.3735L11.9313 20.794L11.9326 20.7914ZM6.00223 20.6012C9.1289 20.6012 11.9414 19.0491 11.9414 14.3955V14.1929C11.9414 13.8786 11.6587 13.6342 11.337 13.6699C4.92216 14.3881 2.15637 15.293 2.15637 17.7709C2.15637 19.5047 3.78153 20.5999 6.00097 20.5999L6.00223 20.6012Z" fill="white"/>
<path fill-rule="evenodd" clip-rule="evenodd" d="M17.9702 0.162022C18.1359 0.147841 18.3029 0.140625 18.471 0.140625H19.3277C19.4957 0.140625 19.6628 0.147841 19.8284 0.162022C19.8546 0.223798 19.869 0.291476 19.869 0.362441V2.32212C19.869 2.61312 19.6267 2.84887 19.3277 2.84887H18.471C18.1719 2.84887 17.9297 2.61312 17.9297 2.32212V0.362441C17.9297 0.291476 17.9441 0.223798 17.9702 0.162022ZM19.869 6.05115C19.869 5.76014 19.6267 5.52439 19.3277 5.52439H18.471C18.1719 5.52439 17.9297 5.76014 17.9297 6.05115V21.3651C17.9297 21.6561 18.1719 21.8918 18.471 21.8918H19.3277C19.6267 21.8918 19.869 21.6561 19.869 21.3651V6.05115Z" fill="white"/>
<path fill-rule="evenodd" clip-rule="evenodd" d="M31.1567 7.41504C31.1584 7.41507 31.1601 7.41509 31.1618 7.4151C31.4593 7.41728 31.7024 7.18078 31.703 6.89074C31.703 6.89033 31.703 6.88993 31.703 6.88952V5.93301C31.703 5.78223 31.6376 5.64629 31.5332 5.55028C31.498 5.51789 31.4583 5.49005 31.4153 5.46771C31.3473 5.43248 31.2707 5.41096 31.1895 5.40694C31.186 5.40676 31.1824 5.40662 31.1789 5.40651C31.1732 5.40634 31.1675 5.40625 31.1618 5.40625H31.1403C31.0363 5.40625 30.9319 5.40936 30.8274 5.41551C30.1252 5.45684 29.4139 5.63555 28.7585 5.93301C28.6736 5.97154 28.5896 6.01208 28.5067 6.05457C28.1439 6.24052 27.8018 6.4639 27.4921 6.7213C27.4265 6.77585 27.3624 6.83194 27.2998 6.88952C27.2993 6.88993 27.2989 6.89033 27.2984 6.89074C27.2326 6.95131 27.1686 7.01354 27.1064 7.07738C26.9283 7.26041 26.6781 7.28469 26.4812 7.19671C26.3042 7.11765 26.1702 6.94794 26.1702 6.7213V6.05457C26.1702 5.76356 25.9279 5.52781 25.6289 5.52781H24.8655C24.5665 5.52781 24.3242 5.76356 24.3242 6.05457V21.3673C24.3242 21.6583 24.5665 21.8941 24.8655 21.8941H25.6907C25.9898 21.8941 26.232 21.6583 26.232 21.3673V13.3149C26.232 13.0648 26.2378 12.8199 26.2501 12.5809C26.2865 11.8656 26.3797 11.2032 26.5417 10.6079C26.7187 9.95765 26.978 9.38749 27.3354 8.91577C27.5709 8.60515 27.8489 8.33721 28.1741 8.11721C28.1739 8.11732 28.1743 8.1171 28.1741 8.11721C28.5443 7.8669 28.976 7.67834 29.4751 7.55996C29.5511 7.54191 29.6288 7.5255 29.708 7.51072C30.0506 7.44686 30.4231 7.41382 30.8274 7.41382C30.9317 7.41382 31.035 7.41382 31.1403 7.41487C31.1458 7.41492 31.1512 7.41499 31.1567 7.41504ZM29.708 6.88952V6.05457C29.708 6.28212 29.693 6.50459 29.664 6.7213C29.6565 6.77776 29.648 6.83385 29.6385 6.88952H29.708Z" fill="white"/>
<path fill-rule="evenodd" clip-rule="evenodd" d="M51.3325 7.41504C51.3342 7.41507 51.3359 7.41509 51.3375 7.4151C51.6351 7.41728 51.8782 7.18078 51.8788 6.89074C51.8788 6.89033 51.8788 6.88993 51.8788 6.88952V5.93301C51.8788 5.78223 51.8134 5.64629 51.709 5.55029C51.6739 5.51789 51.6341 5.49005 51.5911 5.46771C51.523 5.43248 51.4464 5.41096 51.3653 5.40694C51.3618 5.40676 51.3582 5.40662 51.3547 5.40651C51.349 5.40634 51.3432 5.40625 51.3375 5.40625H51.3161C51.2121 5.40625 51.1077 5.40937 51.0032 5.41551C50.3009 5.45684 49.5897 5.63555 48.9343 5.93301C48.8493 5.97154 48.7653 6.01208 48.6825 6.05457C48.3197 6.24052 47.9776 6.4639 47.6679 6.7213C47.6023 6.77585 47.5382 6.83194 47.4756 6.88952C47.4751 6.88993 47.4747 6.89033 47.4742 6.89074C47.4084 6.95131 47.3443 7.01354 47.2822 7.07738C47.1041 7.26041 46.8539 7.28469 46.6569 7.19671C46.48 7.11764 46.346 6.94794 46.346 6.7213V6.05457C46.346 5.76356 46.1037 5.52781 45.8047 5.52781H45.0413C44.7423 5.52781 44.5 5.76356 44.5 6.05457V21.3673C44.5 21.6583 44.7423 21.8941 45.0413 21.8941H45.8665C46.1655 21.8941 46.4078 21.6583 46.4078 21.3673V13.3149C46.4078 13.0648 46.4136 12.8199 46.4259 12.5809C46.4623 11.8656 46.5554 11.2032 46.7175 10.6079C46.8945 9.95765 47.1538 9.38749 47.5112 8.91577C47.7467 8.60515 48.0247 8.33721 48.3499 8.11721C48.3497 8.11732 48.3501 8.1171 48.3499 8.11721C48.7201 7.8669 49.1518 7.67834 49.6509 7.55995C49.7269 7.54191 49.8046 7.5255 49.8838 7.51072C50.2264 7.44686 50.5989 7.41382 51.0032 7.41382C51.1075 7.41382 51.2108 7.41382 51.3161 7.41487C51.3215 7.41492 51.327 7.41499 51.3325 7.41504ZM49.8838 6.88952V6.05457C49.8838 6.28212 49.8687 6.50459 49.8398 6.7213C49.8323 6.77776 49.8237 6.83385 49.8143 6.88952H49.8838Z" fill="white"/>
<path d="M52.8853 13.7521C52.8853 8.45876 56.2619 5.23438 60.7626 5.23438C65.2634 5.23438 68.3055 8.86395 68.279 13.7128C68.2777 14.0026 68.0354 14.2383 67.7364 14.2383H55.4518C55.1389 14.2383 54.8878 14.4974 54.9118 14.8007C55.1982 18.4143 57.6775 20.5349 60.9493 20.5349C63.4351 20.5349 65.2217 19.3622 65.9611 17.3264C66.0381 17.1164 66.2412 16.9752 66.4696 16.9752H67.392C67.7629 16.9752 68.0216 17.3313 67.9043 17.6739C66.8936 20.6146 64.2502 22.2686 60.8232 22.2686C55.8846 22.2686 52.8828 18.8306 52.8828 13.7509L52.8853 13.7521ZM55.5717 12.5046H65.5713C65.893 12.5046 66.1415 12.232 66.11 11.9201C65.8475 9.35632 63.8703 6.93742 60.7324 6.93742C57.7911 6.93742 55.6247 8.66135 55.0405 11.8796C54.9812 12.2037 55.2335 12.5033 55.5717 12.5033V12.5046Z" fill="white"/>
<path d="M70.7721 13.7521C70.7721 8.45876 74.1486 5.23438 78.6493 5.23438C83.15 5.23438 86.1922 8.86395 86.1657 13.7128C86.1644 14.0026 85.9221 14.2383 85.6231 14.2383H73.3386C73.0256 14.2383 72.7746 14.4974 72.7985 14.8007C73.0849 18.4143 75.5643 20.5349 78.836 20.5349C81.3218 20.5349 83.1084 19.3622 83.8478 17.3264C83.9248 17.1164 84.128 16.9752 84.3563 16.9752H85.2787C85.6496 16.9752 85.9083 17.3313 85.791 17.6739C84.7803 20.6146 82.1369 22.2686 78.7099 22.2686C73.7713 22.2686 70.7695 18.8306 70.7695 13.7509L70.7721 13.7521ZM73.4584 12.5046H83.458C83.7797 12.5046 84.0282 12.232 83.9967 11.9201C83.7342 9.35632 81.7571 6.93742 78.6191 6.93742C75.6778 6.93742 73.5114 8.66135 72.9272 11.8796C72.8679 12.2037 73.1202 12.5033 73.4584 12.5033V12.5046Z" fill="white"/>
<path fill-rule="evenodd" clip-rule="evenodd" d="M41.4725 6.03067C41.4725 5.82829 41.3554 5.65263 41.1834 5.56441C41.1081 5.52578 41.0223 5.50391 40.9312 5.50391H38.7622C38.7401 5.50391 38.7182 5.50279 38.6966 5.50058C38.6821 5.49909 38.6678 5.49712 38.6536 5.49468C38.3888 5.44912 38.1824 5.23991 38.1487 4.97838C38.1454 4.95227 38.1438 4.92563 38.144 4.89858C38.1448 4.71985 38.1469 4.49454 38.1504 4.21378C38.1521 4.0821 38.1542 3.93822 38.1566 3.78122C38.1566 3.78081 38.1566 3.7804 38.1566 3.77999V2.34706C38.1566 2.34083 38.1565 2.33463 38.1563 2.32846C38.1479 2.0945 37.983 1.89942 37.7602 1.83938C37.7141 1.82695 37.6655 1.82031 37.6153 1.82031H36.7258C36.6734 1.82031 36.6227 1.82755 36.5748 1.84106C36.3563 1.90264 36.1949 2.09449 36.185 2.32459C36.185 2.32435 36.185 2.32485 36.185 2.32459C36.1846 2.3318 36.1845 2.3398 36.1845 2.34706V4.97838C36.1845 5.26939 35.9422 5.50515 35.6431 5.50515H33.9398C33.9377 5.50515 33.9356 5.50516 33.9335 5.50517C33.6374 5.50841 33.3984 5.74291 33.3984 6.0319V6.62373C33.3984 6.91473 33.6407 7.15048 33.9398 7.15048H35.6431C35.9414 7.15048 36.1831 7.38491 36.1844 7.67479C36.1844 7.6756 36.1845 7.67642 36.1845 7.67724V17.9889C36.1845 18.644 36.2128 19.1937 36.2832 19.6538C36.2941 19.7253 36.3061 19.7946 36.3191 19.8618C36.383 20.1921 36.4726 20.4716 36.5941 20.7074C36.734 20.9793 36.9162 21.1931 37.1499 21.3594C37.5223 21.6243 38.0253 21.7689 38.6966 21.8366C39.0433 21.8716 39.4348 21.8861 39.8764 21.8861H40.9312C41.2303 21.8861 41.4725 21.6503 41.4725 21.3594V20.7074C41.4725 20.4163 41.2303 20.1806 40.9312 20.1806H38.6966C38.3976 20.1806 38.1554 19.9449 38.1554 19.6538V7.67479C38.1554 7.39698 38.3762 7.16954 38.6563 7.14947C38.6696 7.14852 38.6831 7.14803 38.6966 7.14803H40.9312C41.023 7.14803 41.1094 7.12582 41.1851 7.08663C41.3561 6.99812 41.4725 6.82297 41.4725 6.62127V6.03067Z" fill="white"/>
</g>
<defs>
<clipPath id="clip0_2596_3281">
<rect width="87" height="22.7297" fill="white"/>
</clipPath>
</defs>
</svg>
