<svg width="146" height="35" viewBox="0 0 146 35" fill="none" xmlns="http://www.w3.org/2000/svg">
<path d="M55.1708 7.6875H58.5741V27.3033H55.6738L44.8369 13.3562V27.3033H41.4336V7.6875H44.6344L55.1708 21.2571V7.6875Z" fill="white"/>
<path d="M65.0352 10.827H71.2604V27.2473H74.7486V10.827H80.9803V7.625H65.0352V10.827Z" fill="white"/>
<path d="M90.8995 7.625H87.4375V27.2473H101.234V24.1103H90.8995V7.625Z" fill="white"/>
<path d="M132.721 17.3626V10.7828H137.751C140.305 10.7828 141.82 11.9217 141.82 14.0303V14.076C141.82 16.061 140.246 17.3626 137.771 17.3626H132.721ZM140.645 19.8292C143.401 19.0482 145.335 17.1088 145.335 13.8937V13.8351C145.335 12.1235 144.767 10.6656 143.709 9.60481C142.442 8.3357 140.508 7.63281 138.032 7.63281H129.266V27.2486H132.721V20.415H137.052L141.879 27.2486H145.95L140.639 19.8292H140.645Z" fill="white"/>
<path d="M107.645 10.7229V27.2473H122.218V24.169H110.721V18.8972H119.533V15.8254H110.721V10.7229H122.218V7.625H107.645V10.7229Z" fill="white"/>
<path d="M0 0V34.9297H34.9082V0H0ZM24.0255 27.3085L17.3887 11.7343L10.7586 27.3085H7.23118L15.8537 7.62115H19.0545L27.6641 27.302H24.019L24.0255 27.3085Z" fill="white"/>
</svg>
