<svg width="80" height="28" viewBox="0 0 80 28" fill="none" xmlns="http://www.w3.org/2000/svg">
<g clip-path="url(#clip0_2596_3261)">
<path d="M33.4399 26.803C31.4056 26.803 29.5919 26.4109 27.9987 25.6266C26.4056 24.8423 25.1433 23.7025 24.2119 22.2074C23.305 20.6878 22.8516 18.8863 22.8516 16.8029C22.8516 14.6216 23.2928 12.6975 24.1751 11.0308C25.0575 9.36415 26.283 8.07738 27.8517 7.17051C29.4448 6.23913 31.2708 5.77344 33.3297 5.77344C35.462 5.77344 37.2513 6.23913 38.6974 7.17051C40.1434 8.07738 41.2219 9.38867 41.9327 11.1044C42.668 12.82 43.0234 14.8544 42.9988 17.2074H24.8736V13.7882H40.1679L37.9988 15.4059C37.9988 14.2048 37.8272 13.151 37.4841 12.2441C37.1655 11.3372 36.6507 10.6142 35.94 10.0749C35.2537 9.53573 34.3836 9.26612 33.3297 9.26612C32.2512 9.26612 31.3075 9.56024 30.4987 10.1485C29.6899 10.7367 29.0649 11.5946 28.6237 12.7221C28.1825 13.8494 27.962 15.173 27.962 16.6927C27.962 18.0407 28.1948 19.205 28.6605 20.1853C29.1507 21.1657 29.8124 21.9132 30.6458 22.428C31.5037 22.9182 32.4473 23.1633 33.4767 23.1633C34.8983 23.1633 36.0748 22.7834 37.0061 22.0236C37.962 21.2392 38.6605 20.2589 39.1017 19.0824L43.2562 21.5824C42.0797 23.3471 40.6458 24.6584 38.9547 25.5163C37.288 26.3741 35.4497 26.803 33.4399 26.803Z" fill="white"/>
<path d="M55.0415 26.803C53.0072 26.803 51.1934 26.4109 49.6003 25.6266C48.0071 24.8423 46.7449 23.7025 45.8135 22.2074C44.9066 20.6878 44.4531 18.8863 44.4531 16.8029C44.4531 14.6216 44.8943 12.6975 45.7767 11.0308C46.6591 9.36415 47.8846 8.07738 49.4532 7.17051C51.0463 6.23913 52.8723 5.77344 54.9312 5.77344C57.0636 5.77344 58.8528 6.23913 60.2988 7.17051C61.745 8.07738 62.8234 9.38867 63.5342 11.1044C64.2695 12.82 64.625 14.8544 64.6004 17.2074H46.4752V13.7882H61.7694L59.6004 15.4059C59.6004 14.2048 59.4287 13.151 59.0856 12.2441C58.767 11.3372 58.2523 10.6142 57.5415 10.0749C56.8552 9.53573 55.9851 9.26612 54.9312 9.26612C53.8528 9.26612 52.9091 9.56024 52.1003 10.1485C51.2914 10.7367 50.6665 11.5946 50.2253 12.7221C49.7841 13.8494 49.5635 15.173 49.5635 16.6927C49.5635 18.0407 49.7964 19.205 50.262 20.1853C50.7523 21.1657 51.414 21.9132 52.2473 22.428C53.1051 22.9182 54.0489 23.1633 55.0783 23.1633C56.4998 23.1633 57.6763 22.7834 58.6077 22.0236C59.5636 21.2392 60.2621 20.2589 60.7033 19.0824L64.8578 21.5824C63.6812 23.3471 62.2474 24.6584 60.5562 25.5163C58.8896 26.3741 57.0513 26.803 55.0415 26.803Z" fill="white"/>
<path d="M66.2344 0H71.1609V21.5076C71.1609 23.2478 71.2466 24.8409 71.4182 26.287H66.2344V0Z" fill="white"/>
<path d="M0 16.2989C0 9.01767 4.64791 5.78206 9.74445 5.78206C14.3959 5.78206 16.3574 8.73747 16.3574 8.73747V0.0078125H21.3953V21.5212C21.3953 23.2872 21.456 24.8806 21.5793 26.3016H16.359V23.8869C16.359 23.8869 14.3601 26.8158 9.7461 26.8158C4.82726 26.8158 0 23.9932 0 16.2989ZM11.0312 22.9501C14.5992 22.9501 16.9061 20.2345 16.9061 16.2989C16.9061 12.2257 14.5976 9.6476 11.0312 9.6476C7.46479 9.6476 5.24158 12.0984 5.24158 16.2989C5.24158 20.4994 7.55843 22.9501 11.0312 22.9501Z" fill="white"/>
<path d="M74.3477 21.5781H79.2006V26.2841H74.3477V21.5781Z" fill="white"/>
</g>
<defs>
<clipPath id="clip0_2596_3261">
<rect width="79.2012" height="27.4158" fill="white"/>
</clipPath>
</defs>
</svg>
