<svg width="36" height="42" viewBox="0 0 36 42" fill="none" xmlns="http://www.w3.org/2000/svg">
<g clip-path="url(#clip0_2596_3370)">
<path d="M35.2769 3.66475C35.1954 3.65504 35.1139 3.64532 35.0405 3.6457C34.9862 3.63922 34.9307 3.64175 34.8855 3.63636C34.8312 3.62988 34.7848 3.63349 34.7305 3.62701C34.6762 3.62054 34.6299 3.62415 34.5756 3.61767C34.5212 3.6112 34.4749 3.61481 34.4206 3.60833C34.3663 3.60185 34.3199 3.60547 34.2656 3.59899C34.2113 3.59252 34.165 3.59613 34.1106 3.58965C34.0563 3.58317 34.01 3.58678 33.9557 3.58031C33.9014 3.57383 33.855 3.57744 33.8007 3.57097C33.7464 3.56449 33.7 3.5681 33.6457 3.56163C33.5914 3.55515 33.5451 3.55876 33.4908 3.55229C33.4365 3.54581 33.3901 3.54942 33.3358 3.54295C33.2815 3.53647 33.2351 3.54008 33.1808 3.5336C33.1265 3.52713 33.0802 3.53074 33.0258 3.52426C32.9715 3.51779 32.9252 3.5214 32.8709 3.51492C32.8166 3.50844 32.7702 3.51205 32.7159 3.50558C32.6616 3.49911 32.6152 3.50272 32.5599 3.50525C32.5056 3.49877 32.4592 3.50238 32.4038 3.50491C32.3495 3.49844 32.3032 3.50205 32.2478 3.50458C32.1935 3.4981 32.1471 3.50171 32.0917 3.50424C32.0374 3.49777 31.9911 3.50138 31.9357 3.50391C31.8814 3.49743 31.835 3.50104 31.7797 3.50358C31.7253 3.4971 31.679 3.50071 31.6327 3.50432C31.5783 3.49784 31.532 3.50145 31.4857 3.50506C31.4314 3.49859 31.385 3.5022 31.3387 3.50581C31.2934 3.50041 31.238 3.50295 31.1917 3.50656C31.1464 3.50116 31.091 3.50369 31.0447 3.5073C30.9994 3.5019 30.944 3.50443 30.8977 3.50804C30.8525 3.50265 30.797 3.50518 30.7507 3.50879C30.7054 3.50339 30.6501 3.50592 30.6037 3.50953C30.5585 3.50414 30.5031 3.50667 30.4567 3.51028C30.4114 3.50488 30.3561 3.50741 30.3098 3.51102C30.2645 3.50563 30.2091 3.50816 30.1627 3.51177C30.1175 3.50637 30.0621 3.5089 30.0158 3.51251C29.9705 3.50712 29.9242 3.51073 29.8688 3.51326C29.8235 3.50786 29.7772 3.51147 29.7218 3.51401C29.6765 3.50861 29.6302 3.51222 29.5748 3.51475C29.5285 3.51836 29.4832 3.51296 29.4278 3.51549C29.3814 3.5191 29.3362 3.51371 29.2898 3.51732C29.2435 3.52093 29.1982 3.51553 29.1519 3.51914C29.1056 3.52275 29.0603 3.51736 29.014 3.52097C28.9676 3.52458 28.9224 3.51918 28.876 3.52279C28.8297 3.5264 28.7844 3.521 28.7291 3.52354C28.6827 3.52715 28.6375 3.52175 28.5821 3.52428C28.5357 3.52789 28.4904 3.5225 28.4441 3.52611C28.3978 3.52972 28.3525 3.52432 28.3062 3.52793C28.2598 3.53154 28.2146 3.52614 28.1682 3.52976C28.1219 3.53337 28.0766 3.52797 28.0303 3.53158C27.984 3.53519 27.9387 3.52979 27.8924 3.5334C27.846 3.53701 27.8008 3.53162 27.7544 3.53523C27.7081 3.53884 27.6628 3.53344 27.6165 3.53705C27.5702 3.54066 27.5249 3.53527 27.4786 3.53888C27.4322 3.54249 27.387 3.53709 27.3406 3.5407C27.2943 3.54431 27.249 3.53891 27.2027 3.54252C27.1563 3.54614 27.1111 3.54074 27.0647 3.54435C27.0184 3.54796 26.9731 3.54256 26.9268 3.54617C26.8804 3.54978 26.8352 3.54439 26.7888 3.548C26.7425 3.55161 26.6972 3.54621 26.6509 3.54982C26.6046 3.55343 26.5593 3.54804 26.513 3.55165C26.4666 3.55526 26.4203 3.55887 26.375 3.55347C26.3287 3.55708 26.2824 3.56069 26.2371 3.5553C26.1908 3.55891 26.1444 3.56252 26.0981 3.56613C26.0518 3.56974 26.0054 3.57335 25.9682 3.57804C25.9218 3.58165 25.8754 3.58526 25.8382 3.58994C25.7918 3.59356 25.7455 3.59717 25.7082 3.60185C25.6619 3.60546 25.6155 3.60907 25.5783 3.61377C25.5319 3.61738 25.4856 3.62099 25.4483 3.62568C25.4019 3.62929 25.3556 3.6329 25.3183 3.63759C25.272 3.6412 25.2257 3.64481 25.1884 3.6495C25.142 3.65311 25.0957 3.65672 25.0584 3.66141C25.0121 3.66502 24.9657 3.66863 24.9284 3.67332C24.8821 3.67693 24.8448 3.68162 24.7985 3.68523C24.7522 3.68884 24.7149 3.69353 24.6685 3.69714C24.6222 3.70075 24.5849 3.70544 24.5386 3.70905C24.4922 3.71266 24.4549 3.71735 24.4086 3.72096C24.3623 3.72457 24.325 3.72926 24.2787 3.73287C24.2323 3.73648 24.195 3.74117 24.1487 3.74478C24.1024 3.74839 24.0651 3.75308 24.0187 3.75669C23.9724 3.7603 23.9351 3.76499 23.8888 3.7686C23.8425 3.77221 23.8052 3.7769 23.7588 3.78051C23.7125 3.78412 23.6752 3.78881 23.6289 3.79242C23.5825 3.79603 23.5453 3.80072 23.4989 3.80433C23.4526 3.80794 23.4153 3.81263 23.369 3.81624C23.3226 3.81985 23.2853 3.82454 23.239 3.82815C23.1926 3.83176 23.1554 3.83645 23.109 3.84006C23.0627 3.84367 23.0254 3.84836 22.9881 3.85305C22.9418 3.85666 22.9045 3.86135 22.8672 3.86604C22.8209 3.86965 22.7836 3.87434 22.7463 3.87903C22.709 3.88372 22.6627 3.88733 22.6254 3.89202C22.5881 3.89671 22.5418 3.90032 22.5045 3.90501C22.4672 3.9097 22.4209 3.91331 22.3836 3.918C22.3463 3.92269 22.3 3.9263 22.2627 3.93099C22.2254 3.93568 22.1791 3.93929 22.1418 3.94398C22.1045 3.94867 22.0581 3.95228 22.0209 3.95697C21.9836 3.96168 21.9372 3.96528 21.9 3.96995C21.8627 3.97466 21.8164 3.97826 21.7791 3.98293C21.7418 3.98764 21.6954 3.99125 21.6581 3.99592C21.6209 4.00063 21.5745 4.00423 21.5372 4.00894C21.5 4.01361 21.4536 4.01721 21.4163 4.02192C21.379 4.02659 21.3327 4.0302 21.2954 4.03491C21.2581 4.03958 21.2118 4.04322 21.1745 4.04789C21.1373 4.0526 21.0909 4.0562 21.0536 4.06087C21.0163 4.06558 20.97 4.06919 20.9327 4.07386C20.8954 4.07857 20.8581 4.08324 20.8118 4.08688C20.7745 4.09155 20.7372 4.09626 20.6909 4.09986C20.6536 4.10453 20.6163 4.10924 20.57 4.11285C20.5327 4.11752 20.4954 4.12223 20.4582 4.1269C20.4209 4.13161 20.3836 4.13628 20.3463 4.14099C20.309 4.14566 20.2717 4.15037 20.2344 4.15504C20.1971 4.15975 20.1508 4.16336 20.1124 4.17705C20.0752 4.18172 20.0379 4.18643 19.9995 4.20013C19.9622 4.2048 19.925 4.20951 19.8866 4.22321C19.8493 4.22788 19.812 4.23259 19.7737 4.24628C19.7364 4.25095 19.6991 4.25567 19.6607 4.26936C19.6234 4.27403 19.5862 4.27874 19.5478 4.29244C19.5105 4.29711 19.4732 4.30182 19.4349 4.31552C19.3976 4.32019 19.3603 4.32486 19.3219 4.33855C19.2846 4.34326 19.2474 4.34794 19.209 4.36163C19.1718 4.36634 19.1345 4.37101 19.0961 4.38471C19.0588 4.38942 19.0215 4.39409 18.9832 4.40779C18.9459 4.4125 18.9086 4.41717 18.8702 4.43086C18.833 4.43557 18.7957 4.44025 18.7573 4.45394C18.72 4.45865 18.6827 4.46332 18.6444 4.47702C18.6071 4.48173 18.5698 4.4864 18.5314 4.5001C18.4942 4.50481 18.4569 4.50948 18.4185 4.52317C18.3813 4.52788 18.344 4.53255 18.3056 4.54625C18.2683 4.55096 18.231 4.55563 18.1927 4.56933C18.1554 4.574 18.1181 4.57871 18.0888 4.59347C18.0515 4.59819 18.0041 4.61077 17.9668 4.61548C17.9295 4.62015 17.8912 4.63385 17.863 4.63963C17.8257 4.64434 17.7873 4.65804 17.7591 4.66378C17.7218 4.66849 17.6834 4.68218 17.6552 4.68796C17.6179 4.69263 17.5795 4.70633 17.5513 4.71211C17.514 4.71678 17.4757 4.73047 17.4474 4.73625C17.4102 4.74092 17.3809 4.75573 17.3436 4.7604C17.3063 4.76511 17.277 4.77988 17.2397 4.78455C17.2024 4.78926 17.1731 4.80402 17.1358 4.80873C17.0985 4.8134 17.0692 4.82817 17.0319 4.83288C16.9946 4.83755 16.9653 4.85235 16.9281 4.85702C16.8908 4.86173 16.8615 4.8765 16.8242 4.88117C16.7869 4.88588 16.7576 4.90065 16.7203 4.90536C16.683 4.91003 16.6537 4.92479 16.6165 4.9295C16.5792 4.93417 16.5498 4.94898 16.5126 4.95365C16.4753 4.95832 16.446 4.97312 16.4087 4.97779C16.3714 4.98251 16.3421 4.99727 16.3048 5.00194C16.2665 5.01564 16.2292 5.02035 16.1817 5.03297C16.1445 5.03765 16.1152 5.05241 16.0779 5.05712C16.0406 5.06179 16.0113 5.0766 15.974 5.08127C15.9367 5.08598 15.9074 5.10074 15.8792 5.10652C15.8419 5.11119 15.8126 5.12596 15.7844 5.13174C15.7471 5.13645 15.7178 5.15121 15.6896 5.15699C15.6613 5.16273 15.6229 5.17643 15.5947 5.18221C15.5665 5.18799 15.5281 5.20168 15.4999 5.20742C15.4717 5.2132 15.4333 5.2269 15.4051 5.23268C15.3768 5.23845 15.3385 5.25215 15.3103 5.25789C15.282 5.26367 15.2437 5.27737 15.2154 5.28315C15.1872 5.28892 15.1488 5.30262 15.1206 5.30836C15.0924 5.31414 15.054 5.32784 15.0258 5.33361C14.9976 5.33939 14.9592 5.35309 14.931 5.35883C14.9027 5.36461 14.8644 5.3783 14.8361 5.38408C14.8079 5.38986 14.7695 5.40356 14.7413 5.4093C14.703 5.42299 14.6646 5.43669 14.6263 5.45039C14.598 5.45617 14.5597 5.46986 14.5314 5.47564C14.5032 5.48142 14.4648 5.49512 14.4355 5.50988C14.4073 5.51566 14.3689 5.52936 14.3396 5.54412C14.3114 5.5499 14.2821 5.56467 14.2437 5.57836C14.2155 5.58414 14.1862 5.59891 14.1478 5.6126C14.1196 5.61838 14.0903 5.63315 14.0519 5.64684C14.0237 5.65262 13.9944 5.66739 13.9561 5.68108C13.9278 5.68686 13.8985 5.70163 13.8692 5.71639C13.841 5.72217 13.8117 5.73693 13.7824 5.75174C13.7541 5.75748 13.7248 5.77228 13.6955 5.78705C13.6673 5.79283 13.638 5.80759 13.6087 5.82236C13.5804 5.82814 13.5511 5.8429 13.5218 5.85767C13.4936 5.86345 13.4643 5.87821 13.435 5.89301C13.3966 5.90671 13.3583 5.92041 13.3199 5.9341C13.2906 5.94887 13.2624 5.95465 13.2331 5.96941C13.2038 5.98418 13.1755 5.98995 13.1462 6.00472C13.1169 6.01952 13.0887 6.02526 13.0594 6.04007C13.0301 6.05483 13.0018 6.06061 12.9725 6.07538C12.9432 6.09014 12.915 6.09592 12.8857 6.11069C12.8564 6.12545 12.8282 6.13123 12.7989 6.14599C12.7695 6.1608 12.7413 6.16654 12.712 6.18134C12.6827 6.19611 12.6545 6.20189 12.6252 6.21665C12.5959 6.23142 12.5676 6.2372 12.5383 6.25196C12.509 6.26677 12.4808 6.27251 12.4515 6.28731C12.4222 6.30207 12.3939 6.30785 12.3646 6.32262C12.3353 6.33738 12.3071 6.34316 12.2778 6.35793C12.2394 6.37162 12.2011 6.38532 12.1616 6.40804C12.1323 6.42281 12.1041 6.42858 12.0839 6.44442C12.0545 6.45922 12.0263 6.46496 12.0061 6.48083C11.9767 6.4956 11.9485 6.50138 11.9283 6.51721C11.899 6.53202 11.8707 6.53776 11.8505 6.55363C11.8212 6.56839 11.793 6.57417 11.7727 6.59001C11.7434 6.60481 11.7151 6.61055 11.6949 6.62643C11.6656 6.64119 11.6464 6.64804 11.6171 6.66284C11.5878 6.67761 11.5686 6.68446 11.5393 6.69922C11.51 6.71398 11.4908 6.72083 11.4615 6.73564C11.4322 6.7504 11.413 6.75725 11.3837 6.77201C11.3454 6.78571 11.306 6.80843 11.2766 6.8232C11.2473 6.83796 11.2281 6.84481 11.1988 6.85961C11.1695 6.87438 11.1504 6.88123 11.1211 6.89599C11.0918 6.91076 11.0726 6.9176 11.0433 6.93241C11.0139 6.94717 10.9948 6.95402 10.9655 6.96879C10.9362 6.98359 10.917 6.99044 10.8877 7.0052C10.8584 7.01997 10.8392 7.02682 10.8099 7.04158C10.7806 7.05639 10.7614 7.06323 10.7321 7.078C10.7028 7.09276 10.6836 7.09961 10.6543 7.11438C10.625 7.12918 10.6058 7.13603 10.5765 7.15079C10.5472 7.16556 10.5281 7.17241 10.5078 7.18828C10.4694 7.20197 10.439 7.22576 10.3996 7.24845C10.3794 7.26432 10.3511 7.27006 10.3309 7.28593C10.3106 7.30181 10.2813 7.31657 10.2621 7.32342C10.2419 7.33925 10.2126 7.35406 10.1934 7.3609C10.1731 7.37674 10.1439 7.3915 10.1247 7.39835C10.1044 7.41422 10.0751 7.42899 10.0559 7.43584C10.0357 7.45171 10.0064 7.46647 9.98718 7.47332C9.96695 7.4892 9.93762 7.50396 9.91846 7.51081C9.89819 7.52664 9.8689 7.54145 9.8497 7.54829C9.82944 7.56413 9.80015 7.57893 9.78099 7.58578C9.74152 7.60846 9.71223 7.62323 9.6728 7.64595C9.65254 7.66178 9.62324 7.67659 9.60405 7.68343C9.58382 7.69927 9.55449 7.71407 9.53533 7.72092C9.51506 7.73675 9.48577 7.75152 9.46657 7.75837C9.44634 7.77424 9.41701 7.789 9.39678 7.80488C9.37652 7.82071 9.35625 7.83658 9.32696 7.85135C9.30669 7.86722 9.28646 7.88306 9.25713 7.89782C9.23691 7.91369 9.21664 7.92953 9.18735 7.94433C9.16708 7.96016 9.14685 7.97604 9.11752 7.9908C9.08716 8.01459 9.04773 8.03727 9.01733 8.06106C8.99707 8.07694 8.97684 8.09277 8.95657 8.10864C8.93635 8.12448 8.91608 8.14035 8.89581 8.15618C8.87558 8.17206 8.85532 8.18793 8.83505 8.20376C8.81482 8.21964 8.79455 8.23547 8.77429 8.25134C8.75406 8.26718 8.73379 8.28305 8.71353 8.29888C8.6933 8.31476 8.67303 8.33059 8.65277 8.34646C8.63254 8.3623 8.61227 8.37817 8.592 8.39404C8.57178 8.40988 8.55151 8.42575 8.53128 8.44158C8.50088 8.46537 8.46146 8.4881 8.43106 8.51185C8.41083 8.52772 8.39056 8.54355 8.37029 8.55943C8.35007 8.57526 8.3298 8.59113 8.30957 8.60701C8.28931 8.62284 8.26904 8.63871 8.24881 8.65455C8.22854 8.67042 8.20828 8.68625 8.18805 8.70213C8.16778 8.71796 8.14752 8.73383 8.12729 8.74967C8.10702 8.76554 8.08675 8.78137 8.06653 8.79725C8.04626 8.81312 8.02599 8.82895 8.00577 8.84483C7.97537 8.86858 7.945 8.89237 7.91354 8.92518C7.89331 8.94101 7.87304 8.95689 7.85277 8.97272C7.83255 8.98859 7.81228 9.00443 7.80108 9.02137C7.78081 9.03724 7.76058 9.05308 7.74938 9.07002C7.72911 9.08589 7.70889 9.10173 7.69768 9.11867C7.67742 9.1345 7.65715 9.15037 7.64595 9.16732C7.62572 9.18315 7.60545 9.19902 7.59425 9.21596C7.57399 9.2318 7.56282 9.24874 7.54256 9.26461C7.51216 9.28836 7.48073 9.32118 7.45033 9.34493C7.4301 9.3608 7.4189 9.37774 7.39863 9.39358C7.37836 9.40945 7.36716 9.42639 7.34693 9.44223C7.32666 9.4581 7.31546 9.47504 7.29524 9.49087C7.27497 9.50675 7.26377 9.52365 7.2435 9.53952C7.22327 9.5554 7.21207 9.5723 7.1918 9.58817C7.17154 9.60401 7.16033 9.62095 7.14011 9.63682C7.1097 9.66061 7.07828 9.69339 7.05587 9.72727C7.0356 9.7431 7.0244 9.76005 7.00417 9.77588C6.98391 9.79175 6.97271 9.80869 6.95244 9.82453C6.93221 9.8404 6.92101 9.85734 6.90074 9.87318C6.88047 9.88905 6.86931 9.90599 6.84905 9.92182C6.82878 9.9377 6.81758 9.9546 6.79735 9.97047C6.77708 9.98631 6.76588 10.0032 6.75468 10.0202C6.72321 10.053 6.70191 10.0779 6.67044 10.1106C6.65924 10.1276 6.63901 10.1434 6.62781 10.1604C6.61661 10.1773 6.59634 10.1931 6.58514 10.2101C6.57394 10.227 6.55367 10.2429 6.54247 10.2598C6.53131 10.2767 6.51104 10.2926 6.49984 10.3095C6.48863 10.3265 6.46837 10.3423 6.45716 10.3593C6.44596 10.3762 6.42573 10.392 6.41453 10.409C6.38306 10.4418 6.36066 10.4756 6.33936 10.5005C6.32816 10.5174 6.30789 10.5333 6.29669 10.5502C6.28549 10.5672 6.26522 10.583 6.25402 10.5999C6.24282 10.6169 6.22259 10.6327 6.21139 10.6497C6.20019 10.6666 6.17992 10.6825 6.16872 10.6994C6.15751 10.7163 6.14631 10.7333 6.12608 10.7491C6.10368 10.783 6.07221 10.8157 6.04981 10.8496C6.0386 10.8666 6.0274 10.8835 6.00717 10.8993C5.99597 10.9163 5.98477 10.9332 5.9645 10.9491C5.9533 10.966 5.9421 10.983 5.9309 10.9999C5.91969 11.0168 5.90853 11.0337 5.89733 11.0507C5.88613 11.0676 5.87492 11.0846 5.86372 11.1015C5.84132 11.1353 5.81891 11.1692 5.79651 11.2031C5.78531 11.22 5.7741 11.237 5.7629 11.2539C5.7517 11.2708 5.7405 11.2877 5.7293 11.3047C5.71809 11.3216 5.70689 11.3386 5.69569 11.3555C5.68453 11.3725 5.67332 11.3894 5.66212 11.4063C5.65092 11.4232 5.63972 11.4402 5.62851 11.4571C5.60611 11.491 5.58371 11.5249 5.5613 11.5587C5.5501 11.5756 5.5389 11.5926 5.52769 11.6095C5.51649 11.6265 5.50529 11.6434 5.49302 11.6693C5.48182 11.6863 5.47061 11.7032 5.45834 11.7291C5.44714 11.746 5.43594 11.763 5.42367 11.789C5.41247 11.8059 5.40126 11.8228 5.38899 11.8488C5.36659 11.8826 5.34418 11.9165 5.32977 11.9604C5.31857 11.9774 5.30737 11.9943 5.2951 12.0202C5.2839 12.0372 5.27269 12.0541 5.26949 12.0811C5.25829 12.0981 5.24708 12.115 5.24388 12.142C5.23268 12.1589 5.22147 12.1759 5.21823 12.2029C5.20703 12.2199 5.19582 12.2368 5.19262 12.2638C5.17021 12.2977 5.1558 12.3416 5.14246 12.3766C5.13126 12.3935 5.12908 12.4115 5.11681 12.4375C5.10561 12.4544 5.10347 12.4724 5.0912 12.4983C5.08 12.5153 5.07786 12.5333 5.06559 12.5593C5.05439 12.5762 5.05225 12.5942 5.03994 12.6201C5.02874 12.6371 5.0266 12.6551 5.01433 12.681C5.00099 12.716 4.97752 12.7588 4.96418 12.7938C4.95298 12.8107 4.95084 12.8287 4.93853 12.8547C4.92733 12.8716 4.92519 12.8896 4.91292 12.9156C4.90171 12.9325 4.89958 12.9505 4.88731 12.9765C4.8761 12.9934 4.87397 13.0114 4.8617 13.0374C4.85049 13.0543 4.84832 13.0723 4.83604 13.0982C4.82164 13.1422 4.8083 13.1771 4.79385 13.2211C4.79171 13.2391 4.78051 13.2561 4.7773 13.2831C4.77516 13.3011 4.76396 13.318 4.76072 13.345C4.75858 13.3631 4.74738 13.38 4.74417 13.407C4.74199 13.425 4.73079 13.4419 4.72758 13.469C4.71318 13.5129 4.69984 13.5479 4.69445 13.5929C4.69232 13.6109 4.68111 13.6278 4.67787 13.6549C4.67573 13.6729 4.66453 13.6898 4.66132 13.7168C4.65914 13.7349 4.64798 13.7518 4.64474 13.7788C4.6426 13.7968 4.6314 13.8138 4.62819 13.8408C4.62601 13.8588 4.61374 13.8847 4.6116 13.9027C4.5972 13.9467 4.59288 13.9827 4.57847 14.0267C4.57633 14.0447 4.56402 14.0706 4.56189 14.0886C4.55975 14.1066 4.54748 14.1326 4.54534 14.1506C4.54316 14.1686 4.53996 14.1957 4.52875 14.2126C4.52662 14.2306 4.52337 14.2576 4.51217 14.2746C4.50683 14.3196 4.49238 14.3635 4.4881 14.3996C4.48596 14.4176 4.48272 14.4446 4.48058 14.4626C4.47844 14.4806 4.4752 14.5076 4.47306 14.5257C4.47092 14.5437 4.46772 14.5707 4.46554 14.5887C4.4634 14.6067 4.4602 14.6337 4.45802 14.6517C4.45588 14.6698 4.45267 14.6968 4.45054 14.7148C4.44515 14.7598 4.44084 14.7959 4.4355 14.8409C4.4355 14.8409 4.4355 14.8409 4.43443 14.8499C4.43225 14.8679 4.43118 14.8769 4.42904 14.8949C4.42797 14.9039 4.42797 14.9039 4.42691 14.913C4.42584 14.9219 4.42366 14.94 4.42259 14.949C4.42152 14.958 4.42045 14.967 4.41938 14.976C4.41832 14.985 4.41725 14.994 4.41614 15.003C4.41507 15.012 4.41293 15.03 4.41186 15.039C4.41079 15.0481 4.41079 15.0481 4.40973 15.057C4.40755 15.0751 4.40648 15.0841 4.40434 15.1021L4.40327 15.1111C4.39789 15.1561 4.39362 15.1921 4.38823 15.2372C4.38609 15.2552 4.38289 15.2822 4.38071 15.3002C4.37857 15.3183 4.37537 15.3453 4.37319 15.3633C4.37105 15.3813 4.36785 15.4083 4.36567 15.4263C4.36353 15.4443 4.36033 15.4714 4.35819 15.4894C4.35601 15.5074 4.3528 15.5344 4.35067 15.5524C4.34528 15.5974 4.34896 15.6436 4.34469 15.6796C4.34251 15.6976 4.33931 15.7246 4.34619 15.7437C4.34406 15.7617 4.34085 15.7888 4.34774 15.8078C4.3456 15.8258 4.34239 15.8529 4.34928 15.872C4.34714 15.89 4.3439 15.917 4.35083 15.9361C4.34869 15.9541 4.35451 15.9822 4.35237 16.0002C4.34699 16.0453 4.35174 16.0823 4.35542 16.1285C4.35328 16.1465 4.3591 16.1746 4.35696 16.1926C4.35482 16.2106 4.36064 16.2387 4.3585 16.2567C4.35637 16.2747 4.36219 16.3028 4.36005 16.3208C4.35787 16.3389 4.36373 16.367 4.36159 16.385C4.36527 16.4311 4.37002 16.4682 4.36464 16.5132C4.3625 16.5312 4.36832 16.5593 4.36618 16.5773C4.36405 16.5954 4.36986 16.6235 4.36773 16.6415C4.37355 16.6696 4.36927 16.7056 4.37509 16.7337C4.37984 16.7708 4.38459 16.8079 4.38934 16.8451C4.39302 16.8911 4.39674 16.9372 4.40945 16.9845C4.4142 17.0216 4.41899 17.0586 4.42374 17.0958C4.42849 17.1329 4.43324 17.17 4.43799 17.2071C4.44278 17.2442 4.44753 17.2813 4.45228 17.3184C4.45596 17.3645 4.46871 17.4117 4.47239 17.4578C4.47714 17.4949 4.48189 17.532 4.4957 17.5702C4.50045 17.6073 4.50524 17.6444 4.51902 17.6826C4.5227 17.7287 4.53544 17.7759 4.54819 17.8231C4.55294 17.8602 4.56676 17.8984 4.57257 17.9265C4.57736 17.9636 4.59114 18.0018 4.597 18.0299C4.60175 18.067 4.61556 18.1052 4.62138 18.1333C4.63413 18.1805 4.64687 18.2277 4.66069 18.2659C4.66544 18.303 4.68032 18.3321 4.69414 18.3703C4.69889 18.4074 4.71377 18.4366 4.72758 18.4748C4.7414 18.513 4.74722 18.5411 4.76103 18.5793C4.77378 18.6264 4.78755 18.6646 4.8003 18.7118C4.81412 18.75 4.81993 18.7781 4.83375 18.8163C4.84756 18.8545 4.85338 18.8826 4.8672 18.9208C4.88101 18.959 4.88687 18.9871 4.90065 19.0253C4.91339 19.0724 4.92721 19.1106 4.95009 19.1499C4.9639 19.1881 4.97878 19.2173 4.99256 19.2554C5.00637 19.2936 5.02126 19.3228 5.03614 19.352C5.04996 19.3902 5.06484 19.4194 5.07972 19.4485C5.09354 19.4867 5.11535 19.535 5.13819 19.5742C5.15307 19.6034 5.16689 19.6416 5.18177 19.6708C5.19665 19.7 5.21047 19.7382 5.22535 19.7673C5.24024 19.7965 5.25405 19.8347 5.26893 19.8639C5.29181 19.9031 5.30559 19.9413 5.3274 19.9896C5.34228 20.0188 5.3561 20.057 5.38001 20.0872C5.39489 20.1164 5.40871 20.1546 5.43265 20.1849C5.44754 20.214 5.46135 20.2522 5.4853 20.2825C5.50814 20.3217 5.53102 20.361 5.55386 20.4003C5.56874 20.4295 5.59269 20.4597 5.60651 20.4979C5.62139 20.5271 5.64534 20.5573 5.65915 20.5955C5.67404 20.6247 5.69795 20.655 5.71283 20.6841C5.73571 20.7234 5.75859 20.7627 5.78143 20.8019C5.79631 20.8311 5.82026 20.8614 5.83514 20.8905C5.85003 20.9197 5.87397 20.95 5.88886 20.9792C5.90374 21.0083 5.92765 21.0386 5.9516 21.0689C5.96648 21.098 5.99043 21.1283 6.01434 21.1585C6.03722 21.1978 6.06117 21.2281 6.09307 21.2684C6.11702 21.2987 6.1319 21.3278 6.15581 21.3581C6.17976 21.3884 6.19464 21.4175 6.21859 21.4478C6.24254 21.4781 6.25742 21.5072 6.28133 21.5375C6.30528 21.5678 6.32016 21.5969 6.34411 21.6272C6.36695 21.6664 6.39997 21.6978 6.42281 21.7371C6.44675 21.7673 6.46164 21.7965 6.48665 21.8177C6.5106 21.848 6.53451 21.8783 6.55046 21.8984C6.57441 21.9287 6.59836 21.9589 6.61431 21.9791C6.62231 21.9892 6.62231 21.9892 6.63026 21.9993C6.60893 22.0242 6.58763 22.049 6.5663 22.0739C6.53483 22.1067 6.51242 22.1405 6.48099 22.1733C6.44952 22.2061 6.42712 22.24 6.39569 22.2728C6.36422 22.3056 6.34182 22.3394 6.31035 22.3722C6.27892 22.405 6.25651 22.4389 6.22504 22.4717C6.19361 22.5044 6.17121 22.5383 6.13974 22.5711C6.10831 22.6039 6.08591 22.6378 6.05444 22.6705C6.02301 22.7034 6.0006 22.7372 5.9782 22.7711C5.94673 22.8039 5.92433 22.8377 5.90085 22.8806C5.86942 22.9134 5.84702 22.9473 5.82461 22.9811C5.80221 23.015 5.77074 23.0478 5.74727 23.0907C5.72486 23.1245 5.69343 23.1573 5.66996 23.2002C5.64755 23.2341 5.61609 23.2669 5.59261 23.3097C5.57021 23.3436 5.53878 23.3764 5.5153 23.4193C5.4929 23.4531 5.46143 23.4859 5.43796 23.5288C5.41555 23.5627 5.38412 23.5955 5.36065 23.6383C5.33825 23.6722 5.30678 23.705 5.2833 23.7479C5.2609 23.7817 5.22947 23.8145 5.206 23.8574C5.18359 23.8913 5.16119 23.9251 5.13771 23.968C5.11531 24.0019 5.0929 24.0357 5.06943 24.0786C5.04703 24.1125 5.02355 24.1554 5.00115 24.1892C4.97874 24.2231 4.95527 24.266 4.93287 24.2998C4.91046 24.3337 4.88699 24.3766 4.86458 24.4104C4.84222 24.4443 4.81875 24.4872 4.79634 24.5211C4.77394 24.5549 4.75046 24.5978 4.72806 24.6317C4.70566 24.6656 4.68218 24.7084 4.65978 24.7423C4.63737 24.7762 4.6139 24.819 4.5915 24.8529C4.56909 24.8868 4.54669 24.9206 4.52321 24.9635C4.50081 24.9974 4.47734 25.0403 4.45493 25.0741C4.43257 25.108 4.40909 25.1509 4.38669 25.1847C4.36428 25.2186 4.34081 25.2615 4.31841 25.2953C4.296 25.3292 4.27253 25.3721 4.25012 25.406C4.22772 25.4398 4.20425 25.4827 4.19091 25.5176C4.1685 25.5515 4.14503 25.5944 4.13169 25.6294C4.10928 25.6632 4.08581 25.7061 4.07247 25.741C4.05007 25.7749 4.02659 25.8178 4.01321 25.8527C3.99085 25.8866 3.96734 25.9295 3.95401 25.9644C3.93161 25.9983 3.90813 26.0411 3.89478 26.0761C3.87238 26.11 3.85796 26.1539 3.83556 26.1878C3.81316 26.2217 3.79874 26.2656 3.77634 26.2995C3.75394 26.3334 3.73951 26.3773 3.71711 26.4112C3.69471 26.4451 3.68029 26.489 3.65789 26.5229C3.63549 26.5567 3.62107 26.6007 3.59867 26.6345C3.57627 26.6684 3.56185 26.7124 3.53945 26.7463C3.51705 26.7801 3.50262 26.8241 3.48022 26.858C3.45782 26.8918 3.4434 26.9358 3.421 26.9696C3.3986 27.0035 3.38418 27.0474 3.36178 27.0813C3.33938 27.1152 3.32496 27.1591 3.30256 27.193C3.28016 27.2269 3.26573 27.2709 3.25238 27.3058C3.22998 27.3397 3.21556 27.3836 3.20221 27.4185C3.17981 27.4524 3.16539 27.4964 3.15205 27.5313C3.12964 27.5652 3.11522 27.6091 3.10187 27.6441C3.07947 27.678 3.06505 27.7219 3.0517 27.7569C3.03836 27.7918 3.01488 27.8347 3.00153 27.8696C2.98818 27.9046 2.96471 27.9475 2.95136 27.9824C2.93802 28.0174 2.91454 28.0602 2.90119 28.0952C2.88784 28.1301 2.86544 28.164 2.85102 28.208C2.83767 28.2429 2.81527 28.2768 2.80085 28.3207C2.78751 28.3557 2.76511 28.3895 2.75068 28.4335C2.73733 28.4684 2.71493 28.5023 2.70051 28.5463C2.68716 28.5812 2.66476 28.6151 2.65034 28.659C2.63699 28.694 2.6146 28.7279 2.60017 28.7718C2.58682 28.8068 2.56442 28.8406 2.55 28.8846C2.53665 28.9195 2.51318 28.9624 2.49983 28.9973C2.48648 29.0323 2.47313 29.0673 2.44966 29.1101C2.43631 29.1451 2.42297 29.18 2.40855 29.224C2.39519 29.2589 2.38185 29.2939 2.36743 29.3378C2.35408 29.3728 2.34073 29.4077 2.32631 29.4517C2.31296 29.4866 2.29961 29.5216 2.28627 29.5565C2.27292 29.5915 2.25957 29.6264 2.24622 29.6614C2.23287 29.6963 2.21952 29.7312 2.20618 29.7662C2.19283 29.8011 2.17948 29.8361 2.16613 29.871C2.15279 29.906 2.13944 29.9409 2.12609 29.9759C2.11274 30.0108 2.0994 30.0458 2.08605 30.0807C2.0727 30.1157 2.05935 30.1506 2.046 30.1856C2.03266 30.2205 2.01931 30.2554 2.00596 30.2904C1.99261 30.3253 1.97926 30.3603 1.96591 30.3953C1.95257 30.4302 1.93922 30.4652 1.92587 30.5001C1.91252 30.535 1.89918 30.57 1.88583 30.6049C1.87248 30.6399 1.85806 30.6838 1.84471 30.7188C1.83136 30.7537 1.81801 30.7887 1.80467 30.8236C1.79132 30.8586 1.77797 30.8935 1.76462 30.9285C1.75127 30.9634 1.73793 30.9984 1.72458 31.0333C1.71123 31.0683 1.69788 31.1032 1.68454 31.1382C1.67119 31.1731 1.65784 31.208 1.64449 31.243C1.63115 31.2779 1.6178 31.3129 1.60445 31.3478C1.5911 31.3828 1.57775 31.4177 1.57346 31.4538C1.56011 31.4887 1.54676 31.5237 1.54247 31.5597C1.52912 31.5946 1.51577 31.6296 1.51147 31.6656C1.49813 31.7006 1.48478 31.7355 1.48156 31.7625C1.46821 31.7975 1.45486 31.8324 1.45164 31.8594C1.43829 31.8944 1.42494 31.9293 1.42172 31.9564C1.40837 31.9913 1.3961 32.0172 1.3918 32.0533C1.37846 32.0882 1.36618 32.1141 1.36189 32.1502C1.34854 32.1851 1.34532 32.2122 1.33197 32.2471C1.31862 32.2821 1.3154 32.3091 1.30206 32.344C1.28871 32.379 1.28549 32.406 1.27214 32.441C1.25879 32.4759 1.25557 32.5029 1.24222 32.5379C1.22887 32.5728 1.22565 32.5998 1.2123 32.6348C1.19896 32.6697 1.18453 32.7137 1.18024 32.7497C1.16689 32.7847 1.16367 32.8117 1.15032 32.8466C1.13697 32.8816 1.13375 32.9086 1.12041 32.9435C1.10705 32.9785 1.10384 33.0055 1.09049 33.0404C1.07714 33.0754 1.07392 33.1024 1.06057 33.1374C1.0483 33.1633 1.044 33.1993 1.03173 33.2253C1.01945 33.2512 1.01516 33.2872 1.00288 33.3132C0.99061 33.3391 0.986315 33.3751 0.97404 33.4011C0.961765 33.427 0.95747 33.463 0.945195 33.489C0.93292 33.5149 0.928625 33.551 0.91635 33.5769C0.904079 33.6028 0.899785 33.6389 0.88751 33.6648C0.875235 33.6907 0.87094 33.7268 0.858665 33.7527C0.84639 33.7786 0.842095 33.8147 0.829824 33.8406C0.817549 33.8666 0.813254 33.9026 0.810032 33.9296C0.797757 33.9555 0.794535 33.9826 0.79024 34.0186C0.777965 34.0445 0.774747 34.0716 0.770448 34.1076C0.758177 34.1335 0.754955 34.1606 0.75066 34.1966C0.738385 34.2225 0.735163 34.2495 0.731941 34.2766C0.71967 34.3025 0.716448 34.3295 0.713226 34.3565C0.710004 34.3836 0.697729 34.4095 0.69451 34.4365C0.691288 34.4635 0.679013 34.4895 0.675791 34.5165C0.672569 34.5435 0.660298 34.5695 0.657076 34.5965C0.653854 34.6235 0.641579 34.6495 0.638357 34.6765C0.635134 34.7035 0.622864 34.7294 0.619641 34.7564C0.606294 34.7914 0.600926 34.8364 0.587574 34.8714C0.584356 34.8984 0.572081 34.9243 0.568859 34.9514C0.565637 34.9784 0.553362 35.0043 0.550144 35.0313C0.546922 35.0584 0.534647 35.0843 0.531425 35.1113C0.528203 35.1384 0.515932 35.1643 0.513782 35.1823C0.51056 35.2093 0.498285 35.2353 0.49614 35.2533C0.492917 35.2803 0.481719 35.2972 0.478497 35.3242C0.475275 35.3513 0.464077 35.3682 0.460854 35.3952C0.457632 35.4223 0.44643 35.4392 0.443212 35.4662C0.43999 35.4932 0.428788 35.5101 0.425565 35.5372C0.422347 35.5642 0.411145 35.5811 0.407923 35.6081C0.404701 35.6352 0.393502 35.6521 0.390281 35.6791C0.387059 35.7061 0.375859 35.723 0.372638 35.7501C0.37049 35.7681 0.358216 35.794 0.356068 35.8121C0.353921 35.8301 0.341647 35.856 0.339499 35.874C0.337351 35.892 0.325078 35.918 0.32293 35.936C0.320782 35.954 0.308508 35.9799 0.30636 35.998C0.304213 36.016 0.300992 36.043 0.289791 36.0599C0.287644 36.0779 0.284422 36.105 0.273222 36.1219C0.271075 36.1399 0.268927 36.1579 0.256653 36.1838C0.254505 36.2019 0.252358 36.2199 0.240084 36.2458C0.237936 36.2638 0.235788 36.2819 0.224588 36.2988C0.22244 36.3168 0.220293 36.3348 0.209092 36.3518C0.206945 36.3698 0.204797 36.3878 0.193597 36.4047C0.191449 36.4227 0.189302 36.4407 0.178101 36.4577C0.175954 36.4757 0.173806 36.4937 0.162606 36.5107C0.160458 36.5287 0.158311 36.5467 0.156163 36.5647C0.154015 36.5827 0.151868 36.6007 0.14972 36.6187C0.147573 36.6367 0.145425 36.6547 0.143277 36.6727C0.14113 36.6908 0.138982 36.7088 0.137908 36.7178C0.135761 36.7358 0.133613 36.7538 0.13254 36.7628C0.130392 36.7808 0.129318 36.7898 0.12717 36.8078C0.122875 36.8439 0.108454 36.8878 0.104159 36.9239C0.102011 36.9419 0.100937 36.9509 0.0987895 36.9689C0.0966421 36.9869 0.0955682 36.9959 0.0934204 37.0139C0.0912729 37.0319 0.090199 37.041 0.0880516 37.059C0.0859038 37.077 0.0848302 37.086 0.0826824 37.104C0.0816089 37.113 0.0794611 37.131 0.0783876 37.14C0.0773137 37.149 0.0751662 37.167 0.0740923 37.1761C0.0730184 37.185 0.0708706 37.2031 0.0697967 37.2121C0.0687232 37.2211 0.0665753 37.2391 0.0655018 37.2481C0.0644279 37.2571 0.0622805 37.2751 0.0612066 37.2841C0.0601327 37.2931 0.0590591 37.3021 0.0569113 37.3201C0.0558378 37.3292 0.0547639 37.3382 0.0526165 37.3562C0.0515425 37.3652 0.0504686 37.3742 0.0493947 37.3832C0.0483208 37.3922 0.0472473 37.4012 0.0461734 37.4102C0.0450999 37.4192 0.0440256 37.4282 0.042952 37.4372C0.0418781 37.4463 0.0408046 37.4553 0.0397307 37.4643C0.0386568 37.4733 0.0375832 37.4823 0.0365094 37.4913C0.0354356 37.5003 0.0343616 37.5093 0.0332878 37.5183C0.032214 37.5273 0.0311404 37.5363 0.0311404 37.5363C0.0300666 37.5453 0.0289927 37.5543 0.0289927 37.5543C0.0279189 37.5633 0.0279187 37.5633 0.0268449 37.5724C0.0257711 37.5814 0.0257713 37.5814 0.0246975 37.5904C0.0236237 37.5994 0.0236236 37.5994 0.0225498 37.6084C0.021476 37.6174 0.0214762 37.6174 0.0204024 37.6264L0.0193286 37.6354L0.0182547 37.6444L0.0171808 37.6534L0.0161069 37.6624L0.0150334 37.6714C0.0150334 37.6714 0.0150334 37.6714 0.0139596 37.6804C0.00966439 37.7165 0.00429519 37.7615 0 37.7975L4.73455 38.362C4.73566 38.353 4.73566 38.353 4.73673 38.344C4.7378 38.335 4.7378 38.335 4.73887 38.326C4.73993 38.3169 4.741 38.308 4.741 38.308C4.74207 38.2989 4.74314 38.2899 4.74314 38.2899C4.74425 38.2809 4.74532 38.2719 4.74639 38.2629C4.74746 38.2539 4.74852 38.2449 4.74959 38.2359C4.75066 38.2269 4.75173 38.2179 4.75284 38.2089C4.75391 38.1999 4.75498 38.1909 4.75605 38.1818C4.75711 38.1729 4.75818 38.1638 4.75925 38.1548C4.76036 38.1458 4.76143 38.1368 4.7625 38.1278C4.76357 38.1188 4.76464 38.1098 4.7657 38.1008C4.76677 38.0918 4.76784 38.0828 4.77002 38.0648C4.77109 38.0558 4.77216 38.0467 4.77429 38.0287C4.77536 38.0197 4.77754 38.0017 4.77861 37.9927C4.77968 37.9837 4.78182 37.9657 4.78288 37.9567C4.78395 37.9477 4.78613 37.9297 4.7872 37.9207C4.78827 37.9116 4.7904 37.8936 4.79147 37.8846C4.79254 37.8756 4.79472 37.8576 4.79579 37.8486C4.79793 37.8306 4.79899 37.8216 4.80113 37.8036C4.80331 37.7856 4.80438 37.7765 4.80652 37.7585C4.80758 37.7495 4.80758 37.7495 4.80865 37.7405C4.81079 37.7225 4.8119 37.7135 4.81404 37.6955C4.81617 37.6775 4.81724 37.6685 4.81942 37.6504C4.82156 37.6324 4.82369 37.6144 4.82476 37.6054C4.8269 37.5874 4.82908 37.5694 4.83015 37.5604C4.83228 37.5424 4.83442 37.5244 4.8366 37.5063C4.83874 37.4883 4.84087 37.4703 4.84301 37.4523C4.84519 37.4343 4.84733 37.4163 4.85853 37.3993C4.86067 37.3813 4.8628 37.3633 4.87401 37.3464C4.87614 37.3284 4.87832 37.3104 4.88952 37.2934C4.89166 37.2754 4.8938 37.2574 4.905 37.2405C4.90714 37.2225 4.90931 37.2044 4.92052 37.1875C4.92265 37.1695 4.92479 37.1515 4.93599 37.1345C4.93813 37.1165 4.94031 37.0985 4.95151 37.0816C4.95365 37.0636 4.95579 37.0455 4.96806 37.0196C4.97019 37.0016 4.97237 36.9836 4.98464 36.9576C4.98678 36.9396 4.98892 36.9216 5.00119 36.8957C5.00337 36.8777 5.01564 36.8517 5.01777 36.8337C5.01991 36.8157 5.03218 36.7898 5.03432 36.7717C5.0365 36.7537 5.04877 36.7278 5.05091 36.7098C5.05304 36.6917 5.06531 36.6658 5.06749 36.6478C5.06963 36.6298 5.0819 36.6038 5.08404 36.5858C5.08618 36.5678 5.09849 36.5419 5.10062 36.5239C5.10276 36.5059 5.11503 36.4799 5.11717 36.4619C5.12042 36.4349 5.13162 36.4179 5.13482 36.3909C5.13803 36.3639 5.14923 36.347 5.15248 36.3199C5.15568 36.2929 5.16689 36.276 5.17013 36.249C5.17334 36.222 5.18454 36.205 5.18775 36.178C5.19099 36.151 5.2022 36.134 5.2054 36.107C5.20861 36.08 5.21981 36.0631 5.22306 36.036C5.22626 36.009 5.23746 35.9921 5.24067 35.9651C5.24178 35.9561 5.24285 35.9471 5.24499 35.929C5.24819 35.902 5.26046 35.8761 5.26264 35.8581C5.26585 35.831 5.27812 35.8051 5.28026 35.7871C5.2835 35.7601 5.29577 35.7341 5.29791 35.7161C5.30112 35.6891 5.31339 35.6632 5.31663 35.6361C5.31984 35.6091 5.33211 35.5832 5.33536 35.5562C5.33856 35.5291 5.35083 35.5032 5.35408 35.4762C5.35729 35.4492 5.36956 35.4232 5.37276 35.3962C5.37601 35.3692 5.38828 35.3432 5.39149 35.3162C5.39473 35.2892 5.407 35.2632 5.41021 35.2362C5.41342 35.2092 5.42573 35.1833 5.42893 35.1562C5.4412 35.1303 5.44441 35.1033 5.44766 35.0763C5.45993 35.0503 5.46313 35.0233 5.46638 34.9963C5.47865 34.9704 5.48186 34.9433 5.48506 34.9163C5.49737 34.8904 5.50058 34.8634 5.50379 34.8363C5.51606 34.8104 5.5193 34.7834 5.52251 34.7563C5.53478 34.7304 5.53803 34.7034 5.5503 34.6774C5.56257 34.6515 5.56577 34.6245 5.57805 34.5986C5.59032 34.5726 5.59356 34.5456 5.6069 34.5106C5.61917 34.4847 5.62238 34.4577 5.63576 34.4227C5.64803 34.3968 5.65124 34.3698 5.66458 34.3348C5.67685 34.3089 5.68009 34.2818 5.69343 34.2469C5.7057 34.221 5.70891 34.194 5.72229 34.159C5.73456 34.133 5.73777 34.106 5.75111 34.0711C5.75324 34.0531 5.76555 34.0272 5.76769 34.0091C5.77996 33.9832 5.78424 33.9472 5.79651 33.9212C5.80882 33.8953 5.81309 33.8592 5.82537 33.8333C5.83764 33.8074 5.84195 33.7713 5.85422 33.7454C5.86649 33.7195 5.87077 33.6834 5.88304 33.6575C5.89531 33.6316 5.89962 33.5955 5.9119 33.5696C5.92417 33.5436 5.92848 33.5076 5.94075 33.4817C5.95302 33.4557 5.9573 33.4197 5.96957 33.3938C5.98184 33.3678 5.98616 33.3318 5.99843 33.3059C6.0107 33.2799 6.01501 33.2439 6.02728 33.2179C6.03955 33.192 6.04383 33.156 6.0561 33.13C6.06837 33.1041 6.08175 33.0691 6.08496 33.0421C6.09723 33.0162 6.11057 32.9812 6.11381 32.9542C6.12608 32.9283 6.13942 32.8933 6.14263 32.8663C6.1549 32.8404 6.16828 32.8054 6.17256 32.7694C6.18483 32.7435 6.19817 32.7085 6.20248 32.6725C6.21582 32.6375 6.22809 32.6116 6.23241 32.5756C6.24575 32.5406 6.25802 32.5147 6.26233 32.4786C6.27567 32.4437 6.28794 32.4178 6.29222 32.3817C6.3056 32.3468 6.31787 32.3209 6.32214 32.2848C6.33441 32.2589 6.34669 32.2329 6.34993 32.2059C6.36327 32.171 6.37554 32.145 6.38888 32.1101C6.40222 32.0751 6.41449 32.0492 6.42787 32.0142C6.44121 31.9793 6.45348 31.9534 6.46682 31.9184C6.48016 31.8835 6.49243 31.8575 6.50581 31.8226C6.51915 31.7876 6.53142 31.7617 6.54476 31.7267C6.5581 31.6918 6.57037 31.6659 6.58375 31.6309C6.59709 31.596 6.60936 31.57 6.6227 31.5351C6.63604 31.5001 6.64831 31.4742 6.66169 31.4392C6.67503 31.4043 6.6873 31.3783 6.70064 31.3434C6.71398 31.3085 6.72626 31.2825 6.73963 31.2476C6.75297 31.2126 6.76525 31.1867 6.77859 31.1517C6.79193 31.1168 6.8042 31.0908 6.81758 31.0559C6.83092 31.0209 6.84319 30.995 6.85653 30.96C6.86987 30.9251 6.88214 30.8992 6.89552 30.8642C6.90886 30.8293 6.92113 30.8033 6.93447 30.7684C6.94674 30.7424 6.96008 30.7075 6.97235 30.6816C6.98573 30.6466 6.998 30.6206 7.01134 30.5857C7.02468 30.5508 7.03695 30.5248 7.05029 30.4899C7.06367 30.4549 7.07594 30.429 7.08928 30.394C7.10262 30.3591 7.11489 30.3331 7.12823 30.2982C7.14161 30.2632 7.15388 30.2373 7.16722 30.2024C7.18056 30.1674 7.19283 30.1415 7.20617 30.1065C7.21955 30.0716 7.23182 30.0456 7.24516 30.0107C7.2585 29.9757 7.27077 29.9498 7.28411 29.9149C7.29749 29.8799 7.30976 29.854 7.33213 29.8201C7.34551 29.7851 7.35778 29.7592 7.38018 29.7253C7.39352 29.6904 7.40579 29.6645 7.4282 29.6306C7.44154 29.5956 7.46287 29.5708 7.47621 29.5358C7.48955 29.5009 7.51089 29.476 7.52423 29.4411C7.53757 29.4061 7.5589 29.3813 7.57224 29.3463C7.58562 29.3114 7.60692 29.2865 7.6203 29.2516C7.63364 29.2166 7.65497 29.1917 7.66831 29.1568C7.68165 29.1218 7.70299 29.097 7.71633 29.062C7.72967 29.0271 7.751 29.0022 7.76434 28.9673C7.77768 28.9324 7.79902 28.9075 7.81236 28.8725C7.82574 28.8376 7.84703 28.8127 7.86041 28.7778C7.87375 28.7428 7.89505 28.718 7.90843 28.683C7.92177 28.6481 7.9431 28.6232 7.95644 28.5882C7.96978 28.5533 7.99112 28.5284 8.00446 28.4935C8.0178 28.4586 8.03913 28.4337 8.05247 28.3988C8.06581 28.3638 8.08715 28.3389 8.10049 28.304C8.1229 28.2701 8.13517 28.2442 8.14855 28.2092C8.17095 28.1753 8.18322 28.1494 8.19656 28.1145C8.21896 28.0806 8.23124 28.0547 8.24458 28.0197C8.26698 27.9859 8.27925 27.9599 8.29259 27.9249C8.315 27.8911 8.32727 27.8652 8.34061 27.8302C8.36301 27.7963 8.37528 27.7704 8.39769 27.7365C8.42009 27.7026 8.43236 27.6767 8.45477 27.6429C8.47717 27.609 8.48944 27.5831 8.51185 27.5492C8.53425 27.5153 8.54652 27.4894 8.56893 27.4555C8.59026 27.4306 8.6036 27.3957 8.62601 27.3618C8.64841 27.3279 8.66068 27.302 8.68309 27.2681C8.70438 27.2433 8.71776 27.2083 8.74017 27.1745C8.76146 27.1496 8.77484 27.1147 8.79614 27.0898C8.81747 27.0649 8.83081 27.03 8.85215 27.0051C8.87349 26.9803 8.88682 26.9453 8.90816 26.9205C8.9295 26.8956 8.94284 26.8606 8.96417 26.8358C8.98547 26.8109 8.99885 26.776 9.02014 26.7511C9.04148 26.7263 9.05482 26.6913 9.07615 26.6665C9.09749 26.6416 9.11989 26.6077 9.13217 26.5818C9.1535 26.5569 9.17591 26.523 9.18818 26.4971C9.20947 26.4722 9.23188 26.4384 9.24415 26.4124C9.26548 26.3875 9.28789 26.3537 9.30016 26.3278C9.3215 26.3029 9.3439 26.269 9.35617 26.2431C9.37751 26.2182 9.39991 26.1844 9.41218 26.1584C9.43348 26.1335 9.45588 26.0997 9.46815 26.0737C9.48949 26.0489 9.51189 26.015 9.52417 25.9891C9.5455 25.9642 9.56684 25.9393 9.58924 25.9055C9.61054 25.8806 9.63187 25.8558 9.65428 25.8219C9.67561 25.797 9.69802 25.7631 9.71931 25.7383C9.74065 25.7134 9.76199 25.6886 9.78439 25.6547C9.80573 25.6298 9.82702 25.605 9.84943 25.5711C9.87076 25.5463 9.8921 25.5214 9.9145 25.4875C9.93584 25.4627 9.95713 25.4378 9.97847 25.4129C9.99981 25.3881 10.0211 25.3632 10.0424 25.3383C10.0638 25.3135 10.0851 25.2886 10.1064 25.2638C10.1278 25.2389 10.1491 25.214 10.1704 25.1892C10.1917 25.1643 10.2131 25.1395 10.2344 25.1146C10.2456 25.0977 10.2659 25.0818 10.2771 25.0649C10.285 25.0749 10.3031 25.0771 10.3111 25.0872C10.3452 25.1095 10.3713 25.1218 10.4053 25.1441C10.4394 25.1664 10.4655 25.1787 10.4996 25.201C10.5336 25.2233 10.5597 25.2356 10.5938 25.2579C10.6278 25.2803 10.6539 25.2925 10.688 25.3148C10.722 25.3371 10.7481 25.3494 10.7822 25.3717C10.8162 25.3941 10.8593 25.4175 10.8945 25.4308C10.9286 25.4531 10.9546 25.4654 10.9898 25.4787C11.0249 25.492 11.0499 25.5133 11.085 25.5266C11.1202 25.5399 11.1452 25.5611 11.1804 25.5745C11.2155 25.5878 11.2405 25.6091 11.2756 25.6224C11.3107 25.6357 11.3358 25.657 11.3709 25.6703C11.4061 25.6836 11.431 25.7049 11.4662 25.7182C11.5003 25.7405 11.5444 25.7549 11.5876 25.7783C11.6227 25.7916 11.6567 25.814 11.6828 25.8262C11.718 25.8395 11.7521 25.8619 11.7781 25.8741C11.8133 25.8874 11.8473 25.9098 11.8734 25.922C11.9085 25.9353 11.9437 25.9487 11.9687 25.9699C12.0038 25.9832 12.039 25.9966 12.0651 26.0088C12.1002 26.0221 12.1353 26.0355 12.1614 26.0477C12.1966 26.0611 12.2317 26.0744 12.2578 26.0866C12.302 26.101 12.336 26.1233 12.3802 26.1377C12.4154 26.1511 12.4505 26.1644 12.4856 26.1777C12.5208 26.191 12.5559 26.2043 12.591 26.2177C12.6262 26.231 12.6613 26.2443 12.6965 26.2577C12.7316 26.271 12.7667 26.2843 12.8019 26.2976C12.837 26.3109 12.8721 26.3243 12.9073 26.3376C12.9424 26.3509 12.9775 26.3643 13.0127 26.3776C13.0569 26.392 13.092 26.4053 13.1362 26.4197C13.1713 26.433 13.2065 26.4464 13.2416 26.4597C13.2768 26.473 13.3119 26.4863 13.3481 26.4906C13.3832 26.504 13.4184 26.5173 13.4546 26.5216C13.4897 26.5349 13.5249 26.5483 13.5611 26.5526C13.5962 26.5659 13.6314 26.5792 13.6676 26.5835C13.7027 26.5969 13.7378 26.6102 13.7741 26.6145C13.8182 26.6289 13.8534 26.6422 13.8976 26.6566C13.9327 26.6699 13.9689 26.6742 14.004 26.6876C14.0392 26.7009 14.0754 26.7052 14.1105 26.7185C14.1457 26.7319 14.1819 26.7362 14.217 26.7495C14.2521 26.7628 14.2884 26.7672 14.3235 26.7805C14.3586 26.7938 14.3948 26.7981 14.43 26.8114C14.4651 26.8248 14.5013 26.8291 14.5365 26.8424C14.5807 26.8568 14.6259 26.8622 14.6701 26.8766C14.7053 26.8899 14.7414 26.8943 14.7777 26.8986C14.8128 26.9119 14.849 26.9162 14.8852 26.9205C14.9204 26.9338 14.9566 26.9382 14.9928 26.9425C15.029 26.9468 15.0641 26.9601 15.1004 26.9644C15.1366 26.9688 15.1717 26.9821 15.2079 26.9864C15.2441 26.9907 15.2793 27.0041 15.3155 27.0084C15.3597 27.0228 15.4049 27.0282 15.4502 27.0336C15.4864 27.0379 15.5215 27.0512 15.5577 27.0555C15.594 27.0598 15.6291 27.0732 15.6653 27.0775C15.7015 27.0818 15.7367 27.0951 15.7728 27.0994C15.8091 27.1037 15.8453 27.1081 15.8804 27.1214C15.9166 27.1257 15.9528 27.13 15.988 27.1434C16.0242 27.1477 16.0604 27.152 16.0966 27.1563C16.1419 27.1617 16.1871 27.1671 16.2324 27.1725C16.2596 27.1757 16.2957 27.1801 16.3229 27.1833C16.332 27.1844 16.332 27.1844 16.341 27.1854C16.3682 27.1887 16.3863 27.1909 16.4135 27.1941C16.4225 27.1952 16.4316 27.1962 16.4406 27.1973C16.4587 27.1995 16.4768 27.2016 16.504 27.2049C16.5221 27.207 16.5312 27.2081 16.5492 27.2103C16.5673 27.2124 16.5764 27.2135 16.5945 27.2157C16.6126 27.2178 16.6307 27.22 16.6488 27.2221C16.6579 27.2232 16.6669 27.2243 16.685 27.2264C16.7122 27.2297 16.7303 27.2319 16.7575 27.2351C16.7665 27.2362 16.7665 27.2362 16.7755 27.2372C16.8027 27.2405 16.8299 27.2437 16.857 27.2469C16.857 27.2469 16.857 27.2469 16.8661 27.2481C16.9114 27.2534 16.9566 27.2588 16.9928 27.2631C17.029 27.2675 17.0653 27.2718 17.1015 27.2761C17.1377 27.2804 17.1739 27.2847 17.2112 27.28C17.2474 27.2844 17.2836 27.2887 17.3118 27.2829C17.348 27.2872 17.3842 27.2916 17.4125 27.2858C17.4487 27.2901 17.4849 27.2944 17.5131 27.2886C17.5584 27.2941 17.6047 27.2905 17.65 27.2958C17.6862 27.3001 17.7235 27.2954 17.7507 27.2987C17.7869 27.303 17.8241 27.2983 17.8513 27.3016C17.8875 27.3059 17.9248 27.3012 17.9519 27.3044C17.9882 27.3087 18.0254 27.3041 18.0526 27.3073C18.0888 27.3116 18.1261 27.3069 18.1533 27.3102C18.1985 27.3155 18.2449 27.3119 18.2912 27.3083C18.3274 27.3127 18.3647 27.3079 18.3929 27.3022C18.4291 27.3065 18.4664 27.3018 18.4946 27.296C18.5309 27.3003 18.5681 27.2957 18.5964 27.2899C18.6337 27.2852 18.6608 27.2885 18.6981 27.2838C18.7354 27.2791 18.7625 27.2823 18.7998 27.2776C18.8462 27.274 18.8925 27.2704 18.9388 27.2668C18.9761 27.2621 19.0033 27.2654 19.0406 27.2606C19.0779 27.256 19.105 27.2592 19.1423 27.2545C19.1796 27.2498 19.2067 27.253 19.244 27.2484C19.2813 27.2437 19.3095 27.2379 19.3458 27.2422C19.3921 27.2386 19.4384 27.235 19.4757 27.2303C19.513 27.2256 19.5412 27.2199 19.5785 27.2152C19.6158 27.2105 19.644 27.2047 19.6813 27.2C19.7186 27.1953 19.7468 27.1896 19.7841 27.1849C19.8214 27.1802 19.8496 27.1744 19.8869 27.1697C19.9333 27.1661 19.9807 27.1535 20.0179 27.1488C20.0552 27.1441 20.0835 27.1383 20.1207 27.1337C20.158 27.129 20.1863 27.1232 20.2235 27.1185C20.2608 27.1138 20.2891 27.108 20.3263 27.1034C20.3636 27.0987 20.3919 27.0929 20.4292 27.0882C20.4755 27.0846 20.5138 27.0709 20.5613 27.0583C20.5986 27.0536 20.6268 27.0478 20.6651 27.0341C20.7024 27.0294 20.7306 27.0237 20.769 27.01C20.8063 27.0053 20.8356 26.9905 20.8638 26.9847C20.9011 26.9801 20.9304 26.9653 20.9587 26.9595C21.0061 26.9469 21.0444 26.9332 21.0919 26.9206C21.1302 26.9069 21.1675 26.9022 21.2059 26.8885C21.2532 26.8759 21.3007 26.8633 21.3481 26.8506C21.3955 26.838 21.4429 26.8254 21.4914 26.8038C21.5388 26.7912 21.5862 26.7786 21.6347 26.7569C21.6821 26.7443 21.7306 26.7227 21.778 26.7101C21.8254 26.6974 21.8739 26.6758 21.9213 26.6632C21.9687 26.6506 22.0172 26.629 22.0556 26.6153C22.103 26.6027 22.1515 26.581 22.1898 26.5673C22.2372 26.5547 22.2766 26.532 22.3241 26.5194C22.3715 26.5068 22.4109 26.4841 22.4493 26.4704C22.4967 26.4578 22.5361 26.4351 22.5846 26.4134C22.623 26.3997 22.6714 26.3781 22.7109 26.3554C22.7492 26.3417 22.7977 26.3201 22.8371 26.2974C22.8755 26.2837 22.9149 26.261 22.9544 26.2383C23.0028 26.2167 23.0423 26.194 23.0817 26.1713C23.1212 26.1486 23.1595 26.1349 23.1989 26.1122C23.2384 26.0895 23.2767 26.0758 23.3162 26.0531C23.3556 26.0304 23.4041 26.0087 23.4435 25.986C23.483 25.9633 23.5122 25.9486 23.5517 25.9258C23.5911 25.9032 23.6204 25.8884 23.6599 25.8657C23.6993 25.8429 23.7398 25.8112 23.7883 25.7896C23.8187 25.7658 23.857 25.7521 23.8874 25.7284C23.9178 25.7046 23.9572 25.6819 23.9865 25.6671C24.0259 25.6444 24.0665 25.6127 24.107 25.581C24.1374 25.5572 24.1677 25.5334 24.1981 25.5096C24.2386 25.4779 24.278 25.4552 24.3185 25.4235C24.3489 25.3997 24.3793 25.3759 24.4097 25.3522C24.4401 25.3284 24.4705 25.3046 24.5008 25.2808C24.5413 25.2491 24.5728 25.2163 24.6133 25.1846C24.6437 25.1608 24.665 25.136 24.6954 25.1122C24.7359 25.0805 24.7673 25.0477 24.8078 25.016C24.8382 24.9922 24.8595 24.9674 24.8809 24.9425C24.9123 24.9097 24.9528 24.878 24.9854 24.8362C25.0067 24.8113 25.0371 24.7875 25.0584 24.7627C25.0797 24.7378 25.1101 24.714 25.1314 24.6892C25.1629 24.6564 25.1954 24.6146 25.2269 24.5818C25.2482 24.5569 25.2695 24.5321 25.2908 24.5072C25.3223 24.4744 25.3548 24.4326 25.3873 24.3908C25.4087 24.366 25.43 24.3411 25.4513 24.3162C25.4838 24.2744 25.5063 24.2406 25.5388 24.1988C25.5601 24.1739 25.5724 24.148 25.5937 24.1231C25.6262 24.0813 25.6497 24.0384 25.6822 23.9966C25.7057 23.9538 25.7372 23.921 25.7607 23.8781C25.7942 23.8273 25.8278 23.7765 25.8524 23.7246C25.886 23.6738 25.9105 23.6219 25.9362 23.5611C25.9596 23.5182 25.9842 23.4663 26.0087 23.4144C26.0333 23.3625 26.0578 23.3106 26.0835 23.2498C26.108 23.1979 26.1336 23.137 26.1491 23.084C26.1726 23.0412 26.1881 22.9882 26.2036 22.9352C26.2281 22.8833 26.2447 22.8214 26.2602 22.7684C26.2757 22.7155 26.3013 22.6546 26.3077 22.6005C26.3222 22.5566 26.3377 22.5036 26.3441 22.4496C26.3596 22.3966 26.3762 22.3347 26.3837 22.2716C26.4003 22.2096 26.4067 22.1556 26.4233 22.0936C26.4286 22.0486 26.4441 21.9956 26.4495 21.9506C26.4549 21.9056 26.4592 21.8696 26.4645 21.8245C26.4667 21.8065 26.4689 21.7885 26.471 21.7705C26.4721 21.7615 26.4742 21.7434 26.4753 21.7345C26.4806 21.6894 26.4871 21.6354 26.4834 21.5893C26.4888 21.5442 26.4952 21.4902 26.4915 21.4441C26.4991 21.381 26.4964 21.3259 26.4949 21.2618C26.4934 21.1977 26.4998 21.1436 26.4972 21.0885C26.4935 21.0424 26.5 20.9883 26.4963 20.9422C26.4937 20.8871 26.4921 20.823 26.4805 20.7668C26.4779 20.7116 26.4673 20.6465 26.4647 20.5913C26.461 20.5452 26.4573 20.4991 26.4445 20.4519C26.4329 20.3957 26.4303 20.3406 26.4186 20.2844C26.4069 20.2282 26.3953 20.172 26.3836 20.1158C26.3709 20.0686 26.3672 20.0225 26.3545 19.9753C26.3428 19.9191 26.3311 19.8629 26.3104 19.8056C26.2988 19.7494 26.2781 19.6921 26.2563 19.6439C26.2435 19.5967 26.2308 19.5495 26.208 19.5102C26.1872 19.453 26.1654 19.4047 26.1447 19.3474C26.124 19.2901 26.1022 19.2419 26.0815 19.1846C26.0597 19.1363 26.0459 19.0981 26.0241 19.0498C26.0023 19.0016 25.9725 18.9432 25.9508 18.8949C25.929 18.8467 25.8992 18.7883 25.8684 18.7389C25.8455 18.6997 25.8237 18.6514 25.7918 18.6111C25.7609 18.5617 25.7301 18.5124 25.6993 18.463C25.6684 18.4137 25.6376 18.3643 25.6068 18.315C25.5839 18.2757 25.552 18.2354 25.5201 18.195C25.4892 18.1457 25.4482 18.1043 25.4174 18.0549C25.3865 18.0055 25.3456 17.9641 25.3046 17.9227C25.2727 17.8823 25.2397 17.851 25.2078 17.8107C25.1668 17.7693 25.1258 17.7278 25.0849 17.6864C25.0439 17.645 25.0029 17.6036 24.962 17.5622C24.929 17.5308 24.888 17.4894 24.8551 17.458C24.8141 17.4166 24.764 17.3741 24.722 17.3417C24.681 17.3003 24.6299 17.2668 24.589 17.2253C24.548 17.1839 24.4969 17.1504 24.4458 17.117C24.4038 17.0845 24.3617 17.0521 24.3186 17.0287C24.2675 16.9952 24.2164 16.9617 24.1744 16.9293C24.1233 16.8958 24.0722 16.8623 24.02 16.8378C23.9769 16.8144 23.9349 16.782 23.8827 16.7575C23.8316 16.724 23.7794 16.6995 23.7273 16.675C23.6751 16.6505 23.624 16.617 23.5628 16.5915C23.5197 16.568 23.4675 16.5436 23.4142 16.5281C23.3621 16.5036 23.3009 16.478 23.2476 16.4626C23.1955 16.438 23.1332 16.4215 23.0719 16.3959C23.0187 16.3805 22.9665 16.356 22.9223 16.3415C22.86 16.325 22.8068 16.3095 22.7445 16.2929C22.6822 16.2764 22.629 16.2609 22.5667 16.2443C22.5134 16.2288 22.4682 16.2235 22.4149 16.208C22.3707 16.1936 22.3255 16.1882 22.2711 16.1817C22.253 16.1795 22.235 16.1774 22.2168 16.1752C22.1987 16.1731 22.1806 16.1709 22.1625 16.1688C22.1444 16.1666 22.1263 16.1644 22.0991 16.1612C22.0811 16.159 22.0629 16.1569 22.0358 16.1536C22.0177 16.1515 21.9996 16.1493 21.9724 16.1461C21.9543 16.1439 21.9272 16.1407 21.9091 16.1385C21.8909 16.1364 21.8638 16.1331 21.8457 16.131C21.8276 16.1288 21.8004 16.1256 21.7823 16.1234C21.7642 16.1213 21.737 16.118 21.7189 16.1159C21.6737 16.1105 21.6375 16.1061 21.5922 16.1008C21.5741 16.0986 21.556 16.0964 21.5379 16.0943L21.5288 16.0932C21.5107 16.0911 21.4926 16.0889 21.4745 16.0867L21.4654 16.0856C21.4474 16.0835 21.4383 16.0824 21.4202 16.0802C21.4111 16.0792 21.4111 16.0792 21.4021 16.0781C21.393 16.077 21.3749 16.0749 21.3659 16.0738C21.3568 16.0727 21.3478 16.0716 21.3387 16.0705C21.3297 16.0694 21.3206 16.0684 21.3025 16.0662C21.2844 16.0641 21.2844 16.0641 21.2663 16.0619C21.2572 16.0608 21.2482 16.0597 21.2391 16.0587C21.2211 16.0565 21.212 16.0554 21.1939 16.0533C21.1848 16.0522 21.1758 16.0511 21.1758 16.0511C21.1577 16.0489 21.1395 16.0468 21.1305 16.0457C21.1215 16.0446 21.1215 16.0446 21.1124 16.0436C21.0943 16.0414 21.0762 16.0392 21.0581 16.0371C21.0581 16.0371 21.0581 16.0371 21.049 16.036C21.0038 16.0306 20.9676 16.0263 20.9223 16.0209C20.8952 16.0176 20.877 16.0155 20.8499 16.0122C20.8227 16.009 20.8046 16.0069 20.7774 16.0036C20.7503 16.0004 20.7322 15.9982 20.705 15.995C20.6779 15.9917 20.6598 15.9896 20.6326 15.9864C20.6054 15.9831 20.5874 15.9809 20.5602 15.9777C20.533 15.9745 20.5059 15.9712 20.4878 15.9691C20.4606 15.9659 20.4335 15.9626 20.4143 15.9695C20.369 15.9641 20.3227 15.9677 20.2865 15.9634C20.2593 15.9601 20.2321 15.9569 20.213 15.9637C20.1858 15.9605 20.1587 15.9573 20.1304 15.963C20.1032 15.9598 20.0761 15.9566 20.0479 15.9623C20.0207 15.9591 19.9925 15.9648 19.9653 15.9616C19.9382 15.9584 19.9099 15.9642 19.8828 15.9609C19.8556 15.9577 19.8274 15.9634 19.8002 15.9602C19.7731 15.9569 19.7449 15.9627 19.7177 15.9595C19.6724 15.9541 19.6351 15.9588 19.5888 15.9624C19.5616 15.9592 19.5334 15.9649 19.5062 15.9617C19.4791 15.9584 19.4509 15.9642 19.4237 15.961C19.3966 15.9577 19.3683 15.9635 19.3411 15.9603C19.314 15.957 19.2858 15.9628 19.2586 15.9596C19.2314 15.9563 19.2032 15.9621 19.175 15.9679C19.1478 15.9646 19.1196 15.9704 19.0823 15.9751C19.0551 15.9718 19.0269 15.9776 18.9896 15.9823C18.9433 15.9859 18.906 15.9906 18.8597 15.9942C18.8315 16 18.7952 15.9957 18.767 16.0014C18.7387 16.0072 18.7026 16.0029 18.6743 16.0086C18.6461 16.0144 18.6099 16.0101 18.5816 16.0159C18.5534 16.0216 18.5172 16.0173 18.489 16.0231C18.4607 16.0289 18.4245 16.0246 18.3963 16.0303C18.368 16.0361 18.3319 16.0318 18.3036 16.0375C18.2573 16.0411 18.22 16.0458 18.1736 16.0495C18.1454 16.0552 18.1081 16.0599 18.081 16.0567C18.0528 16.0624 18.0155 16.0671 17.9872 16.0729C17.95 16.0776 17.9217 16.0833 17.8935 16.0891C17.8562 16.0938 17.828 16.0996 17.7907 16.1043C17.7534 16.1089 17.7252 16.1147 17.6879 16.1194C17.6506 16.1241 17.6224 16.1299 17.5851 16.1346C17.5388 16.1382 17.5015 16.1429 17.4541 16.1555C17.4168 16.1602 17.3885 16.1659 17.3513 16.1706C17.314 16.1753 17.2857 16.1811 17.2485 16.1858C17.2112 16.1905 17.1829 16.1962 17.1457 16.2009C17.1084 16.2056 17.0801 16.2114 17.0429 16.2161C17.0056 16.2208 16.9773 16.2265 16.939 16.2402C16.9017 16.2449 16.8644 16.2496 16.8351 16.2644C16.7888 16.268 16.7504 16.2817 16.703 16.2943C16.6657 16.299 16.6273 16.3127 16.5991 16.3185C16.5618 16.3231 16.5235 16.3368 16.4952 16.3426C16.458 16.3473 16.4196 16.361 16.3823 16.3657C16.345 16.3704 16.3067 16.3841 16.2694 16.3888C16.2321 16.3934 16.1937 16.4071 16.1565 16.4118C16.1192 16.4165 16.0808 16.4302 16.0435 16.4349C16.0062 16.4396 15.9679 16.4533 15.9295 16.467C15.8912 16.4807 15.8448 16.4843 15.8065 16.498C15.7681 16.5117 15.7308 16.5164 15.6925 16.5301C15.6541 16.5438 15.6168 16.5485 15.5785 16.5622C15.5401 16.5759 15.5028 16.5806 15.4645 16.5942C15.4261 16.6079 15.3888 16.6127 15.3505 16.6263C15.3121 16.64 15.2748 16.6447 15.2365 16.6584C15.1981 16.6721 15.1597 16.6858 15.1225 16.6905C15.0841 16.7042 15.0457 16.7179 14.9983 16.7305C14.96 16.7442 14.9126 16.7568 14.8742 16.7705C14.8359 16.7842 14.7975 16.7979 14.7501 16.8105C14.7117 16.8242 14.6643 16.8369 14.6259 16.8506C14.5876 16.8642 14.5402 16.8768 14.5018 16.8905C14.4634 16.9042 14.4161 16.9169 14.3777 16.9306C14.3394 16.9442 14.2919 16.9569 14.2536 16.9706C14.2152 16.9843 14.1678 16.9969 14.1284 17.0196C14.09 17.0333 14.0426 17.0459 14.0032 17.0686C13.9648 17.0823 13.9174 17.0949 13.878 17.1176C13.8396 17.1313 13.7911 17.1529 13.7528 17.1666C13.7053 17.1793 13.6659 17.2019 13.6276 17.2156C13.5801 17.2283 13.5407 17.251 13.5023 17.2647C13.4549 17.2773 13.4155 17.3 13.3681 17.3126C13.3207 17.3252 13.2813 17.3479 13.2328 17.3695C13.1854 17.3822 13.1459 17.4048 13.0974 17.4265C13.05 17.4391 13.0106 17.4618 12.9621 17.4834C12.9238 17.4971 12.8753 17.5188 12.8358 17.5414C12.7884 17.5541 12.749 17.5768 12.7096 17.5995C12.6611 17.6211 12.6227 17.6348 12.5742 17.6564C12.5257 17.6781 12.4874 17.6918 12.4389 17.7134C12.3904 17.735 12.3419 17.7566 12.3025 17.7793C12.254 17.8009 12.2055 17.8226 12.1661 17.8453C12.1176 17.8669 12.0691 17.8885 12.0297 17.9112C11.9812 17.9329 11.9327 17.9545 11.8933 17.9772C11.8448 17.9988 11.8054 18.0215 11.7569 18.0431C11.7084 18.0647 11.669 18.0874 11.6205 18.1091C11.572 18.1307 11.5326 18.1534 11.4841 18.175C11.4356 18.1966 11.3871 18.2183 11.3477 18.241C11.3083 18.2637 11.2598 18.2853 11.2203 18.308C11.1809 18.3307 11.1324 18.3523 11.093 18.375C11.0536 18.3977 11.0141 18.4205 10.9657 18.4421C10.9262 18.4647 10.8868 18.4875 10.8473 18.5102C10.8079 18.5329 10.7685 18.5556 10.7291 18.5783C10.6896 18.601 10.6502 18.6237 10.6107 18.6464C10.5713 18.6691 10.5319 18.6918 10.4925 18.7145C10.453 18.7372 10.4136 18.7599 10.3742 18.7826C10.3347 18.8053 10.3043 18.8291 10.2649 18.8518L10.2569 18.8417C10.2489 18.8316 10.241 18.8216 10.2341 18.8024C10.2181 18.7823 10.2022 18.7621 10.1952 18.743C10.1793 18.7228 10.1724 18.7038 10.1564 18.6836C10.1405 18.6634 10.1336 18.6443 10.1176 18.6241C10.1017 18.604 10.0947 18.5849 10.0788 18.5647C10.0708 18.5546 10.0628 18.5445 10.0559 18.5254C10.04 18.5053 10.0331 18.4862 10.0171 18.466C10.0012 18.4458 9.99422 18.4267 9.97827 18.4066C9.96232 18.3864 9.95543 18.3673 9.93948 18.3471C9.92349 18.327 9.9166 18.3079 9.90065 18.2877C9.89265 18.2776 9.8847 18.2675 9.87777 18.2484C9.87088 18.2293 9.85493 18.2092 9.83898 18.189C9.83205 18.1699 9.8161 18.1497 9.80917 18.1306C9.80228 18.1115 9.78633 18.0913 9.7794 18.0723C9.77145 18.0622 9.76345 18.0521 9.75656 18.033C9.74964 18.0139 9.73368 17.9937 9.7268 17.9747C9.71987 17.9555 9.70392 17.9354 9.69703 17.9163C9.6901 17.8972 9.67415 17.877 9.66726 17.8579C9.65927 17.8478 9.65131 17.8378 9.65345 17.8198C9.64652 17.8006 9.63057 17.7805 9.62368 17.7614C9.61675 17.7423 9.60987 17.7232 9.59391 17.703C9.58699 17.684 9.5801 17.6648 9.56415 17.6447C9.55615 17.6346 9.55722 17.6256 9.55033 17.6065C9.54344 17.5874 9.53652 17.5683 9.52056 17.5481C9.51368 17.529 9.50675 17.5099 9.49986 17.4909C9.49293 17.4717 9.48605 17.4527 9.47912 17.4336C9.47116 17.4235 9.47223 17.4145 9.4653 17.3954C9.45842 17.3763 9.45153 17.3572 9.4446 17.3381C9.43771 17.319 9.43079 17.2999 9.4239 17.2808C9.41697 17.2618 9.41008 17.2426 9.40316 17.2236C9.3952 17.2135 9.39627 17.2045 9.38938 17.1854C9.38245 17.1663 9.37557 17.1472 9.36864 17.1281C9.36175 17.109 9.35483 17.0899 9.34794 17.0708C9.34101 17.0517 9.33412 17.0326 9.3283 17.0045C9.32937 16.9955 9.32138 16.9854 9.32351 16.9674C9.31663 16.9483 9.30974 16.9292 9.30388 16.9011C9.29699 16.8821 9.29007 16.8629 9.29331 16.8359C9.28638 16.8168 9.28856 16.7988 9.2827 16.7707C9.28377 16.7617 9.27582 16.7516 9.27795 16.7336C9.27107 16.7145 9.2732 16.6965 9.26738 16.6684C9.26046 16.6493 9.2626 16.6313 9.25678 16.6032C9.25784 16.5942 9.24989 16.5841 9.25203 16.5661C9.2451 16.547 9.24835 16.52 9.24142 16.5009C9.23453 16.4818 9.23774 16.4548 9.23085 16.4357C9.22392 16.4166 9.22717 16.3896 9.22024 16.3705C9.22135 16.3615 9.21335 16.3514 9.21549 16.3334C9.21763 16.3154 9.21181 16.2873 9.20492 16.2682C9.20706 16.2501 9.20013 16.2311 9.20231 16.2131C9.20445 16.195 9.19756 16.176 9.19863 16.1669C9.1997 16.1579 9.20076 16.1489 9.19277 16.1388C9.19495 16.1208 9.18695 16.1107 9.18909 16.0927C9.19127 16.0747 9.19233 16.0657 9.18541 16.0466C9.18758 16.0286 9.18865 16.0196 9.18172 16.0005C9.18386 15.9825 9.18497 15.9735 9.17804 15.9544C9.17911 15.9454 9.18018 15.9364 9.18129 15.9274C9.18343 15.9094 9.1845 15.9003 9.17757 15.8813C9.17975 15.8633 9.18081 15.8542 9.18295 15.8362C9.18509 15.8182 9.18616 15.8092 9.18834 15.7912C9.1894 15.7822 9.19154 15.7642 9.19261 15.7551C9.19368 15.7462 9.19475 15.7371 9.19586 15.7282C9.19799 15.7101 9.19906 15.7011 9.2012 15.6831C9.20338 15.6651 9.20445 15.6561 9.20658 15.6381C9.20872 15.62 9.20979 15.6111 9.21197 15.5931C9.21304 15.584 9.21304 15.584 9.2141 15.575C9.2141 15.575 9.2141 15.575 9.21517 15.566C9.21624 15.557 9.21838 15.539 9.21945 15.53C9.22056 15.521 9.22056 15.521 9.22163 15.512C9.22269 15.503 9.22376 15.494 9.22483 15.4849C9.2259 15.476 9.22697 15.4669 9.22804 15.458C9.22915 15.4489 9.22915 15.4489 9.23022 15.4399C9.23128 15.4309 9.23342 15.4129 9.23449 15.4039C9.23556 15.3949 9.23556 15.3949 9.23663 15.3859C9.2388 15.3679 9.23987 15.3589 9.24201 15.3409C9.24415 15.3229 9.24522 15.3138 9.2474 15.2958C9.24953 15.2778 9.2506 15.2688 9.25274 15.2508C9.25381 15.2418 9.25381 15.2418 9.25492 15.2328C9.25598 15.2238 9.25812 15.2058 9.25919 15.1967C9.26133 15.1787 9.2624 15.1697 9.26457 15.1517C9.26671 15.1337 9.26778 15.1247 9.27898 15.1078C9.28112 15.0897 9.28219 15.0807 9.29339 15.0638C9.2945 15.0548 9.29557 15.0458 9.29557 15.0458C9.29771 15.0278 9.29877 15.0188 9.30998 15.0018C9.31211 14.9838 9.31318 14.9748 9.32439 14.9579C9.32656 14.9399 9.33666 14.9319 9.33883 14.9139C9.3399 14.9049 9.34097 14.8959 9.34204 14.8869C9.34311 14.8779 9.35431 14.8609 9.35538 14.852C9.35756 14.834 9.36765 14.826 9.36983 14.808C9.37197 14.79 9.3821 14.7821 9.38424 14.764C9.38637 14.746 9.39651 14.7381 9.39865 14.7201C9.39971 14.7111 9.40082 14.7021 9.40985 14.7032C9.41198 14.6852 9.42212 14.6772 9.4243 14.6592C9.42643 14.6412 9.43657 14.6333 9.4387 14.6152C9.44084 14.5972 9.45097 14.5893 9.45311 14.5713C9.45418 14.5623 9.46538 14.5453 9.46645 14.5364C9.46756 14.5273 9.47765 14.5194 9.47872 14.5104C9.4809 14.4924 9.49103 14.4845 9.49317 14.4665C9.49531 14.4484 9.50544 14.4405 9.50758 14.4225C9.51878 14.4056 9.51985 14.3965 9.53105 14.3796C9.53212 14.3706 9.54226 14.3627 9.54332 14.3537C9.55346 14.3458 9.5556 14.3278 9.55666 14.3187C9.56787 14.3018 9.56897 14.2928 9.58014 14.2759C9.59134 14.2589 9.59245 14.2499 9.60365 14.233C9.61481 14.216 9.61592 14.2071 9.62712 14.1901C9.62819 14.1811 9.63829 14.1732 9.63939 14.1642C9.6506 14.1472 9.65166 14.1382 9.66287 14.1213C9.67407 14.1043 9.67514 14.0954 9.68634 14.0784C9.69754 14.0615 9.69861 14.0525 9.70981 14.0355C9.72102 14.0186 9.72208 14.0096 9.73329 13.9927C9.73436 13.9836 9.74449 13.9757 9.74556 13.9667C9.75676 13.9498 9.75783 13.9408 9.76903 13.9238C9.78023 13.9069 9.7813 13.8979 9.79251 13.881C9.80371 13.864 9.81384 13.8561 9.81598 13.8381C9.82718 13.8212 9.83731 13.8132 9.83945 13.7952C9.84959 13.7873 9.85065 13.7783 9.86186 13.7613C9.87306 13.7444 9.88319 13.7365 9.88533 13.7185C9.89653 13.7015 9.90666 13.6936 9.9088 13.6756C9.92 13.6587 9.93014 13.6507 9.94134 13.6338C9.95254 13.6169 9.96264 13.6089 9.97384 13.592C9.98397 13.5841 9.99517 13.5671 9.99624 13.5582C10.0064 13.5502 10.0176 13.5333 10.0277 13.5253C10.0389 13.5084 10.049 13.5005 10.0603 13.4835C10.0715 13.4666 10.0815 13.4587 10.0927 13.4418C10.104 13.4248 10.1141 13.4169 10.1253 13.4C10.1354 13.392 10.1466 13.3751 10.1568 13.3672C10.1669 13.3593 10.1781 13.3423 10.1882 13.3344C10.1994 13.3175 10.2095 13.3095 10.2207 13.2926C10.2319 13.2757 10.2421 13.2677 10.2533 13.2508C10.2645 13.2339 10.2746 13.2259 10.2858 13.209C10.297 13.1921 10.3071 13.1841 10.3183 13.1672C10.3284 13.1593 10.3396 13.1423 10.3498 13.1344C10.3599 13.1265 10.3711 13.1096 10.3812 13.1016C10.3924 13.0847 10.4025 13.0768 10.4137 13.0598C10.4249 13.0429 10.4351 13.035 10.4463 13.018C10.4575 13.0011 10.4676 12.9932 10.4788 12.9762C10.49 12.9593 10.5001 12.9514 10.5204 12.9355C10.5316 12.9186 10.5417 12.9107 10.5619 12.8948C10.5721 12.8869 10.5833 12.87 10.6035 12.8541C10.6147 12.8372 10.6249 12.8292 10.6451 12.8134C10.6563 12.7964 10.6755 12.7896 10.6867 12.7727C10.6979 12.7557 10.7171 12.7489 10.7283 12.732C10.7395 12.715 10.7587 12.7082 10.7698 12.6912C10.781 12.6743 10.8002 12.6674 10.8114 12.6505C10.8216 12.6426 10.8418 12.6267 10.853 12.6098C10.8631 12.6019 10.8834 12.586 10.8946 12.5691C10.9047 12.5612 10.925 12.5453 10.9362 12.5283C10.9463 12.5204 10.9666 12.5046 10.9778 12.4877C10.9879 12.4797 11.0081 12.4639 11.0193 12.4469C11.0305 12.43 11.0497 12.4231 11.0609 12.4062C11.071 12.3983 11.0913 12.3824 11.1025 12.3655C11.1025 12.3655 11.1025 12.3655 11.1126 12.3576C11.1227 12.3496 11.143 12.3338 11.1542 12.3168C11.1734 12.31 11.1846 12.2931 11.1958 12.2761C11.215 12.2693 11.2262 12.2524 11.2374 12.2354C11.2565 12.2286 11.2677 12.2116 11.288 12.1958C11.3072 12.189 11.3184 12.172 11.3375 12.1652C11.3567 12.1583 11.3679 12.1414 11.3871 12.1345C11.4063 12.1277 11.4175 12.1107 11.4367 12.1039L11.4468 12.096C11.466 12.0891 11.4772 12.0722 11.4974 12.0563C11.5166 12.0495 11.5278 12.0326 11.547 12.0257C11.5661 12.0189 11.5773 12.0019 11.5965 11.9951C11.6157 11.9882 11.6269 11.9713 11.6461 11.9644C11.6653 11.9576 11.6765 11.9406 11.6957 11.9338C11.7148 11.9269 11.726 11.91 11.7452 11.9032C11.7644 11.8963 11.7756 11.8794 11.7948 11.8726C11.8139 11.8657 11.8251 11.8488 11.8443 11.8419L11.8545 11.834C11.8736 11.8272 11.8848 11.8102 11.904 11.8034C11.9232 11.7965 11.9435 11.7806 11.9536 11.7727C11.9727 11.7659 11.993 11.75 12.0031 11.7421C12.0223 11.7352 12.0426 11.7194 12.0527 11.7115C12.0719 11.7046 12.0921 11.6888 12.1023 11.6808C12.1214 11.674 12.1417 11.6581 12.1518 11.6502C12.171 11.6434 12.1912 11.6275 12.2104 11.6206C12.2296 11.6138 12.2499 11.598 12.269 11.5911C12.2792 11.5832 12.2792 11.5832 12.2893 11.5752C12.3085 11.5684 12.3287 11.5525 12.3479 11.5457C12.3671 11.5388 12.3873 11.523 12.4065 11.5161C12.4257 11.5093 12.4459 11.4934 12.4651 11.4866C12.4843 11.4797 12.5046 11.4639 12.5237 11.457C12.5429 11.4502 12.5632 11.4343 12.5823 11.4275C12.6015 11.4206 12.6218 11.4048 12.641 11.3979C12.6601 11.3911 12.6804 11.3752 12.6996 11.3684C12.7187 11.3615 12.739 11.3457 12.7582 11.3389C12.7774 11.332 12.7976 11.3161 12.8168 11.3093C12.8269 11.3014 12.836 11.3024 12.8461 11.2945C12.8653 11.2877 12.8855 11.2718 12.9047 11.2649C12.9239 11.2581 12.9441 11.2423 12.9633 11.2354C12.9825 11.2286 13.0028 11.2127 13.0219 11.2058C13.0411 11.199 13.0614 11.1832 13.0805 11.1763C13.0997 11.1695 13.12 11.1536 13.1392 11.1467C13.1583 11.1399 13.1786 11.1241 13.1978 11.1172C13.2169 11.1104 13.2372 11.0945 13.2564 11.0877C13.2756 11.0808 13.2958 11.0649 13.324 11.0592C13.3432 11.0523 13.3635 11.0365 13.3917 11.0307C13.4109 11.0238 13.4311 11.008 13.4594 11.0022C13.4695 10.9943 13.4786 10.9954 13.4887 10.9875C13.5079 10.9806 13.5371 10.9659 13.5563 10.959C13.5755 10.9522 13.6048 10.9373 13.624 10.9305C13.6432 10.9237 13.6725 10.9089 13.6917 10.902C13.7108 10.8952 13.7402 10.8804 13.7593 10.8736C13.7785 10.8667 13.8078 10.8519 13.827 10.8451C13.8462 10.8382 13.8755 10.8235 13.8947 10.8166C13.9138 10.8098 13.9432 10.795 13.9623 10.7882C13.9815 10.7813 14.0108 10.7665 14.03 10.7597C14.0492 10.7528 14.0785 10.738 14.0977 10.7312C14.1168 10.7243 14.1461 10.7096 14.1653 10.7027C14.1754 10.6948 14.1946 10.688 14.2037 10.689C14.2229 10.6822 14.2521 10.6674 14.2713 10.6606C14.2905 10.6537 14.3198 10.639 14.339 10.6321C14.3582 10.6252 14.3875 10.6105 14.4067 10.6036C14.4349 10.5978 14.4552 10.582 14.4743 10.5752C14.5026 10.5694 14.5228 10.5535 14.542 10.5467C14.5702 10.5409 14.5905 10.525 14.6187 10.5193C14.647 10.5135 14.6672 10.4977 14.6954 10.4919C14.7237 10.4861 14.7439 10.4703 14.7722 10.4645C14.8004 10.4587 14.8207 10.4429 14.8489 10.4371C14.8771 10.4313 14.8974 10.4155 14.9256 10.4097C14.9538 10.404 14.9741 10.3881 15.0023 10.3823C15.0305 10.3766 15.0508 10.3607 15.079 10.355C15.0982 10.3481 15.1083 10.3401 15.1275 10.3333C15.1557 10.3276 15.176 10.3117 15.2042 10.3059C15.2324 10.3002 15.2527 10.2843 15.2809 10.2785C15.3092 10.2728 15.3294 10.2569 15.3576 10.2511C15.3859 10.2453 15.4061 10.2295 15.4344 10.2237C15.4626 10.218 15.4829 10.2021 15.5111 10.1963C15.5393 10.1906 15.5596 10.1747 15.5878 10.1689C15.616 10.1632 15.6453 10.1484 15.6645 10.1416C15.6928 10.1358 15.7221 10.121 15.7413 10.1142C15.7695 10.1084 15.7988 10.0936 15.818 10.0868C15.8462 10.081 15.8755 10.0662 15.8947 10.0594C15.9229 10.0536 15.9522 10.0388 15.9714 10.032C15.9996 10.0262 16.0289 10.0114 16.0481 10.0046C16.0763 9.99882 16.1056 9.98405 16.1339 9.97827C16.153 9.97142 16.1722 9.96458 16.1914 9.95773C16.2196 9.95199 16.249 9.93718 16.2772 9.93144C16.3054 9.92566 16.3347 9.9109 16.363 9.90512C16.3912 9.89934 16.4205 9.88458 16.4487 9.8788C16.477 9.87302 16.5063 9.85825 16.5345 9.85247C16.5627 9.84673 16.592 9.83193 16.6203 9.82619C16.6485 9.82041 16.6778 9.80565 16.706 9.79987C16.7343 9.79409 16.7625 9.78831 16.7918 9.77354C16.82 9.76776 16.8483 9.76202 16.8776 9.74722C16.9058 9.74148 16.934 9.7357 16.9633 9.72094C16.9916 9.71516 17.0198 9.70938 17.0491 9.69461C17.0773 9.68883 17.1056 9.68305 17.1349 9.66829C17.1631 9.66251 17.1913 9.65677 17.2207 9.64197C17.2489 9.63623 17.2771 9.63045 17.3064 9.61568C17.3347 9.6099 17.3629 9.60412 17.3922 9.58936C17.4204 9.58358 17.4487 9.5778 17.478 9.56304C17.5062 9.55726 17.5254 9.55041 17.5536 9.54467C17.5818 9.53889 17.6101 9.53311 17.6394 9.51835C17.6676 9.51257 17.6958 9.50679 17.7342 9.49309C17.7624 9.48735 17.7907 9.48157 17.829 9.46788C17.8573 9.4621 17.8855 9.45632 17.9238 9.44262C17.9521 9.43688 17.9803 9.4311 18.0187 9.41741C18.0469 9.41163 18.0842 9.40696 18.1135 9.39215C18.1417 9.38641 18.179 9.3817 18.2083 9.36694C18.2365 9.36116 18.2738 9.35649 18.3031 9.34168C18.3313 9.33594 18.3686 9.33123 18.3979 9.31647C18.4262 9.31069 18.4635 9.30602 18.4928 9.29121C18.521 9.28547 18.5583 9.28076 18.5876 9.266C18.6158 9.26022 18.6531 9.25555 18.6824 9.24078C18.7106 9.235 18.7479 9.23029 18.7772 9.21553C18.8055 9.20975 18.8428 9.20508 18.871 9.1993C18.8992 9.19352 18.9365 9.18885 18.9647 9.18307C18.993 9.17729 19.0302 9.17262 19.0585 9.16684C19.0867 9.16106 19.115 9.15532 19.1432 9.14954C19.1714 9.14376 19.2087 9.13909 19.2369 9.13331C19.2652 9.12753 19.3025 9.12286 19.3307 9.11708C19.368 9.11241 19.3962 9.10663 19.4244 9.10085C19.4617 9.09618 19.4899 9.0904 19.5182 9.08463C19.5554 9.07995 19.5837 9.07417 19.621 9.06946C19.6582 9.06479 19.6865 9.05901 19.7238 9.05434C19.761 9.04963 19.7893 9.04389 19.8266 9.03918C19.8639 9.03451 19.8921 9.02873 19.9294 9.02402C19.9667 9.01935 19.9949 9.01357 20.0322 9.0089C20.0695 9.00419 20.0977 8.99845 20.135 8.99374C20.1723 8.98907 20.2005 8.98329 20.2378 8.97858C20.2751 8.97391 20.3033 8.96813 20.3406 8.96346C20.3779 8.95875 20.4061 8.95297 20.4434 8.9483C20.4807 8.94363 20.5089 8.93785 20.5462 8.93314C20.5835 8.92847 20.6117 8.92269 20.649 8.91802C20.6863 8.91331 20.7145 8.90753 20.7518 8.90286C20.7891 8.89819 20.8173 8.89241 20.8546 8.88769C20.8919 8.88302 20.9201 8.87724 20.9574 8.87257C20.9947 8.86786 21.0229 8.86208 21.0602 8.85741C21.0975 8.8527 21.1348 8.84803 21.163 8.84225C21.2003 8.83758 21.2376 8.83287 21.2658 8.82713C21.3031 8.82242 21.3404 8.81775 21.3686 8.81197C21.4059 8.80726 21.4432 8.80259 21.4714 8.79681C21.5087 8.79214 21.546 8.78743 21.5742 8.78169C21.6115 8.77698 21.6488 8.77231 21.686 8.7676C21.7233 8.76293 21.7606 8.75822 21.7979 8.75355C21.8352 8.74883 21.8725 8.74416 21.9098 8.73945C21.9471 8.73478 21.9843 8.73007 22.0216 8.7254C22.0589 8.72069 22.0962 8.71602 22.1335 8.71131C22.1707 8.70664 22.208 8.70193 22.2453 8.69726C22.2826 8.69259 22.3199 8.68788 22.3572 8.6832C22.3945 8.67849 22.4317 8.67382 22.469 8.66911C22.5063 8.66444 22.5436 8.65973 22.5809 8.65506C22.6182 8.65035 22.6555 8.64568 22.6927 8.64097C22.73 8.6363 22.7673 8.63159 22.8046 8.62692C22.8419 8.62221 22.8791 8.61754 22.9164 8.61286C22.9537 8.60815 22.991 8.60348 23.0283 8.59877C23.0656 8.5941 23.1029 8.58939 23.1402 8.58472C23.1774 8.58001 23.2147 8.57534 23.252 8.57063C23.2893 8.56596 23.3266 8.56125 23.3638 8.55658C23.4011 8.55187 23.4384 8.54719 23.4757 8.54248C23.513 8.53781 23.5503 8.5331 23.5876 8.52843C23.6249 8.52376 23.6622 8.51905 23.6994 8.51438C23.7367 8.50967 23.774 8.505 23.8113 8.50029C23.8486 8.49562 23.8858 8.49091 23.9231 8.48624C23.9604 8.48152 23.9977 8.47685 24.044 8.47325C24.0813 8.46854 24.1186 8.46387 24.1649 8.46023C24.2022 8.45556 24.2395 8.45085 24.2858 8.44724C24.3231 8.44257 24.3604 8.43786 24.4068 8.43426C24.4441 8.42959 24.4904 8.42595 24.5277 8.42128C24.5649 8.41657 24.6113 8.41297 24.6486 8.40829C24.6859 8.40358 24.7322 8.39998 24.7695 8.39531C24.8068 8.3906 24.8531 8.387 24.8904 8.38233C24.9277 8.37762 24.974 8.37401 25.0113 8.3693C25.0486 8.36463 25.0949 8.36103 25.1322 8.35632C25.1695 8.35165 25.2158 8.34805 25.2531 8.34334C25.2904 8.33867 25.3367 8.33502 25.374 8.33035C25.4113 8.32564 25.4576 8.32204 25.4939 8.32636C25.5311 8.32168 25.5775 8.31808 25.6137 8.3224C25.651 8.31769 25.6973 8.31409 25.7335 8.3184C25.7708 8.31373 25.8171 8.31009 25.8534 8.3144C25.8906 8.30973 25.937 8.30613 25.9732 8.31044C26.0195 8.30684 26.0568 8.30213 26.1021 8.30751C26.1484 8.30391 26.1857 8.29924 26.231 8.30462C26.2773 8.30102 26.3135 8.30534 26.3598 8.30173C26.4061 8.29813 26.4424 8.30245 26.4887 8.29881C26.5351 8.2952 26.5713 8.29952 26.6176 8.29592C26.664 8.29231 26.7001 8.29663 26.7465 8.29303C26.7928 8.28938 26.829 8.29374 26.8754 8.2901C26.9217 8.28649 26.9579 8.29081 27.0043 8.28721C27.0506 8.28361 27.0868 8.28792 27.1331 8.28432C27.1795 8.28068 27.2157 8.28503 27.262 8.28139C27.3084 8.27779 27.3446 8.2821 27.3909 8.2785C27.4373 8.2749 27.4734 8.27921 27.5198 8.27561C27.5662 8.27197 27.6023 8.27628 27.6487 8.27268C27.695 8.26908 27.7312 8.27339 27.7776 8.26979C27.8239 8.26619 27.8601 8.2705 27.9065 8.2669C27.9528 8.26326 27.989 8.26757 28.0353 8.26397C28.0817 8.26037 28.1179 8.26468 28.1642 8.26108C28.2106 8.25748 28.2468 8.26179 28.2931 8.25815C28.3395 8.25455 28.3847 8.25997 28.422 8.25526C28.4684 8.25166 28.5136 8.25704 28.5509 8.25237C28.5972 8.24877 28.6425 8.25415 28.6798 8.24944C28.7261 8.24584 28.7714 8.25127 28.8087 8.24655C28.855 8.24295 28.9003 8.24834 28.9375 8.24367C28.9839 8.24006 29.0291 8.24545 29.0664 8.24074C29.1128 8.23713 29.158 8.24256 29.2044 8.23891C29.2507 8.23531 29.296 8.2407 29.3423 8.23709C29.3876 8.24252 29.4339 8.23888 29.4802 8.23527C29.5255 8.24066 29.5718 8.23705 29.6182 8.23345C29.6634 8.23884 29.7098 8.23523 29.7561 8.23163C29.8014 8.23702 29.8477 8.23341 29.894 8.22981C29.9393 8.23519 29.9856 8.23159 30.032 8.22799C30.0773 8.23337 30.1236 8.22977 30.1699 8.22617C30.2152 8.23155 30.2615 8.22795 30.3079 8.22435C30.3531 8.22973 30.3995 8.22613 30.4458 8.22253C30.4911 8.22791 30.5374 8.22431 30.5838 8.22067C30.629 8.22609 30.6754 8.22249 30.7217 8.21885C30.767 8.22427 30.8133 8.22063 30.8596 8.21702C30.9049 8.22245 30.9512 8.21881 30.9976 8.2152C31.0428 8.22063 31.0892 8.21699 31.1355 8.21338C31.1808 8.21877 31.2271 8.21516 31.2734 8.21156C31.3187 8.21695 31.365 8.21334 31.4114 8.20974C31.4567 8.21512 31.503 8.21152 31.5493 8.20792C31.5946 8.2133 31.6409 8.2097 31.6873 8.2061C31.7325 8.21148 31.7789 8.20788 31.8252 8.20428C31.8705 8.20966 31.9168 8.20606 31.9631 8.20246C32.0084 8.20784 32.0547 8.20424 32.1 8.20962C32.1453 8.21501 32.1916 8.2114 32.2459 8.2179C32.2912 8.22328 32.3375 8.21968 32.3918 8.22613C32.4371 8.23155 32.4834 8.22795 32.5377 8.2344C32.583 8.23979 32.6384 8.23729 32.6837 8.24268C32.7289 8.24806 32.7843 8.24553 32.8296 8.25095C32.8748 8.25633 32.9303 8.2538 32.9755 8.25918C33.0208 8.26461 33.0762 8.26207 33.1214 8.26746C33.1667 8.27284 33.2221 8.27031 33.2673 8.27573C33.3126 8.28111 33.368 8.27858 33.4133 8.28396C33.4585 8.28938 33.5139 8.28685 33.5592 8.29223C33.6044 8.29766 33.6598 8.29512 33.7051 8.30051C33.7504 8.30589 33.8057 8.30336 33.851 8.30878C33.9053 8.31523 33.9517 8.31163 33.9969 8.31701C34.0512 8.32351 34.0976 8.3199 34.1428 8.32529C34.1972 8.33178 34.2435 8.32814 34.2888 8.33356C34.3431 8.34001 34.3894 8.33641 34.4437 8.3429C34.4981 8.34935 34.5444 8.34575 34.5987 8.35224C34.653 8.3587 34.6993 8.35509 34.7537 8.36159C34.7718 8.36372 34.7989 8.36697 34.817 8.36915L35.2769 3.66475ZM14.6212 21.8193C14.6595 21.8056 14.6979 21.7919 14.7373 21.7692C14.7757 21.7555 14.814 21.7418 14.8433 21.727C14.8817 21.7133 14.911 21.6986 14.9494 21.6849C14.9877 21.6711 15.017 21.6564 15.0554 21.6427C15.0937 21.629 15.1231 21.6142 15.1614 21.6005C15.1998 21.5868 15.2291 21.572 15.2674 21.5583C15.3058 21.5447 15.3351 21.5298 15.3735 21.5161C15.4118 21.5025 15.4411 21.4877 15.4694 21.4819C15.5077 21.4682 15.537 21.4534 15.5743 21.4488C15.6127 21.4351 15.6409 21.4293 15.6702 21.4145C15.6995 21.3997 15.7368 21.3951 15.7661 21.3803C15.7954 21.3655 15.8327 21.3608 15.862 21.346C15.8913 21.3313 15.9286 21.3266 15.9579 21.3118C15.9872 21.297 16.0245 21.2923 16.0538 21.2775C16.082 21.2718 16.1204 21.2581 16.1497 21.2433C16.1779 21.2376 16.2163 21.2239 16.2456 21.2091C16.2738 21.2033 16.3031 21.1885 16.3313 21.1828C16.3596 21.177 16.3889 21.1622 16.4262 21.1575C16.4544 21.1517 16.4837 21.137 16.521 21.1323C16.5492 21.1265 16.5785 21.1118 16.6158 21.107C16.644 21.1013 16.6733 21.0865 16.7016 21.0807C16.7298 21.075 16.7591 21.0602 16.7873 21.0544C16.8156 21.0487 16.8438 21.0429 16.8731 21.0281C16.9013 21.0223 16.9296 21.0166 16.9589 21.0018C16.9871 20.996 17.0063 20.9892 17.0345 20.9834C17.0628 20.9776 17.091 20.9719 17.1203 20.9571C17.1485 20.9513 17.1768 20.9456 17.205 20.9398C17.2333 20.934 17.2615 20.9283 17.2897 20.9225C17.3179 20.9167 17.3461 20.9109 17.3744 20.9052C17.4026 20.8994 17.4309 20.8937 17.4591 20.8879C17.4873 20.8821 17.5156 20.8764 17.5438 20.8706C17.572 20.8648 17.6002 20.859 17.6285 20.8533C17.6477 20.8464 17.6658 20.8486 17.6849 20.8417C17.7132 20.8359 17.7414 20.8302 17.7697 20.8244C17.7979 20.8186 17.8261 20.8129 17.8453 20.8061C17.8735 20.8003 17.9017 20.7945 17.9209 20.7876C17.9492 20.7819 17.9774 20.7761 17.9966 20.7693C18.0248 20.7635 18.053 20.7577 18.0711 20.7599C18.0994 20.7541 18.1276 20.7483 18.1457 20.7505C18.1638 20.7527 18.1739 20.7447 18.1921 20.7469C18.2203 20.7411 18.2384 20.7433 18.2666 20.7375C18.2949 20.7318 18.3129 20.7339 18.3412 20.7282C18.3694 20.7224 18.3875 20.7245 18.4157 20.7188C18.444 20.713 18.4621 20.7151 18.4903 20.7094C18.5185 20.7036 18.5367 20.7057 18.5649 20.7C18.5931 20.6942 18.6112 20.6964 18.6395 20.6906C18.6485 20.6917 18.6677 20.6848 18.6768 20.6859C18.705 20.6802 18.7231 20.6823 18.7513 20.6765C18.7796 20.6708 18.7976 20.6729 18.8259 20.6672C18.8531 20.6704 18.8722 20.6636 18.9004 20.6578C18.9276 20.661 18.9468 20.6542 18.975 20.6484C18.9931 20.6506 19.0214 20.6448 19.0395 20.647C19.0576 20.6491 19.0858 20.6434 19.1039 20.6455C19.113 20.6466 19.122 20.6477 19.1321 20.6397C19.1503 20.6419 19.1785 20.6361 19.1966 20.6383C19.2147 20.6404 19.2429 20.6347 19.261 20.6368C19.2791 20.639 19.3074 20.6332 19.3255 20.6354C19.3436 20.6375 19.3718 20.6318 19.3899 20.6339C19.408 20.6361 19.4363 20.6303 19.4543 20.6325C19.4725 20.6347 19.5007 20.6289 19.5188 20.631C19.5369 20.6332 19.5651 20.6274 19.5832 20.6296C19.5923 20.6307 19.5923 20.6307 19.6014 20.6317C19.6194 20.6339 19.6477 20.6281 19.6658 20.6303C19.6839 20.6324 19.711 20.6357 19.7302 20.6288C19.7483 20.631 19.7755 20.6342 19.7947 20.6274C19.8128 20.6295 19.8309 20.6317 19.8591 20.6259C19.8772 20.6281 19.8953 20.6303 19.9236 20.6245C19.9417 20.6266 19.9598 20.6288 19.988 20.623C20.0061 20.6252 20.0242 20.6273 20.0514 20.6306C20.0514 20.6306 20.0514 20.6306 20.0604 20.6316C20.0785 20.6338 20.0966 20.636 20.1148 20.6381C20.1329 20.6403 20.1509 20.6425 20.1691 20.6446C20.1872 20.6468 20.2053 20.6489 20.2234 20.6511C20.2415 20.6533 20.2596 20.6554 20.2777 20.6576C20.2958 20.6597 20.3139 20.6619 20.332 20.664C20.3501 20.6662 20.3682 20.6683 20.3863 20.6705C20.4044 20.6727 20.4225 20.6748 20.4407 20.677C20.4407 20.677 20.4407 20.677 20.4497 20.6781C20.4678 20.6802 20.4859 20.6824 20.495 20.6835C20.504 20.6845 20.504 20.6845 20.5131 20.6856C20.5312 20.6878 20.5402 20.6888 20.5583 20.691C20.5674 20.6921 20.5764 20.6932 20.5764 20.6932C20.5855 20.6943 20.5945 20.6953 20.6126 20.6975C20.6217 20.6986 20.6307 20.6997 20.6398 20.7007C20.6489 20.7018 20.6579 20.7029 20.667 20.704C20.676 20.705 20.685 20.7061 20.7032 20.7083C20.7122 20.7093 20.7122 20.7093 20.7213 20.7105C20.7303 20.7115 20.7484 20.7137 20.7575 20.7148L20.7665 20.7158C20.7846 20.718 20.7937 20.7191 20.8118 20.7212L20.8209 20.7223C20.8389 20.7245 20.848 20.7255 20.8661 20.7277C20.8842 20.7299 20.9023 20.732 20.9205 20.7342C20.9385 20.7363 20.9566 20.7385 20.9748 20.7407C20.9929 20.7428 21.011 20.745 21.0291 20.7472C21.0472 20.7493 21.0653 20.7515 21.0834 20.7536C21.1015 20.7558 21.1196 20.7579 21.1377 20.7601C21.1558 20.7622 21.1739 20.7644 21.192 20.7666C21.2101 20.7687 21.2282 20.7709 21.2463 20.773C21.2644 20.7752 21.2825 20.7774 21.3007 20.7795C21.3187 20.7817 21.3369 20.7838 21.3459 20.7849C21.355 20.786 21.3731 20.7882 21.3821 20.7892L21.3912 20.7903L21.4002 20.7914C21.4093 20.7925 21.4183 20.7935 21.4263 20.8036L21.4354 20.8047L21.4444 20.8058C21.4535 20.8069 21.4614 20.817 21.4705 20.818C21.4705 20.818 21.4705 20.818 21.4795 20.8191C21.4795 20.8191 21.4795 20.8191 21.4886 20.8202C21.4977 20.8213 21.5056 20.8313 21.5147 20.8325C21.5238 20.8335 21.5317 20.8436 21.5397 20.8537C21.5477 20.8638 21.5567 20.8649 21.5557 20.8739C21.5637 20.884 21.5637 20.884 21.5716 20.894C21.5796 20.9041 21.5785 20.9131 21.5876 20.9142C21.5956 20.9243 21.5945 20.9333 21.6024 20.9434C21.6104 20.9535 21.6094 20.9625 21.6173 20.9726C21.6163 20.9816 21.6243 20.9917 21.6232 21.0007C21.6221 21.0097 21.6301 21.0198 21.629 21.0288C21.6279 21.0378 21.6359 21.0479 21.6348 21.0569C21.6338 21.0659 21.6327 21.0749 21.6407 21.085C21.6396 21.094 21.6385 21.103 21.6374 21.112C21.6364 21.121 21.6353 21.13 21.6342 21.139C21.6332 21.148 21.6321 21.157 21.631 21.166C21.631 21.166 21.631 21.166 21.6299 21.175C21.6288 21.184 21.6187 21.192 21.6176 21.201L21.6166 21.21L21.6155 21.219C21.6144 21.228 21.6043 21.2359 21.6032 21.2449L21.6022 21.2539C21.6022 21.2539 21.6011 21.2629 21.592 21.2619C21.591 21.2709 21.5808 21.2788 21.5808 21.2788C21.5798 21.2878 21.5707 21.2867 21.5696 21.2957C21.5686 21.3047 21.5595 21.3037 21.5584 21.3126C21.5483 21.3206 21.5472 21.3296 21.5371 21.3375C21.527 21.3455 21.5259 21.3545 21.5158 21.3624C21.5057 21.3703 21.4955 21.3782 21.4854 21.3862C21.4753 21.3941 21.4652 21.402 21.454 21.419C21.4438 21.4269 21.4337 21.4348 21.4225 21.4517L21.4124 21.4597C21.4022 21.4676 21.391 21.4845 21.3719 21.4914C21.3617 21.4993 21.3426 21.5062 21.3314 21.5231L21.3212 21.531C21.3111 21.5389 21.2908 21.5548 21.2807 21.5627C21.2706 21.5707 21.2706 21.5707 21.2605 21.5786C21.2413 21.5854 21.2301 21.6024 21.2109 21.6092C21.1917 21.6161 21.1805 21.633 21.1614 21.6398C21.1512 21.6478 21.1422 21.6467 21.132 21.6546C21.1129 21.6615 21.1017 21.6784 21.0825 21.6853C21.0633 21.6921 21.043 21.708 21.0329 21.7159C21.0228 21.7238 21.0036 21.7307 20.9935 21.7386C20.9743 21.7454 20.9541 21.7613 20.9349 21.7681C20.9157 21.775 20.8954 21.7909 20.8763 21.7977C20.8571 21.8046 20.847 21.8125 20.8278 21.8193C20.8086 21.8262 20.7884 21.842 20.7601 21.8478C20.7409 21.8546 20.7116 21.8694 20.6924 21.8762C20.6733 21.8831 20.644 21.8979 20.6248 21.9047C20.6056 21.9116 20.5854 21.9274 20.5572 21.9332C20.5289 21.939 20.5087 21.9548 20.4804 21.9606C20.4522 21.9664 20.4319 21.9822 20.4037 21.988C20.3755 21.9938 20.3552 22.0096 20.327 22.0154C20.2987 22.0212 20.2695 22.0359 20.2503 22.0428C20.222 22.0486 20.1927 22.0633 20.1645 22.0691C20.1363 22.0749 20.107 22.0896 20.0787 22.0954C20.0505 22.1012 20.0121 22.1149 19.9839 22.1206C19.9557 22.1264 19.9264 22.1412 19.8891 22.1458C19.8608 22.1516 19.8315 22.1664 19.8033 22.1722C19.7751 22.178 19.7559 22.1848 19.7277 22.1906C19.7186 22.1895 19.7085 22.1974 19.6994 22.1963C19.6803 22.2032 19.6611 22.21 19.6328 22.2158C19.6137 22.2226 19.5945 22.2295 19.5662 22.2353C19.5471 22.2421 19.5188 22.2479 19.5007 22.2457C19.4816 22.2526 19.4533 22.2583 19.4352 22.2562C19.4262 22.2551 19.416 22.263 19.407 22.2619C19.3878 22.2688 19.3596 22.2746 19.3415 22.2724C19.3223 22.2792 19.2951 22.276 19.2759 22.2829C19.2568 22.2897 19.2296 22.2865 19.2104 22.2933C19.1913 22.3002 19.1641 22.2969 19.1449 22.3038C19.1359 22.3027 19.1258 22.3106 19.1076 22.3085C19.0885 22.3153 19.0613 22.3121 19.0421 22.319C19.023 22.3258 18.9958 22.3226 18.9766 22.3294C18.9574 22.3363 18.9303 22.333 18.9111 22.3399C18.8919 22.3467 18.8647 22.3435 18.8456 22.3503C18.8365 22.3492 18.8174 22.3561 18.8083 22.355C18.7801 22.3608 18.7619 22.3586 18.7337 22.3644C18.7066 22.3611 18.6874 22.368 18.6591 22.3738C18.632 22.3705 18.6128 22.3774 18.5846 22.3832C18.5574 22.3799 18.5383 22.3868 18.5111 22.3835C18.502 22.3824 18.4839 22.3803 18.4738 22.3882C18.4467 22.385 18.4275 22.3918 18.4003 22.3886C18.3731 22.3853 18.354 22.3922 18.3268 22.3889C18.2996 22.3857 18.2805 22.3925 18.2533 22.3893C18.2262 22.3861 18.207 22.3929 18.1798 22.3897C18.1527 22.3864 18.1335 22.3933 18.1063 22.3901C18.0882 22.3879 18.0792 22.3868 18.06 22.3937C18.0328 22.3904 18.0136 22.3973 17.9865 22.394C17.9593 22.3908 17.9401 22.3976 17.913 22.3944C17.8858 22.3912 17.8677 22.389 17.8395 22.3948C17.8123 22.3915 17.7942 22.3894 17.766 22.3951C17.7389 22.3919 17.7207 22.3898 17.6925 22.3955C17.6744 22.3934 17.6653 22.3923 17.6473 22.3901C17.6201 22.3869 17.5929 22.3837 17.5738 22.3905C17.5466 22.3873 17.5194 22.384 17.5013 22.3819C17.4742 22.3786 17.447 22.3754 17.4289 22.3733C17.4018 22.37 17.3746 22.3668 17.3565 22.3646C17.3293 22.3614 17.3022 22.3581 17.2841 22.356C17.2659 22.3538 17.2569 22.3528 17.2388 22.3506C17.2388 22.3506 17.2388 22.3506 17.2297 22.3495C17.2026 22.3463 17.1845 22.3441 17.1573 22.3409C17.1483 22.3398 17.1483 22.3398 17.1392 22.3387C17.1211 22.3366 17.103 22.3344 17.0849 22.3323C17.0759 22.3311 17.0668 22.3301 17.0487 22.3279C17.0306 22.3258 17.0215 22.3247 17.0034 22.3225C16.9853 22.3204 16.9763 22.3193 16.9582 22.3171C16.9491 22.3161 16.9401 22.315 16.931 22.3139C16.9129 22.3117 16.8948 22.3096 16.8677 22.3063C16.8586 22.3053 16.8586 22.3053 16.8495 22.3042C16.8224 22.3009 16.8043 22.2988 16.7771 22.2956C16.759 22.2934 16.7409 22.2912 16.7318 22.2901C16.7047 22.2869 16.6775 22.2837 16.6504 22.2804C16.6232 22.2772 16.5961 22.2739 16.5689 22.2707C16.5417 22.2675 16.5146 22.2642 16.4874 22.261C16.4603 22.2578 16.4331 22.2545 16.407 22.2423C16.3799 22.239 16.3527 22.2358 16.3266 22.2236C16.2995 22.2203 16.2734 22.2081 16.2462 22.2048C16.2281 22.2027 16.21 22.2005 16.1919 22.1984C16.1648 22.1951 16.1387 22.1829 16.1115 22.1797C16.0843 22.1764 16.0582 22.1642 16.0311 22.1609C16.0039 22.1577 15.9778 22.1455 15.9507 22.1422C15.9235 22.139 15.8975 22.1267 15.8703 22.1235C15.8431 22.1202 15.8171 22.108 15.7899 22.1048C15.7627 22.1015 15.7367 22.0893 15.7095 22.086C15.6914 22.0839 15.6744 22.0727 15.6563 22.0706C15.6291 22.0673 15.603 22.0551 15.5759 22.0518C15.5487 22.0486 15.5226 22.0364 15.4954 22.0331C15.4683 22.0299 15.4422 22.0176 15.415 22.0144C15.389 22.0022 15.3618 21.9989 15.3346 21.9957C15.3086 21.9834 15.2814 21.9802 15.2543 21.9769C15.2282 21.9647 15.201 21.9615 15.1749 21.9492C15.1568 21.9471 15.1398 21.9359 15.1217 21.9338C15.0956 21.9215 15.0684 21.9183 15.0424 21.906C15.0163 21.8938 14.9891 21.8905 14.963 21.8783C14.9369 21.866 14.9098 21.8628 14.8837 21.8506C14.8576 21.8383 14.8305 21.8351 14.8044 21.8228C14.7783 21.8106 14.7511 21.8074 14.7251 21.7951C14.699 21.7829 14.6718 21.7796 14.6457 21.7674C14.6287 21.7562 14.6106 21.754 14.5925 21.7519C14.5834 21.7508 14.5834 21.7508 14.5744 21.7497C14.6121 21.8182 14.6212 21.8193 14.6212 21.8193Z" fill="white"/>
</g>
<defs>
<clipPath id="clip0_2596_3370">
<rect width="35.388" height="41.4839" fill="white"/>
</clipPath>
</defs>
</svg>
