<svg width="52" height="52" viewBox="0 0 52 52" fill="none" xmlns="http://www.w3.org/2000/svg">
<path d="M25.7679 43.1736C16.7859 43.1736 8.93763 39.5589 4.79297 34.2109C8.23067 42.3299 16.3385 48.0469 25.7679 48.0469C35.1989 48.0469 43.3051 42.3299 46.7444 34.2109C42.5981 39.5573 34.7482 43.1736 25.7679 43.1736Z" fill="white"/>
<path d="M4.79297 16.8414C8.93923 11.4935 16.7875 7.87874 25.7679 7.87874C34.7482 7.87874 42.5981 11.4935 46.7444 16.8414C43.3067 8.7225 35.1989 3.00391 25.7679 3.00391C16.3369 3.00391 8.23067 8.7225 4.79297 16.8414Z" fill="white"/>
<path d="M49.851 25.5264C49.851 12.3749 39.0491 1.67578 25.7712 1.67578C12.4933 1.67578 1.69141 12.3749 1.69141 25.5264C1.69141 38.6779 12.4933 49.3754 25.7712 49.3754C39.0491 49.3754 49.851 38.6763 49.851 25.5264ZM4.79632 34.2099C8.94258 39.5547 16.7909 43.171 25.7728 43.171C34.7532 43.171 42.603 39.5547 46.7477 34.2099C43.31 42.3273 35.2022 48.0459 25.7728 48.0459C16.3418 48.0459 8.23561 42.3273 4.79632 34.2099ZM46.7477 16.8428C42.6015 11.4964 34.7532 7.88012 25.7728 7.88012C16.7909 7.88012 8.94258 11.4964 4.79632 16.8428C8.23402 8.72387 16.3418 3.00528 25.7728 3.00528C35.2038 3.00528 43.31 8.72387 46.7477 16.8428ZM48.4753 24.6653H38.0492V26.02H48.4896C48.125 34.7745 38.0778 41.8195 25.7712 41.8195C13.4662 41.8195 3.42061 34.7777 3.05279 26.0232H10.7737V24.6684H3.06712C3.69288 16.0827 13.6366 9.23485 25.7728 9.23485C37.9059 9.23485 47.8496 16.0811 48.4769 24.6653" fill="white"/>
<path d="M15.3533 24.5478V34.5609H11.957V16.0078H15.8581L18.1653 26.0729V16.0078H21.6683V34.5609H17.608L15.3533 24.5478Z" fill="white"/>
<path d="M31.8025 31.1449C31.8025 33.6162 30.7675 34.5625 28.5925 34.5625H23.0195V16.0078H28.5925C30.7675 16.0078 31.8025 16.9541 31.8025 19.4238V21.5277C31.8025 23.682 31.1656 24.6283 29.707 24.8917C31.1671 25.1282 31.8025 26.1013 31.8025 28.2288V31.1465V31.1449ZM28.0097 19.4238C28.0097 18.9775 27.7183 18.7409 27.4253 18.7409H26.7884V23.5243H27.3983C27.6896 23.5243 28.0097 23.2877 28.0097 22.8666V19.4238ZM28.0097 26.9655C28.0097 26.5445 27.6912 26.3079 27.3983 26.3079H26.7884V31.8278H27.4253C27.7167 31.8278 28.0097 31.5912 28.0097 31.1433V26.9655Z" fill="white"/>
<path d="M33.082 16.0078H36.8493V31.6701H39.5833V34.5609H33.082V16.0078Z" fill="white"/>
</svg>
