<svg width="89" height="25" viewBox="0 0 89 25" fill="none" xmlns="http://www.w3.org/2000/svg">
<path d="M26.1021 0H0.593233C0.435896 0 0.285007 0.0584823 0.173753 0.162582C0.0625005 0.266681 0 0.407872 0 0.555092V24.4239C0 24.5712 0.0625005 24.7125 0.173753 24.8166C0.285007 24.9206 0.435896 24.979 0.593233 24.979H26.1021C26.2596 24.979 26.4104 24.9206 26.5218 24.8166C26.6329 24.7125 26.6955 24.5712 26.6955 24.4239V0.555092C26.6955 0.407872 26.6329 0.266681 26.5218 0.162582C26.4104 0.0584823 26.2596 0 26.1021 0ZM17.797 16.0977C17.797 16.2449 17.7345 16.386 17.6232 16.4902C17.512 16.5942 17.3611 16.6527 17.2037 16.6527H9.4917C9.33438 16.6527 9.18349 16.5942 9.07223 16.4902C8.96098 16.386 8.89847 16.2449 8.89847 16.0977V8.88146C8.89847 8.73424 8.96098 8.59305 9.07223 8.48896C9.18349 8.38485 9.33438 8.32637 9.4917 8.32637H17.2037C17.3611 8.32637 17.512 8.38485 17.6232 8.48896C17.7345 8.59305 17.797 8.73424 17.797 8.88146V16.0977Z" fill="white"/>
<path d="M79.5046 8.32422H71.7924C71.465 8.32422 71.1992 8.57273 71.1992 8.87931V16.0955C71.1992 16.4021 71.465 16.6506 71.7924 16.6506H79.5046C79.8322 16.6506 80.0978 16.4021 80.0978 16.0955V8.87931C80.0978 8.57273 79.8322 8.32422 79.5046 8.32422Z" fill="white"/>
<path d="M70.6059 0H62.894C62.5663 0 62.3008 0.248524 62.3008 0.555091V7.77128C62.3008 8.07784 62.5663 8.32638 62.894 8.32638H70.6059C70.9336 8.32638 71.1993 8.07784 71.1993 7.77128V0.555091C71.1993 0.248524 70.9336 0 70.6059 0Z" fill="white"/>
<path d="M88.4069 0H80.6948C80.3673 0 80.1016 0.248524 80.1016 0.555091V7.77128C80.1016 8.07784 80.3673 8.32638 80.6948 8.32638H88.4069C88.7346 8.32638 89.0001 8.07784 89.0001 7.77128V0.555091C89.0001 0.248524 88.7346 0 88.4069 0Z" fill="white"/>
<path d="M70.6059 16.6523H62.894C62.5663 16.6523 62.3008 16.9009 62.3008 17.2074V24.4237C62.3008 24.7302 62.5663 24.9788 62.894 24.9788H70.6059C70.9336 24.9788 71.1993 24.7302 71.1993 24.4237V17.2074C71.1993 16.9009 70.9336 16.6523 70.6059 16.6523Z" fill="white"/>
<path d="M88.4069 16.6523H80.6948C80.3673 16.6523 80.1016 16.9009 80.1016 17.2074V24.4237C80.1016 24.7302 80.3673 24.9788 80.6948 24.9788H88.4069C88.7346 24.9788 89.0001 24.7302 89.0001 24.4237V17.2074C89.0001 16.9009 88.7346 16.6523 88.4069 16.6523Z" fill="white"/>
<path d="M57.2507 0H49.5387C49.2111 0 48.9453 0.248524 48.9453 0.555091V7.77128C48.9453 8.07784 49.2111 8.32638 49.5387 8.32638H57.2507C57.5783 8.32638 57.8439 8.07784 57.8439 7.77128V0.555091C57.8439 0.248524 57.5783 0 57.2507 0Z" fill="white"/>
<path d="M57.2507 16.6523H49.5387C49.2111 16.6523 48.9453 16.9009 48.9453 17.2074V24.4237C48.9453 24.7302 49.2111 24.9788 49.5387 24.9788H57.2507C57.5783 24.9788 57.8439 24.7302 57.8439 24.4237V17.2074C57.8439 16.9009 57.5783 16.6523 57.2507 16.6523Z" fill="white"/>
<path d="M48.9416 8.87522C48.9416 8.728 48.879 8.58681 48.7679 8.48272C48.6567 8.37861 48.5057 8.32012 48.3484 8.32012H40.0431V0.555092C40.0431 0.407872 39.9805 0.266681 39.8693 0.162582C39.7581 0.0584823 39.6072 0 39.4499 0H31.738C31.5805 0 31.4297 0.0584823 31.3183 0.162582C31.2071 0.266681 31.1445 0.407872 31.1445 0.555092V24.4115C31.1445 24.5588 31.2071 24.6999 31.3183 24.804C31.4297 24.9082 31.5805 24.9666 31.738 24.9666H39.4499C39.6072 24.9666 39.7581 24.9082 39.8693 24.804C39.9805 24.6999 40.0431 24.5588 40.0431 24.4115V16.6465H48.3484C48.5057 16.6465 48.6567 16.588 48.7679 16.4839C48.879 16.3798 48.9416 16.2386 48.9416 16.0914V8.87522Z" fill="white"/>
</svg>
