<svg width="87" height="42" viewBox="0 0 87 42" fill="none" xmlns="http://www.w3.org/2000/svg">
<path d="M13.2026 7.11581C11.5015 6.8328 9.76363 6.85493 8.07031 7.18115C5.44134 7.76123 3.96249 9.6372 3.45881 13.3178L3.29394 14.4588C2.75809 17.9665 3.76444 20.2958 5.66252 23.5873L7.08709 26.0966C8.74992 29.0162 9.30487 30.2658 8.85046 33.1712C8.70669 34.2138 8.51568 35.2503 8.15275 35.9389C7.78982 36.6286 7.4088 36.9141 6.72416 36.9644C5.72485 37.0388 4.98693 36.4114 5.19001 34.8431L6.10286 28.1827L1.08319 28.2722L0.101977 35.3297C-0.395667 38.7529 0.946464 40.9988 3.72523 41.7197C4.6793 41.966 7.14841 42.1117 9.0837 41.5548C11.8222 40.7706 13.477 38.401 14.038 34.1726L14.1989 32.9722C14.7217 28.6371 13.5263 26.6808 11.3819 22.391L10.0006 19.7469C8.63129 17.0988 8.23418 16.186 8.43223 14.3422L8.55589 13.4665C8.69765 12.7528 9.0284 11.5695 10.1785 11.5494C10.9757 11.5353 11.6161 12.1697 11.4111 13.6033L10.7566 18.265L15.6878 18.1695L16.4639 12.5849C16.8952 9.48137 15.7672 7.59033 13.2026 7.11581ZM35.123 6.82727L19.3392 7.10374L18.6545 12.1244L24.0643 12.0309L19.9122 41.3366L24.9731 41.2492L29.1091 11.9485L34.4263 11.858L35.122 6.82727H35.123ZM29.466 41.1697L34.1127 41.0893L35.3593 35.8666L39.2972 35.7972L39.1283 41.0008L43.959 40.9164L44.4154 6.66541L38.3894 6.77097L29.466 41.1697ZM65.0933 6.30349L59.9861 6.39397L54.3693 19.6092L56.2111 6.45831L51.1502 6.54678L46.3185 40.8752L51.3804 40.7887L53.4705 26.0212L55.5677 40.7153L60.7653 40.6248L58.1484 22.4885L65.0923 6.30248L65.0933 6.30349ZM62.8614 40.5876L74.5947 40.3825L75.3317 35.1678L68.6592 35.2845L70.0516 25.3648L75.0723 25.2773L75.8092 20.0636L70.7885 20.1501L72.0532 11.1543L78.4422 11.0427L79.1389 6.05919L67.681 6.26026L62.8614 40.5876ZM82.9059 15.2731L85.9913 15.2209L86.5362 0L82.9059 15.2731Z" fill="white"/>
</svg>
